<svg width="797" height="187" viewBox="0 0 797 187" fill="none" xmlns="http://www.w3.org/2000/svg">
<g filter="url(#filter0_d)">
<path d="M8 9.00001C8 6.79087 9.79086 5 12 5H785C787.209 5 789 6.79086 789 9V172C789 174.209 787.209 176 785 176H12C9.79087 176 8 174.209 8 172V9.00001Z" fill="#FF0000"/>
<rect x="8" y="5" width="781" height="40" fill="#1D2A3D"/>
<circle cx="28" cy="25" r="6" fill="#FF4A4A"/>
<circle cx="48" cy="25" r="6" fill="#FFB83D"/>
<circle cx="68" cy="25" r="6" fill="#00C543"/>
<rect x="8" y="44" width="781" height="1" fill="#122D42"/>
<g clip-path="url(#clip0)">
<rect width="781" height="131" transform="translate(8 45)" fill="#25354D"/>
</g>
<path d="M12 6H785V4H12V6ZM788 9V172H790V9H788ZM785 175H12V177H785V175ZM9 172V9.00001H7V172H9ZM12 175C10.3432 175 9 173.657 9 172H7C7 174.761 9.23859 177 12 177V175ZM788 172C788 173.657 786.657 175 785 175V177C787.761 177 790 174.761 790 172H788ZM785 6C786.657 6 788 7.34315 788 9H790C790 6.23857 787.761 4 785 4V6ZM12 4C9.23857 4 7 6.23858 7 9.00001H9C9 7.34315 10.3431 6 12 6V4Z" fill="#192535"/>
</g>
<path d="M45.272 79.408C45.672 79.408 46.0133 79.488 46.296 79.648C46.5787 79.808 46.832 79.9947 47.056 80.208C47.28 80.4213 47.496 80.608 47.704 80.768C47.912 80.928 48.1387 81.008 48.384 81.008C48.704 81.008 48.984 80.888 49.224 80.648C49.4693 80.4027 49.696 80.0853 49.904 79.696L51.04 80.24C50.8587 80.6187 50.6453 80.976 50.4 81.312C50.16 81.648 49.872 81.9227 49.536 82.136C49.2053 82.3493 48.8027 82.456 48.328 82.456C47.9493 82.456 47.6187 82.376 47.336 82.216C47.0587 82.056 46.8053 81.8693 46.576 81.656C46.352 81.4427 46.1307 81.256 45.912 81.096C45.6987 80.936 45.4667 80.856 45.216 80.856C44.8853 80.856 44.6 80.9813 44.36 81.232C44.1253 81.4773 43.904 81.792 43.696 82.176L42.56 81.64C42.7467 81.272 42.9573 80.92 43.192 80.584C43.432 80.2427 43.72 79.9627 44.056 79.744C44.392 79.52 44.7973 79.408 45.272 79.408ZM52.5138 87.704L51.0898 87.064L57.8898 73.008L59.2978 73.672L52.5138 87.704ZM92.7928 77.552L89.8168 86H87.7208L84.7448 77.552H86.6648L88.8088 84.512L90.9608 77.552H92.7928ZM100.842 85.552C100.533 85.7493 100.162 85.9093 99.7305 86.032C99.2985 86.1547 98.8478 86.216 98.3785 86.216C97.3972 86.216 96.6505 85.9627 96.1385 85.456C95.6318 84.944 95.3785 84.272 95.3785 83.44V78.856H93.4985V77.552H95.3785V75.664L97.1705 75.448V77.552H100.018L99.8185 78.856H97.1705V83.424C97.1705 83.8773 97.2825 84.216 97.5065 84.44C97.7358 84.6587 98.1092 84.768 98.6265 84.768C98.9358 84.768 99.2212 84.7307 99.4825 84.656C99.7438 84.5813 99.9812 84.4853 100.194 84.368L100.842 85.552ZM103.668 82.352C103.706 82.928 103.828 83.4 104.036 83.768C104.244 84.1307 104.516 84.3973 104.852 84.568C105.194 84.7387 105.567 84.824 105.972 84.824C106.388 84.824 106.772 84.76 107.124 84.632C107.476 84.504 107.831 84.3227 108.188 84.088L108.964 85.16C108.57 85.48 108.108 85.736 107.58 85.928C107.052 86.12 106.487 86.216 105.884 86.216C105.01 86.216 104.268 86.0293 103.66 85.656C103.058 85.2827 102.599 84.7627 102.284 84.096C101.97 83.4293 101.812 82.6587 101.812 81.784C101.812 80.936 101.967 80.1787 102.276 79.512C102.586 78.84 103.028 78.3093 103.604 77.92C104.18 77.5253 104.868 77.328 105.668 77.328C106.42 77.328 107.066 77.4987 107.604 77.84C108.148 78.1813 108.567 78.6667 108.86 79.296C109.159 79.92 109.308 80.672 109.308 81.552C109.308 81.696 109.303 81.84 109.292 81.984C109.287 82.1227 109.279 82.2453 109.268 82.352H103.668ZM105.684 78.656C105.124 78.656 104.66 78.856 104.292 79.256C103.93 79.656 103.719 80.28 103.66 81.128H107.572C107.556 80.3333 107.386 79.7227 107.06 79.296C106.74 78.8693 106.282 78.656 105.684 78.656ZM111.822 86H109.838L112.87 81.544L110.174 77.552H112.238L113.966 80.528L115.694 77.552H117.662L115.022 81.472L118.062 86H115.958L113.886 82.552L111.822 86Z" fill="#FFB100"/>
<path d="M72.7332 72.384V74.776C73.3786 74.8347 73.9546 74.984 74.4612 75.224C74.9679 75.4587 75.3972 75.7333 75.7493 76.048L74.7733 77.064C74.4746 76.7973 74.1519 76.5867 73.8053 76.432C73.4639 76.272 73.1066 76.1733 72.7332 76.136V79.456C73.3359 79.6587 73.8746 79.9013 74.3492 80.184C74.8293 80.4667 75.2079 80.8267 75.4853 81.264C75.7679 81.696 75.9093 82.2347 75.9093 82.88C75.9093 83.4187 75.7893 83.92 75.5492 84.384C75.3092 84.848 74.9519 85.2373 74.4773 85.552C74.0079 85.8613 73.4266 86.0613 72.7332 86.152V88.504H71.5732V86.2C70.8052 86.1467 70.1306 85.9707 69.5492 85.672C68.9679 85.3733 68.4906 85.0453 68.1172 84.688L69.0772 83.608C69.4239 83.9333 69.7999 84.2027 70.2052 84.416C70.6106 84.6293 71.0666 84.7547 71.5732 84.792V80.784C70.5546 80.4427 69.7919 80.024 69.2852 79.528C68.7839 79.0267 68.5332 78.4027 68.5332 77.656C68.5332 77.1707 68.6479 76.7227 68.8772 76.312C69.1119 75.9013 69.4559 75.56 69.9092 75.288C70.3626 75.0107 70.9172 74.84 71.5732 74.776V72.384H72.7332ZM72.7332 81.208V84.728C73.6559 84.536 74.1172 83.9627 74.1172 83.008C74.1172 82.608 74.0186 82.2667 73.8212 81.984C73.6239 81.696 73.2612 81.4373 72.7332 81.208ZM71.5732 76.16C71.1786 76.2293 70.8639 76.3813 70.6292 76.616C70.3946 76.8507 70.2772 77.1547 70.2772 77.528C70.2772 77.8587 70.3626 78.1413 70.5332 78.376C70.7039 78.6053 71.0506 78.832 71.5732 79.056V76.16Z" fill="#477DFF"/>
<path d="M129.154 77.552V83.456C129.154 83.9573 129.252 84.3147 129.45 84.528C129.652 84.7413 129.956 84.848 130.362 84.848C130.746 84.848 131.116 84.7333 131.474 84.504C131.831 84.2747 132.114 83.9947 132.322 83.664V77.552H134.114V86H132.57L132.458 84.92C132.143 85.3413 131.746 85.664 131.266 85.888C130.786 86.1067 130.295 86.216 129.794 86.216C128.978 86.216 128.367 85.992 127.962 85.544C127.562 85.0907 127.362 84.4693 127.362 83.68V77.552H129.154ZM138.827 84.84C139.387 84.84 139.833 84.7413 140.163 84.544C140.494 84.3413 140.659 84.064 140.659 83.712C140.659 83.4827 140.611 83.288 140.515 83.128C140.419 82.9627 140.227 82.8133 139.939 82.68C139.651 82.5413 139.214 82.3973 138.627 82.248C138.073 82.104 137.585 81.9333 137.163 81.736C136.747 81.5387 136.425 81.2827 136.195 80.968C135.966 80.6533 135.851 80.248 135.851 79.752C135.851 79.2667 135.987 78.8427 136.259 78.48C136.531 78.1173 136.921 77.8347 137.427 77.632C137.939 77.4293 138.539 77.328 139.227 77.328C139.937 77.328 140.555 77.4213 141.083 77.608C141.611 77.7947 142.062 78.0267 142.435 78.304L141.683 79.432C141.353 79.2133 140.99 79.0347 140.595 78.896C140.206 78.7573 139.766 78.688 139.275 78.688C138.705 78.688 138.294 78.7733 138.043 78.944C137.798 79.1147 137.675 79.3413 137.675 79.624C137.675 79.832 137.737 80.008 137.859 80.152C137.987 80.2907 138.206 80.4213 138.515 80.544C138.825 80.6613 139.262 80.8 139.827 80.96C140.377 81.1093 140.854 81.2853 141.259 81.488C141.67 81.6907 141.987 81.96 142.211 82.296C142.441 82.6267 142.555 83.0587 142.555 83.592C142.555 84.2 142.379 84.6987 142.027 85.088C141.681 85.472 141.222 85.7573 140.651 85.944C140.086 86.1253 139.478 86.216 138.827 86.216C138.043 86.216 137.366 86.104 136.795 85.88C136.225 85.6507 135.745 85.3653 135.355 85.024L136.307 83.936C136.638 84.2027 137.017 84.4213 137.443 84.592C137.87 84.7573 138.331 84.84 138.827 84.84ZM145.637 82.352C145.674 82.928 145.797 83.4 146.005 83.768C146.213 84.1307 146.485 84.3973 146.821 84.568C147.162 84.7387 147.536 84.824 147.941 84.824C148.357 84.824 148.741 84.76 149.093 84.632C149.445 84.504 149.8 84.3227 150.157 84.088L150.933 85.16C150.538 85.48 150.077 85.736 149.549 85.928C149.021 86.12 148.456 86.216 147.853 86.216C146.978 86.216 146.237 86.0293 145.629 85.656C145.026 85.2827 144.568 84.7627 144.253 84.096C143.938 83.4293 143.781 82.6587 143.781 81.784C143.781 80.936 143.936 80.1787 144.245 79.512C144.554 78.84 144.997 78.3093 145.573 77.92C146.149 77.5253 146.837 77.328 147.637 77.328C148.389 77.328 149.034 77.4987 149.573 77.84C150.117 78.1813 150.536 78.6667 150.829 79.296C151.128 79.92 151.277 80.672 151.277 81.552C151.277 81.696 151.272 81.84 151.261 81.984C151.256 82.1227 151.248 82.2453 151.237 82.352H145.637ZM147.653 78.656C147.093 78.656 146.629 78.856 146.261 79.256C145.898 79.656 145.688 80.28 145.629 81.128H149.541C149.525 80.3333 149.354 79.7227 149.029 79.296C148.709 78.8693 148.25 78.656 147.653 78.656ZM165.008 84.744C165.403 84.744 165.771 84.6773 166.112 84.544C166.454 84.4053 166.779 84.2267 167.088 84.008L167.92 85.16C167.552 85.4747 167.104 85.7307 166.576 85.928C166.054 86.12 165.512 86.216 164.952 86.216C164.088 86.216 163.35 86.0347 162.736 85.672C162.123 85.304 161.654 84.7893 161.328 84.128C161.003 83.4667 160.84 82.696 160.84 81.816C160.84 80.9573 161.003 80.192 161.328 79.52C161.659 78.8427 162.134 78.3093 162.752 77.92C163.371 77.5253 164.115 77.328 164.984 77.328C165.56 77.328 166.091 77.4133 166.576 77.584C167.062 77.7547 167.507 78.008 167.912 78.344L167.088 79.472C166.758 79.2427 166.419 79.0693 166.072 78.952C165.731 78.8293 165.379 78.768 165.016 78.768C164.35 78.768 163.803 79.0133 163.376 79.504C162.955 79.9947 162.744 80.7653 162.744 81.816C162.744 82.52 162.84 83.088 163.032 83.52C163.23 83.9467 163.499 84.2587 163.84 84.456C164.182 84.648 164.571 84.744 165.008 84.744ZM175.786 83.928C175.786 84.2587 175.837 84.5013 175.938 84.656C176.04 84.8053 176.202 84.9173 176.426 84.992L176.026 86.208C175.61 86.16 175.253 86.0453 174.954 85.864C174.656 85.6827 174.429 85.408 174.274 85.04C173.965 85.4293 173.573 85.7227 173.098 85.92C172.624 86.1173 172.117 86.216 171.578 86.216C170.725 86.216 170.048 85.976 169.546 85.496C169.05 85.0107 168.802 84.376 168.802 83.592C168.802 82.7013 169.149 82.016 169.842 81.536C170.536 81.056 171.528 80.816 172.818 80.816H174.026V80.264C174.026 79.72 173.861 79.328 173.53 79.088C173.205 78.848 172.744 78.728 172.146 78.728C171.869 78.728 171.533 78.7653 171.138 78.84C170.744 78.9093 170.33 79.0187 169.898 79.168L169.458 77.904C169.986 77.7067 170.504 77.5627 171.01 77.472C171.517 77.376 171.986 77.328 172.418 77.328C173.549 77.328 174.392 77.5787 174.946 78.08C175.506 78.5813 175.786 79.2747 175.786 80.16V83.928ZM172.122 84.896C172.485 84.896 172.84 84.8 173.186 84.608C173.533 84.416 173.813 84.1467 174.026 83.8V81.936H173.034C172.192 81.936 171.589 82.0773 171.226 82.36C170.864 82.6373 170.682 83.0213 170.682 83.512C170.682 83.96 170.802 84.304 171.042 84.544C171.288 84.7787 171.648 84.896 172.122 84.896ZM177.804 86V84.72H179.044V78.824H177.804V77.552H180.412L180.74 79.512C181.055 78.8027 181.444 78.264 181.908 77.896C182.377 77.5227 182.98 77.336 183.716 77.336C183.967 77.336 184.191 77.3573 184.388 77.4C184.591 77.4373 184.791 77.488 184.988 77.552L184.452 79.088C184.281 79.04 184.121 79.0053 183.972 78.984C183.823 78.9573 183.657 78.944 183.476 78.944C182.863 78.944 182.332 79.1733 181.884 79.632C181.441 80.0907 181.092 80.7413 180.836 81.584V84.72H182.54V86H177.804ZM183.404 80.664V78.584L183.628 77.552H184.988L184.684 80.664H183.404ZM189.502 77.328C190.328 77.328 191.024 77.512 191.59 77.88C192.155 78.248 192.582 78.7627 192.87 79.424C193.163 80.0853 193.31 80.864 193.31 81.76C193.31 82.6507 193.16 83.432 192.862 84.104C192.568 84.7707 192.136 85.2907 191.566 85.664C191 86.032 190.31 86.216 189.494 86.216C188.678 86.216 187.984 86.0373 187.414 85.68C186.848 85.3173 186.416 84.8027 186.118 84.136C185.824 83.4693 185.678 82.6827 185.678 81.776C185.678 80.896 185.824 80.1227 186.118 79.456C186.416 78.7893 186.851 78.2693 187.422 77.896C187.992 77.5173 188.686 77.328 189.502 77.328ZM189.502 78.72C188.856 78.72 188.371 78.968 188.046 79.464C187.72 79.9547 187.558 80.7253 187.558 81.776C187.558 82.8213 187.718 83.592 188.038 84.088C188.363 84.584 188.848 84.832 189.494 84.832C190.139 84.832 190.622 84.584 190.942 84.088C191.267 83.592 191.43 82.816 191.43 81.76C191.43 80.72 191.27 79.9547 190.95 79.464C190.63 78.968 190.147 78.72 189.502 78.72ZM198.223 74.16V83.696C198.223 84.0853 198.341 84.3627 198.575 84.528C198.815 84.688 199.125 84.768 199.503 84.768C199.749 84.768 199.981 84.7413 200.199 84.688C200.418 84.6347 200.631 84.568 200.839 84.488L201.295 85.736C201.045 85.864 200.735 85.976 200.367 86.072C200.005 86.168 199.589 86.216 199.119 86.216C198.271 86.216 197.61 85.9787 197.135 85.504C196.666 85.024 196.431 84.368 196.431 83.536V75.48H193.879V74.16H198.223ZM207.521 77.552V84.688H209.817V86H203.201V84.688H205.729V78.864H203.281V77.552H207.521ZM206.273 73.416C206.625 73.416 206.908 73.5227 207.121 73.736C207.34 73.9493 207.449 74.216 207.449 74.536C207.449 74.856 207.34 75.1253 207.121 75.344C206.908 75.5627 206.625 75.672 206.273 75.672C205.932 75.672 205.652 75.5627 205.433 75.344C205.215 75.1253 205.105 74.856 205.105 74.536C205.105 74.216 205.215 73.9493 205.433 73.736C205.652 73.5227 205.932 73.416 206.273 73.416ZM211.299 86V77.552H212.843L212.979 78.648C213.331 78.216 213.747 77.888 214.227 77.664C214.707 77.44 215.2 77.328 215.707 77.328C216.496 77.328 217.086 77.5493 217.475 77.992C217.87 78.4293 218.067 79.0453 218.067 79.84V86H216.275V80.728C216.275 80.2373 216.246 79.8427 216.187 79.544C216.128 79.2453 216.011 79.0293 215.835 78.896C215.664 78.7627 215.408 78.696 215.067 78.696C214.795 78.696 214.536 78.7547 214.291 78.872C214.046 78.9893 213.822 79.144 213.619 79.336C213.416 79.5227 213.24 79.7227 213.091 79.936V86H211.299ZM226.149 83.928C226.149 84.2587 226.199 84.5013 226.301 84.656C226.402 84.8053 226.565 84.9173 226.789 84.992L226.389 86.208C225.973 86.16 225.615 86.0453 225.317 85.864C225.018 85.6827 224.791 85.408 224.637 85.04C224.327 85.4293 223.935 85.7227 223.461 85.92C222.986 86.1173 222.479 86.216 221.941 86.216C221.087 86.216 220.41 85.976 219.909 85.496C219.413 85.0107 219.165 84.376 219.165 83.592C219.165 82.7013 219.511 82.016 220.205 81.536C220.898 81.056 221.89 80.816 223.181 80.816H224.389V80.264C224.389 79.72 224.223 79.328 223.893 79.088C223.567 78.848 223.106 78.728 222.509 78.728C222.231 78.728 221.895 78.7653 221.501 78.84C221.106 78.9093 220.693 79.0187 220.261 79.168L219.821 77.904C220.349 77.7067 220.866 77.5627 221.373 77.472C221.879 77.376 222.349 77.328 222.781 77.328C223.911 77.328 224.754 77.5787 225.309 78.08C225.869 78.5813 226.149 79.2747 226.149 80.16V83.928ZM222.485 84.896C222.847 84.896 223.202 84.8 223.549 84.608C223.895 84.416 224.175 84.1467 224.389 83.8V81.936H223.397C222.554 81.936 221.951 82.0773 221.589 82.36C221.226 82.6373 221.045 83.0213 221.045 83.512C221.045 83.96 221.165 84.304 221.405 84.544C221.65 84.7787 222.01 84.896 222.485 84.896ZM233.911 77.328C234.231 77.328 234.519 77.3973 234.775 77.536C235.031 77.6747 235.231 77.9173 235.375 78.264C235.524 78.6107 235.599 79.096 235.599 79.72V86H234.007V79.968C234.007 79.5253 233.975 79.208 233.911 79.016C233.852 78.824 233.695 78.728 233.439 78.728C233.236 78.728 233.031 78.792 232.823 78.92C232.615 79.0427 232.404 79.256 232.191 79.56V86H230.743V79.968C230.743 79.5253 230.711 79.208 230.647 79.016C230.588 78.824 230.431 78.728 230.175 78.728C229.967 78.728 229.759 78.792 229.551 78.92C229.348 79.0427 229.14 79.256 228.927 79.56V86H227.327V77.552H228.679L228.799 78.464C229.039 78.128 229.3 77.856 229.583 77.648C229.865 77.4347 230.207 77.328 230.607 77.328C230.927 77.328 231.217 77.408 231.479 77.568C231.74 77.728 231.932 78.008 232.055 78.408C232.289 78.088 232.556 77.8293 232.855 77.632C233.153 77.4293 233.505 77.328 233.911 77.328ZM237.968 82.352C238.006 82.928 238.128 83.4 238.336 83.768C238.544 84.1307 238.816 84.3973 239.152 84.568C239.494 84.7387 239.867 84.824 240.272 84.824C240.688 84.824 241.072 84.76 241.424 84.632C241.776 84.504 242.131 84.3227 242.488 84.088L243.264 85.16C242.87 85.48 242.408 85.736 241.88 85.928C241.352 86.12 240.787 86.216 240.184 86.216C239.31 86.216 238.568 86.0293 237.96 85.656C237.358 85.2827 236.899 84.7627 236.584 84.096C236.27 83.4293 236.112 82.6587 236.112 81.784C236.112 80.936 236.267 80.1787 236.576 79.512C236.886 78.84 237.328 78.3093 237.904 77.92C238.48 77.5253 239.168 77.328 239.968 77.328C240.72 77.328 241.366 77.4987 241.904 77.84C242.448 78.1813 242.867 78.6667 243.16 79.296C243.459 79.92 243.608 80.672 243.608 81.552C243.608 81.696 243.603 81.84 243.592 81.984C243.587 82.1227 243.579 82.2453 243.568 82.352H237.968ZM239.984 78.656C239.424 78.656 238.96 78.856 238.592 79.256C238.23 79.656 238.019 80.28 237.96 81.128H241.872C241.856 80.3333 241.686 79.7227 241.36 79.296C241.04 78.8693 240.582 78.656 239.984 78.656ZM244.874 86V77.552H246.418L246.554 78.648C246.906 78.216 247.322 77.888 247.802 77.664C248.282 77.44 248.775 77.328 249.282 77.328C250.071 77.328 250.661 77.5493 251.05 77.992C251.445 78.4293 251.642 79.0453 251.642 79.84V86H249.85V80.728C249.85 80.2373 249.821 79.8427 249.762 79.544C249.703 79.2453 249.586 79.0293 249.41 78.896C249.239 78.7627 248.983 78.696 248.642 78.696C248.37 78.696 248.111 78.7547 247.866 78.872C247.621 78.9893 247.397 79.144 247.194 79.336C246.991 79.5227 246.815 79.7227 246.666 79.936V86H244.874ZM254.756 82.352C254.793 82.928 254.916 83.4 255.124 83.768C255.332 84.1307 255.604 84.3973 255.94 84.568C256.281 84.7387 256.654 84.824 257.06 84.824C257.476 84.824 257.86 84.76 258.212 84.632C258.564 84.504 258.918 84.3227 259.276 84.088L260.052 85.16C259.657 85.48 259.196 85.736 258.668 85.928C258.14 86.12 257.574 86.216 256.972 86.216C256.097 86.216 255.356 86.0293 254.748 85.656C254.145 85.2827 253.686 84.7627 253.372 84.096C253.057 83.4293 252.9 82.6587 252.9 81.784C252.9 80.936 253.054 80.1787 253.364 79.512C253.673 78.84 254.116 78.3093 254.692 77.92C255.268 77.5253 255.956 77.328 256.756 77.328C257.508 77.328 258.153 77.4987 258.692 77.84C259.236 78.1813 259.654 78.6667 259.948 79.296C260.246 79.92 260.396 80.672 260.396 81.552C260.396 81.696 260.39 81.84 260.38 81.984C260.374 82.1227 260.366 82.2453 260.356 82.352H254.756ZM256.772 78.656C256.212 78.656 255.748 78.856 255.38 79.256C255.017 79.656 254.806 80.28 254.748 81.128H258.66C258.644 80.3333 258.473 79.7227 258.148 79.296C257.828 78.8693 257.369 78.656 256.772 78.656ZM263.846 84.56H268.366L268.174 86H261.694V84.688L266.19 78.992H262.054V77.552H268.31V78.864L263.846 84.56ZM271.543 82.352C271.581 82.928 271.703 83.4 271.911 83.768C272.119 84.1307 272.391 84.3973 272.727 84.568C273.069 84.7387 273.442 84.824 273.847 84.824C274.263 84.824 274.647 84.76 274.999 84.632C275.351 84.504 275.706 84.3227 276.063 84.088L276.839 85.16C276.445 85.48 275.983 85.736 275.455 85.928C274.927 86.12 274.362 86.216 273.759 86.216C272.885 86.216 272.143 86.0293 271.535 85.656C270.933 85.2827 270.474 84.7627 270.159 84.096C269.845 83.4293 269.687 82.6587 269.687 81.784C269.687 80.936 269.842 80.1787 270.151 79.512C270.461 78.84 270.903 78.3093 271.479 77.92C272.055 77.5253 272.743 77.328 273.543 77.328C274.295 77.328 274.941 77.4987 275.479 77.84C276.023 78.1813 276.442 78.6667 276.735 79.296C277.034 79.92 277.183 80.672 277.183 81.552C277.183 81.696 277.178 81.84 277.167 81.984C277.162 82.1227 277.154 82.2453 277.143 82.352H271.543ZM273.559 78.656C272.999 78.656 272.535 78.856 272.167 79.256C271.805 79.656 271.594 80.28 271.535 81.128H275.447C275.431 80.3333 275.261 79.7227 274.935 79.296C274.615 78.8693 274.157 78.656 273.559 78.656ZM281.521 84.84C282.081 84.84 282.526 84.7413 282.857 84.544C283.188 84.3413 283.353 84.064 283.353 83.712C283.353 83.4827 283.305 83.288 283.209 83.128C283.113 82.9627 282.921 82.8133 282.633 82.68C282.345 82.5413 281.908 82.3973 281.321 82.248C280.766 82.104 280.278 81.9333 279.857 81.736C279.441 81.5387 279.118 81.2827 278.889 80.968C278.66 80.6533 278.545 80.248 278.545 79.752C278.545 79.2667 278.681 78.8427 278.953 78.48C279.225 78.1173 279.614 77.8347 280.121 77.632C280.633 77.4293 281.233 77.328 281.921 77.328C282.63 77.328 283.249 77.4213 283.777 77.608C284.305 77.7947 284.756 78.0267 285.129 78.304L284.377 79.432C284.046 79.2133 283.684 79.0347 283.289 78.896C282.9 78.7573 282.46 78.688 281.969 78.688C281.398 78.688 280.988 78.7733 280.737 78.944C280.492 79.1147 280.369 79.3413 280.369 79.624C280.369 79.832 280.43 80.008 280.553 80.152C280.681 80.2907 280.9 80.4213 281.209 80.544C281.518 80.6613 281.956 80.8 282.521 80.96C283.07 81.1093 283.548 81.2853 283.953 81.488C284.364 81.6907 284.681 81.96 284.905 82.296C285.134 82.6267 285.249 83.0587 285.249 83.592C285.249 84.2 285.073 84.6987 284.721 85.088C284.374 85.472 283.916 85.7573 283.345 85.944C282.78 86.1253 282.172 86.216 281.521 86.216C280.737 86.216 280.06 86.104 279.489 85.88C278.918 85.6507 278.438 85.3653 278.049 85.024L279.001 83.936C279.332 84.2027 279.71 84.4213 280.137 84.592C280.564 84.7573 281.025 84.84 281.521 84.84Z" fill="white"/>
<path d="M47.752 109.96L47.544 117.2H46.024L45.8 109.96H47.752ZM46.792 118.792C47.1387 118.792 47.4267 118.912 47.656 119.152C47.8907 119.387 48.008 119.669 48.008 120C48.008 120.336 47.8907 120.624 47.656 120.864C47.4267 121.099 47.1387 121.216 46.792 121.216C46.456 121.216 46.1707 121.099 45.936 120.864C45.7013 120.624 45.584 120.336 45.584 120C45.584 119.669 45.7013 119.387 45.936 119.152C46.1707 118.912 46.456 118.792 46.792 118.792Z" fill="#477DFF"/>
<path d="M283.681 140.344L281.633 137.008L282.689 136.336L285.481 139.744V140.952L282.689 144.352L281.633 143.68L283.681 140.344ZM280.201 140.344L278.161 137.008L279.209 136.336L281.985 139.744V140.952L279.209 144.352L278.161 143.68L280.201 140.344ZM297.509 139.4C297.509 140.424 297.621 141.323 297.845 142.096C298.074 142.869 298.429 143.595 298.909 144.272C299.394 144.949 300.018 145.653 300.781 146.384L299.789 147.344C298.93 146.629 298.191 145.888 297.573 145.12C296.959 144.357 296.487 143.512 296.157 142.584C295.826 141.656 295.661 140.595 295.661 139.4C295.661 138.2 295.826 137.136 296.157 136.208C296.487 135.28 296.959 134.435 297.573 133.672C298.191 132.904 298.93 132.165 299.789 131.456L300.781 132.416C300.221 132.955 299.733 133.48 299.317 133.992C298.906 134.499 298.565 135.021 298.293 135.56C298.026 136.099 297.829 136.68 297.701 137.304C297.573 137.928 297.509 138.627 297.509 139.4ZM307.942 140.784V145H306.07V140.8L302.39 133.96H304.43L307.046 139.192L309.678 133.96H311.622L307.942 140.784ZM312.72 146.704L311.296 146.064L318.096 132.008L319.504 132.672L312.72 146.704ZM320.418 145V136.552H321.962L322.098 137.648C322.45 137.216 322.866 136.888 323.346 136.664C323.826 136.44 324.319 136.328 324.826 136.328C325.615 136.328 326.204 136.549 326.594 136.992C326.988 137.429 327.186 138.045 327.186 138.84V145H325.394V139.728C325.394 139.237 325.364 138.843 325.306 138.544C325.247 138.245 325.13 138.029 324.954 137.896C324.783 137.763 324.527 137.696 324.186 137.696C323.914 137.696 323.655 137.755 323.41 137.872C323.164 137.989 322.94 138.144 322.738 138.336C322.535 138.523 322.359 138.723 322.21 138.936V145H320.418ZM333.292 139.4C333.292 138.627 333.228 137.928 333.1 137.304C332.972 136.68 332.772 136.099 332.5 135.56C332.233 135.021 331.892 134.499 331.476 133.992C331.065 133.48 330.58 132.955 330.02 132.416L331.012 131.456C331.87 132.165 332.606 132.904 333.22 133.672C333.838 134.435 334.313 135.28 334.644 136.208C334.974 137.136 335.14 138.2 335.14 139.4C335.14 140.595 334.974 141.656 334.644 142.584C334.313 143.512 333.838 144.357 333.22 145.12C332.606 145.888 331.87 146.629 331.012 147.344L330.02 146.384C330.782 145.653 331.404 144.949 331.884 144.272C332.369 143.595 332.724 142.869 332.948 142.096C333.177 141.323 333.292 140.424 333.292 139.4Z" fill="#979899"/>
<path d="M68.3555 109.96L66.8275 121H64.6595L63.5715 112.832L62.4435 121H60.2275L58.8195 109.96H60.6115L61.4835 119.208L62.6515 111.24H64.5635L65.6675 119.208L66.6995 109.96H68.3555ZM71.9892 112.328C72.8159 112.328 73.5119 112.512 74.0773 112.88C74.6426 113.248 75.0693 113.763 75.3573 114.424C75.6506 115.085 75.7972 115.864 75.7972 116.76C75.7972 117.651 75.6479 118.432 75.3492 119.104C75.0559 119.771 74.6239 120.291 74.0532 120.664C73.4879 121.032 72.7972 121.216 71.9812 121.216C71.1652 121.216 70.4719 121.037 69.9012 120.68C69.3359 120.317 68.9039 119.803 68.6052 119.136C68.3119 118.469 68.1652 117.683 68.1652 116.776C68.1652 115.896 68.3119 115.123 68.6052 114.456C68.9039 113.789 69.3386 113.269 69.9092 112.896C70.4799 112.517 71.1732 112.328 71.9892 112.328ZM71.9892 113.72C71.3439 113.72 70.8586 113.968 70.5332 114.464C70.2079 114.955 70.0452 115.725 70.0452 116.776C70.0452 117.821 70.2052 118.592 70.5252 119.088C70.8506 119.584 71.3359 119.832 71.9812 119.832C72.6266 119.832 73.1092 119.584 73.4292 119.088C73.7546 118.592 73.9173 117.816 73.9173 116.76C73.9173 115.72 73.7573 114.955 73.4373 114.464C73.1173 113.968 72.6346 113.72 71.9892 113.72ZM77.079 121V119.72H78.319V113.824H77.079V112.552H79.687L80.015 114.512C80.3297 113.803 80.719 113.264 81.183 112.896C81.6523 112.523 82.255 112.336 82.991 112.336C83.2417 112.336 83.4657 112.357 83.663 112.4C83.8657 112.437 84.0657 112.488 84.263 112.552L83.727 114.088C83.5563 114.04 83.3963 114.005 83.247 113.984C83.0977 113.957 82.9323 113.944 82.751 113.944C82.1377 113.944 81.607 114.173 81.159 114.632C80.7163 115.091 80.367 115.741 80.111 116.584V119.72H81.815V121H77.079ZM82.679 115.664V113.584L82.903 112.552H84.263L83.959 115.664H82.679ZM92.8328 112.552L89.4168 116.328L93.1927 121H91.0008L87.3688 116.376L90.7448 112.552H92.8328ZM87.2408 108.96V121H85.4488V109.16L87.2408 108.96ZM96.8585 119.84C97.4185 119.84 97.8638 119.741 98.1945 119.544C98.5252 119.341 98.6905 119.064 98.6905 118.712C98.6905 118.483 98.6425 118.288 98.5465 118.128C98.4505 117.963 98.2585 117.813 97.9705 117.68C97.6825 117.541 97.2452 117.397 96.6585 117.248C96.1038 117.104 95.6158 116.933 95.1945 116.736C94.7785 116.539 94.4558 116.283 94.2265 115.968C93.9972 115.653 93.8825 115.248 93.8825 114.752C93.8825 114.267 94.0185 113.843 94.2905 113.48C94.5625 113.117 94.9518 112.835 95.4585 112.632C95.9705 112.429 96.5705 112.328 97.2585 112.328C97.9678 112.328 98.5865 112.421 99.1145 112.608C99.6425 112.795 100.093 113.027 100.466 113.304L99.7145 114.432C99.3838 114.213 99.0212 114.035 98.6265 113.896C98.2372 113.757 97.7972 113.688 97.3065 113.688C96.7358 113.688 96.3252 113.773 96.0745 113.944C95.8292 114.115 95.7065 114.341 95.7065 114.624C95.7065 114.832 95.7678 115.008 95.8905 115.152C96.0185 115.291 96.2372 115.421 96.5465 115.544C96.8558 115.661 97.2932 115.8 97.8585 115.96C98.4078 116.109 98.8852 116.285 99.2905 116.488C99.7012 116.691 100.018 116.96 100.242 117.296C100.472 117.627 100.586 118.059 100.586 118.592C100.586 119.2 100.41 119.699 100.058 120.088C99.7118 120.472 99.2532 120.757 98.6825 120.944C98.1172 121.125 97.5092 121.216 96.8585 121.216C96.0745 121.216 95.3972 121.104 94.8265 120.88C94.2558 120.651 93.7758 120.365 93.3865 120.024L94.3385 118.936C94.6692 119.203 95.0478 119.421 95.4745 119.592C95.9012 119.757 96.3625 119.84 96.8585 119.84ZM106.3 112.328C107.047 112.328 107.644 112.512 108.092 112.88C108.54 113.243 108.866 113.757 109.068 114.424C109.271 115.085 109.372 115.864 109.372 116.76C109.372 117.619 109.25 118.384 109.004 119.056C108.759 119.728 108.394 120.256 107.908 120.64C107.428 121.024 106.831 121.216 106.116 121.216C105.231 121.216 104.516 120.904 103.972 120.28V124.248L102.18 124.448V112.552H103.74L103.852 113.64C104.172 113.203 104.543 112.875 104.964 112.656C105.391 112.437 105.836 112.328 106.3 112.328ZM105.804 113.712C105.404 113.712 105.052 113.832 104.748 114.072C104.444 114.312 104.186 114.595 103.972 114.92V118.872C104.175 119.176 104.415 119.411 104.692 119.576C104.975 119.736 105.292 119.816 105.644 119.816C106.247 119.816 106.706 119.573 107.02 119.088C107.335 118.603 107.492 117.829 107.492 116.768C107.492 116.048 107.428 115.464 107.3 115.016C107.178 114.563 106.991 114.232 106.74 114.024C106.495 113.816 106.183 113.712 105.804 113.712ZM117.03 118.928C117.03 119.259 117.081 119.501 117.182 119.656C117.283 119.805 117.446 119.917 117.67 119.992L117.27 121.208C116.854 121.16 116.497 121.045 116.198 120.864C115.899 120.683 115.673 120.408 115.518 120.04C115.209 120.429 114.817 120.723 114.342 120.92C113.867 121.117 113.361 121.216 112.822 121.216C111.969 121.216 111.291 120.976 110.79 120.496C110.294 120.011 110.046 119.376 110.046 118.592C110.046 117.701 110.393 117.016 111.086 116.536C111.779 116.056 112.771 115.816 114.062 115.816H115.27V115.264C115.27 114.72 115.105 114.328 114.774 114.088C114.449 113.848 113.987 113.728 113.39 113.728C113.113 113.728 112.777 113.765 112.382 113.84C111.987 113.909 111.574 114.019 111.142 114.168L110.702 112.904C111.23 112.707 111.747 112.563 112.254 112.472C112.761 112.376 113.23 112.328 113.662 112.328C114.793 112.328 115.635 112.579 116.19 113.08C116.75 113.581 117.03 114.275 117.03 115.16V118.928ZM113.366 119.896C113.729 119.896 114.083 119.8 114.43 119.608C114.777 119.416 115.057 119.147 115.27 118.8V116.936H114.278C113.435 116.936 112.833 117.077 112.47 117.36C112.107 117.637 111.926 118.021 111.926 118.512C111.926 118.96 112.046 119.304 112.286 119.544C112.531 119.779 112.891 119.896 113.366 119.896ZM123.04 119.744C123.434 119.744 123.802 119.677 124.144 119.544C124.485 119.405 124.81 119.227 125.12 119.008L125.952 120.16C125.584 120.475 125.136 120.731 124.608 120.928C124.085 121.12 123.544 121.216 122.984 121.216C122.12 121.216 121.381 121.035 120.768 120.672C120.154 120.304 119.685 119.789 119.36 119.128C119.034 118.467 118.872 117.696 118.872 116.816C118.872 115.957 119.034 115.192 119.36 114.52C119.69 113.843 120.165 113.309 120.784 112.92C121.402 112.525 122.146 112.328 123.016 112.328C123.592 112.328 124.122 112.413 124.608 112.584C125.093 112.755 125.538 113.008 125.944 113.344L125.12 114.472C124.789 114.243 124.45 114.069 124.104 113.952C123.762 113.829 123.41 113.768 123.048 113.768C122.381 113.768 121.834 114.013 121.408 114.504C120.986 114.995 120.776 115.765 120.776 116.816C120.776 117.52 120.872 118.088 121.064 118.52C121.261 118.947 121.53 119.259 121.872 119.456C122.213 119.648 122.602 119.744 123.04 119.744ZM128.85 117.352C128.887 117.928 129.01 118.4 129.218 118.768C129.426 119.131 129.698 119.397 130.034 119.568C130.375 119.739 130.748 119.824 131.154 119.824C131.57 119.824 131.954 119.76 132.306 119.632C132.658 119.504 133.012 119.323 133.37 119.088L134.146 120.16C133.751 120.48 133.29 120.736 132.762 120.928C132.234 121.12 131.668 121.216 131.066 121.216C130.191 121.216 129.45 121.029 128.842 120.656C128.239 120.283 127.78 119.763 127.466 119.096C127.151 118.429 126.993 117.659 126.993 116.784C126.993 115.936 127.148 115.179 127.458 114.512C127.767 113.84 128.21 113.309 128.786 112.92C129.362 112.525 130.05 112.328 130.85 112.328C131.602 112.328 132.247 112.499 132.786 112.84C133.33 113.181 133.748 113.667 134.042 114.296C134.34 114.92 134.49 115.672 134.49 116.552C134.49 116.696 134.484 116.84 134.474 116.984C134.468 117.123 134.46 117.245 134.45 117.352H128.85ZM130.866 113.656C130.306 113.656 129.842 113.856 129.474 114.256C129.111 114.656 128.9 115.28 128.842 116.128H132.754C132.738 115.333 132.567 114.723 132.242 114.296C131.922 113.869 131.463 113.656 130.866 113.656ZM283.409 108.96L285.201 109.16V121H283.625L283.497 119.96C283.209 120.36 282.865 120.669 282.465 120.888C282.065 121.107 281.617 121.216 281.121 121.216C280.396 121.216 279.798 121.032 279.329 120.664C278.86 120.291 278.51 119.771 278.281 119.104C278.057 118.432 277.945 117.656 277.945 116.776C277.945 115.917 278.078 115.155 278.345 114.488C278.612 113.816 278.993 113.288 279.489 112.904C279.985 112.52 280.582 112.328 281.281 112.328C281.724 112.328 282.121 112.408 282.473 112.568C282.825 112.723 283.137 112.949 283.409 113.248V108.96ZM281.753 113.704C281.15 113.704 280.681 113.955 280.345 114.456C280.009 114.952 279.841 115.725 279.841 116.776C279.841 117.496 279.91 118.083 280.049 118.536C280.188 118.984 280.388 119.315 280.649 119.528C280.91 119.736 281.225 119.84 281.593 119.84C281.998 119.84 282.35 119.723 282.649 119.488C282.948 119.253 283.201 118.971 283.409 118.64V114.64C283.201 114.341 282.958 114.112 282.681 113.952C282.404 113.787 282.094 113.704 281.753 113.704ZM290.227 112.328C291.053 112.328 291.749 112.512 292.315 112.88C292.88 113.248 293.307 113.763 293.595 114.424C293.888 115.085 294.035 115.864 294.035 116.76C294.035 117.651 293.885 118.432 293.587 119.104C293.293 119.771 292.861 120.291 292.291 120.664C291.725 121.032 291.035 121.216 290.219 121.216C289.403 121.216 288.709 121.037 288.139 120.68C287.573 120.317 287.141 119.803 286.843 119.136C286.549 118.469 286.403 117.683 286.403 116.776C286.403 115.896 286.549 115.123 286.843 114.456C287.141 113.789 287.576 113.269 288.147 112.896C288.717 112.517 289.411 112.328 290.227 112.328ZM290.227 113.72C289.581 113.72 289.096 113.968 288.771 114.464C288.445 114.955 288.283 115.725 288.283 116.776C288.283 117.821 288.443 118.592 288.763 119.088C289.088 119.584 289.573 119.832 290.219 119.832C290.864 119.832 291.347 119.584 291.667 119.088C291.992 118.592 292.155 117.816 292.155 116.76C292.155 115.72 291.995 114.955 291.675 114.464C291.355 113.968 290.872 113.72 290.227 113.72ZM296.725 117.352C296.762 117.928 296.885 118.4 297.093 118.768C297.301 119.131 297.573 119.397 297.909 119.568C298.25 119.739 298.623 119.824 299.029 119.824C299.445 119.824 299.829 119.76 300.181 119.632C300.533 119.504 300.887 119.323 301.245 119.088L302.021 120.16C301.626 120.48 301.165 120.736 300.637 120.928C300.109 121.12 299.543 121.216 298.941 121.216C298.066 121.216 297.325 121.029 296.717 120.656C296.114 120.283 295.655 119.763 295.341 119.096C295.026 118.429 294.868 117.659 294.868 116.784C294.868 115.936 295.023 115.179 295.333 114.512C295.642 113.84 296.085 113.309 296.661 112.92C297.237 112.525 297.925 112.328 298.725 112.328C299.477 112.328 300.122 112.499 300.661 112.84C301.205 113.181 301.623 113.667 301.917 114.296C302.215 114.92 302.365 115.672 302.365 116.552C302.365 116.696 302.359 116.84 302.349 116.984C302.343 117.123 302.335 117.245 302.325 117.352H296.725ZM298.741 113.656C298.181 113.656 297.717 113.856 297.349 114.256C296.986 114.656 296.775 115.28 296.717 116.128H300.629C300.613 115.333 300.442 114.723 300.117 114.296C299.797 113.869 299.338 113.656 298.741 113.656ZM306.702 119.84C307.262 119.84 307.708 119.741 308.038 119.544C308.369 119.341 308.534 119.064 308.534 118.712C308.534 118.483 308.486 118.288 308.39 118.128C308.294 117.963 308.102 117.813 307.814 117.68C307.526 117.541 307.089 117.397 306.502 117.248C305.948 117.104 305.46 116.933 305.038 116.736C304.622 116.539 304.3 116.283 304.07 115.968C303.841 115.653 303.726 115.248 303.726 114.752C303.726 114.267 303.862 113.843 304.134 113.48C304.406 113.117 304.796 112.835 305.302 112.632C305.814 112.429 306.414 112.328 307.102 112.328C307.812 112.328 308.43 112.421 308.958 112.608C309.486 112.795 309.937 113.027 310.31 113.304L309.558 114.432C309.228 114.213 308.865 114.035 308.47 113.896C308.081 113.757 307.641 113.688 307.15 113.688C306.58 113.688 306.169 113.773 305.918 113.944C305.673 114.115 305.55 114.341 305.55 114.624C305.55 114.832 305.612 115.008 305.734 115.152C305.862 115.291 306.081 115.421 306.39 115.544C306.7 115.661 307.137 115.8 307.702 115.96C308.252 116.109 308.729 116.285 309.134 116.488C309.545 116.691 309.862 116.96 310.086 117.296C310.316 117.627 310.43 118.059 310.43 118.592C310.43 119.2 310.254 119.699 309.902 120.088C309.556 120.472 309.097 120.757 308.526 120.944C307.961 121.125 307.353 121.216 306.702 121.216C305.918 121.216 305.241 121.104 304.67 120.88C304.1 120.651 303.62 120.365 303.23 120.024L304.182 118.936C304.513 119.203 304.892 119.421 305.318 119.592C305.745 119.757 306.206 119.84 306.702 119.84ZM312.024 121V112.552H313.568L313.704 113.648C314.056 113.216 314.472 112.888 314.952 112.664C315.432 112.44 315.925 112.328 316.432 112.328C317.221 112.328 317.811 112.549 318.2 112.992C318.595 113.429 318.792 114.045 318.792 114.84V121H317V115.728C317 115.237 316.971 114.843 316.912 114.544C316.853 114.245 316.736 114.029 316.56 113.896C316.389 113.763 316.133 113.696 315.792 113.696C315.52 113.696 315.261 113.755 315.016 113.872C314.771 113.989 314.547 114.144 314.344 114.336C314.141 114.523 313.965 114.723 313.816 114.936V121H312.024ZM323.082 113.44L322.818 109.16H324.77L324.498 113.44H323.082ZM335.868 120.552C335.558 120.749 335.188 120.909 334.756 121.032C334.324 121.155 333.873 121.216 333.404 121.216C332.422 121.216 331.676 120.963 331.164 120.456C330.657 119.944 330.404 119.272 330.404 118.44V113.856H328.524V112.552H330.404V110.664L332.196 110.448V112.552H335.044L334.844 113.856H332.196V118.424C332.196 118.877 332.308 119.216 332.532 119.44C332.761 119.659 333.134 119.768 333.652 119.768C333.961 119.768 334.246 119.731 334.508 119.656C334.769 119.581 335.006 119.485 335.22 119.368L335.868 120.552ZM347.087 117.352C347.124 117.928 347.247 118.4 347.455 118.768C347.663 119.131 347.935 119.397 348.271 119.568C348.612 119.739 348.986 119.824 349.391 119.824C349.807 119.824 350.191 119.76 350.543 119.632C350.895 119.504 351.25 119.323 351.607 119.088L352.383 120.16C351.988 120.48 351.527 120.736 350.999 120.928C350.471 121.12 349.906 121.216 349.303 121.216C348.428 121.216 347.687 121.029 347.079 120.656C346.476 120.283 346.018 119.763 345.703 119.096C345.388 118.429 345.231 117.659 345.231 116.784C345.231 115.936 345.386 115.179 345.695 114.512C346.004 113.84 346.447 113.309 347.023 112.92C347.599 112.525 348.287 112.328 349.087 112.328C349.839 112.328 350.484 112.499 351.023 112.84C351.567 113.181 351.986 113.667 352.279 114.296C352.578 114.92 352.727 115.672 352.727 116.552C352.727 116.696 352.722 116.84 352.711 116.984C352.706 117.123 352.698 117.245 352.687 117.352H347.087ZM349.103 113.656C348.543 113.656 348.079 113.856 347.711 114.256C347.348 114.656 347.138 115.28 347.079 116.128H350.991C350.975 115.333 350.804 114.723 350.479 114.296C350.159 113.869 349.7 113.656 349.103 113.656ZM355.241 121H353.257L356.289 116.544L353.593 112.552H355.657L357.385 115.528L359.113 112.552H361.081L358.441 116.472L361.481 121H359.377L357.305 117.552L355.241 121ZM367.002 112.552V119.688H369.298V121H362.682V119.688H365.21V113.864H362.762V112.552H367.002ZM365.754 108.416C366.106 108.416 366.389 108.523 366.602 108.736C366.821 108.949 366.93 109.216 366.93 109.536C366.93 109.856 366.821 110.125 366.602 110.344C366.389 110.563 366.106 110.672 365.754 110.672C365.413 110.672 365.133 110.563 364.914 110.344C364.696 110.125 364.586 109.856 364.586 109.536C364.586 109.216 364.696 108.949 364.914 108.736C365.133 108.523 365.413 108.416 365.754 108.416ZM373.852 119.84C374.412 119.84 374.858 119.741 375.188 119.544C375.519 119.341 375.684 119.064 375.684 118.712C375.684 118.483 375.636 118.288 375.54 118.128C375.444 117.963 375.252 117.813 374.964 117.68C374.676 117.541 374.239 117.397 373.652 117.248C373.098 117.104 372.61 116.933 372.188 116.736C371.772 116.539 371.45 116.283 371.22 115.968C370.991 115.653 370.876 115.248 370.876 114.752C370.876 114.267 371.012 113.843 371.284 113.48C371.556 113.117 371.946 112.835 372.452 112.632C372.964 112.429 373.564 112.328 374.252 112.328C374.962 112.328 375.58 112.421 376.108 112.608C376.636 112.795 377.087 113.027 377.46 113.304L376.708 114.432C376.378 114.213 376.015 114.035 375.62 113.896C375.231 113.757 374.791 113.688 374.3 113.688C373.73 113.688 373.319 113.773 373.068 113.944C372.823 114.115 372.7 114.341 372.7 114.624C372.7 114.832 372.762 115.008 372.884 115.152C373.012 115.291 373.231 115.421 373.54 115.544C373.85 115.661 374.287 115.8 374.852 115.96C375.402 116.109 375.879 116.285 376.284 116.488C376.695 116.691 377.012 116.96 377.236 117.296C377.466 117.627 377.58 118.059 377.58 118.592C377.58 119.2 377.404 119.699 377.052 120.088C376.706 120.472 376.247 120.757 375.676 120.944C375.111 121.125 374.503 121.216 373.852 121.216C373.068 121.216 372.391 121.104 371.82 120.88C371.25 120.651 370.77 120.365 370.38 120.024L371.332 118.936C371.663 119.203 372.042 119.421 372.468 119.592C372.895 119.757 373.356 119.84 373.852 119.84ZM386.23 120.552C385.921 120.749 385.55 120.909 385.118 121.032C384.686 121.155 384.235 121.216 383.766 121.216C382.785 121.216 382.038 120.963 381.526 120.456C381.019 119.944 380.766 119.272 380.766 118.44V113.856H378.886V112.552H380.766V110.664L382.558 110.448V112.552H385.406L385.206 113.856H382.558V118.424C382.558 118.877 382.67 119.216 382.894 119.44C383.123 119.659 383.497 119.768 384.014 119.768C384.323 119.768 384.609 119.731 384.87 119.656C385.131 119.581 385.369 119.485 385.582 119.368L386.23 120.552Z" fill="white"/>
<path d="M148.221 119.744C148.616 119.744 148.984 119.677 149.325 119.544C149.666 119.405 149.992 119.227 150.301 119.008L151.133 120.16C150.765 120.475 150.317 120.731 149.789 120.928C149.266 121.12 148.725 121.216 148.165 121.216C147.301 121.216 146.562 121.035 145.949 120.672C145.336 120.304 144.866 119.789 144.541 119.128C144.216 118.467 144.053 117.696 144.053 116.816C144.053 115.957 144.216 115.192 144.541 114.52C144.872 113.843 145.346 113.309 145.965 112.92C146.584 112.525 147.328 112.328 148.197 112.328C148.773 112.328 149.304 112.413 149.789 112.584C150.274 112.755 150.72 113.008 151.125 113.344L150.301 114.472C149.97 114.243 149.632 114.069 149.285 113.952C148.944 113.829 148.592 113.768 148.229 113.768C147.562 113.768 147.016 114.013 146.589 114.504C146.168 114.995 145.957 115.765 145.957 116.816C145.957 117.52 146.053 118.088 146.245 118.52C146.442 118.947 146.712 119.259 147.053 119.456C147.394 119.648 147.784 119.744 148.221 119.744ZM158.999 118.928C158.999 119.259 159.049 119.501 159.151 119.656C159.252 119.805 159.415 119.917 159.639 119.992L159.239 121.208C158.823 121.16 158.465 121.045 158.167 120.864C157.868 120.683 157.641 120.408 157.487 120.04C157.177 120.429 156.785 120.723 156.311 120.92C155.836 121.117 155.329 121.216 154.791 121.216C153.937 121.216 153.26 120.976 152.759 120.496C152.263 120.011 152.015 119.376 152.015 118.592C152.015 117.701 152.361 117.016 153.055 116.536C153.748 116.056 154.74 115.816 156.031 115.816H157.239V115.264C157.239 114.72 157.073 114.328 156.743 114.088C156.417 113.848 155.956 113.728 155.359 113.728C155.081 113.728 154.745 113.765 154.351 113.84C153.956 113.909 153.543 114.019 153.111 114.168L152.671 112.904C153.199 112.707 153.716 112.563 154.223 112.472C154.729 112.376 155.199 112.328 155.631 112.328C156.761 112.328 157.604 112.579 158.159 113.08C158.719 113.581 158.999 114.275 158.999 115.16V118.928ZM155.335 119.896C155.697 119.896 156.052 119.8 156.399 119.608C156.745 119.416 157.025 119.147 157.239 118.8V116.936H156.247C155.404 116.936 154.801 117.077 154.439 117.36C154.076 117.637 153.895 118.021 153.895 118.512C153.895 118.96 154.015 119.304 154.255 119.544C154.5 119.779 154.86 119.896 155.335 119.896ZM161.016 121V119.72H162.256V113.824H161.016V112.552H163.624L163.952 114.512C164.267 113.803 164.656 113.264 165.12 112.896C165.59 112.523 166.192 112.336 166.928 112.336C167.179 112.336 167.403 112.357 167.6 112.4C167.803 112.437 168.003 112.488 168.2 112.552L167.664 114.088C167.494 114.04 167.334 114.005 167.184 113.984C167.035 113.957 166.87 113.944 166.688 113.944C166.075 113.944 165.544 114.173 165.096 114.632C164.654 115.091 164.304 115.741 164.048 116.584V119.72H165.752V121H161.016ZM166.616 115.664V113.584L166.84 112.552H168.2L167.896 115.664H166.616ZM172.714 112.328C173.541 112.328 174.237 112.512 174.802 112.88C175.368 113.248 175.794 113.763 176.082 114.424C176.376 115.085 176.522 115.864 176.522 116.76C176.522 117.651 176.373 118.432 176.074 119.104C175.781 119.771 175.349 120.291 174.778 120.664C174.213 121.032 173.522 121.216 172.706 121.216C171.89 121.216 171.197 121.037 170.626 120.68C170.061 120.317 169.629 119.803 169.33 119.136C169.037 118.469 168.89 117.683 168.89 116.776C168.89 115.896 169.037 115.123 169.33 114.456C169.629 113.789 170.064 113.269 170.634 112.896C171.205 112.517 171.898 112.328 172.714 112.328ZM172.714 113.72C172.069 113.72 171.584 113.968 171.258 114.464C170.933 114.955 170.77 115.725 170.77 116.776C170.77 117.821 170.93 118.592 171.25 119.088C171.576 119.584 172.061 119.832 172.706 119.832C173.352 119.832 173.834 119.584 174.154 119.088C174.48 118.592 174.642 117.816 174.642 116.76C174.642 115.72 174.482 114.955 174.162 114.464C173.842 113.968 173.36 113.72 172.714 113.72ZM181.436 109.16V118.696C181.436 119.085 181.553 119.363 181.788 119.528C182.028 119.688 182.337 119.768 182.716 119.768C182.961 119.768 183.193 119.741 183.412 119.688C183.631 119.635 183.844 119.568 184.052 119.488L184.508 120.736C184.257 120.864 183.948 120.976 183.58 121.072C183.217 121.168 182.801 121.216 182.332 121.216C181.484 121.216 180.823 120.979 180.348 120.504C179.879 120.024 179.644 119.368 179.644 118.536V110.48H177.092V109.16H181.436ZM190.734 112.552V119.688H193.03V121H186.414V119.688H188.942V113.864H186.494V112.552H190.734ZM189.486 108.416C189.838 108.416 190.12 108.523 190.334 108.736C190.552 108.949 190.662 109.216 190.662 109.536C190.662 109.856 190.552 110.125 190.334 110.344C190.12 110.563 189.838 110.672 189.486 110.672C189.144 110.672 188.864 110.563 188.646 110.344C188.427 110.125 188.318 109.856 188.318 109.536C188.318 109.216 188.427 108.949 188.646 108.736C188.864 108.523 189.144 108.416 189.486 108.416ZM194.511 121V112.552H196.055L196.191 113.648C196.543 113.216 196.959 112.888 197.439 112.664C197.919 112.44 198.413 112.328 198.919 112.328C199.709 112.328 200.298 112.549 200.687 112.992C201.082 113.429 201.279 114.045 201.279 114.84V121H199.487V115.728C199.487 115.237 199.458 114.843 199.399 114.544C199.341 114.245 199.223 114.029 199.047 113.896C198.877 113.763 198.621 113.696 198.279 113.696C198.007 113.696 197.749 113.755 197.503 113.872C197.258 113.989 197.034 114.144 196.831 114.336C196.629 114.523 196.453 114.723 196.303 114.936V121H194.511ZM209.361 118.928C209.361 119.259 209.412 119.501 209.513 119.656C209.615 119.805 209.777 119.917 210.001 119.992L209.601 121.208C209.185 121.16 208.828 121.045 208.529 120.864C208.231 120.683 208.004 120.408 207.849 120.04C207.54 120.429 207.148 120.723 206.673 120.92C206.199 121.117 205.692 121.216 205.153 121.216C204.3 121.216 203.623 120.976 203.121 120.496C202.625 120.011 202.377 119.376 202.377 118.592C202.377 117.701 202.724 117.016 203.417 116.536C204.111 116.056 205.103 115.816 206.393 115.816H207.601V115.264C207.601 114.72 207.436 114.328 207.105 114.088C206.78 113.848 206.319 113.728 205.721 113.728C205.444 113.728 205.108 113.765 204.713 113.84C204.319 113.909 203.905 114.019 203.473 114.168L203.033 112.904C203.561 112.707 204.079 112.563 204.585 112.472C205.092 112.376 205.561 112.328 205.993 112.328C207.124 112.328 207.967 112.579 208.521 113.08C209.081 113.581 209.361 114.275 209.361 115.16V118.928ZM205.697 119.896C206.06 119.896 206.415 119.8 206.761 119.608C207.108 119.416 207.388 119.147 207.601 118.8V116.936H206.609C205.767 116.936 205.164 117.077 204.801 117.36C204.439 117.637 204.257 118.021 204.257 118.512C204.257 118.96 204.377 119.304 204.617 119.544C204.863 119.779 205.223 119.896 205.697 119.896ZM217.123 112.328C217.443 112.328 217.731 112.397 217.987 112.536C218.243 112.675 218.443 112.917 218.587 113.264C218.736 113.611 218.811 114.096 218.811 114.72V121H217.219V114.968C217.219 114.525 217.187 114.208 217.123 114.016C217.064 113.824 216.907 113.728 216.651 113.728C216.448 113.728 216.243 113.792 216.035 113.92C215.827 114.043 215.616 114.256 215.403 114.56V121H213.955V114.968C213.955 114.525 213.923 114.208 213.859 114.016C213.8 113.824 213.643 113.728 213.387 113.728C213.179 113.728 212.971 113.792 212.763 113.92C212.56 114.043 212.352 114.256 212.139 114.56V121H210.539V112.552H211.891L212.011 113.464C212.251 113.128 212.512 112.856 212.795 112.648C213.078 112.435 213.419 112.328 213.819 112.328C214.139 112.328 214.43 112.408 214.691 112.568C214.952 112.728 215.144 113.008 215.267 113.408C215.502 113.088 215.768 112.829 216.067 112.632C216.366 112.429 216.718 112.328 217.123 112.328ZM221.181 117.352C221.218 117.928 221.341 118.4 221.549 118.768C221.757 119.131 222.029 119.397 222.365 119.568C222.706 119.739 223.079 119.824 223.485 119.824C223.901 119.824 224.285 119.76 224.637 119.632C224.989 119.504 225.343 119.323 225.701 119.088L226.477 120.16C226.082 120.48 225.621 120.736 225.093 120.928C224.565 121.12 223.999 121.216 223.397 121.216C222.522 121.216 221.781 121.029 221.173 120.656C220.57 120.283 220.111 119.763 219.797 119.096C219.482 118.429 219.325 117.659 219.325 116.784C219.325 115.936 219.479 115.179 219.789 114.512C220.098 113.84 220.541 113.309 221.117 112.92C221.693 112.525 222.381 112.328 223.181 112.328C223.933 112.328 224.578 112.499 225.117 112.84C225.661 113.181 226.079 113.667 226.373 114.296C226.671 114.92 226.821 115.672 226.821 116.552C226.821 116.696 226.815 116.84 226.805 116.984C226.799 117.123 226.791 117.245 226.781 117.352H221.181ZM223.197 113.656C222.637 113.656 222.173 113.856 221.805 114.256C221.442 114.656 221.231 115.28 221.173 116.128H225.085C225.069 115.333 224.898 114.723 224.573 114.296C224.253 113.869 223.794 113.656 223.197 113.656ZM228.087 121V112.552H229.631L229.767 113.648C230.119 113.216 230.535 112.888 231.015 112.664C231.495 112.44 231.988 112.328 232.495 112.328C233.284 112.328 233.873 112.549 234.263 112.992C234.657 113.429 234.855 114.045 234.855 114.84V121H233.063V115.728C233.063 115.237 233.033 114.843 232.975 114.544C232.916 114.245 232.799 114.029 232.623 113.896C232.452 113.763 232.196 113.696 231.855 113.696C231.583 113.696 231.324 113.755 231.079 113.872C230.833 113.989 230.609 114.144 230.407 114.336C230.204 114.523 230.028 114.723 229.879 114.936V121H228.087ZM237.968 117.352C238.006 117.928 238.128 118.4 238.336 118.768C238.544 119.131 238.816 119.397 239.152 119.568C239.494 119.739 239.867 119.824 240.272 119.824C240.688 119.824 241.072 119.76 241.424 119.632C241.776 119.504 242.131 119.323 242.488 119.088L243.264 120.16C242.87 120.48 242.408 120.736 241.88 120.928C241.352 121.12 240.787 121.216 240.184 121.216C239.31 121.216 238.568 121.029 237.96 120.656C237.358 120.283 236.899 119.763 236.584 119.096C236.27 118.429 236.112 117.659 236.112 116.784C236.112 115.936 236.267 115.179 236.576 114.512C236.886 113.84 237.328 113.309 237.904 112.92C238.48 112.525 239.168 112.328 239.968 112.328C240.72 112.328 241.366 112.499 241.904 112.84C242.448 113.181 242.867 113.667 243.16 114.296C243.459 114.92 243.608 115.672 243.608 116.552C243.608 116.696 243.603 116.84 243.592 116.984C243.587 117.123 243.579 117.245 243.568 117.352H237.968ZM239.984 113.656C239.424 113.656 238.96 113.856 238.592 114.256C238.23 114.656 238.019 115.28 237.96 116.128H241.872C241.856 115.333 241.686 114.723 241.36 114.296C241.04 113.869 240.582 113.656 239.984 113.656ZM247.058 119.56H251.578L251.386 121H244.906V119.688L249.402 113.992H245.266V112.552H251.522V113.864L247.058 119.56ZM254.756 117.352C254.793 117.928 254.916 118.4 255.124 118.768C255.332 119.131 255.604 119.397 255.94 119.568C256.281 119.739 256.654 119.824 257.06 119.824C257.476 119.824 257.86 119.76 258.212 119.632C258.564 119.504 258.918 119.323 259.276 119.088L260.052 120.16C259.657 120.48 259.196 120.736 258.668 120.928C258.14 121.12 257.574 121.216 256.972 121.216C256.097 121.216 255.356 121.029 254.748 120.656C254.145 120.283 253.686 119.763 253.372 119.096C253.057 118.429 252.9 117.659 252.9 116.784C252.9 115.936 253.054 115.179 253.364 114.512C253.673 113.84 254.116 113.309 254.692 112.92C255.268 112.525 255.956 112.328 256.756 112.328C257.508 112.328 258.153 112.499 258.692 112.84C259.236 113.181 259.654 113.667 259.948 114.296C260.246 114.92 260.396 115.672 260.396 116.552C260.396 116.696 260.39 116.84 260.38 116.984C260.374 117.123 260.366 117.245 260.356 117.352H254.756ZM256.772 113.656C256.212 113.656 255.748 113.856 255.38 114.256C255.017 114.656 254.806 115.28 254.748 116.128H258.66C258.644 115.333 258.473 114.723 258.148 114.296C257.828 113.869 257.369 113.656 256.772 113.656ZM264.734 119.84C265.294 119.84 265.739 119.741 266.07 119.544C266.4 119.341 266.566 119.064 266.566 118.712C266.566 118.483 266.518 118.288 266.422 118.128C266.326 117.963 266.134 117.813 265.846 117.68C265.558 117.541 265.12 117.397 264.534 117.248C263.979 117.104 263.491 116.933 263.07 116.736C262.654 116.539 262.331 116.283 262.102 115.968C261.872 115.653 261.758 115.248 261.758 114.752C261.758 114.267 261.894 113.843 262.166 113.48C262.438 113.117 262.827 112.835 263.334 112.632C263.846 112.429 264.446 112.328 265.134 112.328C265.843 112.328 266.462 112.421 266.99 112.608C267.518 112.795 267.968 113.027 268.342 113.304L267.59 114.432C267.259 114.213 266.896 114.035 266.502 113.896C266.112 113.757 265.672 113.688 265.182 113.688C264.611 113.688 264.2 113.773 263.95 113.944C263.704 114.115 263.582 114.341 263.582 114.624C263.582 114.832 263.643 115.008 263.766 115.152C263.894 115.291 264.112 115.421 264.422 115.544C264.731 115.661 265.168 115.8 265.734 115.96C266.283 116.109 266.76 116.285 267.166 116.488C267.576 116.691 267.894 116.96 268.118 117.296C268.347 117.627 268.462 118.059 268.462 118.592C268.462 119.2 268.286 119.699 267.934 120.088C267.587 120.472 267.128 120.757 266.558 120.944C265.992 121.125 265.384 121.216 264.734 121.216C263.95 121.216 263.272 121.104 262.702 120.88C262.131 120.651 261.651 120.365 261.262 120.024L262.214 118.936C262.544 119.203 262.923 119.421 263.35 119.592C263.776 119.757 264.238 119.84 264.734 119.84ZM46.768 133.736C47.488 133.736 48.096 133.859 48.592 134.104C49.0933 134.344 49.4747 134.659 49.736 135.048C49.9973 135.432 50.128 135.845 50.128 136.288C50.128 136.8 50.0293 137.219 49.832 137.544C49.6347 137.869 49.392 138.144 49.104 138.368C48.816 138.587 48.5253 138.8 48.232 139.008C47.944 139.211 47.7013 139.445 47.504 139.712C47.3067 139.973 47.208 140.312 47.208 140.728V141.2H45.496V140.648C45.496 140.12 45.5867 139.685 45.768 139.344C45.9547 138.997 46.1867 138.707 46.464 138.472C46.7413 138.237 47.016 138.027 47.288 137.84C47.5653 137.648 47.7947 137.443 47.976 137.224C48.1627 137.005 48.256 136.739 48.256 136.424C48.256 136.024 48.0987 135.72 47.784 135.512C47.4693 135.299 47.0747 135.192 46.6 135.192C46.2267 135.192 45.8507 135.28 45.472 135.456C45.0933 135.632 44.7467 135.909 44.432 136.288L43.232 135.376C43.696 134.832 44.2213 134.424 44.808 134.152C45.4 133.875 46.0533 133.736 46.768 133.736ZM46.384 142.792C46.7307 142.792 47.0213 142.912 47.256 143.152C47.4907 143.387 47.608 143.669 47.608 144C47.608 144.336 47.4907 144.624 47.256 144.864C47.0213 145.099 46.7307 145.216 46.384 145.216C46.048 145.216 45.7627 145.099 45.528 144.864C45.2987 144.624 45.184 144.336 45.184 144C45.184 143.669 45.2987 143.387 45.528 143.152C45.7627 142.912 46.048 142.792 46.384 142.792Z" fill="#8BC34A"/>
<path d="M65.8115 139.424C65.8115 138.544 65.7235 137.837 65.5475 137.304C65.3768 136.771 65.1448 136.365 64.8515 136.088C64.5635 135.811 64.2408 135.624 63.8835 135.528C63.5315 135.432 63.1715 135.384 62.8035 135.384H61.7875V143.592H62.8115C63.1955 143.592 63.5662 143.531 63.9235 143.408C64.2808 143.285 64.6008 143.072 64.8835 142.768C65.1715 142.464 65.3982 142.043 65.5635 141.504C65.7288 140.96 65.8115 140.267 65.8115 139.424ZM67.7635 139.424C67.7635 140.565 67.6142 141.501 67.3155 142.232C67.0168 142.963 66.6195 143.528 66.1235 143.928C65.6275 144.328 65.0755 144.608 64.4675 144.768C63.8595 144.923 63.2488 145 62.6355 145H59.9315V133.96H62.4515C63.1235 133.96 63.7742 134.032 64.4035 134.176C65.0382 134.32 65.6062 134.587 66.1075 134.976C66.6142 135.365 67.0168 135.917 67.3155 136.632C67.6142 137.347 67.7635 138.277 67.7635 139.424ZM71.9892 136.328C72.8159 136.328 73.5119 136.512 74.0773 136.88C74.6426 137.248 75.0693 137.763 75.3573 138.424C75.6506 139.085 75.7972 139.864 75.7972 140.76C75.7972 141.651 75.6479 142.432 75.3492 143.104C75.0559 143.771 74.6239 144.291 74.0532 144.664C73.4879 145.032 72.7972 145.216 71.9812 145.216C71.1652 145.216 70.4719 145.037 69.9012 144.68C69.3359 144.317 68.9039 143.803 68.6052 143.136C68.3119 142.469 68.1652 141.683 68.1652 140.776C68.1652 139.896 68.3119 139.123 68.6052 138.456C68.9039 137.789 69.3386 137.269 69.9092 136.896C70.4799 136.517 71.1732 136.328 71.9892 136.328ZM71.9892 137.72C71.3439 137.72 70.8586 137.968 70.5332 138.464C70.2079 138.955 70.0452 139.725 70.0452 140.776C70.0452 141.821 70.2052 142.592 70.5252 143.088C70.8506 143.584 71.3359 143.832 71.9812 143.832C72.6266 143.832 73.1092 143.584 73.4292 143.088C73.7546 142.592 73.9173 141.816 73.9173 140.76C73.9173 139.72 73.7573 138.955 73.4373 138.464C73.1173 137.968 72.6346 137.72 71.9892 137.72ZM92.7847 136.552L89.8728 145.032C89.6541 145.672 89.3741 146.235 89.0328 146.72C88.6914 147.211 88.2541 147.605 87.7208 147.904C87.1874 148.203 86.5261 148.387 85.7368 148.456L85.5048 147.112C86.0754 147.021 86.5288 146.888 86.8648 146.712C87.2061 146.541 87.4754 146.315 87.6728 146.032C87.8754 145.749 88.0541 145.405 88.2088 145H87.6008L84.7528 136.552H86.6568L88.7848 143.752L90.9448 136.552H92.7847ZM97.1705 136.328C97.9972 136.328 98.6932 136.512 99.2585 136.88C99.8238 137.248 100.25 137.763 100.538 138.424C100.832 139.085 100.978 139.864 100.978 140.76C100.978 141.651 100.829 142.432 100.53 143.104C100.237 143.771 99.8052 144.291 99.2345 144.664C98.6692 145.032 97.9785 145.216 97.1625 145.216C96.3465 145.216 95.6532 145.037 95.0825 144.68C94.5172 144.317 94.0852 143.803 93.7865 143.136C93.4932 142.469 93.3465 141.683 93.3465 140.776C93.3465 139.896 93.4932 139.123 93.7865 138.456C94.0852 137.789 94.5198 137.269 95.0905 136.896C95.6612 136.517 96.3545 136.328 97.1705 136.328ZM97.1705 137.72C96.5252 137.72 96.0398 137.968 95.7145 138.464C95.3892 138.955 95.2265 139.725 95.2265 140.776C95.2265 141.821 95.3865 142.592 95.7065 143.088C96.0318 143.584 96.5172 143.832 97.1625 143.832C97.8078 143.832 98.2905 143.584 98.6105 143.088C98.9358 142.592 99.0985 141.816 99.0985 140.76C99.0985 139.72 98.9385 138.955 98.6185 138.464C98.2985 137.968 97.8158 137.72 97.1705 137.72ZM103.972 136.552V142.456C103.972 142.957 104.071 143.315 104.268 143.528C104.471 143.741 104.775 143.848 105.18 143.848C105.564 143.848 105.935 143.733 106.292 143.504C106.65 143.275 106.932 142.995 107.14 142.664V136.552H108.932V145H107.388L107.276 143.92C106.962 144.341 106.564 144.664 106.084 144.888C105.604 145.107 105.114 145.216 104.612 145.216C103.796 145.216 103.186 144.992 102.78 144.544C102.38 144.091 102.18 143.469 102.18 142.68V136.552H103.972ZM125.576 145H123.336L122.384 139L121.36 145H119.168L117.736 136.552H119.464L120.344 143.888L121.52 137.624H123.312L124.408 143.888L125.288 136.552H126.952L125.576 145ZM131.978 136.552V143.688H134.274V145H127.658V143.688H130.186V137.864H127.738V136.552H131.978ZM130.73 132.416C131.082 132.416 131.364 132.523 131.578 132.736C131.796 132.949 131.906 133.216 131.906 133.536C131.906 133.856 131.796 134.125 131.578 134.344C131.364 134.563 131.082 134.672 130.73 134.672C130.388 134.672 130.108 134.563 129.89 134.344C129.671 134.125 129.562 133.856 129.562 133.536C129.562 133.216 129.671 132.949 129.89 132.736C130.108 132.523 130.388 132.416 130.73 132.416ZM138.827 143.84C139.387 143.84 139.833 143.741 140.163 143.544C140.494 143.341 140.659 143.064 140.659 142.712C140.659 142.483 140.611 142.288 140.515 142.128C140.419 141.963 140.227 141.813 139.939 141.68C139.651 141.541 139.214 141.397 138.627 141.248C138.073 141.104 137.585 140.933 137.163 140.736C136.747 140.539 136.425 140.283 136.195 139.968C135.966 139.653 135.851 139.248 135.851 138.752C135.851 138.267 135.987 137.843 136.259 137.48C136.531 137.117 136.921 136.835 137.427 136.632C137.939 136.429 138.539 136.328 139.227 136.328C139.937 136.328 140.555 136.421 141.083 136.608C141.611 136.795 142.062 137.027 142.435 137.304L141.683 138.432C141.353 138.213 140.99 138.035 140.595 137.896C140.206 137.757 139.766 137.688 139.275 137.688C138.705 137.688 138.294 137.773 138.043 137.944C137.798 138.115 137.675 138.341 137.675 138.624C137.675 138.832 137.737 139.008 137.859 139.152C137.987 139.291 138.206 139.421 138.515 139.544C138.825 139.661 139.262 139.8 139.827 139.96C140.377 140.109 140.854 140.285 141.259 140.488C141.67 140.691 141.987 140.96 142.211 141.296C142.441 141.627 142.555 142.059 142.555 142.592C142.555 143.2 142.379 143.699 142.027 144.088C141.681 144.472 141.222 144.757 140.651 144.944C140.086 145.125 139.478 145.216 138.827 145.216C138.043 145.216 137.366 145.104 136.795 144.88C136.225 144.651 135.745 144.365 135.355 144.024L136.307 142.936C136.638 143.203 137.017 143.421 137.443 143.592C137.87 143.757 138.331 143.84 138.827 143.84ZM145.941 132.984V137.584C146.282 137.168 146.682 136.856 147.141 136.648C147.6 136.435 148.072 136.328 148.557 136.328C149.352 136.328 149.944 136.549 150.333 136.992C150.722 137.429 150.917 138.045 150.917 138.84V145H149.125V139.12C149.125 138.613 149.029 138.251 148.837 138.032C148.645 137.808 148.336 137.696 147.909 137.696C147.642 137.696 147.386 137.757 147.141 137.88C146.901 137.997 146.677 138.152 146.469 138.344C146.266 138.536 146.09 138.741 145.941 138.96V145H144.149V133.176L145.941 132.984ZM167.992 144.552C167.683 144.749 167.312 144.909 166.88 145.032C166.448 145.155 165.998 145.216 165.528 145.216C164.547 145.216 163.8 144.963 163.288 144.456C162.782 143.944 162.528 143.272 162.528 142.44V137.856H160.648V136.552H162.528V134.664L164.32 134.448V136.552H167.168L166.968 137.856H164.32V142.424C164.32 142.877 164.432 143.216 164.656 143.44C164.886 143.659 165.259 143.768 165.776 143.768C166.086 143.768 166.371 143.731 166.632 143.656C166.894 143.581 167.131 143.485 167.344 143.368L167.992 144.552ZM172.714 136.328C173.541 136.328 174.237 136.512 174.802 136.88C175.368 137.248 175.794 137.763 176.082 138.424C176.376 139.085 176.522 139.864 176.522 140.76C176.522 141.651 176.373 142.432 176.074 143.104C175.781 143.771 175.349 144.291 174.778 144.664C174.213 145.032 173.522 145.216 172.706 145.216C171.89 145.216 171.197 145.037 170.626 144.68C170.061 144.317 169.629 143.803 169.33 143.136C169.037 142.469 168.89 141.683 168.89 140.776C168.89 139.896 169.037 139.123 169.33 138.456C169.629 137.789 170.064 137.269 170.634 136.896C171.205 136.517 171.898 136.328 172.714 136.328ZM172.714 137.72C172.069 137.72 171.584 137.968 171.258 138.464C170.933 138.955 170.77 139.725 170.77 140.776C170.77 141.821 170.93 142.592 171.25 143.088C171.576 143.584 172.061 143.832 172.706 143.832C173.352 143.832 173.834 143.584 174.154 143.088C174.48 142.592 174.642 141.816 174.642 140.76C174.642 139.72 174.482 138.955 174.162 138.464C173.842 137.968 173.36 137.72 172.714 137.72ZM190.19 143.744C190.584 143.744 190.952 143.677 191.294 143.544C191.635 143.405 191.96 143.227 192.27 143.008L193.102 144.16C192.734 144.475 192.286 144.731 191.758 144.928C191.235 145.12 190.694 145.216 190.134 145.216C189.27 145.216 188.531 145.035 187.918 144.672C187.304 144.304 186.835 143.789 186.51 143.128C186.184 142.467 186.022 141.696 186.022 140.816C186.022 139.957 186.184 139.192 186.51 138.52C186.84 137.843 187.315 137.309 187.934 136.92C188.552 136.525 189.296 136.328 190.166 136.328C190.742 136.328 191.272 136.413 191.758 136.584C192.243 136.755 192.688 137.008 193.094 137.344L192.27 138.472C191.939 138.243 191.6 138.069 191.254 137.952C190.912 137.829 190.56 137.768 190.198 137.768C189.531 137.768 188.984 138.013 188.558 138.504C188.136 138.995 187.926 139.765 187.926 140.816C187.926 141.52 188.022 142.088 188.214 142.52C188.411 142.947 188.68 143.259 189.022 143.456C189.363 143.648 189.752 143.744 190.19 143.744ZM194.591 145V143.72H195.831V137.824H194.591V136.552H197.199L197.527 138.512C197.842 137.803 198.231 137.264 198.695 136.896C199.165 136.523 199.767 136.336 200.503 136.336C200.754 136.336 200.978 136.357 201.175 136.4C201.378 136.437 201.578 136.488 201.775 136.552L201.239 138.088C201.069 138.04 200.909 138.005 200.759 137.984C200.61 137.957 200.445 137.944 200.263 137.944C199.65 137.944 199.119 138.173 198.671 138.632C198.229 139.091 197.879 139.741 197.623 140.584V143.72H199.327V145H194.591ZM200.191 139.664V137.584L200.415 136.552H201.775L201.471 139.664H200.191ZM204.393 141.352C204.431 141.928 204.553 142.4 204.761 142.768C204.969 143.131 205.241 143.397 205.577 143.568C205.919 143.739 206.292 143.824 206.697 143.824C207.113 143.824 207.497 143.76 207.849 143.632C208.201 143.504 208.556 143.323 208.913 143.088L209.689 144.16C209.295 144.48 208.833 144.736 208.305 144.928C207.777 145.12 207.212 145.216 206.609 145.216C205.735 145.216 204.993 145.029 204.385 144.656C203.783 144.283 203.324 143.763 203.009 143.096C202.695 142.429 202.537 141.659 202.537 140.784C202.537 139.936 202.692 139.179 203.001 138.512C203.311 137.84 203.753 137.309 204.329 136.92C204.905 136.525 205.593 136.328 206.393 136.328C207.145 136.328 207.791 136.499 208.329 136.84C208.873 137.181 209.292 137.667 209.585 138.296C209.884 138.92 210.033 139.672 210.033 140.552C210.033 140.696 210.028 140.84 210.017 140.984C210.012 141.123 210.004 141.245 209.993 141.352H204.393ZM206.409 137.656C205.849 137.656 205.385 137.856 205.017 138.256C204.655 138.656 204.444 139.28 204.385 140.128H208.297C208.281 139.333 208.111 138.723 207.785 138.296C207.465 137.869 207.007 137.656 206.409 137.656ZM217.755 142.928C217.755 143.259 217.806 143.501 217.907 143.656C218.008 143.805 218.171 143.917 218.395 143.992L217.995 145.208C217.579 145.16 217.222 145.045 216.923 144.864C216.624 144.683 216.398 144.408 216.243 144.04C215.934 144.429 215.542 144.723 215.067 144.92C214.592 145.117 214.086 145.216 213.547 145.216C212.694 145.216 212.016 144.976 211.515 144.496C211.019 144.011 210.771 143.376 210.771 142.592C210.771 141.701 211.118 141.016 211.811 140.536C212.504 140.056 213.496 139.816 214.787 139.816H215.995V139.264C215.995 138.72 215.83 138.328 215.499 138.088C215.174 137.848 214.712 137.728 214.115 137.728C213.838 137.728 213.502 137.765 213.107 137.84C212.712 137.909 212.299 138.019 211.867 138.168L211.427 136.904C211.955 136.707 212.472 136.563 212.979 136.472C213.486 136.376 213.955 136.328 214.387 136.328C215.518 136.328 216.36 136.579 216.915 137.08C217.475 137.581 217.755 138.275 217.755 139.16V142.928ZM214.091 143.896C214.454 143.896 214.808 143.8 215.155 143.608C215.502 143.416 215.782 143.147 215.995 142.8V140.936H215.003C214.16 140.936 213.558 141.077 213.195 141.36C212.832 141.637 212.651 142.021 212.651 142.512C212.651 142.96 212.771 143.304 213.011 143.544C213.256 143.779 213.616 143.896 214.091 143.896ZM226.749 144.552C226.439 144.749 226.069 144.909 225.637 145.032C225.205 145.155 224.754 145.216 224.285 145.216C223.303 145.216 222.557 144.963 222.045 144.456C221.538 143.944 221.285 143.272 221.285 142.44V137.856H219.405V136.552H221.285V134.664L223.077 134.448V136.552H225.925L225.725 137.856H223.077V142.424C223.077 142.877 223.189 143.216 223.413 143.44C223.642 143.659 224.015 143.768 224.533 143.768C224.842 143.768 225.127 143.731 225.389 143.656C225.65 143.581 225.887 143.485 226.101 143.368L226.749 144.552ZM229.575 141.352C229.612 141.928 229.735 142.4 229.943 142.768C230.151 143.131 230.423 143.397 230.759 143.568C231.1 143.739 231.473 143.824 231.879 143.824C232.295 143.824 232.679 143.76 233.031 143.632C233.383 143.504 233.737 143.323 234.095 143.088L234.871 144.16C234.476 144.48 234.015 144.736 233.487 144.928C232.959 145.12 232.393 145.216 231.791 145.216C230.916 145.216 230.175 145.029 229.567 144.656C228.964 144.283 228.505 143.763 228.191 143.096C227.876 142.429 227.719 141.659 227.719 140.784C227.719 139.936 227.873 139.179 228.183 138.512C228.492 137.84 228.935 137.309 229.511 136.92C230.087 136.525 230.775 136.328 231.575 136.328C232.327 136.328 232.972 136.499 233.511 136.84C234.055 137.181 234.473 137.667 234.767 138.296C235.065 138.92 235.215 139.672 235.215 140.552C235.215 140.696 235.209 140.84 235.199 140.984C235.193 141.123 235.185 141.245 235.175 141.352H229.575ZM231.591 137.656C231.031 137.656 230.567 137.856 230.199 138.256C229.836 138.656 229.625 139.28 229.567 140.128H233.479C233.463 139.333 233.292 138.723 232.967 138.296C232.647 137.869 232.188 137.656 231.591 137.656ZM249.49 136.552V143.688H251.786V145H245.17V143.688H247.698V137.864H245.25V136.552H249.49ZM248.242 132.416C248.594 132.416 248.877 132.523 249.09 132.736C249.309 132.949 249.418 133.216 249.418 133.536C249.418 133.856 249.309 134.125 249.09 134.344C248.877 134.563 248.594 134.672 248.242 134.672C247.901 134.672 247.621 134.563 247.402 134.344C247.183 134.125 247.074 133.856 247.074 133.536C247.074 133.216 247.183 132.949 247.402 132.736C247.621 132.523 247.901 132.416 248.242 132.416ZM260.324 144.552C260.014 144.749 259.644 144.909 259.212 145.032C258.78 145.155 258.329 145.216 257.86 145.216C256.878 145.216 256.132 144.963 255.62 144.456C255.113 143.944 254.86 143.272 254.86 142.44V137.856H252.98V136.552H254.86V134.664L256.652 134.448V136.552H259.5L259.3 137.856H256.652V142.424C256.652 142.877 256.764 143.216 256.988 143.44C257.217 143.659 257.59 143.768 258.108 143.768C258.417 143.768 258.702 143.731 258.964 143.656C259.225 143.581 259.462 143.485 259.676 143.368L260.324 144.552ZM265.006 133.736C265.726 133.736 266.334 133.859 266.83 134.104C267.331 134.344 267.712 134.659 267.974 135.048C268.235 135.432 268.366 135.845 268.366 136.288C268.366 136.8 268.267 137.219 268.07 137.544C267.872 137.869 267.63 138.144 267.342 138.368C267.054 138.587 266.763 138.8 266.47 139.008C266.182 139.211 265.939 139.445 265.742 139.712C265.544 139.973 265.446 140.312 265.446 140.728V141.2H263.734V140.648C263.734 140.12 263.824 139.685 264.006 139.344C264.192 138.997 264.424 138.707 264.702 138.472C264.979 138.237 265.254 138.027 265.526 137.84C265.803 137.648 266.032 137.443 266.214 137.224C266.4 137.005 266.494 136.739 266.494 136.424C266.494 136.024 266.336 135.72 266.022 135.512C265.707 135.299 265.312 135.192 264.838 135.192C264.464 135.192 264.088 135.28 263.71 135.456C263.331 135.632 262.984 135.909 262.67 136.288L261.47 135.376C261.934 134.832 262.459 134.424 263.046 134.152C263.638 133.875 264.291 133.736 265.006 133.736ZM264.622 142.792C264.968 142.792 265.259 142.912 265.494 143.152C265.728 143.387 265.846 143.669 265.846 144C265.846 144.336 265.728 144.624 265.494 144.864C265.259 145.099 264.968 145.216 264.622 145.216C264.286 145.216 264 145.099 263.766 144.864C263.536 144.624 263.422 144.336 263.422 144C263.422 143.669 263.536 143.387 263.766 143.152C264 142.912 264.286 142.792 264.622 142.792Z" fill="#FFB100"/>
<defs>
<filter id="filter0_d" x="0" y="0" width="797" height="187" filterUnits="userSpaceOnUse" color-interpolation-filters="sRGB">
<feFlood flood-opacity="0" result="BackgroundImageFix"/>
<feColorMatrix in="SourceAlpha" type="matrix" values="0 0 0 0 0 0 0 0 0 0 0 0 0 0 0 0 0 0 127 0"/>
<feOffset dy="3"/>
<feGaussianBlur stdDeviation="4"/>
<feColorMatrix type="matrix" values="0 0 0 0 0 0 0 0 0 0 0 0 0 0 0 0 0 0 0.15 0"/>
<feBlend mode="normal" in2="BackgroundImageFix" result="effect1_dropShadow"/>
<feBlend mode="normal" in="SourceGraphic" in2="effect1_dropShadow" result="shape"/>
</filter>
<clipPath id="clip0">
<rect width="781" height="131" fill="white" transform="translate(8 45)"/>
</clipPath>
</defs>
</svg>
