<svg width="586" height="171" viewBox="0 0 586 171" fill="none" xmlns="http://www.w3.org/2000/svg">
<g filter="url(#filter0_d)">
<path d="M8 9C8 6.79086 9.79086 5 12 5H574C576.209 5 578 6.79086 578 9V156C578 158.209 576.209 160 574 160H12C9.79087 160 8 158.209 8 156V9Z" fill="#FF0000"/>
<rect x="8" y="5" width="570" height="40" fill="#1D2A3D"/>
<circle cx="28" cy="25" r="6" fill="#FF4A4A"/>
<circle cx="48" cy="25" r="6" fill="#FFB83D"/>
<circle cx="68" cy="25" r="6" fill="#00C543"/>
<rect x="8" y="44" width="570" height="1" fill="#122D42"/>
<rect width="570" height="115" transform="translate(8 45)" fill="#25354D"/>
<path d="M41.0825 76.9925C41.4575 76.9925 41.775 77.0675 42.035 77.2175C42.3 77.3675 42.535 77.5425 42.74 77.7425C42.945 77.9375 43.1425 78.1125 43.3325 78.2675C43.5225 78.4175 43.7325 78.4925 43.9625 78.4925C44.2725 78.4925 44.5475 78.37 44.7875 78.125C45.0325 77.88 45.2525 77.5775 45.4475 77.2175L46.3475 77.6825C46.2025 77.9675 46.025 78.2575 45.815 78.5525C45.605 78.8425 45.345 79.0875 45.035 79.2875C44.73 79.4825 44.3575 79.58 43.9175 79.58C43.5675 79.58 43.2625 79.505 43.0025 79.355C42.7475 79.205 42.515 79.0325 42.305 78.8375C42.095 78.6375 41.89 78.4625 41.69 78.3125C41.49 78.1575 41.2725 78.08 41.0375 78.08C40.7125 78.08 40.4325 78.2025 40.1975 78.4475C39.9625 78.6875 39.7475 78.9875 39.5525 79.3475L38.6525 78.905C38.8025 78.61 38.98 78.315 39.185 78.02C39.395 77.725 39.6525 77.48 39.9575 77.285C40.2625 77.09 40.6375 76.9925 41.0825 76.9925ZM47.6016 84.545L46.5816 84.095L53.0016 70.8575L54.0066 71.3525L47.6016 84.545ZM85.0632 75.1025L82.1907 83H80.7282L77.8782 75.1025H79.2132L81.5007 81.8525L83.7582 75.1025H85.0632ZM92.5423 82.6025C92.2723 82.7825 91.9448 82.9225 91.5598 83.0225C91.1748 83.1225 90.7973 83.1725 90.4273 83.1725C89.5773 83.1725 88.9223 82.95 88.4623 82.505C88.0023 82.06 87.7723 81.4875 87.7723 80.7875V76.0775H85.9573V75.1025H87.7723V73.31L89.0323 73.16V75.1025H91.7623L91.6123 76.0775H89.0323V80.7725C89.0323 81.2125 89.1473 81.5475 89.3773 81.7775C89.6123 82.0075 89.9998 82.1225 90.5398 82.1225C90.8348 82.1225 91.1073 82.0875 91.3573 82.0175C91.6073 81.9475 91.8398 81.8575 92.0548 81.7475L92.5423 82.6025ZM95.0565 79.4975C95.0915 80.4125 95.3315 81.08 95.7765 81.5C96.2265 81.915 96.7565 82.1225 97.3665 82.1225C97.7715 82.1225 98.1365 82.0625 98.4615 81.9425C98.7865 81.8225 99.124 81.645 99.474 81.41L100.066 82.2425C99.7015 82.5325 99.2815 82.76 98.8065 82.925C98.3315 83.09 97.8465 83.1725 97.3515 83.1725C96.5815 83.1725 95.9265 83 95.3865 82.655C94.8515 82.31 94.4415 81.83 94.1565 81.215C93.8765 80.595 93.7365 79.8775 93.7365 79.0625C93.7365 78.2625 93.8765 77.5525 94.1565 76.9325C94.4415 76.3125 94.8415 75.825 95.3565 75.47C95.8765 75.115 96.4865 74.9375 97.1865 74.9375C98.1815 74.9375 98.964 75.2825 99.534 75.9725C100.109 76.6625 100.396 77.6075 100.396 78.8075C100.396 78.9425 100.391 79.07 100.381 79.19C100.376 79.31 100.371 79.4125 100.366 79.4975H95.0565ZM97.2015 75.9725C96.6165 75.9725 96.1265 76.18 95.7315 76.595C95.3365 77.01 95.114 77.6525 95.064 78.5225H99.1815C99.1665 77.6775 98.9815 77.0425 98.6265 76.6175C98.2715 76.1875 97.7965 75.9725 97.2015 75.9725ZM102.626 83H101.186L104.103 78.83L101.546 75.1025H103.038L104.868 78.0425L106.721 75.1025H108.161L105.611 78.7775L108.521 83H106.976L104.816 79.61L102.626 83Z" fill="#FFB100"/>
<path d="M120.981 74.9375C121.681 74.9375 122.239 75.1075 122.654 75.4475C123.074 75.7875 123.376 76.2675 123.561 76.8875C123.746 77.5025 123.839 78.2225 123.839 79.0475C123.839 79.8425 123.726 80.5525 123.501 81.1775C123.281 81.7975 122.946 82.285 122.496 82.64C122.046 82.995 121.479 83.1725 120.794 83.1725C119.929 83.1725 119.234 82.8675 118.709 82.2575V86.0225L117.449 86.18V75.1025H118.521L118.626 76.205C118.916 75.8 119.261 75.4875 119.661 75.2675C120.061 75.0475 120.501 74.9375 120.981 74.9375ZM120.681 75.95C120.246 75.95 119.861 76.0825 119.526 76.3475C119.191 76.6075 118.919 76.8975 118.709 77.2175V81.1325C118.914 81.4375 119.171 81.68 119.481 81.86C119.796 82.035 120.141 82.1225 120.516 82.1225C121.171 82.1225 121.664 81.8725 121.994 81.3725C122.324 80.8725 122.489 80.095 122.489 79.04C122.489 76.98 121.886 75.95 120.681 75.95ZM128.318 71.9225V81.05C128.318 81.44 128.438 81.7175 128.678 81.8825C128.923 82.0425 129.238 82.1225 129.623 82.1225C129.858 82.1225 130.083 82.0975 130.298 82.0475C130.518 81.9975 130.736 81.93 130.951 81.845L131.288 82.7675C131.073 82.8725 130.806 82.965 130.486 83.045C130.171 83.13 129.813 83.1725 129.413 83.1725C128.713 83.1725 128.146 82.98 127.711 82.595C127.276 82.205 127.058 81.6675 127.058 80.9825V72.92H124.636V71.9225H128.318ZM134.297 75.1025V80.6975C134.297 81.2175 134.405 81.5925 134.62 81.8225C134.835 82.0525 135.17 82.1675 135.625 82.1675C136.06 82.1675 136.47 82.045 136.855 81.8C137.245 81.55 137.547 81.255 137.762 80.915V75.1025H139.022V83H137.95L137.845 81.935C137.535 82.335 137.15 82.6425 136.69 82.8575C136.235 83.0675 135.777 83.1725 135.317 83.1725C134.552 83.1725 133.98 82.97 133.6 82.565C133.225 82.155 133.037 81.5825 133.037 80.8475V75.1025H134.297ZM147.251 74.2625L147.641 75.4475C147.301 75.5525 146.941 75.6175 146.561 75.6425C146.186 75.6675 145.776 75.68 145.331 75.68C146.246 76.1 146.704 76.7625 146.704 77.6675C146.704 78.4475 146.441 79.09 145.916 79.595C145.396 80.1 144.669 80.3525 143.734 80.3525C143.469 80.3525 143.246 80.34 143.066 80.315C142.891 80.29 142.721 80.2525 142.556 80.2025C142.436 80.2875 142.336 80.4 142.256 80.54C142.181 80.675 142.144 80.8175 142.144 80.9675C142.144 81.1575 142.219 81.315 142.369 81.44C142.519 81.565 142.796 81.6275 143.201 81.6275H144.626C145.156 81.6275 145.631 81.7225 146.051 81.9125C146.471 82.1025 146.804 82.36 147.049 82.685C147.294 83.005 147.416 83.3675 147.416 83.7725C147.416 84.5475 147.086 85.1425 146.426 85.5575C145.771 85.9725 144.844 86.18 143.644 86.18C142.804 86.18 142.141 86.0925 141.656 85.9175C141.171 85.7475 140.824 85.485 140.614 85.13C140.409 84.78 140.306 84.3375 140.306 83.8025H141.446C141.446 84.1075 141.506 84.36 141.626 84.56C141.746 84.76 141.964 84.9075 142.279 85.0025C142.594 85.1025 143.046 85.1525 143.636 85.1525C144.506 85.1525 145.141 85.0425 145.541 84.8225C145.941 84.6075 146.141 84.285 146.141 83.855C146.141 83.48 145.971 83.1975 145.631 83.0075C145.291 82.8175 144.866 82.7225 144.356 82.7225H142.946C142.261 82.7225 141.759 82.5725 141.439 82.2725C141.119 81.9725 140.959 81.6275 140.959 81.2375C140.959 80.6975 141.249 80.2375 141.829 79.8575C140.944 79.3875 140.501 78.66 140.501 77.675C140.501 77.14 140.634 76.6675 140.899 76.2575C141.164 75.8425 141.534 75.5175 142.009 75.2825C142.484 75.0475 143.031 74.93 143.651 74.93C144.316 74.93 144.856 74.9025 145.271 74.8475C145.686 74.7925 146.041 74.715 146.336 74.615C146.636 74.515 146.941 74.3975 147.251 74.2625ZM143.651 75.8525C143.016 75.8525 142.546 76.025 142.241 76.37C141.941 76.715 141.791 77.15 141.791 77.675C141.791 78.21 141.944 78.65 142.249 78.995C142.559 79.34 143.036 79.5125 143.681 79.5125C144.236 79.5125 144.661 79.35 144.956 79.025C145.251 78.7 145.399 78.2475 145.399 77.6675C145.399 76.4575 144.816 75.8525 143.651 75.8525ZM151.618 71.405C151.898 71.405 152.12 71.49 152.285 71.66C152.455 71.83 152.54 72.0375 152.54 72.2825C152.54 72.5375 152.455 72.7525 152.285 72.9275C152.12 73.0975 151.898 73.1825 151.618 73.1825C151.353 73.1825 151.135 73.0975 150.965 72.9275C150.795 72.7525 150.71 72.5375 150.71 72.2825C150.71 72.0375 150.795 71.83 150.965 71.66C151.135 71.49 151.353 71.405 151.618 71.405ZM152.623 75.1025V82.0025H154.85V83H148.925V82.0025H151.363V76.1H149V75.1025H152.623ZM156.42 83V75.1025H157.492L157.59 76.1975C157.91 75.7925 158.31 75.4825 158.79 75.2675C159.27 75.0475 159.74 74.9375 160.2 74.9375C160.975 74.9375 161.537 75.1425 161.887 75.5525C162.242 75.9625 162.42 76.5325 162.42 77.2625V83H161.16V78.1925C161.16 77.6525 161.13 77.2175 161.07 76.8875C161.01 76.5575 160.882 76.315 160.687 76.16C160.497 76.005 160.205 75.9275 159.81 75.9275C159.5 75.9275 159.207 75.995 158.932 76.13C158.662 76.265 158.42 76.435 158.205 76.64C157.995 76.84 157.82 77.0425 157.68 77.2475V83H156.42ZM166.899 82.13C167.509 82.13 167.989 82.0175 168.339 81.7925C168.689 81.5675 168.864 81.2625 168.864 80.8775C168.864 80.6425 168.819 80.4375 168.729 80.2625C168.644 80.0875 168.466 79.93 168.196 79.79C167.926 79.645 167.511 79.5025 166.951 79.3625C166.406 79.2275 165.931 79.0725 165.526 78.8975C165.126 78.7175 164.814 78.485 164.589 78.2C164.369 77.915 164.259 77.545 164.259 77.09C164.259 76.425 164.536 75.9 165.091 75.515C165.646 75.13 166.369 74.9375 167.259 74.9375C167.894 74.9375 168.446 75.0225 168.916 75.1925C169.391 75.3625 169.794 75.5675 170.124 75.8075L169.569 76.6625C169.274 76.4575 168.944 76.29 168.579 76.16C168.219 76.025 167.784 75.9575 167.274 75.9575C166.654 75.9575 166.214 76.055 165.954 76.25C165.694 76.44 165.564 76.6875 165.564 76.9925C165.564 77.2275 165.626 77.4225 165.751 77.5775C165.881 77.7275 166.099 77.8625 166.404 77.9825C166.709 78.1025 167.129 78.235 167.664 78.38C168.179 78.52 168.629 78.685 169.014 78.875C169.399 79.065 169.696 79.315 169.906 79.625C170.121 79.93 170.229 80.3275 170.229 80.8175C170.229 81.3775 170.069 81.8325 169.749 82.1825C169.429 82.5275 169.014 82.78 168.504 82.94C167.999 83.095 167.464 83.1725 166.899 83.1725C166.184 83.1725 165.574 83.07 165.069 82.865C164.569 82.655 164.149 82.4025 163.809 82.1075L164.529 81.275C164.839 81.53 165.194 81.7375 165.594 81.8975C165.999 82.0525 166.434 82.13 166.899 82.13ZM182.795 71.405C183.075 71.405 183.297 71.49 183.462 71.66C183.632 71.83 183.717 72.0375 183.717 72.2825C183.717 72.5375 183.632 72.7525 183.462 72.9275C183.297 73.0975 183.075 73.1825 182.795 73.1825C182.53 73.1825 182.312 73.0975 182.142 72.9275C181.972 72.7525 181.887 72.5375 181.887 72.2825C181.887 72.0375 181.972 71.83 182.142 71.66C182.312 71.49 182.53 71.405 182.795 71.405ZM183.8 75.1025V82.0025H186.027V83H180.102V82.0025H182.54V76.1H180.177V75.1025H183.8ZM187.596 83V75.1025H188.669L188.766 76.1975C189.086 75.7925 189.486 75.4825 189.966 75.2675C190.446 75.0475 190.916 74.9375 191.376 74.9375C192.151 74.9375 192.714 75.1425 193.064 75.5525C193.419 75.9625 193.596 76.5325 193.596 77.2625V83H192.336V78.1925C192.336 77.6525 192.306 77.2175 192.246 76.8875C192.186 76.5575 192.059 76.315 191.864 76.16C191.674 76.005 191.381 75.9275 190.986 75.9275C190.676 75.9275 190.384 75.995 190.109 76.13C189.839 76.265 189.596 76.435 189.381 76.64C189.171 76.84 188.996 77.0425 188.856 77.2475V83H187.596ZM198.075 82.13C198.685 82.13 199.165 82.0175 199.515 81.7925C199.865 81.5675 200.04 81.2625 200.04 80.8775C200.04 80.6425 199.995 80.4375 199.905 80.2625C199.82 80.0875 199.643 79.93 199.373 79.79C199.103 79.645 198.688 79.5025 198.128 79.3625C197.583 79.2275 197.108 79.0725 196.703 78.8975C196.303 78.7175 195.99 78.485 195.765 78.2C195.545 77.915 195.435 77.545 195.435 77.09C195.435 76.425 195.713 75.9 196.268 75.515C196.823 75.13 197.545 74.9375 198.435 74.9375C199.07 74.9375 199.623 75.0225 200.093 75.1925C200.568 75.3625 200.97 75.5675 201.3 75.8075L200.745 76.6625C200.45 76.4575 200.12 76.29 199.755 76.16C199.395 76.025 198.96 75.9575 198.45 75.9575C197.83 75.9575 197.39 76.055 197.13 76.25C196.87 76.44 196.74 76.6875 196.74 76.9925C196.74 77.2275 196.803 77.4225 196.928 77.5775C197.058 77.7275 197.275 77.8625 197.58 77.9825C197.885 78.1025 198.305 78.235 198.84 78.38C199.355 78.52 199.805 78.685 200.19 78.875C200.575 79.065 200.873 79.315 201.083 79.625C201.298 79.93 201.405 80.3275 201.405 80.8175C201.405 81.3775 201.245 81.8325 200.925 82.1825C200.605 82.5275 200.19 82.78 199.68 82.94C199.175 83.095 198.64 83.1725 198.075 83.1725C197.36 83.1725 196.75 83.07 196.245 82.865C195.745 82.655 195.325 82.4025 194.985 82.1075L195.705 81.275C196.015 81.53 196.37 81.7375 196.77 81.8975C197.175 82.0525 197.61 82.13 198.075 82.13ZM209.454 82.6025C209.184 82.7825 208.857 82.9225 208.472 83.0225C208.087 83.1225 207.709 83.1725 207.339 83.1725C206.489 83.1725 205.834 82.95 205.374 82.505C204.914 82.06 204.684 81.4875 204.684 80.7875V76.0775H202.869V75.1025H204.684V73.31L205.944 73.16V75.1025H208.674L208.524 76.0775H205.944V80.7725C205.944 81.2125 206.059 81.5475 206.289 81.7775C206.524 82.0075 206.912 82.1225 207.452 82.1225C207.747 82.1225 208.019 82.0875 208.269 82.0175C208.519 81.9475 208.752 81.8575 208.967 81.7475L209.454 82.6025ZM216.634 81.275C216.634 81.595 216.686 81.8275 216.791 81.9725C216.896 82.1175 217.059 82.2225 217.279 82.2875L216.971 83.1725C216.631 83.1275 216.334 83.02 216.079 82.85C215.824 82.675 215.639 82.4125 215.524 82.0625C215.239 82.4275 214.881 82.705 214.451 82.895C214.026 83.08 213.559 83.1725 213.049 83.1725C212.259 83.1725 211.636 82.95 211.181 82.505C210.726 82.06 210.499 81.47 210.499 80.735C210.499 79.92 210.816 79.295 211.451 78.86C212.086 78.425 213.004 78.2075 214.204 78.2075H215.366V77.5475C215.366 76.9775 215.199 76.575 214.864 76.34C214.534 76.1 214.074 75.98 213.484 75.98C213.224 75.98 212.919 76.0125 212.569 76.0775C212.219 76.1375 211.839 76.24 211.429 76.385L211.099 75.4325C211.579 75.2525 212.031 75.125 212.456 75.05C212.886 74.975 213.294 74.9375 213.679 74.9375C214.659 74.9375 215.396 75.1675 215.891 75.6275C216.386 76.0875 216.634 76.7075 216.634 77.4875V81.275ZM213.371 82.2125C213.761 82.2125 214.131 82.115 214.481 81.92C214.836 81.72 215.131 81.445 215.366 81.095V79.0625H214.226C213.356 79.0625 212.741 79.2125 212.381 79.5125C212.026 79.8125 211.849 80.215 211.849 80.72C211.849 81.715 212.356 82.2125 213.371 82.2125ZM221.848 71.9225V81.05C221.848 81.44 221.968 81.7175 222.208 81.8825C222.453 82.0425 222.768 82.1225 223.153 82.1225C223.388 82.1225 223.613 82.0975 223.828 82.0475C224.048 81.9975 224.265 81.93 224.48 81.845L224.818 82.7675C224.603 82.8725 224.335 82.965 224.015 83.045C223.7 83.13 223.343 83.1725 222.943 83.1725C222.243 83.1725 221.675 82.98 221.24 82.595C220.805 82.205 220.588 81.6675 220.588 80.9825V72.92H218.165V71.9225H221.848ZM229.642 71.9225V81.05C229.642 81.44 229.762 81.7175 230.002 81.8825C230.247 82.0425 230.562 82.1225 230.947 82.1225C231.182 82.1225 231.407 82.0975 231.622 82.0475C231.842 81.9975 232.059 81.93 232.274 81.845L232.612 82.7675C232.397 82.8725 232.129 82.965 231.809 83.045C231.494 83.13 231.137 83.1725 230.737 83.1725C230.037 83.1725 229.469 82.98 229.034 82.595C228.599 82.205 228.382 81.6675 228.382 80.9825V72.92H225.959V71.9225H229.642ZM245.23 71.9225V81.05C245.23 81.44 245.35 81.7175 245.59 81.8825C245.835 82.0425 246.15 82.1225 246.535 82.1225C246.77 82.1225 246.995 82.0975 247.21 82.0475C247.43 81.9975 247.648 81.93 247.863 81.845L248.2 82.7675C247.985 82.8725 247.718 82.965 247.398 83.045C247.083 83.13 246.725 83.1725 246.325 83.1725C245.625 83.1725 245.058 82.98 244.623 82.595C244.188 82.205 243.97 81.6675 243.97 80.9825V72.92H241.548V71.9225H245.23ZM252.942 71.405C253.222 71.405 253.444 71.49 253.609 71.66C253.779 71.83 253.864 72.0375 253.864 72.2825C253.864 72.5375 253.779 72.7525 253.609 72.9275C253.444 73.0975 253.222 73.1825 252.942 73.1825C252.677 73.1825 252.459 73.0975 252.289 72.9275C252.119 72.7525 252.034 72.5375 252.034 72.2825C252.034 72.0375 252.119 71.83 252.289 71.66C252.459 71.49 252.677 71.405 252.942 71.405ZM253.947 75.1025V82.0025H256.174V83H250.249V82.0025H252.687V76.1H250.324V75.1025H253.947ZM264.163 74.2625L264.553 75.4475C264.213 75.5525 263.853 75.6175 263.473 75.6425C263.098 75.6675 262.688 75.68 262.243 75.68C263.158 76.1 263.616 76.7625 263.616 77.6675C263.616 78.4475 263.353 79.09 262.828 79.595C262.308 80.1 261.581 80.3525 260.646 80.3525C260.381 80.3525 260.158 80.34 259.978 80.315C259.803 80.29 259.633 80.2525 259.468 80.2025C259.348 80.2875 259.248 80.4 259.168 80.54C259.093 80.675 259.056 80.8175 259.056 80.9675C259.056 81.1575 259.131 81.315 259.281 81.44C259.431 81.565 259.708 81.6275 260.113 81.6275H261.538C262.068 81.6275 262.543 81.7225 262.963 81.9125C263.383 82.1025 263.716 82.36 263.961 82.685C264.206 83.005 264.328 83.3675 264.328 83.7725C264.328 84.5475 263.998 85.1425 263.338 85.5575C262.683 85.9725 261.756 86.18 260.556 86.18C259.716 86.18 259.053 86.0925 258.568 85.9175C258.083 85.7475 257.736 85.485 257.526 85.13C257.321 84.78 257.218 84.3375 257.218 83.8025H258.358C258.358 84.1075 258.418 84.36 258.538 84.56C258.658 84.76 258.876 84.9075 259.191 85.0025C259.506 85.1025 259.958 85.1525 260.548 85.1525C261.418 85.1525 262.053 85.0425 262.453 84.8225C262.853 84.6075 263.053 84.285 263.053 83.855C263.053 83.48 262.883 83.1975 262.543 83.0075C262.203 82.8175 261.778 82.7225 261.268 82.7225H259.858C259.173 82.7225 258.671 82.5725 258.351 82.2725C258.031 81.9725 257.871 81.6275 257.871 81.2375C257.871 80.6975 258.161 80.2375 258.741 79.8575C257.856 79.3875 257.413 78.66 257.413 77.675C257.413 77.14 257.546 76.6675 257.811 76.2575C258.076 75.8425 258.446 75.5175 258.921 75.2825C259.396 75.0475 259.943 74.93 260.563 74.93C261.228 74.93 261.768 74.9025 262.183 74.8475C262.598 74.7925 262.953 74.715 263.248 74.615C263.548 74.515 263.853 74.3975 264.163 74.2625ZM260.563 75.8525C259.928 75.8525 259.458 76.025 259.153 76.37C258.853 76.715 258.703 77.15 258.703 77.675C258.703 78.21 258.856 78.65 259.161 78.995C259.471 79.34 259.948 79.5125 260.593 79.5125C261.148 79.5125 261.573 79.35 261.868 79.025C262.163 78.7 262.311 78.2475 262.311 77.6675C262.311 76.4575 261.728 75.8525 260.563 75.8525ZM266.798 71.8025V76.1825C267.108 75.7725 267.488 75.4625 267.938 75.2525C268.393 75.0425 268.853 74.9375 269.318 74.9375C270.088 74.9375 270.65 75.1425 271.005 75.5525C271.36 75.9625 271.538 76.5325 271.538 77.2625V83H270.278V77.2925C270.278 76.8175 270.168 76.4725 269.948 76.2575C269.728 76.0375 269.383 75.9275 268.913 75.9275C268.613 75.9275 268.328 75.995 268.058 76.13C267.788 76.265 267.545 76.4325 267.33 76.6325C267.115 76.8325 266.938 77.0375 266.798 77.2475V83H265.538V71.9375L266.798 71.8025ZM279.602 82.6025C279.332 82.7825 279.004 82.9225 278.619 83.0225C278.234 83.1225 277.857 83.1725 277.487 83.1725C276.637 83.1725 275.982 82.95 275.522 82.505C275.062 82.06 274.832 81.4875 274.832 80.7875V76.0775H273.017V75.1025H274.832V73.31L276.092 73.16V75.1025H278.822L278.672 76.0775H276.092V80.7725C276.092 81.2125 276.207 81.5475 276.437 81.7775C276.672 82.0075 277.059 82.1225 277.599 82.1225C277.894 82.1225 278.167 82.0875 278.417 82.0175C278.667 81.9475 278.899 81.8575 279.114 81.7475L279.602 82.6025ZM282.386 71.8025V76.1825C282.696 75.7725 283.076 75.4625 283.526 75.2525C283.981 75.0425 284.441 74.9375 284.906 74.9375C285.676 74.9375 286.238 75.1425 286.593 75.5525C286.948 75.9625 287.126 76.5325 287.126 77.2625V83H285.866V77.2925C285.866 76.8175 285.756 76.4725 285.536 76.2575C285.316 76.0375 284.971 75.9275 284.501 75.9275C284.201 75.9275 283.916 75.995 283.646 76.13C283.376 76.265 283.133 76.4325 282.918 76.6325C282.703 76.8325 282.526 77.0375 282.386 77.2475V83H281.126V71.9375L282.386 71.8025ZM291.928 74.9375C293.043 74.9375 293.885 75.31 294.455 76.055C295.025 76.8 295.31 77.7975 295.31 79.0475C295.31 79.8525 295.18 80.565 294.92 81.185C294.66 81.805 294.278 82.2925 293.773 82.6475C293.268 82.9975 292.648 83.1725 291.913 83.1725C290.798 83.1725 289.953 82.7975 289.378 82.0475C288.803 81.2975 288.515 80.3025 288.515 79.0625C288.515 78.2525 288.645 77.5375 288.905 76.9175C289.165 76.2925 289.548 75.8075 290.053 75.4625C290.563 75.1125 291.188 74.9375 291.928 74.9375ZM291.928 75.965C291.248 75.965 290.733 76.2175 290.383 76.7225C290.038 77.2275 289.865 78.0075 289.865 79.0625C289.865 80.1075 290.035 80.8825 290.375 81.3875C290.72 81.8875 291.233 82.1375 291.913 82.1375C292.593 82.1375 293.103 81.885 293.443 81.38C293.788 80.875 293.96 80.0975 293.96 79.0475C293.96 77.9975 293.79 77.2225 293.45 76.7225C293.11 76.2175 292.603 75.965 291.928 75.965ZM297.974 75.1025V80.6975C297.974 81.2175 298.082 81.5925 298.297 81.8225C298.512 82.0525 298.847 82.1675 299.302 82.1675C299.737 82.1675 300.147 82.045 300.532 81.8C300.922 81.55 301.224 81.255 301.439 80.915V75.1025H302.699V83H301.627L301.522 81.935C301.212 82.335 300.827 82.6425 300.367 82.8575C299.912 83.0675 299.454 83.1725 298.994 83.1725C298.229 83.1725 297.657 82.97 297.277 82.565C296.902 82.155 296.714 81.5825 296.714 80.8475V75.1025H297.974ZM307.193 82.13C307.803 82.13 308.283 82.0175 308.633 81.7925C308.983 81.5675 309.158 81.2625 309.158 80.8775C309.158 80.6425 309.113 80.4375 309.023 80.2625C308.938 80.0875 308.761 79.93 308.491 79.79C308.221 79.645 307.806 79.5025 307.246 79.3625C306.701 79.2275 306.226 79.0725 305.821 78.8975C305.421 78.7175 305.108 78.485 304.883 78.2C304.663 77.915 304.553 77.545 304.553 77.09C304.553 76.425 304.831 75.9 305.386 75.515C305.941 75.13 306.663 74.9375 307.553 74.9375C308.188 74.9375 308.741 75.0225 309.211 75.1925C309.686 75.3625 310.088 75.5675 310.418 75.8075L309.863 76.6625C309.568 76.4575 309.238 76.29 308.873 76.16C308.513 76.025 308.078 75.9575 307.568 75.9575C306.948 75.9575 306.508 76.055 306.248 76.25C305.988 76.44 305.858 76.6875 305.858 76.9925C305.858 77.2275 305.921 77.4225 306.046 77.5775C306.176 77.7275 306.393 77.8625 306.698 77.9825C307.003 78.1025 307.423 78.235 307.958 78.38C308.473 78.52 308.923 78.685 309.308 78.875C309.693 79.065 309.991 79.315 310.201 79.625C310.416 79.93 310.523 80.3275 310.523 80.8175C310.523 81.3775 310.363 81.8325 310.043 82.1825C309.723 82.5275 309.308 82.78 308.798 82.94C308.293 83.095 307.758 83.1725 307.193 83.1725C306.478 83.1725 305.868 83.07 305.363 82.865C304.863 82.655 304.443 82.4025 304.103 82.1075L304.823 81.275C305.133 81.53 305.488 81.7375 305.888 81.8975C306.293 82.0525 306.728 82.13 307.193 82.13ZM313.292 79.4975C313.327 80.4125 313.567 81.08 314.012 81.5C314.462 81.915 314.992 82.1225 315.602 82.1225C316.007 82.1225 316.372 82.0625 316.697 81.9425C317.022 81.8225 317.36 81.645 317.71 81.41L318.302 82.2425C317.937 82.5325 317.517 82.76 317.042 82.925C316.567 83.09 316.082 83.1725 315.587 83.1725C314.817 83.1725 314.162 83 313.622 82.655C313.087 82.31 312.677 81.83 312.392 81.215C312.112 80.595 311.972 79.8775 311.972 79.0625C311.972 78.2625 312.112 77.5525 312.392 76.9325C312.677 76.3125 313.077 75.825 313.592 75.47C314.112 75.115 314.722 74.9375 315.422 74.9375C316.417 74.9375 317.2 75.2825 317.77 75.9725C318.345 76.6625 318.632 77.6075 318.632 78.8075C318.632 78.9425 318.627 79.07 318.617 79.19C318.612 79.31 318.607 79.4125 318.602 79.4975H313.292ZM315.437 75.9725C314.852 75.9725 314.362 76.18 313.967 76.595C313.572 77.01 313.35 77.6525 313.3 78.5225H317.417C317.402 77.6775 317.217 77.0425 316.862 76.6175C316.507 76.1875 316.032 75.9725 315.437 75.9725ZM92.8273 99.5675C92.8273 100.342 92.5848 100.97 92.0998 101.45C91.6148 101.925 91.0173 102.247 90.3073 102.417L93.3673 107H91.8073L88.9873 102.567H87.5923V107H86.2873V96.6725H88.9423C90.2173 96.6725 91.1823 96.9175 91.8373 97.4075C92.4973 97.8925 92.8273 98.6125 92.8273 99.5675ZM91.4323 99.5675C91.4323 98.9075 91.2398 98.4325 90.8548 98.1425C90.4748 97.8525 89.8873 97.7075 89.0923 97.7075H87.5923V101.547H89.0923C89.8323 101.547 90.4073 101.397 90.8173 101.097C91.2273 100.792 91.4323 100.282 91.4323 99.5675ZM95.0565 103.497C95.0915 104.412 95.3315 105.08 95.7765 105.5C96.2265 105.915 96.7565 106.122 97.3665 106.122C97.7715 106.122 98.1365 106.062 98.4615 105.942C98.7865 105.822 99.124 105.645 99.474 105.41L100.066 106.242C99.7015 106.532 99.2815 106.76 98.8065 106.925C98.3315 107.09 97.8465 107.173 97.3515 107.173C96.5815 107.173 95.9265 107 95.3865 106.655C94.8515 106.31 94.4415 105.83 94.1565 105.215C93.8765 104.595 93.7365 103.877 93.7365 103.062C93.7365 102.262 93.8765 101.552 94.1565 100.932C94.4415 100.312 94.8415 99.825 95.3565 99.47C95.8765 99.115 96.4865 98.9375 97.1865 98.9375C98.1815 98.9375 98.964 99.2825 99.534 99.9725C100.109 100.662 100.396 101.607 100.396 102.807C100.396 102.942 100.391 103.07 100.381 103.19C100.376 103.31 100.371 103.412 100.366 103.497H95.0565ZM97.2015 99.9725C96.6165 99.9725 96.1265 100.18 95.7315 100.595C95.3365 101.01 95.114 101.652 95.064 102.522H99.1815C99.1665 101.677 98.9815 101.042 98.6265 100.617C98.2715 100.187 97.7965 99.9725 97.2015 99.9725ZM104.546 106.13C105.156 106.13 105.636 106.017 105.986 105.792C106.336 105.567 106.511 105.262 106.511 104.877C106.511 104.642 106.466 104.437 106.376 104.262C106.291 104.087 106.113 103.93 105.843 103.79C105.573 103.645 105.158 103.502 104.598 103.362C104.053 103.227 103.578 103.072 103.173 102.897C102.773 102.717 102.461 102.485 102.236 102.2C102.016 101.915 101.906 101.545 101.906 101.09C101.906 100.425 102.183 99.9 102.738 99.515C103.293 99.13 104.016 98.9375 104.906 98.9375C105.541 98.9375 106.093 99.0225 106.563 99.1925C107.038 99.3625 107.441 99.5675 107.771 99.8075L107.216 100.662C106.921 100.457 106.591 100.29 106.226 100.16C105.866 100.025 105.431 99.9575 104.921 99.9575C104.301 99.9575 103.861 100.055 103.601 100.25C103.341 100.44 103.211 100.687 103.211 100.992C103.211 101.227 103.273 101.422 103.398 101.577C103.528 101.727 103.746 101.862 104.051 101.982C104.356 102.102 104.776 102.235 105.311 102.38C105.826 102.52 106.276 102.685 106.661 102.875C107.046 103.065 107.343 103.315 107.553 103.625C107.768 103.93 107.876 104.327 107.876 104.817C107.876 105.377 107.716 105.832 107.396 106.182C107.076 106.527 106.661 106.78 106.151 106.94C105.646 107.095 105.111 107.173 104.546 107.173C103.831 107.173 103.221 107.07 102.716 106.865C102.216 106.655 101.796 106.402 101.456 106.107L102.176 105.275C102.486 105.53 102.841 105.737 103.241 105.898C103.646 106.052 104.081 106.13 104.546 106.13ZM112.662 98.9375C113.777 98.9375 114.62 99.31 115.19 100.055C115.76 100.8 116.045 101.797 116.045 103.047C116.045 103.852 115.915 104.565 115.655 105.185C115.395 105.805 115.012 106.292 114.507 106.647C114.002 106.998 113.382 107.173 112.647 107.173C111.532 107.173 110.687 106.797 110.112 106.047C109.537 105.297 109.25 104.302 109.25 103.062C109.25 102.252 109.38 101.537 109.64 100.917C109.9 100.292 110.282 99.8075 110.787 99.4625C111.297 99.1125 111.922 98.9375 112.662 98.9375ZM112.662 99.965C111.982 99.965 111.467 100.217 111.117 100.722C110.772 101.227 110.6 102.007 110.6 103.062C110.6 104.107 110.77 104.882 111.11 105.387C111.455 105.887 111.967 106.137 112.647 106.137C113.327 106.137 113.837 105.885 114.177 105.38C114.522 104.875 114.695 104.097 114.695 103.047C114.695 101.997 114.525 101.222 114.185 100.722C113.845 100.217 113.337 99.965 112.662 99.965ZM120.524 95.9225V105.05C120.524 105.44 120.644 105.717 120.884 105.882C121.129 106.042 121.444 106.122 121.829 106.122C122.064 106.122 122.289 106.097 122.504 106.047C122.724 105.997 122.941 105.93 123.156 105.845L123.494 106.767C123.279 106.872 123.011 106.965 122.691 107.045C122.376 107.13 122.019 107.173 121.619 107.173C120.919 107.173 120.351 106.98 119.916 106.595C119.481 106.205 119.264 105.667 119.264 104.982V96.92H116.841V95.9225H120.524ZM131.828 99.1025L128.956 107H127.493L124.643 99.1025H125.978L128.266 105.852L130.523 99.1025H131.828ZM136.03 95.405C136.31 95.405 136.532 95.49 136.697 95.66C136.867 95.83 136.952 96.0375 136.952 96.2825C136.952 96.5375 136.867 96.7525 136.697 96.9275C136.532 97.0975 136.31 97.1825 136.03 97.1825C135.765 97.1825 135.547 97.0975 135.377 96.9275C135.207 96.7525 135.122 96.5375 135.122 96.2825C135.122 96.0375 135.207 95.83 135.377 95.66C135.547 95.49 135.765 95.405 136.03 95.405ZM137.035 99.1025V106.002H139.262V107H133.337V106.002H135.775V100.1H133.412V99.1025H137.035ZM140.831 107V99.1025H141.904L142.001 100.197C142.321 99.7925 142.721 99.4825 143.201 99.2675C143.681 99.0475 144.151 98.9375 144.611 98.9375C145.386 98.9375 145.949 99.1425 146.299 99.5525C146.654 99.9625 146.831 100.532 146.831 101.262V107H145.571V102.192C145.571 101.652 145.541 101.217 145.481 100.887C145.421 100.557 145.294 100.315 145.099 100.16C144.909 100.005 144.616 99.9275 144.221 99.9275C143.911 99.9275 143.619 99.995 143.344 100.13C143.074 100.265 142.831 100.435 142.616 100.64C142.406 100.84 142.231 101.042 142.091 101.247V107H140.831ZM155.045 98.2625L155.435 99.4475C155.095 99.5525 154.735 99.6175 154.355 99.6425C153.98 99.6675 153.57 99.68 153.125 99.68C154.04 100.1 154.498 100.762 154.498 101.667C154.498 102.447 154.235 103.09 153.71 103.595C153.19 104.1 152.463 104.352 151.528 104.352C151.263 104.352 151.04 104.34 150.86 104.315C150.685 104.29 150.515 104.252 150.35 104.202C150.23 104.287 150.13 104.4 150.05 104.54C149.975 104.675 149.938 104.817 149.938 104.967C149.938 105.157 150.013 105.315 150.163 105.44C150.313 105.565 150.59 105.627 150.995 105.627H152.42C152.95 105.627 153.425 105.722 153.845 105.912C154.265 106.102 154.598 106.36 154.843 106.685C155.088 107.005 155.21 107.368 155.21 107.773C155.21 108.548 154.88 109.143 154.22 109.558C153.565 109.973 152.638 110.18 151.438 110.18C150.598 110.18 149.935 110.093 149.45 109.918C148.965 109.748 148.618 109.485 148.408 109.13C148.203 108.78 148.1 108.338 148.1 107.803H149.24C149.24 108.108 149.3 108.36 149.42 108.56C149.54 108.76 149.758 108.908 150.073 109.003C150.388 109.103 150.84 109.153 151.43 109.153C152.3 109.153 152.935 109.043 153.335 108.823C153.735 108.608 153.935 108.285 153.935 107.855C153.935 107.48 153.765 107.198 153.425 107.008C153.085 106.817 152.66 106.722 152.15 106.722H150.74C150.055 106.722 149.553 106.572 149.233 106.272C148.913 105.972 148.753 105.627 148.753 105.237C148.753 104.697 149.043 104.237 149.623 103.857C148.738 103.387 148.295 102.66 148.295 101.675C148.295 101.14 148.428 100.667 148.693 100.257C148.958 99.8425 149.328 99.5175 149.803 99.2825C150.278 99.0475 150.825 98.93 151.445 98.93C152.11 98.93 152.65 98.9025 153.065 98.8475C153.48 98.7925 153.835 98.715 154.13 98.615C154.43 98.515 154.735 98.3975 155.045 98.2625ZM151.445 99.8525C150.81 99.8525 150.34 100.025 150.035 100.37C149.735 100.715 149.585 101.15 149.585 101.675C149.585 102.21 149.738 102.65 150.043 102.995C150.353 103.34 150.83 103.512 151.475 103.512C152.03 103.512 152.455 103.35 152.75 103.025C153.045 102.7 153.193 102.247 153.193 101.667C153.193 100.457 152.61 99.8525 151.445 99.8525ZM167.746 98.9375C168.446 98.9375 169.004 99.1075 169.419 99.4475C169.839 99.7875 170.141 100.267 170.326 100.887C170.511 101.502 170.604 102.222 170.604 103.047C170.604 103.842 170.491 104.552 170.266 105.177C170.046 105.797 169.711 106.285 169.261 106.64C168.811 106.995 168.244 107.173 167.559 107.173C166.694 107.173 165.999 106.867 165.474 106.257V110.023L164.214 110.18V99.1025H165.286L165.391 100.205C165.681 99.8 166.026 99.4875 166.426 99.2675C166.826 99.0475 167.266 98.9375 167.746 98.9375ZM167.446 99.95C167.011 99.95 166.626 100.082 166.291 100.347C165.956 100.607 165.684 100.897 165.474 101.217V105.132C165.679 105.437 165.936 105.68 166.246 105.86C166.561 106.035 166.906 106.122 167.281 106.122C167.936 106.122 168.429 105.872 168.759 105.372C169.089 104.872 169.254 104.095 169.254 103.04C169.254 100.98 168.651 99.95 167.446 99.95ZM177.663 105.275C177.663 105.595 177.715 105.827 177.82 105.972C177.925 106.117 178.088 106.222 178.308 106.287L178 107.173C177.66 107.128 177.363 107.02 177.108 106.85C176.853 106.675 176.668 106.412 176.553 106.062C176.268 106.427 175.91 106.705 175.48 106.895C175.055 107.08 174.588 107.173 174.078 107.173C173.288 107.173 172.665 106.95 172.21 106.505C171.755 106.06 171.528 105.47 171.528 104.735C171.528 103.92 171.845 103.295 172.48 102.86C173.115 102.425 174.033 102.207 175.233 102.207H176.395V101.547C176.395 100.977 176.228 100.575 175.893 100.34C175.563 100.1 175.103 99.98 174.513 99.98C174.253 99.98 173.948 100.012 173.598 100.077C173.248 100.137 172.868 100.24 172.458 100.385L172.128 99.4325C172.608 99.2525 173.06 99.125 173.485 99.05C173.915 98.975 174.323 98.9375 174.708 98.9375C175.688 98.9375 176.425 99.1675 176.92 99.6275C177.415 100.087 177.663 100.707 177.663 101.487V105.275ZM174.4 106.212C174.79 106.212 175.16 106.115 175.51 105.92C175.865 105.72 176.16 105.445 176.395 105.095V103.062H175.255C174.385 103.062 173.77 103.212 173.41 103.512C173.055 103.812 172.878 104.215 172.878 104.72C172.878 105.715 173.385 106.212 174.4 106.212ZM183.372 106.085C183.767 106.085 184.135 106.022 184.475 105.898C184.82 105.767 185.137 105.6 185.427 105.395L186.042 106.22C185.697 106.515 185.282 106.747 184.797 106.917C184.312 107.088 183.837 107.173 183.372 107.173C182.587 107.173 181.917 107.005 181.362 106.67C180.812 106.33 180.392 105.855 180.102 105.245C179.812 104.63 179.667 103.91 179.667 103.085C179.667 102.295 179.812 101.587 180.102 100.962C180.392 100.337 180.815 99.845 181.37 99.485C181.925 99.12 182.597 98.9375 183.387 98.9375C184.392 98.9375 185.272 99.2425 186.027 99.8525L185.412 100.692C184.727 100.222 184.047 99.9875 183.372 99.9875C182.692 99.9875 182.132 100.245 181.692 100.76C181.252 101.27 181.032 102.045 181.032 103.085C181.032 104.14 181.252 104.905 181.692 105.38C182.132 105.85 182.692 106.085 183.372 106.085ZM188.939 95.765V107H187.679V95.9225L188.939 95.765ZM194.211 99.1025L190.656 102.657L194.624 107H192.966L189.081 102.687L192.576 99.1025H194.211ZM201.045 105.275C201.045 105.595 201.098 105.827 201.203 105.972C201.308 106.117 201.47 106.222 201.69 106.287L201.383 107.173C201.043 107.128 200.745 107.02 200.49 106.85C200.235 106.675 200.05 106.412 199.935 106.062C199.65 106.427 199.293 106.705 198.863 106.895C198.438 107.08 197.97 107.173 197.46 107.173C196.67 107.173 196.048 106.95 195.593 106.505C195.138 106.06 194.91 105.47 194.91 104.735C194.91 103.92 195.228 103.295 195.863 102.86C196.498 102.425 197.415 102.207 198.615 102.207H199.778V101.547C199.778 100.977 199.61 100.575 199.275 100.34C198.945 100.1 198.485 99.98 197.895 99.98C197.635 99.98 197.33 100.012 196.98 100.077C196.63 100.137 196.25 100.24 195.84 100.385L195.51 99.4325C195.99 99.2525 196.443 99.125 196.868 99.05C197.298 98.975 197.705 98.9375 198.09 98.9375C199.07 98.9375 199.808 99.1675 200.303 99.6275C200.798 100.087 201.045 100.707 201.045 101.487V105.275ZM197.783 106.212C198.173 106.212 198.543 106.115 198.893 105.92C199.248 105.72 199.543 105.445 199.778 105.095V103.062H198.638C197.768 103.062 197.153 103.212 196.793 103.512C196.438 103.812 196.26 104.215 196.26 104.72C196.26 105.715 196.768 106.212 197.783 106.212ZM209.604 98.2625L209.994 99.4475C209.654 99.5525 209.294 99.6175 208.914 99.6425C208.539 99.6675 208.129 99.68 207.684 99.68C208.599 100.1 209.057 100.762 209.057 101.667C209.057 102.447 208.794 103.09 208.269 103.595C207.749 104.1 207.022 104.352 206.087 104.352C205.822 104.352 205.599 104.34 205.419 104.315C205.244 104.29 205.074 104.252 204.909 104.202C204.789 104.287 204.689 104.4 204.609 104.54C204.534 104.675 204.497 104.817 204.497 104.967C204.497 105.157 204.572 105.315 204.722 105.44C204.872 105.565 205.149 105.627 205.554 105.627H206.979C207.509 105.627 207.984 105.722 208.404 105.912C208.824 106.102 209.157 106.36 209.402 106.685C209.647 107.005 209.769 107.368 209.769 107.773C209.769 108.548 209.439 109.143 208.779 109.558C208.124 109.973 207.197 110.18 205.997 110.18C205.157 110.18 204.494 110.093 204.009 109.918C203.524 109.748 203.177 109.485 202.967 109.13C202.762 108.78 202.659 108.338 202.659 107.803H203.799C203.799 108.108 203.859 108.36 203.979 108.56C204.099 108.76 204.317 108.908 204.632 109.003C204.947 109.103 205.399 109.153 205.989 109.153C206.859 109.153 207.494 109.043 207.894 108.823C208.294 108.608 208.494 108.285 208.494 107.855C208.494 107.48 208.324 107.198 207.984 107.008C207.644 106.817 207.219 106.722 206.709 106.722H205.299C204.614 106.722 204.112 106.572 203.792 106.272C203.472 105.972 203.312 105.627 203.312 105.237C203.312 104.697 203.602 104.237 204.182 103.857C203.297 103.387 202.854 102.66 202.854 101.675C202.854 101.14 202.987 100.667 203.252 100.257C203.517 99.8425 203.887 99.5175 204.362 99.2825C204.837 99.0475 205.384 98.93 206.004 98.93C206.669 98.93 207.209 98.9025 207.624 98.8475C208.039 98.7925 208.394 98.715 208.689 98.615C208.989 98.515 209.294 98.3975 209.604 98.2625ZM206.004 99.8525C205.369 99.8525 204.899 100.025 204.594 100.37C204.294 100.715 204.144 101.15 204.144 101.675C204.144 102.21 204.297 102.65 204.602 102.995C204.912 103.34 205.389 103.512 206.034 103.512C206.589 103.512 207.014 103.35 207.309 103.025C207.604 102.7 207.752 102.247 207.752 101.667C207.752 100.457 207.169 99.8525 206.004 99.8525ZM211.969 103.497C212.004 104.412 212.244 105.08 212.689 105.5C213.139 105.915 213.669 106.122 214.279 106.122C214.684 106.122 215.049 106.062 215.374 105.942C215.699 105.822 216.036 105.645 216.386 105.41L216.979 106.242C216.614 106.532 216.194 106.76 215.719 106.925C215.244 107.09 214.759 107.173 214.264 107.173C213.494 107.173 212.839 107 212.299 106.655C211.764 106.31 211.354 105.83 211.069 105.215C210.789 104.595 210.649 103.877 210.649 103.062C210.649 102.262 210.789 101.552 211.069 100.932C211.354 100.312 211.754 99.825 212.269 99.47C212.789 99.115 213.399 98.9375 214.099 98.9375C215.094 98.9375 215.876 99.2825 216.446 99.9725C217.021 100.662 217.309 101.607 217.309 102.807C217.309 102.942 217.304 103.07 217.294 103.19C217.289 103.31 217.284 103.412 217.279 103.497H211.969ZM214.114 99.9725C213.529 99.9725 213.039 100.18 212.644 100.595C212.249 101.01 212.026 101.652 211.976 102.522H216.094C216.079 101.677 215.894 101.042 215.539 100.617C215.184 100.187 214.709 99.9725 214.114 99.9725ZM221.458 106.13C222.068 106.13 222.548 106.017 222.898 105.792C223.248 105.567 223.423 105.262 223.423 104.877C223.423 104.642 223.378 104.437 223.288 104.262C223.203 104.087 223.025 103.93 222.755 103.79C222.485 103.645 222.07 103.502 221.51 103.362C220.965 103.227 220.49 103.072 220.085 102.897C219.685 102.717 219.373 102.485 219.148 102.2C218.928 101.915 218.818 101.545 218.818 101.09C218.818 100.425 219.095 99.9 219.65 99.515C220.205 99.13 220.928 98.9375 221.818 98.9375C222.453 98.9375 223.005 99.0225 223.475 99.1925C223.95 99.3625 224.353 99.5675 224.683 99.8075L224.128 100.662C223.833 100.457 223.503 100.29 223.138 100.16C222.778 100.025 222.343 99.9575 221.833 99.9575C221.213 99.9575 220.773 100.055 220.513 100.25C220.253 100.44 220.123 100.687 220.123 100.992C220.123 101.227 220.185 101.422 220.31 101.577C220.44 101.727 220.658 101.862 220.963 101.982C221.268 102.102 221.688 102.235 222.223 102.38C222.738 102.52 223.188 102.685 223.573 102.875C223.958 103.065 224.255 103.315 224.465 103.625C224.68 103.93 224.788 104.327 224.788 104.817C224.788 105.377 224.628 105.832 224.308 106.182C223.988 106.527 223.573 106.78 223.063 106.94C222.558 107.095 222.023 107.173 221.458 107.173C220.743 107.173 220.133 107.07 219.628 106.865C219.128 106.655 218.708 106.402 218.368 106.107L219.088 105.275C219.398 105.53 219.753 105.737 220.153 105.898C220.558 106.052 220.993 106.13 221.458 106.13ZM234.835 105.845C234.835 105.48 234.96 105.17 235.21 104.915C235.46 104.66 235.773 104.532 236.148 104.532C236.528 104.532 236.845 104.66 237.1 104.915C237.35 105.17 237.475 105.48 237.475 105.845C237.475 106.215 237.35 106.53 237.1 106.79C236.845 107.045 236.528 107.173 236.148 107.173C235.773 107.173 235.46 107.045 235.21 106.79C234.96 106.53 234.835 106.215 234.835 105.845ZM240.835 105.845C240.835 105.48 240.96 105.17 241.21 104.915C241.46 104.66 241.773 104.532 242.148 104.532C242.528 104.532 242.843 104.66 243.093 104.915C243.348 105.17 243.475 105.48 243.475 105.845C243.475 106.215 243.348 106.53 243.093 106.79C242.843 107.045 242.528 107.173 242.148 107.173C241.773 107.173 241.46 107.045 241.21 106.79C240.96 106.53 240.835 106.215 240.835 105.845ZM228.835 105.845C228.835 105.48 228.96 105.17 229.21 104.915C229.46 104.66 229.773 104.532 230.148 104.532C230.528 104.532 230.845 104.66 231.1 104.915C231.35 105.17 231.475 105.48 231.475 105.845C231.475 106.215 231.35 106.53 231.1 106.79C230.845 107.045 230.528 107.173 230.148 107.173C229.773 107.173 229.46 107.045 229.21 106.79C228.96 106.53 228.835 106.215 228.835 105.845ZM45.455 120.672V121.715H43.16V129.957H45.455V131H39.545V129.957H41.84V121.715H39.545V120.672H45.455ZM47.3016 131V123.102H48.3741L48.4716 124.197C48.7916 123.792 49.1916 123.482 49.6716 123.267C50.1516 123.047 50.6216 122.937 51.0816 122.937C51.8566 122.937 52.4191 123.142 52.7691 123.552C53.1241 123.962 53.3016 124.532 53.3016 125.262V131H52.0416V126.192C52.0416 125.652 52.0116 125.217 51.9516 124.887C51.8916 124.557 51.7641 124.315 51.5691 124.16C51.3791 124.005 51.0866 123.927 50.6916 123.927C50.3816 123.927 50.0891 123.995 49.8141 124.13C49.5441 124.265 49.3016 124.435 49.0866 124.64C48.8766 124.84 48.7016 125.042 48.5616 125.247V131H47.3016ZM57.7808 130.13C58.3908 130.13 58.8708 130.017 59.2208 129.792C59.5708 129.567 59.7458 129.262 59.7458 128.877C59.7458 128.642 59.7008 128.437 59.6108 128.262C59.5258 128.087 59.3483 127.93 59.0783 127.79C58.8083 127.645 58.3933 127.502 57.8333 127.362C57.2883 127.227 56.8133 127.072 56.4083 126.897C56.0083 126.717 55.6958 126.485 55.4708 126.2C55.2508 125.915 55.1408 125.545 55.1408 125.09C55.1408 124.425 55.4183 123.9 55.9733 123.515C56.5283 123.13 57.2508 122.937 58.1408 122.937C58.7758 122.937 59.3283 123.022 59.7983 123.192C60.2733 123.362 60.6758 123.567 61.0058 123.807L60.4508 124.662C60.1558 124.457 59.8258 124.29 59.4608 124.16C59.1008 124.025 58.6658 123.957 58.1558 123.957C57.5358 123.957 57.0958 124.055 56.8358 124.25C56.5758 124.44 56.4458 124.687 56.4458 124.992C56.4458 125.227 56.5083 125.422 56.6333 125.577C56.7633 125.727 56.9808 125.862 57.2858 125.982C57.5908 126.102 58.0108 126.235 58.5458 126.38C59.0608 126.52 59.5108 126.685 59.8958 126.875C60.2808 127.065 60.5783 127.315 60.7883 127.625C61.0033 127.93 61.1108 128.327 61.1108 128.817C61.1108 129.377 60.9508 129.832 60.6308 130.182C60.3108 130.527 59.8958 130.78 59.3858 130.94C58.8808 131.095 58.3458 131.173 57.7808 131.173C57.0658 131.173 56.4558 131.07 55.9508 130.865C55.4508 130.655 55.0308 130.402 54.6908 130.107L55.4108 129.275C55.7208 129.53 56.0758 129.737 56.4758 129.898C56.8808 130.052 57.3158 130.13 57.7808 130.13ZM69.1599 130.602C68.8899 130.782 68.5624 130.922 68.1774 131.023C67.7924 131.123 67.4149 131.173 67.0449 131.173C66.1949 131.173 65.5399 130.95 65.0799 130.505C64.6199 130.06 64.3899 129.487 64.3899 128.787V124.077H62.5749V123.102H64.3899V121.31L65.6499 121.16V123.102H68.3799L68.2299 124.077H65.6499V128.772C65.6499 129.212 65.7649 129.547 65.9949 129.777C66.2299 130.007 66.6174 130.122 67.1574 130.122C67.4524 130.122 67.7249 130.087 67.9749 130.017C68.2249 129.947 68.4574 129.857 68.6724 129.747L69.1599 130.602ZM76.3391 129.275C76.3391 129.595 76.3916 129.827 76.4966 129.972C76.6016 130.117 76.7641 130.222 76.9841 130.287L76.6766 131.173C76.3366 131.128 76.0391 131.02 75.7841 130.85C75.5291 130.675 75.3441 130.412 75.2291 130.062C74.9441 130.427 74.5866 130.705 74.1566 130.895C73.7316 131.08 73.2641 131.173 72.7541 131.173C71.9641 131.173 71.3416 130.95 70.8866 130.505C70.4316 130.06 70.2041 129.47 70.2041 128.735C70.2041 127.92 70.5216 127.295 71.1566 126.86C71.7916 126.425 72.7091 126.207 73.9091 126.207H75.0716V125.547C75.0716 124.977 74.9041 124.575 74.5691 124.34C74.2391 124.1 73.7791 123.98 73.1891 123.98C72.9291 123.98 72.6241 124.012 72.2741 124.077C71.9241 124.137 71.5441 124.24 71.1341 124.385L70.8041 123.432C71.2841 123.252 71.7366 123.125 72.1616 123.05C72.5916 122.975 72.9991 122.937 73.3841 122.937C74.3641 122.937 75.1016 123.167 75.5966 123.627C76.0916 124.087 76.3391 124.707 76.3391 125.487V129.275ZM73.0766 130.212C73.4666 130.212 73.8366 130.115 74.1866 129.92C74.5416 129.72 74.8366 129.445 75.0716 129.095V127.062H73.9316C73.0616 127.062 72.4466 127.212 72.0866 127.512C71.7316 127.812 71.5541 128.215 71.5541 128.72C71.5541 129.715 72.0616 130.212 73.0766 130.212ZM81.5532 119.922V129.05C81.5532 129.44 81.6732 129.717 81.9132 129.882C82.1582 130.042 82.4732 130.122 82.8582 130.122C83.0932 130.122 83.3182 130.097 83.5332 130.047C83.7532 129.997 83.9707 129.93 84.1857 129.845L84.5232 130.767C84.3082 130.872 84.0407 130.965 83.7207 131.045C83.4057 131.13 83.0482 131.173 82.6482 131.173C81.9482 131.173 81.3807 130.98 80.9457 130.595C80.5107 130.205 80.2932 129.667 80.2932 128.982V120.92H77.8707V119.922H81.5532ZM89.3473 119.922V129.05C89.3473 129.44 89.4673 129.717 89.7073 129.882C89.9523 130.042 90.2673 130.122 90.6523 130.122C90.8873 130.122 91.1123 130.097 91.3273 130.047C91.5473 129.997 91.7648 129.93 91.9798 129.845L92.3173 130.767C92.1023 130.872 91.8348 130.965 91.5148 131.045C91.1998 131.13 90.8423 131.173 90.4423 131.173C89.7423 131.173 89.1748 130.98 88.7398 130.595C88.3048 130.205 88.0873 129.667 88.0873 128.982V120.92H85.6648V119.922H89.3473ZM97.059 119.405C97.339 119.405 97.5615 119.49 97.7265 119.66C97.8965 119.83 97.9815 120.037 97.9815 120.282C97.9815 120.537 97.8965 120.752 97.7265 120.927C97.5615 121.097 97.339 121.182 97.059 121.182C96.794 121.182 96.5765 121.097 96.4065 120.927C96.2365 120.752 96.1515 120.537 96.1515 120.282C96.1515 120.037 96.2365 119.83 96.4065 119.66C96.5765 119.49 96.794 119.405 97.059 119.405ZM98.064 123.102V130.002H100.291V131H94.3665V130.002H96.804V124.1H94.4415V123.102H98.064ZM101.861 131V123.102H102.933L103.031 124.197C103.351 123.792 103.751 123.482 104.231 123.267C104.711 123.047 105.181 122.937 105.641 122.937C106.416 122.937 106.978 123.142 107.328 123.552C107.683 123.962 107.861 124.532 107.861 125.262V131H106.601V126.192C106.601 125.652 106.571 125.217 106.511 124.887C106.451 124.557 106.323 124.315 106.128 124.16C105.938 124.005 105.646 123.927 105.251 123.927C104.941 123.927 104.648 123.995 104.373 124.13C104.103 124.265 103.861 124.435 103.646 124.64C103.436 124.84 103.261 125.042 103.121 125.247V131H101.861ZM116.075 122.262L116.465 123.447C116.125 123.552 115.765 123.617 115.385 123.642C115.01 123.667 114.6 123.68 114.155 123.68C115.07 124.1 115.527 124.762 115.527 125.667C115.527 126.447 115.265 127.09 114.74 127.595C114.22 128.1 113.492 128.352 112.557 128.352C112.292 128.352 112.07 128.34 111.89 128.315C111.715 128.29 111.545 128.252 111.38 128.202C111.26 128.287 111.16 128.4 111.08 128.54C111.005 128.675 110.967 128.817 110.967 128.967C110.967 129.157 111.042 129.315 111.192 129.44C111.342 129.565 111.62 129.627 112.025 129.627H113.45C113.98 129.627 114.455 129.722 114.875 129.912C115.295 130.102 115.627 130.36 115.872 130.685C116.117 131.005 116.24 131.368 116.24 131.773C116.24 132.548 115.91 133.143 115.25 133.558C114.595 133.973 113.667 134.18 112.467 134.18C111.627 134.18 110.965 134.093 110.48 133.918C109.995 133.748 109.647 133.485 109.437 133.13C109.232 132.78 109.13 132.338 109.13 131.803H110.27C110.27 132.108 110.33 132.36 110.45 132.56C110.57 132.76 110.787 132.908 111.102 133.003C111.417 133.103 111.87 133.153 112.46 133.153C113.33 133.153 113.965 133.043 114.365 132.823C114.765 132.608 114.965 132.285 114.965 131.855C114.965 131.48 114.795 131.198 114.455 131.008C114.115 130.817 113.69 130.722 113.18 130.722H111.77C111.085 130.722 110.582 130.572 110.262 130.272C109.942 129.972 109.782 129.627 109.782 129.237C109.782 128.697 110.072 128.237 110.652 127.857C109.767 127.387 109.325 126.66 109.325 125.675C109.325 125.14 109.457 124.667 109.722 124.257C109.987 123.842 110.357 123.517 110.832 123.282C111.307 123.047 111.855 122.93 112.475 122.93C113.14 122.93 113.68 122.902 114.095 122.847C114.51 122.792 114.865 122.715 115.16 122.615C115.46 122.515 115.765 122.397 116.075 122.262ZM112.475 123.852C111.84 123.852 111.37 124.025 111.065 124.37C110.765 124.715 110.615 125.15 110.615 125.675C110.615 126.21 110.767 126.65 111.072 126.995C111.382 127.34 111.86 127.512 112.505 127.512C113.06 127.512 113.485 127.35 113.78 127.025C114.075 126.7 114.222 126.247 114.222 125.667C114.222 124.457 113.64 123.852 112.475 123.852ZM128.776 122.937C129.476 122.937 130.033 123.107 130.448 123.447C130.868 123.787 131.171 124.267 131.356 124.887C131.541 125.502 131.633 126.222 131.633 127.047C131.633 127.842 131.521 128.552 131.296 129.177C131.076 129.797 130.741 130.285 130.291 130.64C129.841 130.995 129.273 131.173 128.588 131.173C127.723 131.173 127.028 130.867 126.503 130.257V134.023L125.243 134.18V123.102H126.316L126.421 124.205C126.711 123.8 127.056 123.487 127.456 123.267C127.856 123.047 128.296 122.937 128.776 122.937ZM128.476 123.95C128.041 123.95 127.656 124.082 127.321 124.347C126.986 124.607 126.713 124.897 126.503 125.217V129.132C126.708 129.437 126.966 129.68 127.276 129.86C127.591 130.035 127.936 130.122 128.311 130.122C128.966 130.122 129.458 129.872 129.788 129.372C130.118 128.872 130.283 128.095 130.283 127.04C130.283 124.98 129.681 123.95 128.476 123.95ZM136.112 119.922V129.05C136.112 129.44 136.232 129.717 136.472 129.882C136.717 130.042 137.032 130.122 137.417 130.122C137.652 130.122 137.877 130.097 138.092 130.047C138.312 129.997 138.53 129.93 138.745 129.845L139.082 130.767C138.867 130.872 138.6 130.965 138.28 131.045C137.965 131.13 137.607 131.173 137.207 131.173C136.507 131.173 135.94 130.98 135.505 130.595C135.07 130.205 134.852 129.667 134.852 128.982V120.92H132.43V119.922H136.112ZM142.091 123.102V128.697C142.091 129.217 142.199 129.592 142.414 129.822C142.629 130.052 142.964 130.167 143.419 130.167C143.854 130.167 144.264 130.045 144.649 129.8C145.039 129.55 145.341 129.255 145.556 128.915V123.102H146.816V131H145.744L145.639 129.935C145.329 130.335 144.944 130.642 144.484 130.857C144.029 131.068 143.571 131.173 143.111 131.173C142.346 131.173 141.774 130.97 141.394 130.565C141.019 130.155 140.831 129.582 140.831 128.847V123.102H142.091ZM155.045 122.262L155.435 123.447C155.095 123.552 154.735 123.617 154.355 123.642C153.98 123.667 153.57 123.68 153.125 123.68C154.04 124.1 154.498 124.762 154.498 125.667C154.498 126.447 154.235 127.09 153.71 127.595C153.19 128.1 152.463 128.352 151.528 128.352C151.263 128.352 151.04 128.34 150.86 128.315C150.685 128.29 150.515 128.252 150.35 128.202C150.23 128.287 150.13 128.4 150.05 128.54C149.975 128.675 149.938 128.817 149.938 128.967C149.938 129.157 150.013 129.315 150.163 129.44C150.313 129.565 150.59 129.627 150.995 129.627H152.42C152.95 129.627 153.425 129.722 153.845 129.912C154.265 130.102 154.598 130.36 154.843 130.685C155.088 131.005 155.21 131.368 155.21 131.773C155.21 132.548 154.88 133.143 154.22 133.558C153.565 133.973 152.638 134.18 151.438 134.18C150.598 134.18 149.935 134.093 149.45 133.918C148.965 133.748 148.618 133.485 148.408 133.13C148.203 132.78 148.1 132.338 148.1 131.803H149.24C149.24 132.108 149.3 132.36 149.42 132.56C149.54 132.76 149.758 132.908 150.073 133.003C150.388 133.103 150.84 133.153 151.43 133.153C152.3 133.153 152.935 133.043 153.335 132.823C153.735 132.608 153.935 132.285 153.935 131.855C153.935 131.48 153.765 131.198 153.425 131.008C153.085 130.817 152.66 130.722 152.15 130.722H150.74C150.055 130.722 149.553 130.572 149.233 130.272C148.913 129.972 148.753 129.627 148.753 129.237C148.753 128.697 149.043 128.237 149.623 127.857C148.738 127.387 148.295 126.66 148.295 125.675C148.295 125.14 148.428 124.667 148.693 124.257C148.958 123.842 149.328 123.517 149.803 123.282C150.278 123.047 150.825 122.93 151.445 122.93C152.11 122.93 152.65 122.902 153.065 122.847C153.48 122.792 153.835 122.715 154.13 122.615C154.43 122.515 154.735 122.397 155.045 122.262ZM151.445 123.852C150.81 123.852 150.34 124.025 150.035 124.37C149.735 124.715 149.585 125.15 149.585 125.675C149.585 126.21 149.738 126.65 150.043 126.995C150.353 127.34 150.83 127.512 151.475 127.512C152.03 127.512 152.455 127.35 152.75 127.025C153.045 126.7 153.193 126.247 153.193 125.667C153.193 124.457 152.61 123.852 151.445 123.852ZM159.412 119.405C159.692 119.405 159.915 119.49 160.08 119.66C160.25 119.83 160.335 120.037 160.335 120.282C160.335 120.537 160.25 120.752 160.08 120.927C159.915 121.097 159.692 121.182 159.412 121.182C159.147 121.182 158.93 121.097 158.76 120.927C158.59 120.752 158.505 120.537 158.505 120.282C158.505 120.037 158.59 119.83 158.76 119.66C158.93 119.49 159.147 119.405 159.412 119.405ZM160.417 123.102V130.002H162.645V131H156.72V130.002H159.157V124.1H156.795V123.102H160.417ZM164.214 131V123.102H165.286L165.384 124.197C165.704 123.792 166.104 123.482 166.584 123.267C167.064 123.047 167.534 122.937 167.994 122.937C168.769 122.937 169.331 123.142 169.681 123.552C170.036 123.962 170.214 124.532 170.214 125.262V131H168.954V126.192C168.954 125.652 168.924 125.217 168.864 124.887C168.804 124.557 168.676 124.315 168.481 124.16C168.291 124.005 167.999 123.927 167.604 123.927C167.294 123.927 167.001 123.995 166.726 124.13C166.456 124.265 166.214 124.435 165.999 124.64C165.789 124.84 165.614 125.042 165.474 125.247V131H164.214ZM182.547 120.507C183.322 120.507 183.975 120.625 184.505 120.86C185.04 121.09 185.475 121.407 185.81 121.812C186.15 122.217 186.41 122.685 186.59 123.215C186.775 123.745 186.902 124.31 186.972 124.91C187.042 125.51 187.077 126.117 187.077 126.732C187.077 127.992 187.017 129.04 186.897 129.875C186.782 130.705 186.567 131.325 186.252 131.735C185.937 132.15 185.477 132.358 184.872 132.358C184.562 132.358 184.292 132.283 184.062 132.133C183.837 131.983 183.652 131.793 183.507 131.563C183.367 131.338 183.265 131.105 183.2 130.865C183.135 130.62 183.105 130.407 183.11 130.227H183.05C182.955 130.457 182.825 130.685 182.66 130.91C182.495 131.13 182.277 131.313 182.007 131.458C181.737 131.608 181.402 131.683 181.002 131.683C180.457 131.683 180.017 131.533 179.682 131.233C179.352 130.937 179.112 130.532 178.962 130.017C178.812 129.497 178.737 128.907 178.737 128.247C178.737 126.942 178.995 125.972 179.51 125.337C180.03 124.697 180.752 124.377 181.677 124.377C182.027 124.377 182.362 124.415 182.682 124.49C183.002 124.565 183.372 124.715 183.792 124.94V129.372C183.792 129.912 183.84 130.325 183.935 130.61C184.03 130.89 184.157 131.083 184.317 131.188C184.477 131.293 184.655 131.345 184.85 131.345C185.165 131.345 185.387 131.14 185.517 130.73C185.647 130.32 185.725 129.767 185.75 129.073C185.775 128.377 185.787 127.602 185.787 126.747C185.787 126.032 185.747 125.365 185.667 124.745C185.587 124.12 185.435 123.572 185.21 123.102C184.985 122.632 184.66 122.265 184.235 122C183.81 121.735 183.252 121.602 182.562 121.602C182.072 121.602 181.542 121.692 180.972 121.872C180.402 122.052 179.797 122.422 179.157 122.982L178.437 122.142C179.107 121.557 179.792 121.14 180.492 120.89C181.197 120.635 181.882 120.507 182.547 120.507ZM181.737 125.307C181.057 125.307 180.59 125.557 180.335 126.057C180.085 126.552 179.96 127.282 179.96 128.247C179.96 128.982 180.045 129.582 180.215 130.047C180.385 130.507 180.697 130.737 181.152 130.737C181.502 130.737 181.777 130.657 181.977 130.497C182.182 130.337 182.337 130.155 182.442 129.95C182.552 129.74 182.637 129.562 182.697 129.417V125.532C182.407 125.382 182.087 125.307 181.737 125.307ZM194.181 123.102L191.309 131H189.846L186.996 123.102H188.331L190.619 129.852L192.876 123.102H194.181ZM201.66 130.602C201.39 130.782 201.063 130.922 200.678 131.023C200.293 131.123 199.915 131.173 199.545 131.173C198.695 131.173 198.04 130.95 197.58 130.505C197.12 130.06 196.89 129.487 196.89 128.787V124.077H195.075V123.102H196.89V121.31L198.15 121.16V123.102H200.88L200.73 124.077H198.15V128.772C198.15 129.212 198.265 129.547 198.495 129.777C198.73 130.007 199.118 130.122 199.658 130.122C199.953 130.122 200.225 130.087 200.475 130.017C200.725 129.947 200.958 129.857 201.173 129.747L201.66 130.602ZM204.174 127.497C204.209 128.412 204.449 129.08 204.894 129.5C205.344 129.915 205.874 130.122 206.484 130.122C206.889 130.122 207.254 130.062 207.579 129.942C207.904 129.822 208.242 129.645 208.592 129.41L209.184 130.242C208.819 130.532 208.399 130.76 207.924 130.925C207.449 131.09 206.964 131.173 206.469 131.173C205.699 131.173 205.044 131 204.504 130.655C203.969 130.31 203.559 129.83 203.274 129.215C202.994 128.595 202.854 127.877 202.854 127.062C202.854 126.262 202.994 125.552 203.274 124.932C203.559 124.312 203.959 123.825 204.474 123.47C204.994 123.115 205.604 122.937 206.304 122.937C207.299 122.937 208.082 123.282 208.652 123.972C209.227 124.662 209.514 125.607 209.514 126.807C209.514 126.942 209.509 127.07 209.499 127.19C209.494 127.31 209.489 127.412 209.484 127.497H204.174ZM206.319 123.972C205.734 123.972 205.244 124.18 204.849 124.595C204.454 125.01 204.232 125.652 204.182 126.522H208.299C208.284 125.677 208.099 125.042 207.744 124.617C207.389 124.187 206.914 123.972 206.319 123.972ZM211.744 131H210.304L213.221 126.83L210.664 123.102H212.156L213.986 126.042L215.839 123.102H217.279L214.729 126.777L217.639 131H216.094L213.934 127.61L211.744 131ZM219.073 132.545L218.053 132.095L224.473 118.857L225.478 119.352L219.073 132.545ZM230.137 130.085C230.532 130.085 230.899 130.022 231.239 129.898C231.584 129.767 231.902 129.6 232.192 129.395L232.807 130.22C232.462 130.515 232.047 130.747 231.562 130.917C231.077 131.088 230.602 131.173 230.137 131.173C229.352 131.173 228.682 131.005 228.127 130.67C227.577 130.33 227.157 129.855 226.867 129.245C226.577 128.63 226.432 127.91 226.432 127.085C226.432 126.295 226.577 125.587 226.867 124.962C227.157 124.337 227.579 123.845 228.134 123.485C228.689 123.12 229.362 122.937 230.152 122.937C231.157 122.937 232.037 123.242 232.792 123.852L232.177 124.692C231.492 124.222 230.812 123.987 230.137 123.987C229.457 123.987 228.897 124.245 228.457 124.76C228.017 125.27 227.797 126.045 227.797 127.085C227.797 128.14 228.017 128.905 228.457 129.38C228.897 129.85 229.457 130.085 230.137 130.085ZM237.436 119.922V129.05C237.436 129.44 237.556 129.717 237.796 129.882C238.041 130.042 238.356 130.122 238.741 130.122C238.976 130.122 239.201 130.097 239.416 130.047C239.636 129.997 239.854 129.93 240.069 129.845L240.406 130.767C240.191 130.872 239.924 130.965 239.604 131.045C239.289 131.13 238.931 131.173 238.531 131.173C237.831 131.173 237.264 130.98 236.829 130.595C236.394 130.205 236.176 129.667 236.176 128.982V120.92H233.754V119.922H237.436ZM245.148 119.405C245.428 119.405 245.65 119.49 245.815 119.66C245.985 119.83 246.07 120.037 246.07 120.282C246.07 120.537 245.985 120.752 245.815 120.927C245.65 121.097 245.428 121.182 245.148 121.182C244.883 121.182 244.665 121.097 244.495 120.927C244.325 120.752 244.24 120.537 244.24 120.282C244.24 120.037 244.325 119.83 244.495 119.66C244.665 119.49 244.883 119.405 245.148 119.405ZM246.153 123.102V130.002H248.38V131H242.455V130.002H244.893V124.1H242.53V123.102H246.153ZM249.934 127.452V126.357H255.949V127.452H249.934ZM261.276 122.937C261.976 122.937 262.533 123.107 262.948 123.447C263.368 123.787 263.671 124.267 263.856 124.887C264.041 125.502 264.133 126.222 264.133 127.047C264.133 127.842 264.021 128.552 263.796 129.177C263.576 129.797 263.241 130.285 262.791 130.64C262.341 130.995 261.773 131.173 261.088 131.173C260.223 131.173 259.528 130.867 259.003 130.257V134.023L257.743 134.18V123.102H258.816L258.921 124.205C259.211 123.8 259.556 123.487 259.956 123.267C260.356 123.047 260.796 122.937 261.276 122.937ZM260.976 123.95C260.541 123.95 260.156 124.082 259.821 124.347C259.486 124.607 259.213 124.897 259.003 125.217V129.132C259.208 129.437 259.466 129.68 259.776 129.86C260.091 130.035 260.436 130.122 260.811 130.122C261.466 130.122 261.958 129.872 262.288 129.372C262.618 128.872 262.783 128.095 262.783 127.04C262.783 124.98 262.181 123.95 260.976 123.95ZM268.613 119.922V129.05C268.613 129.44 268.733 129.717 268.973 129.882C269.218 130.042 269.533 130.122 269.918 130.122C270.153 130.122 270.378 130.097 270.593 130.047C270.813 129.997 271.03 129.93 271.245 129.845L271.583 130.767C271.368 130.872 271.1 130.965 270.78 131.045C270.465 131.13 270.108 131.173 269.708 131.173C269.008 131.173 268.44 130.98 268.005 130.595C267.57 130.205 267.353 129.667 267.353 128.982V120.92H264.93V119.922H268.613ZM274.592 123.102V128.697C274.592 129.217 274.699 129.592 274.914 129.822C275.129 130.052 275.464 130.167 275.919 130.167C276.354 130.167 276.764 130.045 277.149 129.8C277.539 129.55 277.842 129.255 278.057 128.915V123.102H279.317V131H278.244L278.139 129.935C277.829 130.335 277.444 130.642 276.984 130.857C276.529 131.068 276.072 131.173 275.612 131.173C274.847 131.173 274.274 130.97 273.894 130.565C273.519 130.155 273.332 129.582 273.332 128.847V123.102H274.592ZM287.546 122.262L287.936 123.447C287.596 123.552 287.236 123.617 286.856 123.642C286.481 123.667 286.071 123.68 285.626 123.68C286.541 124.1 286.998 124.762 286.998 125.667C286.998 126.447 286.736 127.09 286.211 127.595C285.691 128.1 284.963 128.352 284.028 128.352C283.763 128.352 283.541 128.34 283.361 128.315C283.186 128.29 283.016 128.252 282.851 128.202C282.731 128.287 282.631 128.4 282.551 128.54C282.476 128.675 282.438 128.817 282.438 128.967C282.438 129.157 282.513 129.315 282.663 129.44C282.813 129.565 283.091 129.627 283.496 129.627H284.921C285.451 129.627 285.926 129.722 286.346 129.912C286.766 130.102 287.098 130.36 287.343 130.685C287.588 131.005 287.711 131.368 287.711 131.773C287.711 132.548 287.381 133.143 286.721 133.558C286.066 133.973 285.138 134.18 283.938 134.18C283.098 134.18 282.436 134.093 281.951 133.918C281.466 133.748 281.118 133.485 280.908 133.13C280.703 132.78 280.601 132.338 280.601 131.803H281.741C281.741 132.108 281.801 132.36 281.921 132.56C282.041 132.76 282.258 132.908 282.573 133.003C282.888 133.103 283.341 133.153 283.931 133.153C284.801 133.153 285.436 133.043 285.836 132.823C286.236 132.608 286.436 132.285 286.436 131.855C286.436 131.48 286.266 131.198 285.926 131.008C285.586 130.817 285.161 130.722 284.651 130.722H283.241C282.556 130.722 282.053 130.572 281.733 130.272C281.413 129.972 281.253 129.627 281.253 129.237C281.253 128.697 281.543 128.237 282.123 127.857C281.238 127.387 280.796 126.66 280.796 125.675C280.796 125.14 280.928 124.667 281.193 124.257C281.458 123.842 281.828 123.517 282.303 123.282C282.778 123.047 283.326 122.93 283.946 122.93C284.611 122.93 285.151 122.902 285.566 122.847C285.981 122.792 286.336 122.715 286.631 122.615C286.931 122.515 287.236 122.397 287.546 122.262ZM283.946 123.852C283.311 123.852 282.841 124.025 282.536 124.37C282.236 124.715 282.086 125.15 282.086 125.675C282.086 126.21 282.238 126.65 282.543 126.995C282.853 127.34 283.331 127.512 283.976 127.512C284.531 127.512 284.956 127.35 285.251 127.025C285.546 126.7 285.693 126.247 285.693 125.667C285.693 124.457 285.111 123.852 283.946 123.852ZM291.913 119.405C292.193 119.405 292.415 119.49 292.58 119.66C292.75 119.83 292.835 120.037 292.835 120.282C292.835 120.537 292.75 120.752 292.58 120.927C292.415 121.097 292.193 121.182 291.913 121.182C291.648 121.182 291.43 121.097 291.26 120.927C291.09 120.752 291.005 120.537 291.005 120.282C291.005 120.037 291.09 119.83 291.26 119.66C291.43 119.49 291.648 119.405 291.913 119.405ZM292.918 123.102V130.002H295.145V131H289.22V130.002H291.658V124.1H289.295V123.102H292.918ZM296.714 131V123.102H297.787L297.884 124.197C298.204 123.792 298.604 123.482 299.084 123.267C299.564 123.047 300.034 122.937 300.494 122.937C301.269 122.937 301.832 123.142 302.182 123.552C302.537 123.962 302.714 124.532 302.714 125.262V131H301.454V126.192C301.454 125.652 301.424 125.217 301.364 124.887C301.304 124.557 301.177 124.315 300.982 124.16C300.792 124.005 300.499 123.927 300.104 123.927C299.794 123.927 299.502 123.995 299.227 124.13C298.957 124.265 298.714 124.435 298.499 124.64C298.289 124.84 298.114 125.042 297.974 125.247V131H296.714ZM304.493 127.452V126.357H310.508V127.452H304.493ZM315.377 119.922V129.05C315.377 129.44 315.497 129.717 315.737 129.882C315.982 130.042 316.297 130.122 316.682 130.122C316.917 130.122 317.142 130.097 317.357 130.047C317.577 129.997 317.795 129.93 318.01 129.845L318.347 130.767C318.132 130.872 317.865 130.965 317.545 131.045C317.23 131.13 316.872 131.173 316.472 131.173C315.772 131.173 315.205 130.98 314.77 130.595C314.335 130.205 314.117 129.667 314.117 128.982V120.92H311.695V119.922H315.377ZM323.089 119.405C323.369 119.405 323.592 119.49 323.757 119.66C323.927 119.83 324.012 120.037 324.012 120.282C324.012 120.537 323.927 120.752 323.757 120.927C323.592 121.097 323.369 121.182 323.089 121.182C322.824 121.182 322.607 121.097 322.437 120.927C322.267 120.752 322.182 120.537 322.182 120.282C322.182 120.037 322.267 119.83 322.437 119.66C322.607 119.49 322.824 119.405 323.089 119.405ZM324.094 123.102V130.002H326.322V131H320.397V130.002H322.834V124.1H320.472V123.102H324.094ZM334.311 122.262L334.701 123.447C334.361 123.552 334.001 123.617 333.621 123.642C333.246 123.667 332.836 123.68 332.391 123.68C333.306 124.1 333.763 124.762 333.763 125.667C333.763 126.447 333.501 127.09 332.976 127.595C332.456 128.1 331.728 128.352 330.793 128.352C330.528 128.352 330.306 128.34 330.126 128.315C329.951 128.29 329.781 128.252 329.616 128.202C329.496 128.287 329.396 128.4 329.316 128.54C329.241 128.675 329.203 128.817 329.203 128.967C329.203 129.157 329.278 129.315 329.428 129.44C329.578 129.565 329.856 129.627 330.261 129.627H331.686C332.216 129.627 332.691 129.722 333.111 129.912C333.531 130.102 333.863 130.36 334.108 130.685C334.353 131.005 334.476 131.368 334.476 131.773C334.476 132.548 334.146 133.143 333.486 133.558C332.831 133.973 331.903 134.18 330.703 134.18C329.863 134.18 329.201 134.093 328.716 133.918C328.231 133.748 327.883 133.485 327.673 133.13C327.468 132.78 327.366 132.338 327.366 131.803H328.506C328.506 132.108 328.566 132.36 328.686 132.56C328.806 132.76 329.023 132.908 329.338 133.003C329.653 133.103 330.106 133.153 330.696 133.153C331.566 133.153 332.201 133.043 332.601 132.823C333.001 132.608 333.201 132.285 333.201 131.855C333.201 131.48 333.031 131.198 332.691 131.008C332.351 130.817 331.926 130.722 331.416 130.722H330.006C329.321 130.722 328.818 130.572 328.498 130.272C328.178 129.972 328.018 129.627 328.018 129.237C328.018 128.697 328.308 128.237 328.888 127.857C328.003 127.387 327.561 126.66 327.561 125.675C327.561 125.14 327.693 124.667 327.958 124.257C328.223 123.842 328.593 123.517 329.068 123.282C329.543 123.047 330.091 122.93 330.711 122.93C331.376 122.93 331.916 122.902 332.331 122.847C332.746 122.792 333.101 122.715 333.396 122.615C333.696 122.515 334.001 122.397 334.311 122.262ZM330.711 123.852C330.076 123.852 329.606 124.025 329.301 124.37C329.001 124.715 328.851 125.15 328.851 125.675C328.851 126.21 329.003 126.65 329.308 126.995C329.618 127.34 330.096 127.512 330.741 127.512C331.296 127.512 331.721 127.35 332.016 127.025C332.311 126.7 332.458 126.247 332.458 125.667C332.458 124.457 331.876 123.852 330.711 123.852ZM336.945 119.802V124.182C337.255 123.772 337.635 123.462 338.085 123.253C338.54 123.042 339 122.937 339.465 122.937C340.235 122.937 340.797 123.142 341.152 123.552C341.507 123.962 341.685 124.532 341.685 125.262V131H340.425V125.292C340.425 124.817 340.315 124.472 340.095 124.257C339.875 124.037 339.53 123.927 339.06 123.927C338.76 123.927 338.475 123.995 338.205 124.13C337.935 124.265 337.692 124.432 337.477 124.632C337.262 124.832 337.085 125.037 336.945 125.247V131H335.685V119.937L336.945 119.802ZM349.749 130.602C349.479 130.782 349.151 130.922 348.766 131.023C348.381 131.123 348.004 131.173 347.634 131.173C346.784 131.173 346.129 130.95 345.669 130.505C345.209 130.06 344.979 129.487 344.979 128.787V124.077H343.164V123.102H344.979V121.31L346.239 121.16V123.102H348.969L348.819 124.077H346.239V128.772C346.239 129.212 346.354 129.547 346.584 129.777C346.819 130.007 347.206 130.122 347.746 130.122C348.041 130.122 348.314 130.087 348.564 130.017C348.814 129.947 349.046 129.857 349.261 129.747L349.749 130.602ZM352.533 119.802V124.182C352.843 123.772 353.223 123.462 353.673 123.253C354.128 123.042 354.588 122.937 355.053 122.937C355.823 122.937 356.386 123.142 356.741 123.552C357.096 123.962 357.273 124.532 357.273 125.262V131H356.013V125.292C356.013 124.817 355.903 124.472 355.683 124.257C355.463 124.037 355.118 123.927 354.648 123.927C354.348 123.927 354.063 123.995 353.793 124.13C353.523 124.265 353.281 124.432 353.066 124.632C352.851 124.832 352.673 125.037 352.533 125.247V131H351.273V119.937L352.533 119.802ZM362.075 122.937C363.19 122.937 364.032 123.31 364.602 124.055C365.172 124.8 365.457 125.797 365.457 127.047C365.457 127.852 365.327 128.565 365.067 129.185C364.807 129.805 364.425 130.292 363.92 130.647C363.415 130.998 362.795 131.173 362.06 131.173C360.945 131.173 360.1 130.797 359.525 130.047C358.95 129.297 358.662 128.302 358.662 127.062C358.662 126.252 358.792 125.537 359.052 124.917C359.312 124.292 359.695 123.807 360.2 123.463C360.71 123.112 361.335 122.937 362.075 122.937ZM362.075 123.965C361.395 123.965 360.88 124.217 360.53 124.722C360.185 125.227 360.012 126.007 360.012 127.062C360.012 128.107 360.182 128.882 360.522 129.387C360.867 129.887 361.38 130.137 362.06 130.137C362.74 130.137 363.25 129.885 363.59 129.38C363.935 128.875 364.107 128.097 364.107 127.047C364.107 125.997 363.937 125.222 363.597 124.722C363.257 124.217 362.75 123.965 362.075 123.965ZM368.121 123.102V128.697C368.121 129.217 368.229 129.592 368.444 129.822C368.659 130.052 368.994 130.167 369.449 130.167C369.884 130.167 370.294 130.045 370.679 129.8C371.069 129.55 371.371 129.255 371.586 128.915V123.102H372.846V131H371.774L371.669 129.935C371.359 130.335 370.974 130.642 370.514 130.857C370.059 131.068 369.601 131.173 369.141 131.173C368.376 131.173 367.804 130.97 367.424 130.565C367.049 130.155 366.861 129.582 366.861 128.847V123.102H368.121ZM377.341 130.13C377.951 130.13 378.431 130.017 378.781 129.792C379.131 129.567 379.306 129.262 379.306 128.877C379.306 128.642 379.261 128.437 379.171 128.262C379.086 128.087 378.908 127.93 378.638 127.79C378.368 127.645 377.953 127.502 377.393 127.362C376.848 127.227 376.373 127.072 375.968 126.897C375.568 126.717 375.256 126.485 375.031 126.2C374.811 125.915 374.701 125.545 374.701 125.09C374.701 124.425 374.978 123.9 375.533 123.515C376.088 123.13 376.811 122.937 377.701 122.937C378.336 122.937 378.888 123.022 379.358 123.192C379.833 123.362 380.236 123.567 380.566 123.807L380.011 124.662C379.716 124.457 379.386 124.29 379.021 124.16C378.661 124.025 378.226 123.957 377.716 123.957C377.096 123.957 376.656 124.055 376.396 124.25C376.136 124.44 376.006 124.687 376.006 124.992C376.006 125.227 376.068 125.422 376.193 125.577C376.323 125.727 376.541 125.862 376.846 125.982C377.151 126.102 377.571 126.235 378.106 126.38C378.621 126.52 379.071 126.685 379.456 126.875C379.841 127.065 380.138 127.315 380.348 127.625C380.563 127.93 380.671 128.327 380.671 128.817C380.671 129.377 380.511 129.832 380.191 130.182C379.871 130.527 379.456 130.78 378.946 130.94C378.441 131.095 377.906 131.173 377.341 131.173C376.626 131.173 376.016 131.07 375.511 130.865C375.011 130.655 374.591 130.402 374.251 130.107L374.971 129.275C375.281 129.53 375.636 129.737 376.036 129.898C376.441 130.052 376.876 130.13 377.341 130.13ZM383.44 127.497C383.475 128.412 383.715 129.08 384.16 129.5C384.61 129.915 385.14 130.122 385.75 130.122C386.155 130.122 386.52 130.062 386.845 129.942C387.17 129.822 387.507 129.645 387.857 129.41L388.45 130.242C388.085 130.532 387.665 130.76 387.19 130.925C386.715 131.09 386.23 131.173 385.735 131.173C384.965 131.173 384.31 131 383.77 130.655C383.235 130.31 382.825 129.83 382.54 129.215C382.26 128.595 382.12 127.877 382.12 127.062C382.12 126.262 382.26 125.552 382.54 124.932C382.825 124.312 383.225 123.825 383.74 123.47C384.26 123.115 384.87 122.937 385.57 122.937C386.565 122.937 387.347 123.282 387.917 123.972C388.492 124.662 388.78 125.607 388.78 126.807C388.78 126.942 388.775 127.07 388.765 127.19C388.76 127.31 388.755 127.412 388.75 127.497H383.44ZM385.585 123.972C385 123.972 384.51 124.18 384.115 124.595C383.72 125.01 383.497 125.652 383.447 126.522H387.565C387.55 125.677 387.365 125.042 387.01 124.617C386.655 124.187 386.18 123.972 385.585 123.972ZM398.512 129.845C398.512 129.48 398.637 129.17 398.887 128.915C399.137 128.66 399.45 128.532 399.825 128.532C400.205 128.532 400.522 128.66 400.777 128.915C401.027 129.17 401.152 129.48 401.152 129.845C401.152 130.215 401.027 130.53 400.777 130.79C400.522 131.045 400.205 131.173 399.825 131.173C399.45 131.173 399.137 131.045 398.887 130.79C398.637 130.53 398.512 130.215 398.512 129.845ZM404.512 129.845C404.512 129.48 404.637 129.17 404.887 128.915C405.137 128.66 405.45 128.532 405.825 128.532C406.205 128.532 406.52 128.66 406.77 128.915C407.025 129.17 407.152 129.48 407.152 129.845C407.152 130.215 407.025 130.53 406.77 130.79C406.52 131.045 406.205 131.173 405.825 131.173C405.45 131.173 405.137 131.045 404.887 130.79C404.637 130.53 404.512 130.215 404.512 129.845ZM392.512 129.845C392.512 129.48 392.637 129.17 392.887 128.915C393.137 128.66 393.45 128.532 393.825 128.532C394.205 128.532 394.522 128.66 394.777 128.915C395.027 129.17 395.152 129.48 395.152 129.845C395.152 130.215 395.027 130.53 394.777 130.79C394.522 131.045 394.205 131.173 393.825 131.173C393.45 131.173 393.137 131.045 392.887 130.79C392.637 130.53 392.512 130.215 392.512 129.845ZM424.413 119.405C424.693 119.405 424.915 119.49 425.08 119.66C425.25 119.83 425.335 120.037 425.335 120.282C425.335 120.537 425.25 120.752 425.08 120.927C424.915 121.097 424.693 121.182 424.413 121.182C424.148 121.182 423.93 121.097 423.76 120.927C423.59 120.752 423.505 120.537 423.505 120.282C423.505 120.037 423.59 119.83 423.76 119.66C423.93 119.49 424.148 119.405 424.413 119.405ZM425.418 123.102V130.002H427.645V131H421.72V130.002H424.158V124.1H421.795V123.102H425.418ZM429.215 131V123.102H430.287L430.385 124.197C430.705 123.792 431.105 123.482 431.585 123.267C432.065 123.047 432.535 122.937 432.995 122.937C433.77 122.937 434.332 123.142 434.682 123.552C435.037 123.962 435.215 124.532 435.215 125.262V131H433.955V126.192C433.955 125.652 433.925 125.217 433.865 124.887C433.805 124.557 433.677 124.315 433.482 124.16C433.292 124.005 433 123.927 432.605 123.927C432.295 123.927 432.002 123.995 431.727 124.13C431.457 124.265 431.215 124.435 431 124.64C430.79 124.84 430.615 125.042 430.475 125.247V131H429.215ZM439.694 130.13C440.304 130.13 440.784 130.017 441.134 129.792C441.484 129.567 441.659 129.262 441.659 128.877C441.659 128.642 441.614 128.437 441.524 128.262C441.439 128.087 441.261 127.93 440.991 127.79C440.721 127.645 440.306 127.502 439.746 127.362C439.201 127.227 438.726 127.072 438.321 126.897C437.921 126.717 437.609 126.485 437.384 126.2C437.164 125.915 437.054 125.545 437.054 125.09C437.054 124.425 437.331 123.9 437.886 123.515C438.441 123.13 439.164 122.937 440.054 122.937C440.689 122.937 441.241 123.022 441.711 123.192C442.186 123.362 442.589 123.567 442.919 123.807L442.364 124.662C442.069 124.457 441.739 124.29 441.374 124.16C441.014 124.025 440.579 123.957 440.069 123.957C439.449 123.957 439.009 124.055 438.749 124.25C438.489 124.44 438.359 124.687 438.359 124.992C438.359 125.227 438.421 125.422 438.546 125.577C438.676 125.727 438.894 125.862 439.199 125.982C439.504 126.102 439.924 126.235 440.459 126.38C440.974 126.52 441.424 126.685 441.809 126.875C442.194 127.065 442.491 127.315 442.701 127.625C442.916 127.93 443.024 128.327 443.024 128.817C443.024 129.377 442.864 129.832 442.544 130.182C442.224 130.527 441.809 130.78 441.299 130.94C440.794 131.095 440.259 131.173 439.694 131.173C438.979 131.173 438.369 131.07 437.864 130.865C437.364 130.655 436.944 130.402 436.604 130.107L437.324 129.275C437.634 129.53 437.989 129.737 438.389 129.898C438.794 130.052 439.229 130.13 439.694 130.13ZM451.073 130.602C450.803 130.782 450.475 130.922 450.09 131.023C449.705 131.123 449.328 131.173 448.958 131.173C448.108 131.173 447.453 130.95 446.993 130.505C446.533 130.06 446.303 129.487 446.303 128.787V124.077H444.488V123.102H446.303V121.31L447.563 121.16V123.102H450.293L450.143 124.077H447.563V128.772C447.563 129.212 447.678 129.547 447.908 129.777C448.143 130.007 448.53 130.122 449.07 130.122C449.365 130.122 449.638 130.087 449.888 130.017C450.138 129.947 450.37 129.857 450.585 129.747L451.073 130.602ZM458.252 129.275C458.252 129.595 458.304 129.827 458.409 129.972C458.514 130.117 458.677 130.222 458.897 130.287L458.589 131.173C458.249 131.128 457.952 131.02 457.697 130.85C457.442 130.675 457.257 130.412 457.142 130.062C456.857 130.427 456.499 130.705 456.069 130.895C455.644 131.08 455.177 131.173 454.667 131.173C453.877 131.173 453.254 130.95 452.799 130.505C452.344 130.06 452.117 129.47 452.117 128.735C452.117 127.92 452.434 127.295 453.069 126.86C453.704 126.425 454.622 126.207 455.822 126.207H456.984V125.547C456.984 124.977 456.817 124.575 456.482 124.34C456.152 124.1 455.692 123.98 455.102 123.98C454.842 123.98 454.537 124.012 454.187 124.077C453.837 124.137 453.457 124.24 453.047 124.385L452.717 123.432C453.197 123.252 453.649 123.125 454.074 123.05C454.504 122.975 454.912 122.937 455.297 122.937C456.277 122.937 457.014 123.167 457.509 123.627C458.004 124.087 458.252 124.707 458.252 125.487V129.275ZM454.989 130.212C455.379 130.212 455.749 130.115 456.099 129.92C456.454 129.72 456.749 129.445 456.984 129.095V127.062H455.844C454.974 127.062 454.359 127.212 453.999 127.512C453.644 127.812 453.467 128.215 453.467 128.72C453.467 129.715 453.974 130.212 454.989 130.212ZM463.466 119.922V129.05C463.466 129.44 463.586 129.717 463.826 129.882C464.071 130.042 464.386 130.122 464.771 130.122C465.006 130.122 465.231 130.097 465.446 130.047C465.666 129.997 465.884 129.93 466.099 129.845L466.436 130.767C466.221 130.872 465.954 130.965 465.634 131.045C465.319 131.13 464.961 131.173 464.561 131.173C463.861 131.173 463.294 130.98 462.859 130.595C462.424 130.205 462.206 129.667 462.206 128.982V120.92H459.784V119.922H463.466ZM471.26 119.922V129.05C471.26 129.44 471.38 129.717 471.62 129.882C471.865 130.042 472.18 130.122 472.565 130.122C472.8 130.122 473.025 130.097 473.24 130.047C473.46 129.997 473.678 129.93 473.893 129.845L474.23 130.767C474.015 130.872 473.748 130.965 473.428 131.045C473.113 131.13 472.755 131.173 472.355 131.173C471.655 131.173 471.088 130.98 470.653 130.595C470.218 130.205 470 129.667 470 128.982V120.92H467.578V119.922H471.26ZM476.969 127.497C477.004 128.412 477.244 129.08 477.689 129.5C478.139 129.915 478.669 130.122 479.279 130.122C479.684 130.122 480.049 130.062 480.374 129.942C480.699 129.822 481.037 129.645 481.387 129.41L481.979 130.242C481.614 130.532 481.194 130.76 480.719 130.925C480.244 131.09 479.759 131.173 479.264 131.173C478.494 131.173 477.839 131 477.299 130.655C476.764 130.31 476.354 129.83 476.069 129.215C475.789 128.595 475.649 127.877 475.649 127.062C475.649 126.262 475.789 125.552 476.069 124.932C476.354 124.312 476.754 123.825 477.269 123.47C477.789 123.115 478.399 122.937 479.099 122.937C480.094 122.937 480.877 123.282 481.447 123.972C482.022 124.662 482.309 125.607 482.309 126.807C482.309 126.942 482.304 127.07 482.294 127.19C482.289 127.31 482.284 127.412 482.279 127.497H476.969ZM479.114 123.972C478.529 123.972 478.039 124.18 477.644 124.595C477.249 125.01 477.027 125.652 476.977 126.522H481.094C481.079 125.677 480.894 125.042 480.539 124.617C480.184 124.187 479.709 123.972 479.114 123.972ZM488.499 119.765L489.759 119.922V131H488.656L488.536 129.957C488.241 130.377 487.901 130.685 487.516 130.88C487.136 131.075 486.729 131.173 486.294 131.173C485.609 131.173 485.044 131 484.599 130.655C484.154 130.31 483.824 129.83 483.609 129.215C483.394 128.595 483.286 127.877 483.286 127.062C483.286 126.272 483.409 125.567 483.654 124.947C483.899 124.322 484.251 123.832 484.711 123.477C485.176 123.117 485.734 122.937 486.384 122.937C487.259 122.937 487.964 123.247 488.499 123.867V119.765ZM486.714 123.95C486.054 123.95 485.546 124.207 485.191 124.722C484.836 125.237 484.659 126.017 484.659 127.062C484.659 129.122 485.291 130.152 486.556 130.152C487.001 130.152 487.384 130.027 487.704 129.777C488.024 129.522 488.289 129.232 488.499 128.907V124.962C488.284 124.642 488.024 124.395 487.719 124.22C487.414 124.04 487.079 123.95 486.714 123.95Z" fill="white"/>
<path d="M66.5649 70.2725V72.53C67.1649 72.595 67.6974 72.7425 68.1624 72.9725C68.6274 73.1975 69.0149 73.4525 69.3249 73.7375L68.5524 74.5325C67.9724 73.9875 67.3099 73.6675 66.5649 73.5725V76.9925C67.0699 77.1575 67.5399 77.37 67.9749 77.63C68.4149 77.885 68.7699 78.2175 69.0399 78.6275C69.3099 79.0375 69.4449 79.5475 69.4449 80.1575C69.4449 80.6325 69.3374 81.08 69.1224 81.5C68.9074 81.915 68.5849 82.2675 68.1549 82.5575C67.7299 82.8425 67.1999 83.0275 66.5649 83.1125V85.295H65.5524V83.1575C64.8424 83.1125 64.2249 82.95 63.6999 82.67C63.1799 82.385 62.7524 82.0775 62.4174 81.7475L63.1674 80.915C63.4824 81.235 63.8349 81.5025 64.2249 81.7175C64.6199 81.9275 65.0624 82.0525 65.5524 82.0925V77.9375C64.6774 77.6475 63.9999 77.275 63.5199 76.82C63.0449 76.36 62.8074 75.7825 62.8074 75.0875C62.8074 74.6875 62.9074 74.3025 63.1074 73.9325C63.3124 73.5625 63.6174 73.2525 64.0224 73.0025C64.4274 72.7475 64.9374 72.59 65.5524 72.53V70.2725H66.5649ZM65.5524 73.6025C65.1424 73.6725 64.8049 73.8275 64.5399 74.0675C64.2799 74.3075 64.1499 74.64 64.1499 75.065C64.1499 75.415 64.2449 75.7125 64.4349 75.9575C64.6299 76.2025 65.0024 76.4375 65.5524 76.6625V73.6025ZM66.5649 78.29V82.025C67.5799 81.82 68.0874 81.2025 68.0874 80.1725C68.0874 79.7525 67.9749 79.3925 67.7499 79.0925C67.5299 78.7925 67.1349 78.525 66.5649 78.29Z" fill="#477DFF"/>
<path d="M40.76 108.733V94.7675H44.5175V95.855H41.9525V107.66H44.5175V108.733H40.76ZM53.5566 105.972V107H47.5941V105.972H50.1366V98.0375L47.7666 99.4775L47.2191 98.5775L50.2941 96.6725H51.3966V105.972H53.5566ZM55.3958 108.545L54.3758 108.095L60.7958 94.8575L61.8008 95.3525L55.3958 108.545ZM67.9749 100.55V103.482H69.3099V104.487H67.9749V107H66.7599L66.7524 104.487H62.4624V103.572L65.4924 96.5075L66.5424 96.95L63.7974 103.482H66.7599L66.9249 100.55H67.9749ZM75.4166 94.7675V108.733H71.6591V107.668H74.2241V95.855H71.6591V94.7675H75.4166ZM505.947 123.102L503.074 131H501.612L498.762 123.102H500.097L502.384 129.852L504.642 123.102H505.947ZM510.148 120.507C511.258 120.507 512.098 120.967 512.668 121.887C513.243 122.807 513.531 124.122 513.531 125.832C513.531 127.547 513.243 128.867 512.668 129.792C512.098 130.712 511.258 131.173 510.148 131.173C509.038 131.173 508.196 130.712 507.621 129.792C507.051 128.867 506.766 127.547 506.766 125.832C506.766 124.122 507.051 122.807 507.621 121.887C508.196 120.967 509.038 120.507 510.148 120.507ZM510.148 121.52C509.513 121.52 509.013 121.857 508.648 122.532C508.283 123.202 508.101 124.302 508.101 125.832C508.101 126.977 508.188 127.877 508.363 128.532L511.521 122.187C511.206 121.742 510.748 121.52 510.148 121.52ZM512.203 125.832C512.203 124.677 512.113 123.775 511.933 123.125L508.791 129.492C509.106 129.932 509.558 130.152 510.148 130.152C510.788 130.152 511.291 129.815 511.656 129.14C512.021 128.465 512.203 127.362 512.203 125.832ZM516.615 129.845C516.615 129.48 516.74 129.17 516.99 128.915C517.24 128.66 517.553 128.532 517.928 128.532C518.308 128.532 518.623 128.66 518.873 128.915C519.128 129.17 519.255 129.48 519.255 129.845C519.255 130.215 519.128 130.53 518.873 130.79C518.623 131.045 518.308 131.173 517.928 131.173C517.553 131.173 517.24 131.045 516.99 130.79C516.74 130.53 516.615 130.215 516.615 129.845ZM525.737 120.507C526.847 120.507 527.687 120.967 528.257 121.887C528.832 122.807 529.119 124.122 529.119 125.832C529.119 127.547 528.832 128.867 528.257 129.792C527.687 130.712 526.847 131.173 525.737 131.173C524.627 131.173 523.784 130.712 523.209 129.792C522.639 128.867 522.354 127.547 522.354 125.832C522.354 124.122 522.639 122.807 523.209 121.887C523.784 120.967 524.627 120.507 525.737 120.507ZM525.737 121.52C525.102 121.52 524.602 121.857 524.237 122.532C523.872 123.202 523.689 124.302 523.689 125.832C523.689 126.977 523.777 127.877 523.952 128.532L527.109 122.187C526.794 121.742 526.337 121.52 525.737 121.52ZM527.792 125.832C527.792 124.677 527.702 123.775 527.522 123.125L524.379 129.492C524.694 129.932 525.147 130.152 525.737 130.152C526.377 130.152 526.879 129.815 527.244 129.14C527.609 128.465 527.792 127.362 527.792 125.832ZM532.203 129.845C532.203 129.48 532.328 129.17 532.578 128.915C532.828 128.66 533.141 128.532 533.516 128.532C533.896 128.532 534.211 128.66 534.461 128.915C534.716 129.17 534.843 129.48 534.843 129.845C534.843 130.215 534.716 130.53 534.461 130.79C534.211 131.045 533.896 131.173 533.516 131.173C533.141 131.173 532.828 131.045 532.578 130.79C532.328 130.53 532.203 130.215 532.203 129.845ZM540.853 120.507C541.503 120.507 542.065 120.625 542.54 120.86C543.015 121.095 543.38 121.407 543.635 121.797C543.895 122.187 544.025 122.617 544.025 123.087C544.025 123.507 543.933 123.887 543.748 124.227C543.563 124.562 543.318 124.84 543.013 125.06C542.708 125.28 542.373 125.425 542.008 125.495C542.413 125.525 542.793 125.64 543.148 125.84C543.508 126.035 543.798 126.315 544.018 126.68C544.243 127.045 544.355 127.492 544.355 128.022C544.355 128.617 544.205 129.155 543.905 129.635C543.605 130.11 543.185 130.485 542.645 130.76C542.11 131.035 541.485 131.173 540.77 131.173C540.19 131.173 539.615 131.063 539.045 130.842C538.475 130.622 537.993 130.272 537.598 129.792L538.445 129.102C538.74 129.447 539.09 129.705 539.495 129.875C539.905 130.045 540.32 130.13 540.74 130.13C541.46 130.13 542.023 129.942 542.428 129.567C542.833 129.187 543.035 128.672 543.035 128.022C543.035 127.287 542.83 126.777 542.42 126.492C542.015 126.207 541.508 126.065 540.898 126.065H540.028L540.185 125.067H540.793C541.128 125.067 541.443 125.002 541.738 124.872C542.038 124.742 542.283 124.545 542.473 124.28C542.663 124.015 542.758 123.677 542.758 123.267C542.758 122.697 542.568 122.262 542.188 121.962C541.808 121.662 541.348 121.512 540.808 121.512C540.358 121.512 539.965 121.592 539.63 121.752C539.295 121.907 538.958 122.145 538.618 122.465L537.92 121.692C538.36 121.277 538.828 120.977 539.323 120.792C539.818 120.602 540.328 120.507 540.853 120.507Z" fill="#979899"/>
<path d="M115.941 83.9375H170.506V84.3125H115.941V83.9375Z" fill="white"/>
<path d="M12 6H574V4H12V6ZM577 9V156H579V9H577ZM574 159H12V161H574V159ZM9 156V9H7V156H9ZM12 159C10.3431 159 9 157.657 9 156H7C7 158.761 9.23858 161 12 161V159ZM577 156C577 157.657 575.657 159 574 159V161C576.761 161 579 158.761 579 156H577ZM574 6C575.657 6 577 7.34315 577 9H579C579 6.23857 576.761 4 574 4V6ZM12 4C9.23858 4 7 6.23857 7 9H9C9 7.34314 10.3431 6 12 6V4Z" fill="#192535"/>
</g>
<defs>
<filter id="filter0_d" x="0" y="0" width="586" height="171" filterUnits="userSpaceOnUse" color-interpolation-filters="sRGB">
<feFlood flood-opacity="0" result="BackgroundImageFix"/>
<feColorMatrix in="SourceAlpha" type="matrix" values="0 0 0 0 0 0 0 0 0 0 0 0 0 0 0 0 0 0 127 0"/>
<feOffset dy="3"/>
<feGaussianBlur stdDeviation="4"/>
<feColorMatrix type="matrix" values="0 0 0 0 0 0 0 0 0 0 0 0 0 0 0 0 0 0 0.15 0"/>
<feBlend mode="normal" in2="BackgroundImageFix" result="effect1_dropShadow"/>
<feBlend mode="normal" in="SourceGraphic" in2="effect1_dropShadow" result="shape"/>
</filter>
</defs>
</svg>
