<svg width="586" height="201" viewBox="0 0 586 201" fill="none" xmlns="http://www.w3.org/2000/svg">
<g filter="url(#filter0_d)">
<path d="M8 9C8 6.79087 9.79086 5 12 5H574C576.209 5 578 6.79086 578 9V186C578 188.209 576.209 190 574 190H12C9.79087 190 8 188.209 8 186V9Z" fill="#FF0000"/>
<rect x="8" y="5" width="570" height="40" fill="#1D2A3D"/>
<circle cx="28" cy="25" r="6" fill="#FF4A4A"/>
<circle cx="48" cy="25" r="6" fill="#FFB83D"/>
<circle cx="68" cy="25" r="6" fill="#00C543"/>
<rect x="8" y="44" width="570" height="1" fill="#122D42"/>
<rect width="570" height="145" transform="translate(8 45)" fill="#25354D"/>
<path d="M41.288 76.592C41.688 76.592 42.0267 76.672 42.304 76.832C42.5867 76.992 42.8373 77.1787 43.056 77.392C43.2747 77.6 43.4853 77.7867 43.688 77.952C43.8907 78.112 44.1147 78.192 44.36 78.192C44.6907 78.192 44.984 78.0613 45.24 77.8C45.5013 77.5387 45.736 77.216 45.944 76.832L46.904 77.328C46.7493 77.632 46.56 77.9413 46.336 78.256C46.112 78.5653 45.8347 78.8267 45.504 79.04C45.1787 79.248 44.7813 79.352 44.312 79.352C43.9387 79.352 43.6133 79.272 43.336 79.112C43.064 78.952 42.816 78.768 42.592 78.56C42.368 78.3467 42.1493 78.16 41.936 78C41.7227 77.8347 41.4907 77.752 41.24 77.752C40.8933 77.752 40.5947 77.8827 40.344 78.144C40.0933 78.4 39.864 78.72 39.656 79.104L38.696 78.632C38.856 78.3173 39.0453 78.0027 39.264 77.688C39.488 77.3733 39.7627 77.112 40.088 76.904C40.4133 76.696 40.8133 76.592 41.288 76.592ZM48.3218 84.648L47.2338 84.168L54.0818 70.048L55.1538 70.576L48.3218 84.648ZM88.6007 74.576L85.5368 83H83.9768L80.9368 74.576H82.3608L84.8008 81.776L87.2088 74.576H88.6007ZM96.6585 82.576C96.3705 82.768 96.0212 82.9173 95.6105 83.024C95.1998 83.1307 94.7972 83.184 94.4025 83.184C93.4958 83.184 92.7972 82.9467 92.3065 82.472C91.8158 81.9973 91.5705 81.3867 91.5705 80.64V75.616H89.6345V74.576H91.5705V72.664L92.9145 72.504V74.576H95.8265L95.6665 75.616H92.9145V80.624C92.9145 81.0933 93.0372 81.4507 93.2825 81.696C93.5332 81.9413 93.9465 82.064 94.5225 82.064C94.8372 82.064 95.1278 82.0267 95.3945 81.952C95.6612 81.8773 95.9092 81.7813 96.1385 81.664L96.6585 82.576ZM99.4202 79.264C99.4576 80.24 99.7136 80.952 100.188 81.4C100.668 81.8427 101.234 82.064 101.884 82.064C102.316 82.064 102.706 82 103.052 81.872C103.399 81.744 103.759 81.5547 104.132 81.304L104.764 82.192C104.375 82.5013 103.927 82.744 103.42 82.92C102.914 83.096 102.396 83.184 101.868 83.184C101.047 83.184 100.348 83 99.7722 82.632C99.2016 82.264 98.7642 81.752 98.4602 81.096C98.1616 80.4347 98.0122 79.6693 98.0122 78.8C98.0122 77.9467 98.1616 77.1893 98.4602 76.528C98.7642 75.8667 99.1909 75.3467 99.7402 74.968C100.295 74.5893 100.946 74.4 101.692 74.4C102.754 74.4 103.588 74.768 104.196 75.504C104.81 76.24 105.116 77.248 105.116 78.528C105.116 78.672 105.111 78.808 105.1 78.936C105.095 79.064 105.09 79.1733 105.084 79.264H99.4202ZM101.708 75.504C101.084 75.504 100.562 75.7253 100.14 76.168C99.7189 76.6107 99.4816 77.296 99.4282 78.224H103.82C103.804 77.3227 103.607 76.6453 103.228 76.192C102.85 75.7333 102.343 75.504 101.708 75.504ZM107.574 83H106.038L109.15 78.552L106.422 74.576H108.014L109.966 77.712L111.942 74.576H113.478L110.758 78.496L113.862 83H112.214L109.91 79.384L107.574 83Z" fill="#FFB100"/>
<path d="M127.314 74.4C128.06 74.4 128.655 74.5813 129.098 74.944C129.546 75.3067 129.868 75.8187 130.066 76.48C130.263 77.136 130.362 77.904 130.362 78.784C130.362 79.632 130.242 80.3893 130.002 81.056C129.767 81.7173 129.41 82.2373 128.93 82.616C128.45 82.9947 127.844 83.184 127.114 83.184C126.191 83.184 125.45 82.8587 124.89 82.208V86.224L123.546 86.392V74.576H124.69L124.802 75.752C125.111 75.32 125.479 74.9867 125.906 74.752C126.332 74.5173 126.802 74.4 127.314 74.4ZM126.994 75.48C126.53 75.48 126.119 75.6213 125.762 75.904C125.404 76.1813 125.114 76.4907 124.89 76.832V81.008C125.108 81.3333 125.383 81.592 125.714 81.784C126.05 81.9707 126.418 82.064 126.818 82.064C127.516 82.064 128.042 81.7973 128.394 81.264C128.746 80.7307 128.922 79.9013 128.922 78.776C128.922 76.5787 128.279 75.48 126.994 75.48ZM135.219 71.184V80.92C135.219 81.336 135.347 81.632 135.603 81.808C135.865 81.9787 136.201 82.064 136.611 82.064C136.862 82.064 137.102 82.0373 137.331 81.984C137.566 81.9307 137.798 81.8587 138.027 81.768L138.387 82.752C138.158 82.864 137.873 82.9627 137.531 83.048C137.195 83.1387 136.814 83.184 136.387 83.184C135.641 83.184 135.035 82.9787 134.571 82.568C134.107 82.152 133.875 81.5787 133.875 80.848V72.248H131.291V71.184H135.219ZM141.677 74.576V80.544C141.677 81.0987 141.792 81.4987 142.021 81.744C142.25 81.9893 142.608 82.112 143.093 82.112C143.557 82.112 143.994 81.9813 144.405 81.72C144.821 81.4533 145.144 81.1387 145.373 80.776V74.576H146.717V83H145.573L145.461 81.864C145.13 82.2907 144.72 82.6187 144.229 82.848C143.744 83.072 143.256 83.184 142.765 83.184C141.949 83.184 141.338 82.968 140.933 82.536C140.533 82.0987 140.333 81.488 140.333 80.704V74.576H141.677ZM155.575 73.68L155.991 74.944C155.628 75.056 155.244 75.1253 154.839 75.152C154.439 75.1787 154.001 75.192 153.527 75.192C154.503 75.64 154.991 76.3467 154.991 77.312C154.991 78.144 154.711 78.8293 154.151 79.368C153.596 79.9067 152.82 80.176 151.823 80.176C151.54 80.176 151.303 80.1627 151.111 80.136C150.924 80.1093 150.743 80.0693 150.567 80.016C150.439 80.1067 150.332 80.2267 150.247 80.376C150.167 80.52 150.127 80.672 150.127 80.832C150.127 81.0347 150.207 81.2027 150.367 81.336C150.527 81.4693 150.823 81.536 151.255 81.536H152.775C153.34 81.536 153.847 81.6373 154.295 81.84C154.743 82.0427 155.097 82.3173 155.359 82.664C155.62 83.0053 155.751 83.392 155.751 83.824C155.751 84.6507 155.399 85.2853 154.695 85.728C153.996 86.1707 153.007 86.392 151.727 86.392C150.831 86.392 150.124 86.2987 149.607 86.112C149.089 85.9307 148.719 85.6507 148.495 85.272C148.276 84.8987 148.167 84.4267 148.167 83.856H149.383C149.383 84.1813 149.447 84.4507 149.575 84.664C149.703 84.8773 149.935 85.0347 150.271 85.136C150.607 85.2427 151.089 85.296 151.719 85.296C152.647 85.296 153.324 85.1787 153.751 84.944C154.177 84.7147 154.391 84.3707 154.391 83.912C154.391 83.512 154.209 83.2107 153.847 83.008C153.484 82.8053 153.031 82.704 152.487 82.704H150.983C150.252 82.704 149.716 82.544 149.375 82.224C149.033 81.904 148.863 81.536 148.863 81.12C148.863 80.544 149.172 80.0533 149.791 79.648C148.847 79.1467 148.375 78.3707 148.375 77.32C148.375 76.7493 148.516 76.2453 148.799 75.808C149.081 75.3653 149.476 75.0187 149.983 74.768C150.489 74.5173 151.073 74.392 151.735 74.392C152.444 74.392 153.02 74.3627 153.463 74.304C153.905 74.2453 154.284 74.1627 154.599 74.056C154.919 73.9493 155.244 73.824 155.575 73.68ZM151.735 75.376C151.057 75.376 150.556 75.56 150.231 75.928C149.911 76.296 149.751 76.76 149.751 77.32C149.751 77.8907 149.913 78.36 150.239 78.728C150.569 79.096 151.079 79.28 151.767 79.28C152.359 79.28 152.812 79.1067 153.127 78.76C153.441 78.4133 153.599 77.9307 153.599 77.312C153.599 76.0213 152.977 75.376 151.735 75.376ZM160.312 70.632C160.611 70.632 160.848 70.7227 161.024 70.904C161.206 71.0853 161.296 71.3067 161.296 71.568C161.296 71.84 161.206 72.0693 161.024 72.256C160.848 72.4373 160.611 72.528 160.312 72.528C160.03 72.528 159.798 72.4373 159.616 72.256C159.435 72.0693 159.344 71.84 159.344 71.568C159.344 71.3067 159.435 71.0853 159.616 70.904C159.798 70.7227 160.03 70.632 160.312 70.632ZM161.384 74.576V81.936H163.76V83H157.44V81.936H160.04V75.64H157.52V74.576H161.384ZM165.514 83V74.576H166.658L166.762 75.744C167.104 75.312 167.53 74.9813 168.042 74.752C168.554 74.5173 169.056 74.4 169.546 74.4C170.373 74.4 170.973 74.6187 171.346 75.056C171.725 75.4933 171.914 76.1013 171.914 76.88V83H170.57V77.872C170.57 77.296 170.538 76.832 170.474 76.48C170.41 76.128 170.274 75.8693 170.066 75.704C169.864 75.5387 169.552 75.456 169.13 75.456C168.8 75.456 168.488 75.528 168.194 75.672C167.906 75.816 167.648 75.9973 167.418 76.216C167.194 76.4293 167.008 76.6453 166.858 76.864V83H165.514ZM176.772 82.072C177.423 82.072 177.935 81.952 178.308 81.712C178.681 81.472 178.868 81.1467 178.868 80.736C178.868 80.4853 178.82 80.2667 178.724 80.08C178.633 79.8933 178.444 79.7253 178.156 79.576C177.868 79.4213 177.425 79.2693 176.828 79.12C176.247 78.976 175.74 78.8107 175.308 78.624C174.881 78.432 174.548 78.184 174.308 77.88C174.073 77.576 173.956 77.1813 173.956 76.696C173.956 75.9867 174.252 75.4267 174.844 75.016C175.436 74.6053 176.207 74.4 177.156 74.4C177.833 74.4 178.423 74.4907 178.924 74.672C179.431 74.8533 179.86 75.072 180.212 75.328L179.62 76.24C179.305 76.0213 178.953 75.8427 178.564 75.704C178.18 75.56 177.716 75.488 177.172 75.488C176.511 75.488 176.041 75.592 175.764 75.8C175.487 76.0027 175.348 76.2667 175.348 76.592C175.348 76.8427 175.415 77.0507 175.548 77.216C175.687 77.376 175.919 77.52 176.244 77.648C176.569 77.776 177.017 77.9173 177.588 78.072C178.137 78.2213 178.617 78.3973 179.028 78.6C179.439 78.8027 179.756 79.0693 179.98 79.4C180.209 79.7253 180.324 80.1493 180.324 80.672C180.324 81.2693 180.153 81.7547 179.812 82.128C179.471 82.496 179.028 82.7653 178.484 82.936C177.945 83.1013 177.375 83.184 176.772 83.184C176.009 83.184 175.359 83.0747 174.82 82.856C174.287 82.632 173.839 82.3627 173.476 82.048L174.244 81.16C174.575 81.432 174.953 81.6533 175.38 81.824C175.812 81.9893 176.276 82.072 176.772 82.072ZM193.975 71.184V80.92C193.975 81.336 194.103 81.632 194.359 81.808C194.621 81.9787 194.957 82.064 195.367 82.064C195.618 82.064 195.858 82.0373 196.087 81.984C196.322 81.9307 196.554 81.8587 196.783 81.768L197.143 82.752C196.914 82.864 196.629 82.9627 196.287 83.048C195.951 83.1387 195.57 83.184 195.143 83.184C194.397 83.184 193.791 82.9787 193.327 82.568C192.863 82.152 192.631 81.5787 192.631 80.848V72.248H190.047V71.184H193.975ZM202.281 70.632C202.58 70.632 202.817 70.7227 202.993 70.904C203.175 71.0853 203.265 71.3067 203.265 71.568C203.265 71.84 203.175 72.0693 202.993 72.256C202.817 72.4373 202.58 72.528 202.281 72.528C201.999 72.528 201.767 72.4373 201.585 72.256C201.404 72.0693 201.313 71.84 201.313 71.568C201.313 71.3067 201.404 71.0853 201.585 70.904C201.767 70.7227 201.999 70.632 202.281 70.632ZM203.353 74.576V81.936H205.729V83H199.409V81.936H202.009V75.64H199.489V74.576H203.353ZM210.347 82.072C210.998 82.072 211.51 81.952 211.883 81.712C212.256 81.472 212.443 81.1467 212.443 80.736C212.443 80.4853 212.395 80.2667 212.299 80.08C212.208 79.8933 212.019 79.7253 211.731 79.576C211.443 79.4213 211 79.2693 210.403 79.12C209.822 78.976 209.315 78.8107 208.883 78.624C208.456 78.432 208.123 78.184 207.883 77.88C207.648 77.576 207.531 77.1813 207.531 76.696C207.531 75.9867 207.827 75.4267 208.419 75.016C209.011 74.6053 209.782 74.4 210.731 74.4C211.408 74.4 211.998 74.4907 212.499 74.672C213.006 74.8533 213.435 75.072 213.787 75.328L213.195 76.24C212.88 76.0213 212.528 75.8427 212.139 75.704C211.755 75.56 211.291 75.488 210.747 75.488C210.086 75.488 209.616 75.592 209.339 75.8C209.062 76.0027 208.923 76.2667 208.923 76.592C208.923 76.8427 208.99 77.0507 209.123 77.216C209.262 77.376 209.494 77.52 209.819 77.648C210.144 77.776 210.592 77.9173 211.163 78.072C211.712 78.2213 212.192 78.3973 212.603 78.6C213.014 78.8027 213.331 79.0693 213.555 79.4C213.784 79.7253 213.899 80.1493 213.899 80.672C213.899 81.2693 213.728 81.7547 213.387 82.128C213.046 82.496 212.603 82.7653 212.059 82.936C211.52 83.1013 210.95 83.184 210.347 83.184C209.584 83.184 208.934 83.0747 208.395 82.856C207.862 82.632 207.414 82.3627 207.051 82.048L207.819 81.16C208.15 81.432 208.528 81.6533 208.955 81.824C209.387 81.9893 209.851 82.072 210.347 82.072ZM222.565 82.576C222.277 82.768 221.927 82.9173 221.517 83.024C221.106 83.1307 220.703 83.184 220.309 83.184C219.402 83.184 218.703 82.9467 218.213 82.472C217.722 81.9973 217.477 81.3867 217.477 80.64V75.616H215.541V74.576H217.477V72.664L218.821 72.504V74.576H221.733L221.573 75.616H218.821V80.624C218.821 81.0933 218.943 81.4507 219.189 81.696C219.439 81.9413 219.853 82.064 220.429 82.064C220.743 82.064 221.034 82.0267 221.301 81.952C221.567 81.8773 221.815 81.7813 222.045 81.664L222.565 82.576ZM42.536 95.808C43.3627 95.808 44.0587 95.9333 44.624 96.184C45.1947 96.4293 45.6587 96.768 46.016 97.2C46.3787 97.632 46.656 98.1307 46.848 98.696C47.0453 99.2613 47.1813 99.864 47.256 100.504C47.3307 101.144 47.368 101.792 47.368 102.448C47.368 103.792 47.304 104.909 47.176 105.8C47.0533 106.685 46.824 107.347 46.488 107.784C46.152 108.227 45.6613 108.448 45.016 108.448C44.6853 108.448 44.3973 108.368 44.152 108.208C43.912 108.048 43.7147 107.845 43.56 107.6C43.4107 107.36 43.3013 107.112 43.232 106.856C43.1627 106.595 43.1307 106.368 43.136 106.176H43.072C42.9707 106.421 42.832 106.664 42.656 106.904C42.48 107.139 42.248 107.333 41.96 107.488C41.672 107.648 41.3147 107.728 40.888 107.728C40.3067 107.728 39.8373 107.568 39.48 107.248C39.128 106.933 38.872 106.501 38.712 105.952C38.552 105.397 38.472 104.768 38.472 104.064C38.472 102.672 38.7467 101.637 39.296 100.96C39.8507 100.277 40.6213 99.936 41.608 99.936C41.9813 99.936 42.3387 99.976 42.68 100.056C43.0213 100.136 43.416 100.296 43.864 100.536V105.264C43.864 105.84 43.9147 106.28 44.016 106.584C44.1173 106.883 44.2533 107.088 44.424 107.2C44.5947 107.312 44.784 107.368 44.992 107.368C45.328 107.368 45.5653 107.149 45.704 106.712C45.8427 106.275 45.9253 105.685 45.952 104.944C45.9787 104.203 45.992 103.376 45.992 102.464C45.992 101.701 45.9493 100.989 45.864 100.328C45.7787 99.6613 45.616 99.0773 45.376 98.576C45.136 98.0747 44.7893 97.6827 44.336 97.4C43.8827 97.1173 43.288 96.976 42.552 96.976C42.0293 96.976 41.464 97.072 40.856 97.264C40.248 97.456 39.6027 97.8507 38.92 98.448L38.152 97.552C38.8667 96.928 39.5973 96.4827 40.344 96.216C41.096 95.944 41.8267 95.808 42.536 95.808ZM41.672 100.928C40.9467 100.928 40.448 101.195 40.176 101.728C39.9093 102.256 39.776 103.035 39.776 104.064C39.776 104.848 39.8667 105.488 40.048 105.984C40.2293 106.475 40.5627 106.72 41.048 106.72C41.4213 106.72 41.7147 106.635 41.928 106.464C42.1467 106.293 42.312 106.099 42.424 105.88C42.5413 105.656 42.632 105.467 42.696 105.312V101.168C42.3867 101.008 42.0453 100.928 41.672 100.928ZM55.0258 98.576L51.9618 107H50.4018L47.3618 98.576H48.7858L51.2258 105.776L53.6338 98.576H55.0258ZM63.0835 106.576C62.7955 106.768 62.4462 106.917 62.0355 107.024C61.6248 107.131 61.2222 107.184 60.8275 107.184C59.9208 107.184 59.2222 106.947 58.7315 106.472C58.2408 105.997 57.9955 105.387 57.9955 104.64V99.616H56.0595V98.576H57.9955V96.664L59.3395 96.504V98.576H62.2515L62.0915 99.616H59.3395V104.624C59.3395 105.093 59.4622 105.451 59.7075 105.696C59.9582 105.941 60.3715 106.064 60.9475 106.064C61.2622 106.064 61.5528 106.027 61.8195 105.952C62.0862 105.877 62.3342 105.781 62.5635 105.664L63.0835 106.576ZM65.8452 103.264C65.8826 104.24 66.1386 104.952 66.6132 105.4C67.0932 105.843 67.6586 106.064 68.3092 106.064C68.7413 106.064 69.1306 106 69.4773 105.872C69.8239 105.744 70.1839 105.555 70.5573 105.304L71.1892 106.192C70.7999 106.501 70.3519 106.744 69.8453 106.92C69.3386 107.096 68.8212 107.184 68.2933 107.184C67.4719 107.184 66.7732 107 66.1972 106.632C65.6266 106.264 65.1892 105.752 64.8852 105.096C64.5866 104.435 64.4372 103.669 64.4372 102.8C64.4372 101.947 64.5866 101.189 64.8852 100.528C65.1892 99.8667 65.6159 99.3467 66.1652 98.968C66.7199 98.5893 67.3706 98.4 68.1172 98.4C69.1786 98.4 70.0133 98.768 70.6213 99.504C71.2346 100.24 71.5413 101.248 71.5413 102.528C71.5413 102.672 71.5359 102.808 71.5253 102.936C71.5199 103.064 71.5146 103.173 71.5092 103.264H65.8452ZM68.1332 99.504C67.5092 99.504 66.9866 99.7253 66.5652 100.168C66.1439 100.611 65.9066 101.296 65.8532 102.224H70.2452C70.2292 101.323 70.0319 100.645 69.6532 100.192C69.2746 99.7333 68.7679 99.504 68.1332 99.504ZM73.999 107H72.463L75.575 102.552L72.847 98.576H74.439L76.391 101.712L78.367 98.576H79.903L77.183 102.496L80.287 107H78.639L76.335 103.384L73.999 107ZM81.8968 108.648L80.8088 108.168L87.6568 94.048L88.7288 94.576L81.8968 108.648ZM93.7785 106.024C94.1998 106.024 94.5918 105.957 94.9545 105.824C95.3225 105.685 95.6612 105.507 95.9705 105.288L96.6265 106.168C96.2585 106.483 95.8158 106.731 95.2985 106.912C94.7812 107.093 94.2745 107.184 93.7785 107.184C92.9412 107.184 92.2265 107.005 91.6345 106.648C91.0478 106.285 90.5998 105.779 90.2905 105.128C89.9812 104.472 89.8265 103.704 89.8265 102.824C89.8265 101.981 89.9812 101.227 90.2905 100.56C90.5998 99.8933 91.0505 99.368 91.6425 98.984C92.2345 98.5947 92.9518 98.4 93.7945 98.4C94.8665 98.4 95.8052 98.7253 96.6105 99.376L95.9545 100.272C95.2238 99.7707 94.4985 99.52 93.7785 99.52C93.0532 99.52 92.4558 99.7947 91.9865 100.344C91.5172 100.888 91.2825 101.715 91.2825 102.824C91.2825 103.949 91.5172 104.765 91.9865 105.272C92.4558 105.773 93.0532 106.024 93.7785 106.024ZM101.644 95.184V104.92C101.644 105.336 101.772 105.632 102.028 105.808C102.29 105.979 102.626 106.064 103.036 106.064C103.287 106.064 103.527 106.037 103.756 105.984C103.991 105.931 104.223 105.859 104.452 105.768L104.812 106.752C104.583 106.864 104.298 106.963 103.956 107.048C103.62 107.139 103.239 107.184 102.812 107.184C102.066 107.184 101.46 106.979 100.996 106.568C100.532 106.152 100.3 105.579 100.3 104.848V96.248H97.7162V95.184H101.644ZM109.95 94.632C110.249 94.632 110.486 94.7227 110.662 94.904C110.843 95.0853 110.934 95.3067 110.934 95.568C110.934 95.84 110.843 96.0693 110.662 96.256C110.486 96.4373 110.249 96.528 109.95 96.528C109.667 96.528 109.435 96.4373 109.254 96.256C109.073 96.0693 108.982 95.84 108.982 95.568C108.982 95.3067 109.073 95.0853 109.254 94.904C109.435 94.7227 109.667 94.632 109.95 94.632ZM111.022 98.576V105.936H113.398V107H107.078V105.936H109.678V99.64H107.158V98.576H111.022ZM115.136 103.216V102.048H121.552V103.216H115.136ZM127.314 98.4C128.06 98.4 128.655 98.5813 129.098 98.944C129.546 99.3067 129.868 99.8187 130.066 100.48C130.263 101.136 130.362 101.904 130.362 102.784C130.362 103.632 130.242 104.389 130.002 105.056C129.767 105.717 129.41 106.237 128.93 106.616C128.45 106.995 127.844 107.184 127.114 107.184C126.191 107.184 125.45 106.859 124.89 106.208V110.224L123.546 110.392V98.576H124.69L124.802 99.752C125.111 99.32 125.479 98.9867 125.906 98.752C126.332 98.5173 126.802 98.4 127.314 98.4ZM126.994 99.48C126.53 99.48 126.119 99.6213 125.762 99.904C125.404 100.181 125.114 100.491 124.89 100.832V105.008C125.108 105.333 125.383 105.592 125.714 105.784C126.05 105.971 126.418 106.064 126.818 106.064C127.516 106.064 128.042 105.797 128.394 105.264C128.746 104.731 128.922 103.901 128.922 102.776C128.922 100.579 128.279 99.48 126.994 99.48ZM135.219 95.184V104.92C135.219 105.336 135.347 105.632 135.603 105.808C135.865 105.979 136.201 106.064 136.611 106.064C136.862 106.064 137.102 106.037 137.331 105.984C137.566 105.931 137.798 105.859 138.027 105.768L138.387 106.752C138.158 106.864 137.873 106.963 137.531 107.048C137.195 107.139 136.814 107.184 136.387 107.184C135.641 107.184 135.035 106.979 134.571 106.568C134.107 106.152 133.875 105.579 133.875 104.848V96.248H131.291V95.184H135.219ZM141.677 98.576V104.544C141.677 105.099 141.792 105.499 142.021 105.744C142.25 105.989 142.608 106.112 143.093 106.112C143.557 106.112 143.994 105.981 144.405 105.72C144.821 105.453 145.144 105.139 145.373 104.776V98.576H146.717V107H145.573L145.461 105.864C145.13 106.291 144.72 106.619 144.229 106.848C143.744 107.072 143.256 107.184 142.765 107.184C141.949 107.184 141.338 106.968 140.933 106.536C140.533 106.099 140.333 105.488 140.333 104.704V98.576H141.677ZM155.575 97.68L155.991 98.944C155.628 99.056 155.244 99.1253 154.839 99.152C154.439 99.1787 154.001 99.192 153.527 99.192C154.503 99.64 154.991 100.347 154.991 101.312C154.991 102.144 154.711 102.829 154.151 103.368C153.596 103.907 152.82 104.176 151.823 104.176C151.54 104.176 151.303 104.163 151.111 104.136C150.924 104.109 150.743 104.069 150.567 104.016C150.439 104.107 150.332 104.227 150.247 104.376C150.167 104.52 150.127 104.672 150.127 104.832C150.127 105.035 150.207 105.203 150.367 105.336C150.527 105.469 150.823 105.536 151.255 105.536H152.775C153.34 105.536 153.847 105.637 154.295 105.84C154.743 106.043 155.097 106.317 155.359 106.664C155.62 107.005 155.751 107.392 155.751 107.824C155.751 108.651 155.399 109.285 154.695 109.728C153.996 110.171 153.007 110.392 151.727 110.392C150.831 110.392 150.124 110.299 149.607 110.112C149.089 109.931 148.719 109.651 148.495 109.272C148.276 108.899 148.167 108.427 148.167 107.856H149.383C149.383 108.181 149.447 108.451 149.575 108.664C149.703 108.877 149.935 109.035 150.271 109.136C150.607 109.243 151.089 109.296 151.719 109.296C152.647 109.296 153.324 109.179 153.751 108.944C154.177 108.715 154.391 108.371 154.391 107.912C154.391 107.512 154.209 107.211 153.847 107.008C153.484 106.805 153.031 106.704 152.487 106.704H150.983C150.252 106.704 149.716 106.544 149.375 106.224C149.033 105.904 148.863 105.536 148.863 105.12C148.863 104.544 149.172 104.053 149.791 103.648C148.847 103.147 148.375 102.371 148.375 101.32C148.375 100.749 148.516 100.245 148.799 99.808C149.081 99.3653 149.476 99.0187 149.983 98.768C150.489 98.5173 151.073 98.392 151.735 98.392C152.444 98.392 153.02 98.3627 153.463 98.304C153.905 98.2453 154.284 98.1627 154.599 98.056C154.919 97.9493 155.244 97.824 155.575 97.68ZM151.735 99.376C151.057 99.376 150.556 99.56 150.231 99.928C149.911 100.296 149.751 100.76 149.751 101.32C149.751 101.891 149.913 102.36 150.239 102.728C150.569 103.096 151.079 103.28 151.767 103.28C152.359 103.28 152.812 103.107 153.127 102.76C153.441 102.413 153.599 101.931 153.599 101.312C153.599 100.021 152.977 99.376 151.735 99.376ZM160.312 94.632C160.611 94.632 160.848 94.7227 161.024 94.904C161.206 95.0853 161.296 95.3067 161.296 95.568C161.296 95.84 161.206 96.0693 161.024 96.256C160.848 96.4373 160.611 96.528 160.312 96.528C160.03 96.528 159.798 96.4373 159.616 96.256C159.435 96.0693 159.344 95.84 159.344 95.568C159.344 95.3067 159.435 95.0853 159.616 94.904C159.798 94.7227 160.03 94.632 160.312 94.632ZM161.384 98.576V105.936H163.76V107H157.44V105.936H160.04V99.64H157.52V98.576H161.384ZM165.514 107V98.576H166.658L166.762 99.744C167.104 99.312 167.53 98.9813 168.042 98.752C168.554 98.5173 169.056 98.4 169.546 98.4C170.373 98.4 170.973 98.6187 171.346 99.056C171.725 99.4933 171.914 100.101 171.914 100.88V107H170.57V101.872C170.57 101.296 170.538 100.832 170.474 100.48C170.41 100.128 170.274 99.8693 170.066 99.704C169.864 99.5387 169.552 99.456 169.13 99.456C168.8 99.456 168.488 99.528 168.194 99.672C167.906 99.816 167.648 99.9973 167.418 100.216C167.194 100.429 167.008 100.645 166.858 100.864V107H165.514ZM173.892 103.216V102.048H180.308V103.216H173.892ZM188.334 105.16C188.334 105.501 188.39 105.749 188.502 105.904C188.614 106.059 188.787 106.171 189.022 106.24L188.694 107.184C188.331 107.136 188.014 107.021 187.742 106.84C187.47 106.653 187.272 106.373 187.15 106C186.846 106.389 186.464 106.685 186.006 106.888C185.552 107.085 185.054 107.184 184.51 107.184C183.667 107.184 183.003 106.947 182.518 106.472C182.032 105.997 181.79 105.368 181.79 104.584C181.79 103.715 182.128 103.048 182.806 102.584C183.483 102.12 184.462 101.888 185.742 101.888H186.982V101.184C186.982 100.576 186.803 100.147 186.446 99.896C186.094 99.64 185.603 99.512 184.974 99.512C184.696 99.512 184.371 99.5467 183.998 99.616C183.624 99.68 183.219 99.7893 182.782 99.944L182.43 98.928C182.942 98.736 183.424 98.6 183.878 98.52C184.336 98.44 184.771 98.4 185.182 98.4C186.227 98.4 187.014 98.6453 187.542 99.136C188.07 99.6267 188.334 100.288 188.334 101.12V105.16ZM184.854 106.16C185.27 106.16 185.664 106.056 186.038 105.848C186.416 105.635 186.731 105.341 186.982 104.968V102.8H185.766C184.838 102.8 184.182 102.96 183.798 103.28C183.419 103.6 183.23 104.029 183.23 104.568C183.23 105.629 183.771 106.16 184.854 106.16ZM192.039 98.576V104.544C192.039 105.099 192.154 105.499 192.383 105.744C192.613 105.989 192.97 106.112 193.455 106.112C193.919 106.112 194.357 105.981 194.767 105.72C195.183 105.453 195.506 105.139 195.735 104.776V98.576H197.079V107H195.935L195.823 105.864C195.493 106.291 195.082 106.619 194.591 106.848C194.106 107.072 193.618 107.184 193.127 107.184C192.311 107.184 191.701 106.968 191.295 106.536C190.895 106.099 190.695 105.488 190.695 104.704V98.576H192.039ZM205.777 106.576C205.489 106.768 205.14 106.917 204.729 107.024C204.319 107.131 203.916 107.184 203.521 107.184C202.615 107.184 201.916 106.947 201.425 106.472C200.935 105.997 200.689 105.387 200.689 104.64V99.616H198.753V98.576H200.689V96.664L202.033 96.504V98.576H204.945L204.785 99.616H202.033V104.624C202.033 105.093 202.156 105.451 202.401 105.696C202.652 105.941 203.065 106.064 203.641 106.064C203.956 106.064 204.247 106.027 204.513 105.952C204.78 105.877 205.028 105.781 205.257 105.664L205.777 106.576ZM210.691 98.4C211.88 98.4 212.779 98.7973 213.387 99.592C213.995 100.387 214.299 101.451 214.299 102.784C214.299 103.643 214.16 104.403 213.883 105.064C213.606 105.725 213.198 106.245 212.659 106.624C212.12 106.997 211.459 107.184 210.675 107.184C209.486 107.184 208.584 106.784 207.971 105.984C207.358 105.184 207.051 104.123 207.051 102.8C207.051 101.936 207.19 101.173 207.467 100.512C207.744 99.8453 208.152 99.328 208.691 98.96C209.235 98.5867 209.902 98.4 210.691 98.4ZM210.691 99.496C209.966 99.496 209.416 99.7653 209.043 100.304C208.675 100.843 208.491 101.675 208.491 102.8C208.491 103.915 208.672 104.741 209.035 105.28C209.403 105.813 209.95 106.08 210.675 106.08C211.4 106.08 211.944 105.811 212.307 105.272C212.675 104.733 212.859 103.904 212.859 102.784C212.859 101.664 212.678 100.837 212.315 100.304C211.952 99.7653 211.411 99.496 210.691 99.496ZM217.221 98.576V104.544C217.221 105.099 217.335 105.499 217.565 105.744C217.794 105.989 218.151 106.112 218.637 106.112C219.101 106.112 219.538 105.981 219.949 105.72C220.365 105.453 220.687 105.139 220.917 104.776V98.576H222.261V107H221.117L221.005 105.864C220.674 106.291 220.263 106.619 219.773 106.848C219.287 107.072 218.799 107.184 218.309 107.184C217.493 107.184 216.882 106.968 216.477 106.536C216.077 106.099 215.877 105.488 215.877 104.704V98.576H217.221ZM228.039 98.4C228.785 98.4 229.38 98.5813 229.823 98.944C230.271 99.3067 230.593 99.8187 230.791 100.48C230.988 101.136 231.087 101.904 231.087 102.784C231.087 103.632 230.967 104.389 230.727 105.056C230.492 105.717 230.135 106.237 229.655 106.616C229.175 106.995 228.569 107.184 227.839 107.184C226.916 107.184 226.175 106.859 225.615 106.208V110.224L224.271 110.392V98.576H225.415L225.527 99.752C225.836 99.32 226.204 98.9867 226.631 98.752C227.057 98.5173 227.527 98.4 228.039 98.4ZM227.719 99.48C227.255 99.48 226.844 99.6213 226.487 99.904C226.129 100.181 225.839 100.491 225.615 100.832V105.008C225.833 105.333 226.108 105.592 226.439 105.784C226.775 105.971 227.143 106.064 227.543 106.064C228.241 106.064 228.767 105.797 229.119 105.264C229.471 104.731 229.647 103.901 229.647 102.776C229.647 100.579 229.004 99.48 227.719 99.48ZM237.704 95.016L239.048 95.184V107H237.872L237.744 105.888C237.43 106.336 237.067 106.664 236.656 106.872C236.251 107.08 235.816 107.184 235.352 107.184C234.622 107.184 234.019 107 233.544 106.632C233.07 106.264 232.718 105.752 232.488 105.096C232.259 104.435 232.144 103.669 232.144 102.8C232.144 101.957 232.275 101.205 232.536 100.544C232.798 99.8773 233.174 99.3547 233.664 98.976C234.16 98.592 234.755 98.4 235.448 98.4C236.382 98.4 237.134 98.7307 237.704 99.392V95.016ZM235.8 99.48C235.096 99.48 234.555 99.7547 234.176 100.304C233.798 100.853 233.608 101.685 233.608 102.8C233.608 104.997 234.283 106.096 235.632 106.096C236.107 106.096 236.515 105.963 236.856 105.696C237.198 105.424 237.48 105.115 237.704 104.768V100.56C237.475 100.219 237.198 99.9547 236.872 99.768C236.547 99.576 236.19 99.48 235.8 99.48ZM247.09 105.16C247.09 105.501 247.146 105.749 247.258 105.904C247.37 106.059 247.543 106.171 247.778 106.24L247.45 107.184C247.087 107.136 246.77 107.021 246.498 106.84C246.226 106.653 246.029 106.373 245.906 106C245.602 106.389 245.221 106.685 244.762 106.888C244.309 107.085 243.81 107.184 243.266 107.184C242.423 107.184 241.759 106.947 241.274 106.472C240.789 105.997 240.546 105.368 240.546 104.584C240.546 103.715 240.885 103.048 241.562 102.584C242.239 102.12 243.218 101.888 244.498 101.888H245.738V101.184C245.738 100.576 245.559 100.147 245.202 99.896C244.85 99.64 244.359 99.512 243.73 99.512C243.453 99.512 243.127 99.5467 242.754 99.616C242.381 99.68 241.975 99.7893 241.538 99.944L241.186 98.928C241.698 98.736 242.181 98.6 242.634 98.52C243.093 98.44 243.527 98.4 243.938 98.4C244.983 98.4 245.77 98.6453 246.298 99.136C246.826 99.6267 247.09 100.288 247.09 101.12V105.16ZM243.61 106.16C244.026 106.16 244.421 106.056 244.794 105.848C245.173 105.635 245.487 105.341 245.738 104.968V102.8H244.522C243.594 102.8 242.938 102.96 242.554 103.28C242.175 103.6 241.986 104.029 241.986 104.568C241.986 105.629 242.527 106.16 243.61 106.16ZM256.14 106.576C255.852 106.768 255.502 106.917 255.092 107.024C254.681 107.131 254.278 107.184 253.884 107.184C252.977 107.184 252.278 106.947 251.788 106.472C251.297 105.997 251.052 105.387 251.052 104.64V99.616H249.116V98.576H251.052V96.664L252.396 96.504V98.576H255.308L255.148 99.616H252.396V104.624C252.396 105.093 252.518 105.451 252.764 105.696C253.014 105.941 253.428 106.064 254.004 106.064C254.318 106.064 254.609 106.027 254.876 105.952C255.142 105.877 255.39 105.781 255.62 105.664L256.14 106.576ZM258.902 103.264C258.939 104.24 259.195 104.952 259.67 105.4C260.15 105.843 260.715 106.064 261.366 106.064C261.798 106.064 262.187 106 262.534 105.872C262.88 105.744 263.24 105.555 263.614 105.304L264.246 106.192C263.856 106.501 263.408 106.744 262.902 106.92C262.395 107.096 261.878 107.184 261.35 107.184C260.528 107.184 259.83 107 259.254 106.632C258.683 106.264 258.246 105.752 257.942 105.096C257.643 104.435 257.494 103.669 257.494 102.8C257.494 101.947 257.643 101.189 257.942 100.528C258.246 99.8667 258.672 99.3467 259.222 98.968C259.776 98.5893 260.427 98.4 261.174 98.4C262.235 98.4 263.07 98.768 263.678 99.504C264.291 100.24 264.598 101.248 264.598 102.528C264.598 102.672 264.592 102.808 264.582 102.936C264.576 103.064 264.571 103.173 264.566 103.264H258.902ZM261.19 99.504C260.566 99.504 260.043 99.7253 259.622 100.168C259.2 100.611 258.963 101.296 258.91 102.224H263.302C263.286 101.323 263.088 100.645 262.71 100.192C262.331 99.7333 261.824 99.504 261.19 99.504ZM42.536 119.808C43.3627 119.808 44.0587 119.933 44.624 120.184C45.1947 120.429 45.6587 120.768 46.016 121.2C46.3787 121.632 46.656 122.131 46.848 122.696C47.0453 123.261 47.1813 123.864 47.256 124.504C47.3307 125.144 47.368 125.792 47.368 126.448C47.368 127.792 47.304 128.909 47.176 129.8C47.0533 130.685 46.824 131.347 46.488 131.784C46.152 132.227 45.6613 132.448 45.016 132.448C44.6853 132.448 44.3973 132.368 44.152 132.208C43.912 132.048 43.7147 131.845 43.56 131.6C43.4107 131.36 43.3013 131.112 43.232 130.856C43.1627 130.595 43.1307 130.368 43.136 130.176H43.072C42.9707 130.421 42.832 130.664 42.656 130.904C42.48 131.139 42.248 131.333 41.96 131.488C41.672 131.648 41.3147 131.728 40.888 131.728C40.3067 131.728 39.8373 131.568 39.48 131.248C39.128 130.933 38.872 130.501 38.712 129.952C38.552 129.397 38.472 128.768 38.472 128.064C38.472 126.672 38.7467 125.637 39.296 124.96C39.8507 124.277 40.6213 123.936 41.608 123.936C41.9813 123.936 42.3387 123.976 42.68 124.056C43.0213 124.136 43.416 124.296 43.864 124.536V129.264C43.864 129.84 43.9147 130.28 44.016 130.584C44.1173 130.883 44.2533 131.088 44.424 131.2C44.5947 131.312 44.784 131.368 44.992 131.368C45.328 131.368 45.5653 131.149 45.704 130.712C45.8427 130.275 45.9253 129.685 45.952 128.944C45.9787 128.203 45.992 127.376 45.992 126.464C45.992 125.701 45.9493 124.989 45.864 124.328C45.7787 123.661 45.616 123.077 45.376 122.576C45.136 122.075 44.7893 121.683 44.336 121.4C43.8827 121.117 43.288 120.976 42.552 120.976C42.0293 120.976 41.464 121.072 40.856 121.264C40.248 121.456 39.6027 121.851 38.92 122.448L38.152 121.552C38.8667 120.928 39.5973 120.483 40.344 120.216C41.096 119.944 41.8267 119.808 42.536 119.808ZM41.672 124.928C40.9467 124.928 40.448 125.195 40.176 125.728C39.9093 126.256 39.776 127.035 39.776 128.064C39.776 128.848 39.8667 129.488 40.048 129.984C40.2293 130.475 40.5627 130.72 41.048 130.72C41.4213 130.72 41.7147 130.635 41.928 130.464C42.1467 130.293 42.312 130.099 42.424 129.88C42.5413 129.656 42.632 129.467 42.696 129.312V125.168C42.3867 125.008 42.0453 124.928 41.672 124.928ZM55.0258 122.576L51.9618 131H50.4018L47.3618 122.576H48.7858L51.2258 129.776L53.6338 122.576H55.0258ZM63.0835 130.576C62.7955 130.768 62.4462 130.917 62.0355 131.024C61.6248 131.131 61.2222 131.184 60.8275 131.184C59.9208 131.184 59.2222 130.947 58.7315 130.472C58.2408 129.997 57.9955 129.387 57.9955 128.64V123.616H56.0595V122.576H57.9955V120.664L59.3395 120.504V122.576H62.2515L62.0915 123.616H59.3395V128.624C59.3395 129.093 59.4622 129.451 59.7075 129.696C59.9582 129.941 60.3715 130.064 60.9475 130.064C61.2622 130.064 61.5528 130.027 61.8195 129.952C62.0862 129.877 62.3342 129.781 62.5635 129.664L63.0835 130.576ZM65.8452 127.264C65.8826 128.24 66.1386 128.952 66.6132 129.4C67.0932 129.843 67.6586 130.064 68.3092 130.064C68.7413 130.064 69.1306 130 69.4773 129.872C69.8239 129.744 70.1839 129.555 70.5573 129.304L71.1892 130.192C70.7999 130.501 70.3519 130.744 69.8453 130.92C69.3386 131.096 68.8212 131.184 68.2933 131.184C67.4719 131.184 66.7732 131 66.1972 130.632C65.6266 130.264 65.1892 129.752 64.8852 129.096C64.5866 128.435 64.4372 127.669 64.4372 126.8C64.4372 125.947 64.5866 125.189 64.8852 124.528C65.1892 123.867 65.6159 123.347 66.1652 122.968C66.7199 122.589 67.3706 122.4 68.1172 122.4C69.1786 122.4 70.0133 122.768 70.6213 123.504C71.2346 124.24 71.5413 125.248 71.5413 126.528C71.5413 126.672 71.5359 126.808 71.5253 126.936C71.5199 127.064 71.5146 127.173 71.5092 127.264H65.8452ZM68.1332 123.504C67.5092 123.504 66.9866 123.725 66.5652 124.168C66.1439 124.611 65.9066 125.296 65.8532 126.224H70.2452C70.2292 125.323 70.0319 124.645 69.6532 124.192C69.2746 123.733 68.7679 123.504 68.1332 123.504ZM73.999 131H72.463L75.575 126.552L72.847 122.576H74.439L76.391 125.712L78.367 122.576H79.903L77.183 126.496L80.287 131H78.639L76.335 127.384L73.999 131ZM81.8968 132.648L80.8088 132.168L87.6568 118.048L88.7288 118.576L81.8968 132.648ZM93.7785 130.024C94.1998 130.024 94.5918 129.957 94.9545 129.824C95.3225 129.685 95.6612 129.507 95.9705 129.288L96.6265 130.168C96.2585 130.483 95.8158 130.731 95.2985 130.912C94.7812 131.093 94.2745 131.184 93.7785 131.184C92.9412 131.184 92.2265 131.005 91.6345 130.648C91.0478 130.285 90.5998 129.779 90.2905 129.128C89.9812 128.472 89.8265 127.704 89.8265 126.824C89.8265 125.981 89.9812 125.227 90.2905 124.56C90.5998 123.893 91.0505 123.368 91.6425 122.984C92.2345 122.595 92.9518 122.4 93.7945 122.4C94.8665 122.4 95.8052 122.725 96.6105 123.376L95.9545 124.272C95.2238 123.771 94.4985 123.52 93.7785 123.52C93.0532 123.52 92.4558 123.795 91.9865 124.344C91.5172 124.888 91.2825 125.715 91.2825 126.824C91.2825 127.949 91.5172 128.765 91.9865 129.272C92.4558 129.773 93.0532 130.024 93.7785 130.024ZM101.644 119.184V128.92C101.644 129.336 101.772 129.632 102.028 129.808C102.29 129.979 102.626 130.064 103.036 130.064C103.287 130.064 103.527 130.037 103.756 129.984C103.991 129.931 104.223 129.859 104.452 129.768L104.812 130.752C104.583 130.864 104.298 130.963 103.956 131.048C103.62 131.139 103.239 131.184 102.812 131.184C102.066 131.184 101.46 130.979 100.996 130.568C100.532 130.152 100.3 129.579 100.3 128.848V120.248H97.7162V119.184H101.644ZM109.95 118.632C110.249 118.632 110.486 118.723 110.662 118.904C110.843 119.085 110.934 119.307 110.934 119.568C110.934 119.84 110.843 120.069 110.662 120.256C110.486 120.437 110.249 120.528 109.95 120.528C109.667 120.528 109.435 120.437 109.254 120.256C109.073 120.069 108.982 119.84 108.982 119.568C108.982 119.307 109.073 119.085 109.254 118.904C109.435 118.723 109.667 118.632 109.95 118.632ZM111.022 122.576V129.936H113.398V131H107.078V129.936H109.678V123.64H107.158V122.576H111.022ZM115.136 127.216V126.048H121.552V127.216H115.136ZM127.314 122.4C128.06 122.4 128.655 122.581 129.098 122.944C129.546 123.307 129.868 123.819 130.066 124.48C130.263 125.136 130.362 125.904 130.362 126.784C130.362 127.632 130.242 128.389 130.002 129.056C129.767 129.717 129.41 130.237 128.93 130.616C128.45 130.995 127.844 131.184 127.114 131.184C126.191 131.184 125.45 130.859 124.89 130.208V134.224L123.546 134.392V122.576H124.69L124.802 123.752C125.111 123.32 125.479 122.987 125.906 122.752C126.332 122.517 126.802 122.4 127.314 122.4ZM126.994 123.48C126.53 123.48 126.119 123.621 125.762 123.904C125.404 124.181 125.114 124.491 124.89 124.832V129.008C125.108 129.333 125.383 129.592 125.714 129.784C126.05 129.971 126.418 130.064 126.818 130.064C127.516 130.064 128.042 129.797 128.394 129.264C128.746 128.731 128.922 127.901 128.922 126.776C128.922 124.579 128.279 123.48 126.994 123.48ZM135.219 119.184V128.92C135.219 129.336 135.347 129.632 135.603 129.808C135.865 129.979 136.201 130.064 136.611 130.064C136.862 130.064 137.102 130.037 137.331 129.984C137.566 129.931 137.798 129.859 138.027 129.768L138.387 130.752C138.158 130.864 137.873 130.963 137.531 131.048C137.195 131.139 136.814 131.184 136.387 131.184C135.641 131.184 135.035 130.979 134.571 130.568C134.107 130.152 133.875 129.579 133.875 128.848V120.248H131.291V119.184H135.219ZM141.677 122.576V128.544C141.677 129.099 141.792 129.499 142.021 129.744C142.25 129.989 142.608 130.112 143.093 130.112C143.557 130.112 143.994 129.981 144.405 129.72C144.821 129.453 145.144 129.139 145.373 128.776V122.576H146.717V131H145.573L145.461 129.864C145.13 130.291 144.72 130.619 144.229 130.848C143.744 131.072 143.256 131.184 142.765 131.184C141.949 131.184 141.338 130.968 140.933 130.536C140.533 130.099 140.333 129.488 140.333 128.704V122.576H141.677ZM155.575 121.68L155.991 122.944C155.628 123.056 155.244 123.125 154.839 123.152C154.439 123.179 154.001 123.192 153.527 123.192C154.503 123.64 154.991 124.347 154.991 125.312C154.991 126.144 154.711 126.829 154.151 127.368C153.596 127.907 152.82 128.176 151.823 128.176C151.54 128.176 151.303 128.163 151.111 128.136C150.924 128.109 150.743 128.069 150.567 128.016C150.439 128.107 150.332 128.227 150.247 128.376C150.167 128.52 150.127 128.672 150.127 128.832C150.127 129.035 150.207 129.203 150.367 129.336C150.527 129.469 150.823 129.536 151.255 129.536H152.775C153.34 129.536 153.847 129.637 154.295 129.84C154.743 130.043 155.097 130.317 155.359 130.664C155.62 131.005 155.751 131.392 155.751 131.824C155.751 132.651 155.399 133.285 154.695 133.728C153.996 134.171 153.007 134.392 151.727 134.392C150.831 134.392 150.124 134.299 149.607 134.112C149.089 133.931 148.719 133.651 148.495 133.272C148.276 132.899 148.167 132.427 148.167 131.856H149.383C149.383 132.181 149.447 132.451 149.575 132.664C149.703 132.877 149.935 133.035 150.271 133.136C150.607 133.243 151.089 133.296 151.719 133.296C152.647 133.296 153.324 133.179 153.751 132.944C154.177 132.715 154.391 132.371 154.391 131.912C154.391 131.512 154.209 131.211 153.847 131.008C153.484 130.805 153.031 130.704 152.487 130.704H150.983C150.252 130.704 149.716 130.544 149.375 130.224C149.033 129.904 148.863 129.536 148.863 129.12C148.863 128.544 149.172 128.053 149.791 127.648C148.847 127.147 148.375 126.371 148.375 125.32C148.375 124.749 148.516 124.245 148.799 123.808C149.081 123.365 149.476 123.019 149.983 122.768C150.489 122.517 151.073 122.392 151.735 122.392C152.444 122.392 153.02 122.363 153.463 122.304C153.905 122.245 154.284 122.163 154.599 122.056C154.919 121.949 155.244 121.824 155.575 121.68ZM151.735 123.376C151.057 123.376 150.556 123.56 150.231 123.928C149.911 124.296 149.751 124.76 149.751 125.32C149.751 125.891 149.913 126.36 150.239 126.728C150.569 127.096 151.079 127.28 151.767 127.28C152.359 127.28 152.812 127.107 153.127 126.76C153.441 126.413 153.599 125.931 153.599 125.312C153.599 124.021 152.977 123.376 151.735 123.376ZM160.312 118.632C160.611 118.632 160.848 118.723 161.024 118.904C161.206 119.085 161.296 119.307 161.296 119.568C161.296 119.84 161.206 120.069 161.024 120.256C160.848 120.437 160.611 120.528 160.312 120.528C160.03 120.528 159.798 120.437 159.616 120.256C159.435 120.069 159.344 119.84 159.344 119.568C159.344 119.307 159.435 119.085 159.616 118.904C159.798 118.723 160.03 118.632 160.312 118.632ZM161.384 122.576V129.936H163.76V131H157.44V129.936H160.04V123.64H157.52V122.576H161.384ZM165.514 131V122.576H166.658L166.762 123.744C167.104 123.312 167.53 122.981 168.042 122.752C168.554 122.517 169.056 122.4 169.546 122.4C170.373 122.4 170.973 122.619 171.346 123.056C171.725 123.493 171.914 124.101 171.914 124.88V131H170.57V125.872C170.57 125.296 170.538 124.832 170.474 124.48C170.41 124.128 170.274 123.869 170.066 123.704C169.864 123.539 169.552 123.456 169.13 123.456C168.8 123.456 168.488 123.528 168.194 123.672C167.906 123.816 167.648 123.997 167.418 124.216C167.194 124.429 167.008 124.645 166.858 124.864V131H165.514ZM173.892 127.216V126.048H180.308V127.216H173.892ZM185.582 119.184V128.92C185.582 129.336 185.71 129.632 185.966 129.808C186.227 129.979 186.563 130.064 186.974 130.064C187.224 130.064 187.464 130.037 187.694 129.984C187.928 129.931 188.16 129.859 188.39 129.768L188.75 130.752C188.52 130.864 188.235 130.963 187.894 131.048C187.558 131.139 187.176 131.184 186.75 131.184C186.003 131.184 185.398 130.979 184.934 130.568C184.47 130.152 184.238 129.579 184.238 128.848V120.248H181.654V119.184H185.582ZM193.903 122.4C195.093 122.4 195.991 122.797 196.599 123.592C197.207 124.387 197.511 125.451 197.511 126.784C197.511 127.643 197.373 128.403 197.095 129.064C196.818 129.725 196.41 130.245 195.871 130.624C195.333 130.997 194.671 131.184 193.887 131.184C192.698 131.184 191.797 130.784 191.183 129.984C190.57 129.184 190.263 128.123 190.263 126.8C190.263 125.936 190.402 125.173 190.679 124.512C190.957 123.845 191.365 123.328 191.903 122.96C192.447 122.587 193.114 122.4 193.903 122.4ZM193.903 123.496C193.178 123.496 192.629 123.765 192.255 124.304C191.887 124.843 191.703 125.675 191.703 126.8C191.703 127.915 191.885 128.741 192.247 129.28C192.615 129.813 193.162 130.08 193.887 130.08C194.613 130.08 195.157 129.811 195.519 129.272C195.887 128.733 196.071 127.904 196.071 126.784C196.071 125.664 195.89 124.837 195.527 124.304C195.165 123.765 194.623 123.496 193.903 123.496ZM205.937 121.68L206.353 122.944C205.991 123.056 205.607 123.125 205.201 123.152C204.801 123.179 204.364 123.192 203.889 123.192C204.865 123.64 205.353 124.347 205.353 125.312C205.353 126.144 205.073 126.829 204.513 127.368C203.959 127.907 203.183 128.176 202.185 128.176C201.903 128.176 201.665 128.163 201.473 128.136C201.287 128.109 201.105 128.069 200.929 128.016C200.801 128.107 200.695 128.227 200.609 128.376C200.529 128.52 200.489 128.672 200.489 128.832C200.489 129.035 200.569 129.203 200.729 129.336C200.889 129.469 201.185 129.536 201.617 129.536H203.137C203.703 129.536 204.209 129.637 204.657 129.84C205.105 130.043 205.46 130.317 205.721 130.664C205.983 131.005 206.113 131.392 206.113 131.824C206.113 132.651 205.761 133.285 205.057 133.728C204.359 134.171 203.369 134.392 202.089 134.392C201.193 134.392 200.487 134.299 199.969 134.112C199.452 133.931 199.081 133.651 198.857 133.272C198.639 132.899 198.529 132.427 198.529 131.856H199.745C199.745 132.181 199.809 132.451 199.937 132.664C200.065 132.877 200.297 133.035 200.633 133.136C200.969 133.243 201.452 133.296 202.081 133.296C203.009 133.296 203.687 133.179 204.113 132.944C204.54 132.715 204.753 132.371 204.753 131.912C204.753 131.512 204.572 131.211 204.209 131.008C203.847 130.805 203.393 130.704 202.849 130.704H201.345C200.615 130.704 200.079 130.544 199.737 130.224C199.396 129.904 199.225 129.536 199.225 129.12C199.225 128.544 199.535 128.053 200.153 127.648C199.209 127.147 198.737 126.371 198.737 125.32C198.737 124.749 198.879 124.245 199.161 123.808C199.444 123.365 199.839 123.019 200.345 122.768C200.852 122.517 201.436 122.392 202.097 122.392C202.807 122.392 203.383 122.363 203.825 122.304C204.268 122.245 204.647 122.163 204.961 122.056C205.281 121.949 205.607 121.824 205.937 121.68ZM202.097 123.376C201.42 123.376 200.919 123.56 200.593 123.928C200.273 124.296 200.113 124.76 200.113 125.32C200.113 125.891 200.276 126.36 200.601 126.728C200.932 127.096 201.441 127.28 202.129 127.28C202.721 127.28 203.175 127.107 203.489 126.76C203.804 126.413 203.961 125.931 203.961 125.312C203.961 124.021 203.34 123.376 202.097 123.376ZM210.347 130.072C210.998 130.072 211.51 129.952 211.883 129.712C212.256 129.472 212.443 129.147 212.443 128.736C212.443 128.485 212.395 128.267 212.299 128.08C212.208 127.893 212.019 127.725 211.731 127.576C211.443 127.421 211 127.269 210.403 127.12C209.822 126.976 209.315 126.811 208.883 126.624C208.456 126.432 208.123 126.184 207.883 125.88C207.648 125.576 207.531 125.181 207.531 124.696C207.531 123.987 207.827 123.427 208.419 123.016C209.011 122.605 209.782 122.4 210.731 122.4C211.408 122.4 211.998 122.491 212.499 122.672C213.006 122.853 213.435 123.072 213.787 123.328L213.195 124.24C212.88 124.021 212.528 123.843 212.139 123.704C211.755 123.56 211.291 123.488 210.747 123.488C210.086 123.488 209.616 123.592 209.339 123.8C209.062 124.003 208.923 124.267 208.923 124.592C208.923 124.843 208.99 125.051 209.123 125.216C209.262 125.376 209.494 125.52 209.819 125.648C210.144 125.776 210.592 125.917 211.163 126.072C211.712 126.221 212.192 126.397 212.603 126.6C213.014 126.803 213.331 127.069 213.555 127.4C213.784 127.725 213.899 128.149 213.899 128.672C213.899 129.269 213.728 129.755 213.387 130.128C213.046 130.496 212.603 130.765 212.059 130.936C211.52 131.101 210.95 131.184 210.347 131.184C209.584 131.184 208.934 131.075 208.395 130.856C207.862 130.632 207.414 130.363 207.051 130.048L207.819 129.16C208.15 129.432 208.528 129.653 208.955 129.824C209.387 129.989 209.851 130.072 210.347 130.072ZM42.536 143.808C43.3627 143.808 44.0587 143.933 44.624 144.184C45.1947 144.429 45.6587 144.768 46.016 145.2C46.3787 145.632 46.656 146.131 46.848 146.696C47.0453 147.261 47.1813 147.864 47.256 148.504C47.3307 149.144 47.368 149.792 47.368 150.448C47.368 151.792 47.304 152.909 47.176 153.8C47.0533 154.685 46.824 155.347 46.488 155.784C46.152 156.227 45.6613 156.448 45.016 156.448C44.6853 156.448 44.3973 156.368 44.152 156.208C43.912 156.048 43.7147 155.845 43.56 155.6C43.4107 155.36 43.3013 155.112 43.232 154.856C43.1627 154.595 43.1307 154.368 43.136 154.176H43.072C42.9707 154.421 42.832 154.664 42.656 154.904C42.48 155.139 42.248 155.333 41.96 155.488C41.672 155.648 41.3147 155.728 40.888 155.728C40.3067 155.728 39.8373 155.568 39.48 155.248C39.128 154.933 38.872 154.501 38.712 153.952C38.552 153.397 38.472 152.768 38.472 152.064C38.472 150.672 38.7467 149.637 39.296 148.96C39.8507 148.277 40.6213 147.936 41.608 147.936C41.9813 147.936 42.3387 147.976 42.68 148.056C43.0213 148.136 43.416 148.296 43.864 148.536V153.264C43.864 153.84 43.9147 154.28 44.016 154.584C44.1173 154.883 44.2533 155.088 44.424 155.2C44.5947 155.312 44.784 155.368 44.992 155.368C45.328 155.368 45.5653 155.149 45.704 154.712C45.8427 154.275 45.9253 153.685 45.952 152.944C45.9787 152.203 45.992 151.376 45.992 150.464C45.992 149.701 45.9493 148.989 45.864 148.328C45.7787 147.661 45.616 147.077 45.376 146.576C45.136 146.075 44.7893 145.683 44.336 145.4C43.8827 145.117 43.288 144.976 42.552 144.976C42.0293 144.976 41.464 145.072 40.856 145.264C40.248 145.456 39.6027 145.851 38.92 146.448L38.152 145.552C38.8667 144.928 39.5973 144.483 40.344 144.216C41.096 143.944 41.8267 143.808 42.536 143.808ZM41.672 148.928C40.9467 148.928 40.448 149.195 40.176 149.728C39.9093 150.256 39.776 151.035 39.776 152.064C39.776 152.848 39.8667 153.488 40.048 153.984C40.2293 154.475 40.5627 154.72 41.048 154.72C41.4213 154.72 41.7147 154.635 41.928 154.464C42.1467 154.293 42.312 154.099 42.424 153.88C42.5413 153.656 42.632 153.467 42.696 153.312V149.168C42.3867 149.008 42.0453 148.928 41.672 148.928ZM55.0258 146.576L51.9618 155H50.4018L47.3618 146.576H48.7858L51.2258 153.776L53.6338 146.576H55.0258ZM63.0835 154.576C62.7955 154.768 62.4462 154.917 62.0355 155.024C61.6248 155.131 61.2222 155.184 60.8275 155.184C59.9208 155.184 59.2222 154.947 58.7315 154.472C58.2408 153.997 57.9955 153.387 57.9955 152.64V147.616H56.0595V146.576H57.9955V144.664L59.3395 144.504V146.576H62.2515L62.0915 147.616H59.3395V152.624C59.3395 153.093 59.4622 153.451 59.7075 153.696C59.9582 153.941 60.3715 154.064 60.9475 154.064C61.2622 154.064 61.5528 154.027 61.8195 153.952C62.0862 153.877 62.3342 153.781 62.5635 153.664L63.0835 154.576ZM65.8452 151.264C65.8826 152.24 66.1386 152.952 66.6132 153.4C67.0932 153.843 67.6586 154.064 68.3092 154.064C68.7413 154.064 69.1306 154 69.4773 153.872C69.8239 153.744 70.1839 153.555 70.5573 153.304L71.1892 154.192C70.7999 154.501 70.3519 154.744 69.8453 154.92C69.3386 155.096 68.8212 155.184 68.2933 155.184C67.4719 155.184 66.7732 155 66.1972 154.632C65.6266 154.264 65.1892 153.752 64.8852 153.096C64.5866 152.435 64.4372 151.669 64.4372 150.8C64.4372 149.947 64.5866 149.189 64.8852 148.528C65.1892 147.867 65.6159 147.347 66.1652 146.968C66.7199 146.589 67.3706 146.4 68.1172 146.4C69.1786 146.4 70.0133 146.768 70.6213 147.504C71.2346 148.24 71.5413 149.248 71.5413 150.528C71.5413 150.672 71.5359 150.808 71.5253 150.936C71.5199 151.064 71.5146 151.173 71.5092 151.264H65.8452ZM68.1332 147.504C67.5092 147.504 66.9866 147.725 66.5652 148.168C66.1439 148.611 65.9066 149.296 65.8532 150.224H70.2452C70.2292 149.323 70.0319 148.645 69.6532 148.192C69.2746 147.733 68.7679 147.504 68.1332 147.504ZM73.999 155H72.463L75.575 150.552L72.847 146.576H74.439L76.391 149.712L78.367 146.576H79.903L77.183 150.496L80.287 155H78.639L76.335 151.384L73.999 155ZM81.8968 156.648L80.8088 156.168L87.6568 142.048L88.7288 142.576L81.8968 156.648ZM93.7785 154.024C94.1998 154.024 94.5918 153.957 94.9545 153.824C95.3225 153.685 95.6612 153.507 95.9705 153.288L96.6265 154.168C96.2585 154.483 95.8158 154.731 95.2985 154.912C94.7812 155.093 94.2745 155.184 93.7785 155.184C92.9412 155.184 92.2265 155.005 91.6345 154.648C91.0478 154.285 90.5998 153.779 90.2905 153.128C89.9812 152.472 89.8265 151.704 89.8265 150.824C89.8265 149.981 89.9812 149.227 90.2905 148.56C90.5998 147.893 91.0505 147.368 91.6425 146.984C92.2345 146.595 92.9518 146.4 93.7945 146.4C94.8665 146.4 95.8052 146.725 96.6105 147.376L95.9545 148.272C95.2238 147.771 94.4985 147.52 93.7785 147.52C93.0532 147.52 92.4558 147.795 91.9865 148.344C91.5172 148.888 91.2825 149.715 91.2825 150.824C91.2825 151.949 91.5172 152.765 91.9865 153.272C92.4558 153.773 93.0532 154.024 93.7785 154.024ZM101.644 143.184V152.92C101.644 153.336 101.772 153.632 102.028 153.808C102.29 153.979 102.626 154.064 103.036 154.064C103.287 154.064 103.527 154.037 103.756 153.984C103.991 153.931 104.223 153.859 104.452 153.768L104.812 154.752C104.583 154.864 104.298 154.963 103.956 155.048C103.62 155.139 103.239 155.184 102.812 155.184C102.066 155.184 101.46 154.979 100.996 154.568C100.532 154.152 100.3 153.579 100.3 152.848V144.248H97.7162V143.184H101.644ZM109.95 142.632C110.249 142.632 110.486 142.723 110.662 142.904C110.843 143.085 110.934 143.307 110.934 143.568C110.934 143.84 110.843 144.069 110.662 144.256C110.486 144.437 110.249 144.528 109.95 144.528C109.667 144.528 109.435 144.437 109.254 144.256C109.073 144.069 108.982 143.84 108.982 143.568C108.982 143.307 109.073 143.085 109.254 142.904C109.435 142.723 109.667 142.632 109.95 142.632ZM111.022 146.576V153.936H113.398V155H107.078V153.936H109.678V147.64H107.158V146.576H111.022ZM115.136 151.216V150.048H121.552V151.216H115.136ZM127.314 146.4C128.06 146.4 128.655 146.581 129.098 146.944C129.546 147.307 129.868 147.819 130.066 148.48C130.263 149.136 130.362 149.904 130.362 150.784C130.362 151.632 130.242 152.389 130.002 153.056C129.767 153.717 129.41 154.237 128.93 154.616C128.45 154.995 127.844 155.184 127.114 155.184C126.191 155.184 125.45 154.859 124.89 154.208V158.224L123.546 158.392V146.576H124.69L124.802 147.752C125.111 147.32 125.479 146.987 125.906 146.752C126.332 146.517 126.802 146.4 127.314 146.4ZM126.994 147.48C126.53 147.48 126.119 147.621 125.762 147.904C125.404 148.181 125.114 148.491 124.89 148.832V153.008C125.108 153.333 125.383 153.592 125.714 153.784C126.05 153.971 126.418 154.064 126.818 154.064C127.516 154.064 128.042 153.797 128.394 153.264C128.746 152.731 128.922 151.901 128.922 150.776C128.922 148.579 128.279 147.48 126.994 147.48ZM135.219 143.184V152.92C135.219 153.336 135.347 153.632 135.603 153.808C135.865 153.979 136.201 154.064 136.611 154.064C136.862 154.064 137.102 154.037 137.331 153.984C137.566 153.931 137.798 153.859 138.027 153.768L138.387 154.752C138.158 154.864 137.873 154.963 137.531 155.048C137.195 155.139 136.814 155.184 136.387 155.184C135.641 155.184 135.035 154.979 134.571 154.568C134.107 154.152 133.875 153.579 133.875 152.848V144.248H131.291V143.184H135.219ZM141.677 146.576V152.544C141.677 153.099 141.792 153.499 142.021 153.744C142.25 153.989 142.608 154.112 143.093 154.112C143.557 154.112 143.994 153.981 144.405 153.72C144.821 153.453 145.144 153.139 145.373 152.776V146.576H146.717V155H145.573L145.461 153.864C145.13 154.291 144.72 154.619 144.229 154.848C143.744 155.072 143.256 155.184 142.765 155.184C141.949 155.184 141.338 154.968 140.933 154.536C140.533 154.099 140.333 153.488 140.333 152.704V146.576H141.677ZM155.575 145.68L155.991 146.944C155.628 147.056 155.244 147.125 154.839 147.152C154.439 147.179 154.001 147.192 153.527 147.192C154.503 147.64 154.991 148.347 154.991 149.312C154.991 150.144 154.711 150.829 154.151 151.368C153.596 151.907 152.82 152.176 151.823 152.176C151.54 152.176 151.303 152.163 151.111 152.136C150.924 152.109 150.743 152.069 150.567 152.016C150.439 152.107 150.332 152.227 150.247 152.376C150.167 152.52 150.127 152.672 150.127 152.832C150.127 153.035 150.207 153.203 150.367 153.336C150.527 153.469 150.823 153.536 151.255 153.536H152.775C153.34 153.536 153.847 153.637 154.295 153.84C154.743 154.043 155.097 154.317 155.359 154.664C155.62 155.005 155.751 155.392 155.751 155.824C155.751 156.651 155.399 157.285 154.695 157.728C153.996 158.171 153.007 158.392 151.727 158.392C150.831 158.392 150.124 158.299 149.607 158.112C149.089 157.931 148.719 157.651 148.495 157.272C148.276 156.899 148.167 156.427 148.167 155.856H149.383C149.383 156.181 149.447 156.451 149.575 156.664C149.703 156.877 149.935 157.035 150.271 157.136C150.607 157.243 151.089 157.296 151.719 157.296C152.647 157.296 153.324 157.179 153.751 156.944C154.177 156.715 154.391 156.371 154.391 155.912C154.391 155.512 154.209 155.211 153.847 155.008C153.484 154.805 153.031 154.704 152.487 154.704H150.983C150.252 154.704 149.716 154.544 149.375 154.224C149.033 153.904 148.863 153.536 148.863 153.12C148.863 152.544 149.172 152.053 149.791 151.648C148.847 151.147 148.375 150.371 148.375 149.32C148.375 148.749 148.516 148.245 148.799 147.808C149.081 147.365 149.476 147.019 149.983 146.768C150.489 146.517 151.073 146.392 151.735 146.392C152.444 146.392 153.02 146.363 153.463 146.304C153.905 146.245 154.284 146.163 154.599 146.056C154.919 145.949 155.244 145.824 155.575 145.68ZM151.735 147.376C151.057 147.376 150.556 147.56 150.231 147.928C149.911 148.296 149.751 148.76 149.751 149.32C149.751 149.891 149.913 150.36 150.239 150.728C150.569 151.096 151.079 151.28 151.767 151.28C152.359 151.28 152.812 151.107 153.127 150.76C153.441 150.413 153.599 149.931 153.599 149.312C153.599 148.021 152.977 147.376 151.735 147.376ZM160.312 142.632C160.611 142.632 160.848 142.723 161.024 142.904C161.206 143.085 161.296 143.307 161.296 143.568C161.296 143.84 161.206 144.069 161.024 144.256C160.848 144.437 160.611 144.528 160.312 144.528C160.03 144.528 159.798 144.437 159.616 144.256C159.435 144.069 159.344 143.84 159.344 143.568C159.344 143.307 159.435 143.085 159.616 142.904C159.798 142.723 160.03 142.632 160.312 142.632ZM161.384 146.576V153.936H163.76V155H157.44V153.936H160.04V147.64H157.52V146.576H161.384ZM165.514 155V146.576H166.658L166.762 147.744C167.104 147.312 167.53 146.981 168.042 146.752C168.554 146.517 169.056 146.4 169.546 146.4C170.373 146.4 170.973 146.619 171.346 147.056C171.725 147.493 171.914 148.101 171.914 148.88V155H170.57V149.872C170.57 149.296 170.538 148.832 170.474 148.48C170.41 148.128 170.274 147.869 170.066 147.704C169.864 147.539 169.552 147.456 169.13 147.456C168.8 147.456 168.488 147.528 168.194 147.672C167.906 147.816 167.648 147.997 167.418 148.216C167.194 148.429 167.008 148.645 166.858 148.864V155H165.514ZM173.892 151.216V150.048H180.308V151.216H173.892ZM183.646 146.576V152.544C183.646 153.099 183.76 153.499 183.99 153.744C184.219 153.989 184.576 154.112 185.062 154.112C185.526 154.112 185.963 153.981 186.374 153.72C186.79 153.453 187.112 153.139 187.342 152.776V146.576H188.686V155H187.542L187.43 153.864C187.099 154.291 186.688 154.619 186.198 154.848C185.712 155.072 185.224 155.184 184.734 155.184C183.918 155.184 183.307 154.968 182.902 154.536C182.502 154.099 182.302 153.488 182.302 152.704V146.576H183.646ZM190.775 155V153.968H192.087V147.608H190.775V146.576H193.111L193.359 148.568C193.685 147.875 194.079 147.339 194.543 146.96C195.007 146.581 195.621 146.392 196.383 146.392C196.618 146.392 196.826 146.411 197.007 146.448C197.194 146.48 197.383 146.523 197.575 146.576L197.383 149.424H196.279V147.632C196.258 147.632 196.234 147.632 196.207 147.632C194.917 147.632 193.991 148.555 193.431 150.4V153.968H195.143V155H190.775ZM202.369 143.184V152.92C202.369 153.336 202.497 153.632 202.753 153.808C203.015 153.979 203.351 154.064 203.761 154.064C204.012 154.064 204.252 154.037 204.481 153.984C204.716 153.931 204.948 153.859 205.177 153.768L205.537 154.752C205.308 154.864 205.023 154.963 204.681 155.048C204.345 155.139 203.964 155.184 203.537 155.184C202.791 155.184 202.185 154.979 201.721 154.568C201.257 154.152 201.025 153.579 201.025 152.848V144.248H198.441V143.184H202.369Z" fill="white"/>
<path d="M68.7092 69.424V71.832C69.3492 71.9013 69.9172 72.0587 70.4132 72.304C70.9092 72.544 71.3226 72.816 71.6532 73.12L70.8292 73.968C70.2106 73.3867 69.5039 73.0453 68.7092 72.944V76.592C69.2479 76.768 69.7493 76.9947 70.2133 77.272C70.6826 77.544 71.0613 77.8987 71.3492 78.336C71.6372 78.7733 71.7812 79.3173 71.7812 79.968C71.7812 80.4747 71.6666 80.952 71.4373 81.4C71.2079 81.8427 70.8639 82.2187 70.4053 82.528C69.9519 82.832 69.3866 83.0293 68.7092 83.12V85.448H67.6293V83.168C66.8719 83.12 66.2132 82.9467 65.6532 82.648C65.0986 82.344 64.6426 82.016 64.2852 81.664L65.0852 80.776C65.4212 81.1173 65.7972 81.4027 66.2132 81.632C66.6346 81.856 67.1066 81.9893 67.6293 82.032V77.6C66.6959 77.2907 65.9732 76.8933 65.4612 76.408C64.9546 75.9173 64.7012 75.3013 64.7012 74.56C64.7012 74.1333 64.8079 73.7227 65.0212 73.328C65.2399 72.9333 65.5652 72.6027 65.9972 72.336C66.4292 72.064 66.9732 71.896 67.6293 71.832V69.424H68.7092ZM67.6293 72.976C67.1919 73.0507 66.8319 73.216 66.5492 73.472C66.2719 73.728 66.1332 74.0827 66.1332 74.536C66.1332 74.9093 66.2346 75.2267 66.4372 75.488C66.6452 75.7493 67.0426 76 67.6293 76.24V72.976ZM68.7092 77.976V81.96C69.7919 81.7413 70.3333 81.0827 70.3333 79.984C70.3333 79.536 70.2133 79.152 69.9732 78.832C69.7386 78.512 69.3173 78.2267 68.7092 77.976Z" fill="#477DFF"/>
<path d="M277.825 95.808C279.009 95.808 279.905 96.2987 280.513 97.28C281.126 98.2613 281.433 99.664 281.433 101.488C281.433 103.317 281.126 104.725 280.513 105.712C279.905 106.693 279.009 107.184 277.825 107.184C276.641 107.184 275.742 106.693 275.129 105.712C274.521 104.725 274.217 103.317 274.217 101.488C274.217 99.664 274.521 98.2613 275.129 97.28C275.742 96.2987 276.641 95.808 277.825 95.808ZM277.825 96.888C277.148 96.888 276.614 97.248 276.225 97.968C275.836 98.6827 275.641 99.856 275.641 101.488C275.641 102.709 275.734 103.669 275.921 104.368L279.289 97.6C278.953 97.1253 278.465 96.888 277.825 96.888ZM280.017 101.488C280.017 100.256 279.921 99.2933 279.729 98.6L276.377 105.392C276.713 105.861 277.196 106.096 277.825 106.096C278.508 106.096 279.044 105.736 279.433 105.016C279.822 104.296 280.017 103.12 280.017 101.488ZM284.803 105.768C284.803 105.379 284.936 105.048 285.203 104.776C285.469 104.504 285.803 104.368 286.203 104.368C286.608 104.368 286.944 104.504 287.211 104.776C287.483 105.048 287.619 105.379 287.619 105.768C287.619 106.163 287.483 106.499 287.211 106.776C286.944 107.048 286.608 107.184 286.203 107.184C285.803 107.184 285.469 107.048 285.203 106.776C284.936 106.499 284.803 106.163 284.803 105.768ZM294.613 95.808C295.797 95.808 296.693 96.2987 297.301 97.28C297.914 98.2613 298.22 99.664 298.22 101.488C298.22 103.317 297.914 104.725 297.301 105.712C296.693 106.693 295.797 107.184 294.613 107.184C293.429 107.184 292.53 106.693 291.917 105.712C291.309 104.725 291.005 103.317 291.005 101.488C291.005 99.664 291.309 98.2613 291.917 97.28C292.53 96.2987 293.429 95.808 294.613 95.808ZM294.613 96.888C293.935 96.888 293.402 97.248 293.013 97.968C292.623 98.6827 292.429 99.856 292.429 101.488C292.429 102.709 292.522 103.669 292.709 104.368L296.077 97.6C295.741 97.1253 295.253 96.888 294.613 96.888ZM296.805 101.488C296.805 100.256 296.709 99.2933 296.517 98.6L293.165 105.392C293.501 105.861 293.983 106.096 294.613 106.096C295.295 106.096 295.831 105.736 296.221 105.016C296.61 104.296 296.805 103.12 296.805 101.488ZM301.59 105.768C301.59 105.379 301.724 105.048 301.99 104.776C302.257 104.504 302.59 104.368 302.99 104.368C303.396 104.368 303.732 104.504 303.998 104.776C304.27 105.048 304.406 105.379 304.406 105.768C304.406 106.163 304.27 106.499 303.998 106.776C303.732 107.048 303.396 107.184 302.99 107.184C302.59 107.184 302.257 107.048 301.99 106.776C301.724 106.499 301.59 106.163 301.59 105.768ZM314.88 105.904V107H308.52V105.904H311.232V97.44L308.704 98.976L308.12 98.016L311.4 95.984H312.576V105.904H314.88ZM227.463 119.808C228.647 119.808 229.543 120.299 230.151 121.28C230.764 122.261 231.071 123.664 231.071 125.488C231.071 127.317 230.764 128.725 230.151 129.712C229.543 130.693 228.647 131.184 227.463 131.184C226.279 131.184 225.38 130.693 224.767 129.712C224.159 128.725 223.855 127.317 223.855 125.488C223.855 123.664 224.159 122.261 224.767 121.28C225.38 120.299 226.279 119.808 227.463 119.808ZM227.463 120.888C226.785 120.888 226.252 121.248 225.863 121.968C225.473 122.683 225.279 123.856 225.279 125.488C225.279 126.709 225.372 127.669 225.559 128.368L228.927 121.6C228.591 121.125 228.103 120.888 227.463 120.888ZM229.655 125.488C229.655 124.256 229.559 123.293 229.367 122.6L226.015 129.392C226.351 129.861 226.833 130.096 227.463 130.096C228.145 130.096 228.681 129.736 229.071 129.016C229.46 128.296 229.655 127.12 229.655 125.488ZM234.44 129.768C234.44 129.379 234.574 129.048 234.84 128.776C235.107 128.504 235.44 128.368 235.84 128.368C236.246 128.368 236.582 128.504 236.848 128.776C237.12 129.048 237.256 129.379 237.256 129.768C237.256 130.163 237.12 130.499 236.848 130.776C236.582 131.048 236.246 131.184 235.84 131.184C235.44 131.184 235.107 131.048 234.84 130.776C234.574 130.499 234.44 130.163 234.44 129.768ZM244.25 119.808C245.434 119.808 246.33 120.299 246.938 121.28C247.551 122.261 247.858 123.664 247.858 125.488C247.858 127.317 247.551 128.725 246.938 129.712C246.33 130.693 245.434 131.184 244.25 131.184C243.066 131.184 242.167 130.693 241.554 129.712C240.946 128.725 240.642 127.317 240.642 125.488C240.642 123.664 240.946 122.261 241.554 121.28C242.167 120.299 243.066 119.808 244.25 119.808ZM244.25 120.888C243.573 120.888 243.039 121.248 242.65 121.968C242.261 122.683 242.066 123.856 242.066 125.488C242.066 126.709 242.159 127.669 242.346 128.368L245.714 121.6C245.378 121.125 244.89 120.888 244.25 120.888ZM246.442 125.488C246.442 124.256 246.346 123.293 246.154 122.6L242.802 129.392C243.138 129.861 243.621 130.096 244.25 130.096C244.933 130.096 245.469 129.736 245.858 129.016C246.247 128.296 246.442 127.12 246.442 125.488ZM251.228 129.768C251.228 129.379 251.361 129.048 251.628 128.776C251.894 128.504 252.228 128.368 252.628 128.368C253.033 128.368 253.369 128.504 253.636 128.776C253.908 129.048 254.044 129.379 254.044 129.768C254.044 130.163 253.908 130.499 253.636 130.776C253.369 131.048 253.033 131.184 252.628 131.184C252.228 131.184 251.894 131.048 251.628 130.776C251.361 130.499 251.228 130.163 251.228 129.768ZM264.518 129.904V131H258.158V129.904H260.87V121.44L258.342 122.976L257.758 122.016L261.038 119.984H262.214V129.904H264.518ZM219.069 143.808C220.253 143.808 221.149 144.299 221.757 145.28C222.37 146.261 222.677 147.664 222.677 149.488C222.677 151.317 222.37 152.725 221.757 153.712C221.149 154.693 220.253 155.184 219.069 155.184C217.885 155.184 216.986 154.693 216.373 153.712C215.765 152.725 215.461 151.317 215.461 149.488C215.461 147.664 215.765 146.261 216.373 145.28C216.986 144.299 217.885 143.808 219.069 143.808ZM219.069 144.888C218.391 144.888 217.858 145.248 217.469 145.968C217.079 146.683 216.885 147.856 216.885 149.488C216.885 150.709 216.978 151.669 217.165 152.368L220.533 145.6C220.197 145.125 219.709 144.888 219.069 144.888ZM221.261 149.488C221.261 148.256 221.165 147.293 220.973 146.6L217.621 153.392C217.957 153.861 218.439 154.096 219.069 154.096C219.751 154.096 220.287 153.736 220.677 153.016C221.066 152.296 221.261 151.12 221.261 149.488ZM226.047 153.768C226.047 153.379 226.18 153.048 226.447 152.776C226.713 152.504 227.047 152.368 227.447 152.368C227.852 152.368 228.188 152.504 228.455 152.776C228.727 153.048 228.863 153.379 228.863 153.768C228.863 154.163 228.727 154.499 228.455 154.776C228.188 155.048 227.852 155.184 227.447 155.184C227.047 155.184 226.713 155.048 226.447 154.776C226.18 154.499 226.047 154.163 226.047 153.768ZM235.856 143.808C237.04 143.808 237.936 144.299 238.544 145.28C239.158 146.261 239.464 147.664 239.464 149.488C239.464 151.317 239.158 152.725 238.544 153.712C237.936 154.693 237.04 155.184 235.856 155.184C234.672 155.184 233.774 154.693 233.16 153.712C232.552 152.725 232.248 151.317 232.248 149.488C232.248 147.664 232.552 146.261 233.16 145.28C233.774 144.299 234.672 143.808 235.856 143.808ZM235.856 144.888C235.179 144.888 234.646 145.248 234.256 145.968C233.867 146.683 233.672 147.856 233.672 149.488C233.672 150.709 233.766 151.669 233.952 152.368L237.32 145.6C236.984 145.125 236.496 144.888 235.856 144.888ZM238.048 149.488C238.048 148.256 237.952 147.293 237.76 146.6L234.408 153.392C234.744 153.861 235.227 154.096 235.856 154.096C236.539 154.096 237.075 153.736 237.464 153.016C237.854 152.296 238.048 151.12 238.048 149.488ZM242.834 153.768C242.834 153.379 242.967 153.048 243.234 152.776C243.501 152.504 243.834 152.368 244.234 152.368C244.639 152.368 244.975 152.504 245.242 152.776C245.514 153.048 245.65 153.379 245.65 153.768C245.65 154.163 245.514 154.499 245.242 154.776C244.975 155.048 244.639 155.184 244.234 155.184C243.834 155.184 243.501 155.048 243.234 154.776C242.967 154.499 242.834 154.163 242.834 153.768ZM256.124 153.904V155H249.764V153.904H252.476V145.44L249.948 146.976L249.364 146.016L252.644 143.984H253.82V153.904H256.124Z" fill="#979899"/>
<path d="M121.938 84H180.7V84.4H121.938V84Z" fill="white"/>
<path d="M12 6H574V4H12V6ZM577 9V186H579V9H577ZM574 189H12V191H574V189ZM9 186V9H7V186H9ZM12 189C10.3431 189 9 187.657 9 186H7C7 188.761 9.23858 191 12 191V189ZM577 186C577 187.657 575.657 189 574 189V191C576.761 191 579 188.761 579 186H577ZM574 6C575.657 6 577 7.34315 577 9H579C579 6.23857 576.761 4 574 4V6ZM12 4C9.23858 4 7 6.23858 7 9H9C9 7.34315 10.3431 6 12 6V4Z" fill="#192535"/>
</g>
<defs>
<filter id="filter0_d" x="0" y="0" width="586" height="201" filterUnits="userSpaceOnUse" color-interpolation-filters="sRGB">
<feFlood flood-opacity="0" result="BackgroundImageFix"/>
<feColorMatrix in="SourceAlpha" type="matrix" values="0 0 0 0 0 0 0 0 0 0 0 0 0 0 0 0 0 0 127 0"/>
<feOffset dy="3"/>
<feGaussianBlur stdDeviation="4"/>
<feColorMatrix type="matrix" values="0 0 0 0 0 0 0 0 0 0 0 0 0 0 0 0 0 0 0.15 0"/>
<feBlend mode="normal" in2="BackgroundImageFix" result="effect1_dropShadow"/>
<feBlend mode="normal" in="SourceGraphic" in2="effect1_dropShadow" result="shape"/>
</filter>
</defs>
</svg>
