<svg width="589" height="189" viewBox="0 0 589 189" fill="none" xmlns="http://www.w3.org/2000/svg">
<g filter="url(#filter0_d)">
<path d="M8 9.00001C8 6.79087 9.79086 5 12 5H577C579.209 5 581 6.79086 581 9V174C581 176.209 579.209 178 577 178H12C9.79085 178 8 176.209 8 174V9.00001Z" fill="#FF0000"/>
<rect x="8" y="5" width="573" height="40" fill="#1D2A3D"/>
<circle cx="28" cy="25" r="6" fill="#FF4A4A"/>
<circle cx="48" cy="25" r="6" fill="#FFB83D"/>
<circle cx="68" cy="25" r="6" fill="#00C543"/>
<rect x="8" y="44" width="573" height="1" fill="#122D42"/>
<g clip-path="url(#clip0)">
<rect width="573" height="133" transform="translate(8 45)" fill="#25354D"/>
</g>
<path d="M12 6H577V4H12V6ZM580 9V174H582V9H580ZM577 177H12V179H577V177ZM9 174V9.00001H7V174H9ZM12 177C10.3431 177 9 175.657 9 174H7C7 176.761 9.23856 179 12 179V177ZM580 174C580 175.657 578.657 177 577 177V179C579.761 179 582 176.761 582 174H580ZM577 6C578.657 6 580 7.34314 580 9H582C582 6.23858 579.761 4 577 4V6ZM12 4C9.23857 4 7 6.23858 7 9.00001H9C9 7.34315 10.3431 6 12 6V4Z" fill="#192535"/>
</g>
<path d="M46.288 79.592C46.688 79.592 47.0267 79.672 47.304 79.832C47.5867 79.992 47.8373 80.1787 48.056 80.392C48.2747 80.6 48.4853 80.7867 48.688 80.952C48.8907 81.112 49.1147 81.192 49.36 81.192C49.6907 81.192 49.984 81.0613 50.24 80.8C50.5013 80.5387 50.736 80.216 50.944 79.832L51.904 80.328C51.7493 80.632 51.56 80.9413 51.336 81.256C51.112 81.5653 50.8347 81.8267 50.504 82.04C50.1787 82.248 49.7813 82.352 49.312 82.352C48.9387 82.352 48.6133 82.272 48.336 82.112C48.064 81.952 47.816 81.768 47.592 81.56C47.368 81.3467 47.1493 81.16 46.936 81C46.7227 80.8347 46.4907 80.752 46.24 80.752C45.8933 80.752 45.5947 80.8827 45.344 81.144C45.0933 81.4 44.864 81.72 44.656 82.104L43.696 81.632C43.856 81.3173 44.0453 81.0027 44.264 80.688C44.488 80.3733 44.7627 80.112 45.088 79.904C45.4133 79.696 45.8133 79.592 46.288 79.592ZM53.3218 87.648L52.2338 87.168L59.0818 73.048L60.1538 73.576L53.3218 87.648Z" fill="#FFB100"/>
<path d="M73.7092 72.424V74.832C74.3492 74.9013 74.9172 75.0587 75.4132 75.304C75.9092 75.544 76.3226 75.816 76.6532 76.12L75.8292 76.968C75.2106 76.3867 74.5039 76.0453 73.7092 75.944V79.592C74.2479 79.768 74.7493 79.9947 75.2133 80.272C75.6826 80.544 76.0613 80.8987 76.3492 81.336C76.6372 81.7733 76.7812 82.3173 76.7812 82.968C76.7812 83.4747 76.6666 83.952 76.4373 84.4C76.2079 84.8427 75.8639 85.2187 75.4053 85.528C74.9519 85.832 74.3866 86.0293 73.7092 86.12V88.448H72.6293V86.168C71.8719 86.12 71.2132 85.9467 70.6532 85.648C70.0986 85.344 69.6426 85.016 69.2852 84.664L70.0852 83.776C70.4212 84.1173 70.7972 84.4027 71.2132 84.632C71.6346 84.856 72.1066 84.9893 72.6293 85.032V80.6C71.6959 80.2907 70.9732 79.8933 70.4612 79.408C69.9546 78.9173 69.7012 78.3013 69.7012 77.56C69.7012 77.1333 69.8079 76.7227 70.0212 76.328C70.2399 75.9333 70.5652 75.6027 70.9972 75.336C71.4292 75.064 71.9732 74.896 72.6293 74.832V72.424H73.7092ZM72.6293 75.976C72.1919 76.0507 71.8319 76.216 71.5492 76.472C71.2719 76.728 71.1332 77.0827 71.1332 77.536C71.1332 77.9093 71.2346 78.2267 71.4372 78.488C71.6452 78.7493 72.0426 79 72.6293 79.24V75.976ZM73.7092 80.976V84.96C74.7919 84.7413 75.3333 84.0827 75.3333 82.984C75.3333 82.536 75.2133 82.152 74.9732 81.832C74.7386 81.512 74.3173 81.2267 73.7092 80.976Z" fill="#477DFF"/>
<path d="M93.6007 77.576L90.5368 86H88.9768L85.9368 77.576H87.3608L89.8008 84.776L92.2088 77.576H93.6007ZM101.658 85.576C101.37 85.768 101.021 85.9173 100.61 86.024C100.2 86.1307 99.7972 86.184 99.4025 86.184C98.4958 86.184 97.7972 85.9467 97.3065 85.472C96.8158 84.9973 96.5705 84.3867 96.5705 83.64V78.616H94.6345V77.576H96.5705V75.664L97.9145 75.504V77.576H100.826L100.666 78.616H97.9145V83.624C97.9145 84.0933 98.0372 84.4507 98.2825 84.696C98.5332 84.9413 98.9465 85.064 99.5225 85.064C99.8372 85.064 100.128 85.0267 100.394 84.952C100.661 84.8773 100.909 84.7813 101.138 84.664L101.658 85.576ZM104.42 82.264C104.458 83.24 104.714 83.952 105.188 84.4C105.668 84.8427 106.234 85.064 106.884 85.064C107.316 85.064 107.706 85 108.052 84.872C108.399 84.744 108.759 84.5547 109.132 84.304L109.764 85.192C109.375 85.5013 108.927 85.744 108.42 85.92C107.914 86.096 107.396 86.184 106.868 86.184C106.047 86.184 105.348 86 104.772 85.632C104.202 85.264 103.764 84.752 103.46 84.096C103.162 83.4347 103.012 82.6693 103.012 81.8C103.012 80.9467 103.162 80.1893 103.46 79.528C103.764 78.8667 104.191 78.3467 104.74 77.968C105.295 77.5893 105.946 77.4 106.692 77.4C107.754 77.4 108.588 77.768 109.196 78.504C109.81 79.24 110.116 80.248 110.116 81.528C110.116 81.672 110.111 81.808 110.1 81.936C110.095 82.064 110.09 82.1733 110.084 82.264H104.42ZM106.708 78.504C106.084 78.504 105.562 78.7253 105.14 79.168C104.719 79.6107 104.482 80.296 104.428 81.224H108.82C108.804 80.3227 108.607 79.6453 108.228 79.192C107.85 78.7333 107.343 78.504 106.708 78.504ZM112.574 86H111.038L114.15 81.552L111.422 77.576H113.014L114.966 80.712L116.942 77.576H118.478L115.758 81.496L118.862 86H117.214L114.91 82.384L112.574 86ZM129.89 77.576V83.544C129.89 84.0987 130.004 84.4987 130.234 84.744C130.463 84.9893 130.82 85.112 131.306 85.112C131.77 85.112 132.207 84.9813 132.618 84.72C133.034 84.4533 133.356 84.1387 133.586 83.776V77.576H134.93V86H133.786L133.674 84.864C133.343 85.2907 132.932 85.6187 132.442 85.848C131.956 86.072 131.468 86.184 130.977 86.184C130.162 86.184 129.551 85.968 129.146 85.536C128.746 85.0987 128.546 84.488 128.546 83.704V77.576H129.89ZM139.803 85.072C140.454 85.072 140.966 84.952 141.339 84.712C141.713 84.472 141.899 84.1467 141.899 83.736C141.899 83.4853 141.851 83.2667 141.755 83.08C141.665 82.8933 141.475 82.7253 141.187 82.576C140.899 82.4213 140.457 82.2693 139.859 82.12C139.278 81.976 138.771 81.8107 138.339 81.624C137.913 81.432 137.579 81.184 137.339 80.88C137.105 80.576 136.987 80.1813 136.987 79.696C136.987 78.9867 137.283 78.4267 137.875 78.016C138.467 77.6053 139.238 77.4 140.187 77.4C140.865 77.4 141.454 77.4907 141.955 77.672C142.462 77.8533 142.891 78.072 143.243 78.328L142.651 79.24C142.337 79.0213 141.985 78.8427 141.595 78.704C141.211 78.56 140.747 78.488 140.203 78.488C139.542 78.488 139.073 78.592 138.795 78.8C138.518 79.0027 138.379 79.2667 138.379 79.592C138.379 79.8427 138.446 80.0507 138.579 80.216C138.718 80.376 138.95 80.52 139.275 80.648C139.601 80.776 140.049 80.9173 140.619 81.072C141.169 81.2213 141.649 81.3973 142.059 81.6C142.47 81.8027 142.787 82.0693 143.011 82.4C143.241 82.7253 143.355 83.1493 143.355 83.672C143.355 84.2693 143.185 84.7547 142.843 85.128C142.502 85.496 142.059 85.7653 141.515 85.936C140.977 86.1013 140.406 86.184 139.803 86.184C139.041 86.184 138.39 86.0747 137.851 85.856C137.318 85.632 136.87 85.3627 136.507 85.048L137.275 84.16C137.606 84.432 137.985 84.6533 138.411 84.824C138.843 84.9893 139.307 85.072 139.803 85.072ZM146.389 82.264C146.426 83.24 146.682 83.952 147.157 84.4C147.637 84.8427 148.202 85.064 148.853 85.064C149.285 85.064 149.674 85 150.021 84.872C150.368 84.744 150.728 84.5547 151.101 84.304L151.733 85.192C151.344 85.5013 150.896 85.744 150.389 85.92C149.882 86.096 149.365 86.184 148.837 86.184C148.016 86.184 147.317 86 146.741 85.632C146.17 85.264 145.733 84.752 145.429 84.096C145.13 83.4347 144.981 82.6693 144.981 81.8C144.981 80.9467 145.13 80.1893 145.429 79.528C145.733 78.8667 146.16 78.3467 146.709 77.968C147.264 77.5893 147.914 77.4 148.661 77.4C149.722 77.4 150.557 77.768 151.165 78.504C151.778 79.24 152.085 80.248 152.085 81.528C152.085 81.672 152.08 81.808 152.069 81.936C152.064 82.064 152.058 82.1733 152.053 82.264H146.389ZM148.677 78.504C148.053 78.504 147.53 78.7253 147.109 79.168C146.688 79.6107 146.45 80.296 146.397 81.224H150.789C150.773 80.3227 150.576 79.6453 150.197 79.192C149.818 78.7333 149.312 78.504 148.677 78.504ZM165.928 85.024C166.35 85.024 166.742 84.9573 167.104 84.824C167.472 84.6853 167.811 84.5067 168.12 84.288L168.776 85.168C168.408 85.4827 167.966 85.7307 167.448 85.912C166.931 86.0933 166.424 86.184 165.928 86.184C165.091 86.184 164.376 86.0053 163.784 85.648C163.198 85.2853 162.75 84.7787 162.44 84.128C162.131 83.472 161.976 82.704 161.976 81.824C161.976 80.9813 162.131 80.2267 162.44 79.56C162.75 78.8933 163.2 78.368 163.792 77.984C164.384 77.5947 165.102 77.4 165.944 77.4C167.016 77.4 167.955 77.7253 168.76 78.376L168.104 79.272C167.374 78.7707 166.648 78.52 165.928 78.52C165.203 78.52 164.606 78.7947 164.136 79.344C163.667 79.888 163.432 80.7147 163.432 81.824C163.432 82.9493 163.667 83.7653 164.136 84.272C164.606 84.7733 165.203 85.024 165.928 85.024ZM176.546 84.16C176.546 84.5013 176.602 84.7493 176.714 84.904C176.826 85.0587 177 85.1707 177.234 85.24L176.906 86.184C176.544 86.136 176.226 86.0213 175.954 85.84C175.682 85.6533 175.485 85.3733 175.362 85C175.058 85.3893 174.677 85.6853 174.218 85.888C173.765 86.0853 173.266 86.184 172.722 86.184C171.88 86.184 171.216 85.9467 170.73 85.472C170.245 84.9973 170.002 84.368 170.002 83.584C170.002 82.7147 170.341 82.048 171.018 81.584C171.696 81.12 172.674 80.888 173.954 80.888H175.194V80.184C175.194 79.576 175.016 79.1467 174.658 78.896C174.306 78.64 173.816 78.512 173.186 78.512C172.909 78.512 172.584 78.5467 172.21 78.616C171.837 78.68 171.432 78.7893 170.994 78.944L170.642 77.928C171.154 77.736 171.637 77.6 172.09 77.52C172.549 77.44 172.984 77.4 173.394 77.4C174.44 77.4 175.226 77.6453 175.754 78.136C176.282 78.6267 176.546 79.288 176.546 80.12V84.16ZM173.066 85.16C173.482 85.16 173.877 85.056 174.25 84.848C174.629 84.6347 174.944 84.3413 175.194 83.968V81.8H173.978C173.05 81.8 172.394 81.96 172.01 82.28C171.632 82.6 171.442 83.0293 171.442 83.568C171.442 84.6293 171.984 85.16 173.066 85.16ZM178.988 86V84.968H180.3V78.608H178.988V77.576H181.324L181.572 79.568C181.897 78.8747 182.292 78.3387 182.756 77.96C183.22 77.5813 183.833 77.392 184.596 77.392C184.831 77.392 185.039 77.4107 185.22 77.448C185.407 77.48 185.596 77.5227 185.788 77.576L185.596 80.424H184.492V78.632C184.471 78.632 184.447 78.632 184.42 78.632C183.129 78.632 182.204 79.5547 181.644 81.4V84.968H183.356V86H178.988ZM190.51 77.4C191.699 77.4 192.598 77.7973 193.206 78.592C193.814 79.3867 194.118 80.4507 194.118 81.784C194.118 82.6427 193.979 83.4027 193.702 84.064C193.424 84.7253 193.016 85.2453 192.478 85.624C191.939 85.9973 191.278 86.184 190.494 86.184C189.304 86.184 188.403 85.784 187.79 84.984C187.176 84.184 186.87 83.1227 186.87 81.8C186.87 80.936 187.008 80.1733 187.286 79.512C187.563 78.8453 187.971 78.328 188.51 77.96C189.054 77.5867 189.72 77.4 190.51 77.4ZM190.51 78.496C189.784 78.496 189.235 78.7653 188.862 79.304C188.494 79.8427 188.31 80.6747 188.31 81.8C188.31 82.9147 188.491 83.7413 188.854 84.28C189.222 84.8133 189.768 85.08 190.494 85.08C191.219 85.08 191.763 84.8107 192.126 84.272C192.494 83.7333 192.678 82.904 192.678 81.784C192.678 80.664 192.496 79.8373 192.134 79.304C191.771 78.7653 191.23 78.496 190.51 78.496ZM198.975 74.184V83.92C198.975 84.336 199.103 84.632 199.359 84.808C199.621 84.9787 199.957 85.064 200.367 85.064C200.618 85.064 200.858 85.0373 201.087 84.984C201.322 84.9307 201.554 84.8587 201.783 84.768L202.143 85.752C201.914 85.864 201.629 85.9627 201.287 86.048C200.951 86.1387 200.57 86.184 200.143 86.184C199.397 86.184 198.791 85.9787 198.327 85.568C197.863 85.152 197.631 84.5787 197.631 83.848V75.248H195.047V74.184H198.975ZM207.281 73.632C207.58 73.632 207.817 73.7227 207.993 73.904C208.175 74.0853 208.265 74.3067 208.265 74.568C208.265 74.84 208.175 75.0693 207.993 75.256C207.817 75.4373 207.58 75.528 207.281 75.528C206.999 75.528 206.767 75.4373 206.585 75.256C206.404 75.0693 206.313 74.84 206.313 74.568C206.313 74.3067 206.404 74.0853 206.585 73.904C206.767 73.7227 206.999 73.632 207.281 73.632ZM208.353 77.576V84.936H210.729V86H204.409V84.936H207.009V78.64H204.489V77.576H208.353ZM212.483 86V77.576H213.627L213.731 78.744C214.072 78.312 214.499 77.9813 215.011 77.752C215.523 77.5173 216.024 77.4 216.515 77.4C217.342 77.4 217.942 77.6187 218.315 78.056C218.694 78.4933 218.883 79.1013 218.883 79.88V86H217.539V80.872C217.539 80.296 217.507 79.832 217.443 79.48C217.379 79.128 217.243 78.8693 217.035 78.704C216.832 78.5387 216.52 78.456 216.099 78.456C215.768 78.456 215.456 78.528 215.163 78.672C214.875 78.816 214.616 78.9973 214.387 79.216C214.163 79.4293 213.976 79.6453 213.827 79.864V86H212.483ZM226.909 84.16C226.909 84.5013 226.965 84.7493 227.077 84.904C227.189 85.0587 227.362 85.1707 227.597 85.24L227.269 86.184C226.906 86.136 226.589 86.0213 226.317 85.84C226.045 85.6533 225.847 85.3733 225.725 85C225.421 85.3893 225.039 85.6853 224.581 85.888C224.127 86.0853 223.629 86.184 223.085 86.184C222.242 86.184 221.578 85.9467 221.093 85.472C220.607 84.9973 220.365 84.368 220.365 83.584C220.365 82.7147 220.703 82.048 221.381 81.584C222.058 81.12 223.037 80.888 224.317 80.888H225.557V80.184C225.557 79.576 225.378 79.1467 225.021 78.896C224.669 78.64 224.178 78.512 223.549 78.512C223.271 78.512 222.946 78.5467 222.573 78.616C222.199 78.68 221.794 78.7893 221.357 78.944L221.005 77.928C221.517 77.736 221.999 77.6 222.453 77.52C222.911 77.44 223.346 77.4 223.757 77.4C224.802 77.4 225.589 77.6453 226.117 78.136C226.645 78.6267 226.909 79.288 226.909 80.12V84.16ZM223.429 85.16C223.845 85.16 224.239 85.056 224.613 84.848C224.991 84.6347 225.306 84.3413 225.557 83.968V81.8H224.341C223.413 81.8 222.757 81.96 222.373 82.28C221.994 82.6 221.805 83.0293 221.805 83.568C221.805 84.6293 222.346 85.16 223.429 85.16ZM234.823 77.4C235.089 77.4 235.348 77.4587 235.599 77.576C235.849 77.6933 236.055 77.92 236.215 78.256C236.375 78.592 236.455 79.0827 236.455 79.728V86H235.207V79.944C235.207 79.416 235.175 79.0347 235.111 78.8C235.047 78.5653 234.863 78.448 234.559 78.448C234.308 78.448 234.057 78.528 233.807 78.688C233.556 78.8427 233.316 79.0987 233.087 79.456V86H231.831V79.944C231.831 79.416 231.799 79.0347 231.735 78.8C231.671 78.5653 231.487 78.448 231.183 78.448C230.921 78.448 230.668 78.528 230.423 78.688C230.177 78.8427 229.94 79.0987 229.711 79.456V86H228.471V77.576H229.527L229.607 78.552C229.836 78.2267 230.092 77.9547 230.375 77.736C230.663 77.512 231.017 77.4 231.439 77.4C231.759 77.4 232.06 77.4773 232.343 77.632C232.625 77.7813 232.833 78.0747 232.967 78.512C233.196 78.1813 233.455 77.9147 233.743 77.712C234.031 77.504 234.391 77.4 234.823 77.4ZM238.72 82.264C238.758 83.24 239.014 83.952 239.488 84.4C239.968 84.8427 240.534 85.064 241.184 85.064C241.616 85.064 242.006 85 242.352 84.872C242.699 84.744 243.059 84.5547 243.432 84.304L244.064 85.192C243.675 85.5013 243.227 85.744 242.72 85.92C242.214 86.096 241.696 86.184 241.168 86.184C240.347 86.184 239.648 86 239.072 85.632C238.502 85.264 238.064 84.752 237.76 84.096C237.462 83.4347 237.312 82.6693 237.312 81.8C237.312 80.9467 237.462 80.1893 237.76 79.528C238.064 78.8667 238.491 78.3467 239.04 77.968C239.595 77.5893 240.246 77.4 240.992 77.4C242.054 77.4 242.888 77.768 243.496 78.504C244.11 79.24 244.416 80.248 244.416 81.528C244.416 81.672 244.411 81.808 244.4 81.936C244.395 82.064 244.39 82.1733 244.384 82.264H238.72ZM241.008 78.504C240.384 78.504 239.862 78.7253 239.44 79.168C239.019 79.6107 238.782 80.296 238.728 81.224H243.12C243.104 80.3227 242.907 79.6453 242.528 79.192C242.15 78.7333 241.643 78.504 241.008 78.504ZM246.058 86V77.576H247.202L247.306 78.744C247.647 78.312 248.074 77.9813 248.586 77.752C249.098 77.5173 249.599 77.4 250.09 77.4C250.917 77.4 251.517 77.6187 251.89 78.056C252.269 78.4933 252.458 79.1013 252.458 79.88V86H251.114V80.872C251.114 80.296 251.082 79.832 251.018 79.48C250.954 79.128 250.818 78.8693 250.61 78.704C250.407 78.5387 250.095 78.456 249.674 78.456C249.343 78.456 249.031 78.528 248.738 78.672C248.45 78.816 248.191 78.9973 247.962 79.216C247.738 79.4293 247.551 79.6453 247.402 79.864V86H246.058ZM255.508 82.264C255.545 83.24 255.801 83.952 256.276 84.4C256.756 84.8427 257.321 85.064 257.972 85.064C258.404 85.064 258.793 85 259.14 84.872C259.486 84.744 259.846 84.5547 260.22 84.304L260.852 85.192C260.462 85.5013 260.014 85.744 259.508 85.92C259.001 86.096 258.484 86.184 257.956 86.184C257.134 86.184 256.436 86 255.86 85.632C255.289 85.264 254.852 84.752 254.548 84.096C254.249 83.4347 254.1 82.6693 254.1 81.8C254.1 80.9467 254.249 80.1893 254.548 79.528C254.852 78.8667 255.278 78.3467 255.828 77.968C256.382 77.5893 257.033 77.4 257.78 77.4C258.841 77.4 259.676 77.768 260.284 78.504C260.897 79.24 261.204 80.248 261.204 81.528C261.204 81.672 261.198 81.808 261.188 81.936C261.182 82.064 261.177 82.1733 261.172 82.264H255.508ZM257.796 78.504C257.172 78.504 256.649 78.7253 256.228 79.168C255.806 79.6107 255.569 80.296 255.516 81.224H259.908C259.892 80.3227 259.694 79.6453 259.316 79.192C258.937 78.7333 258.43 78.504 257.796 78.504ZM264.526 84.856H269.214L269.038 86H262.878V84.984L267.55 78.744H263.246V77.576H269.166V78.616L264.526 84.856ZM272.295 82.264C272.333 83.24 272.589 83.952 273.063 84.4C273.543 84.8427 274.109 85.064 274.759 85.064C275.191 85.064 275.581 85 275.927 84.872C276.274 84.744 276.634 84.5547 277.007 84.304L277.639 85.192C277.25 85.5013 276.802 85.744 276.295 85.92C275.789 86.096 275.271 86.184 274.743 86.184C273.922 86.184 273.223 86 272.647 85.632C272.077 85.264 271.639 84.752 271.335 84.096C271.037 83.4347 270.887 82.6693 270.887 81.8C270.887 80.9467 271.037 80.1893 271.335 79.528C271.639 78.8667 272.066 78.3467 272.615 77.968C273.17 77.5893 273.821 77.4 274.567 77.4C275.629 77.4 276.463 77.768 277.071 78.504C277.685 79.24 277.991 80.248 277.991 81.528C277.991 81.672 277.986 81.808 277.975 81.936C277.97 82.064 277.965 82.1733 277.959 82.264H272.295ZM274.583 78.504C273.959 78.504 273.437 78.7253 273.015 79.168C272.594 79.6107 272.357 80.296 272.303 81.224H276.695C276.679 80.3227 276.482 79.6453 276.103 79.192C275.725 78.7333 275.218 78.504 274.583 78.504ZM282.497 85.072C283.148 85.072 283.66 84.952 284.033 84.712C284.406 84.472 284.593 84.1467 284.593 83.736C284.593 83.4853 284.545 83.2667 284.449 83.08C284.358 82.8933 284.169 82.7253 283.881 82.576C283.593 82.4213 283.15 82.2693 282.553 82.12C281.972 81.976 281.465 81.8107 281.033 81.624C280.606 81.432 280.273 81.184 280.033 80.88C279.798 80.576 279.681 80.1813 279.681 79.696C279.681 78.9867 279.977 78.4267 280.569 78.016C281.161 77.6053 281.932 77.4 282.881 77.4C283.558 77.4 284.148 77.4907 284.649 77.672C285.156 77.8533 285.585 78.072 285.937 78.328L285.345 79.24C285.03 79.0213 284.678 78.8427 284.289 78.704C283.905 78.56 283.441 78.488 282.897 78.488C282.236 78.488 281.766 78.592 281.489 78.8C281.212 79.0027 281.073 79.2667 281.073 79.592C281.073 79.8427 281.14 80.0507 281.273 80.216C281.412 80.376 281.644 80.52 281.969 80.648C282.294 80.776 282.742 80.9173 283.313 81.072C283.862 81.2213 284.342 81.3973 284.753 81.6C285.164 81.8027 285.481 82.0693 285.705 82.4C285.934 82.7253 286.049 83.1493 286.049 83.672C286.049 84.2693 285.878 84.7547 285.537 85.128C285.196 85.496 284.753 85.7653 284.209 85.936C283.67 86.1013 283.1 86.184 282.497 86.184C281.734 86.184 281.084 86.0747 280.545 85.856C280.012 85.632 279.564 85.3627 279.201 85.048L279.969 84.16C280.3 84.432 280.678 84.6533 281.105 84.824C281.537 84.9893 282.001 85.072 282.497 85.072Z" fill="white"/>
<path d="M50.28 119.904V121H43.92V119.904H46.632V111.44L44.104 112.976L43.52 112.016L46.8 109.984H47.976V119.904H50.28ZM54.7058 109.808C55.3991 109.808 55.9938 109.944 56.4898 110.216C56.9858 110.483 57.3644 110.848 57.6258 111.312C57.8924 111.776 58.0258 112.299 58.0258 112.88C58.0258 113.387 57.9378 113.883 57.7618 114.368C57.5858 114.848 57.3031 115.355 56.9138 115.888C56.5298 116.416 56.0231 117.003 55.3938 117.648C54.7644 118.293 53.9964 119.029 53.0898 119.856H58.2818L58.1138 121H51.5618V119.904C52.6018 118.907 53.4498 118.064 54.1058 117.376C54.7671 116.688 55.2791 116.096 55.6418 115.6C56.0044 115.099 56.2551 114.64 56.3938 114.224C56.5378 113.808 56.6098 113.376 56.6098 112.928C56.6098 112.309 56.4364 111.821 56.0898 111.464C55.7431 111.107 55.2604 110.928 54.6418 110.928C54.0978 110.928 53.6524 111.021 53.3058 111.208C52.9591 111.395 52.6124 111.693 52.2658 112.104L51.3378 111.384C51.7751 110.851 52.2578 110.456 52.7858 110.2C53.3191 109.939 53.9591 109.808 54.7058 109.808ZM62.2835 112.832C62.2835 112.475 62.4062 112.171 62.6515 111.92C62.9022 111.669 63.2088 111.544 63.5715 111.544C63.9448 111.544 64.2542 111.669 64.4995 111.92C64.7502 112.171 64.8755 112.475 64.8755 112.832C64.8755 113.189 64.7502 113.496 64.4995 113.752C64.2542 114.008 63.9448 114.136 63.5715 114.136C63.2088 114.136 62.9022 114.008 62.6515 113.752C62.4062 113.496 62.2835 113.189 62.2835 112.832ZM62.2835 118.6C62.2835 118.253 62.4062 117.952 62.6515 117.696C62.9022 117.44 63.2088 117.312 63.5715 117.312C63.9448 117.312 64.2542 117.44 64.4995 117.696C64.7502 117.952 64.8755 118.253 64.8755 118.6C64.8755 118.963 64.7502 119.272 64.4995 119.528C64.2542 119.779 63.9448 119.904 63.5715 119.904C63.2088 119.904 62.9022 119.779 62.6515 119.528C62.4062 119.272 62.2835 118.963 62.2835 118.6ZM71.4772 109.808C72.1706 109.808 72.7706 109.933 73.2772 110.184C73.7839 110.435 74.1733 110.768 74.4453 111.184C74.7226 111.6 74.8612 112.059 74.8612 112.56C74.8612 113.008 74.7626 113.413 74.5652 113.776C74.3679 114.133 74.1066 114.429 73.7812 114.664C73.4559 114.899 73.0986 115.053 72.7092 115.128C73.1412 115.16 73.5466 115.283 73.9253 115.496C74.3092 115.704 74.6186 116.003 74.8533 116.392C75.0933 116.781 75.2133 117.259 75.2133 117.824C75.2133 118.459 75.0533 119.032 74.7333 119.544C74.4133 120.051 73.9653 120.451 73.3892 120.744C72.8186 121.037 72.1519 121.184 71.3892 121.184C70.7706 121.184 70.1572 121.067 69.5492 120.832C68.9412 120.597 68.4266 120.224 68.0052 119.712L68.9092 118.976C69.2239 119.344 69.5972 119.619 70.0292 119.8C70.4666 119.981 70.9092 120.072 71.3572 120.072C72.1252 120.072 72.7252 119.872 73.1572 119.472C73.5893 119.067 73.8053 118.517 73.8053 117.824C73.8053 117.04 73.5866 116.496 73.1493 116.192C72.7172 115.888 72.1759 115.736 71.5252 115.736H70.5972L70.7652 114.672H71.4132C71.7706 114.672 72.1066 114.603 72.4212 114.464C72.7412 114.325 73.0026 114.115 73.2052 113.832C73.4079 113.549 73.5092 113.189 73.5092 112.752C73.5092 112.144 73.3066 111.68 72.9012 111.36C72.4959 111.04 72.0052 110.88 71.4292 110.88C70.9492 110.88 70.5306 110.965 70.1732 111.136C69.8159 111.301 69.4559 111.555 69.0932 111.896L68.3492 111.072C68.8186 110.629 69.3172 110.309 69.8452 110.112C70.3732 109.909 70.9172 109.808 71.4772 109.808ZM80.943 109.808C81.3643 109.808 81.7537 109.864 82.111 109.976C82.4737 110.083 82.8097 110.24 83.119 110.448L82.591 111.36C82.079 111.051 81.5217 110.896 80.919 110.896C80.071 110.896 79.4123 111.296 78.943 112.096C78.4737 112.896 78.223 113.968 78.191 115.312C78.543 114.789 78.9377 114.411 79.375 114.176C79.8177 113.941 80.3083 113.824 80.847 113.824C81.4123 113.824 81.9323 113.952 82.407 114.208C82.8817 114.459 83.2603 114.84 83.543 115.352C83.8257 115.864 83.967 116.512 83.967 117.296C83.967 118.107 83.8097 118.803 83.495 119.384C83.1857 119.965 82.767 120.411 82.239 120.72C81.7163 121.029 81.1377 121.184 80.503 121.184C79.6123 121.184 78.8977 120.963 78.359 120.52C77.8257 120.077 77.439 119.453 77.199 118.648C76.9643 117.837 76.847 116.885 76.847 115.792C76.847 114.576 77.007 113.52 77.327 112.624C77.6523 111.728 78.1217 111.035 78.735 110.544C79.3483 110.053 80.0843 109.808 80.943 109.808ZM80.639 114.928C80.111 114.928 79.6417 115.072 79.231 115.36C78.8203 115.648 78.479 116.024 78.207 116.488C78.2337 117.731 78.4257 118.643 78.783 119.224C79.1457 119.805 79.7163 120.096 80.495 120.096C81.1937 120.096 81.7163 119.851 82.063 119.36C82.415 118.864 82.591 118.187 82.591 117.328C82.591 116.427 82.4123 115.803 82.055 115.456C81.6977 115.104 81.2257 114.928 80.639 114.928ZM87.4648 112.832C87.4648 112.475 87.5874 112.171 87.8328 111.92C88.0834 111.669 88.3901 111.544 88.7528 111.544C89.1261 111.544 89.4354 111.669 89.6808 111.92C89.9314 112.171 90.0568 112.475 90.0568 112.832C90.0568 113.189 89.9314 113.496 89.6808 113.752C89.4354 114.008 89.1261 114.136 88.7528 114.136C88.3901 114.136 88.0834 114.008 87.8328 113.752C87.5874 113.496 87.4648 113.189 87.4648 112.832ZM87.4648 118.6C87.4648 118.253 87.5874 117.952 87.8328 117.696C88.0834 117.44 88.3901 117.312 88.7528 117.312C89.1261 117.312 89.4354 117.44 89.6808 117.696C89.9314 117.952 90.0568 118.253 90.0568 118.6C90.0568 118.963 89.9314 119.272 89.6808 119.528C89.4354 119.779 89.1261 119.904 88.7528 119.904C88.3901 119.904 88.0834 119.779 87.8328 119.528C87.5874 119.272 87.4648 118.963 87.4648 118.6ZM96.6745 109.808C97.3678 109.808 97.9625 109.944 98.4585 110.216C98.9545 110.483 99.3332 110.848 99.5945 111.312C99.8612 111.776 99.9945 112.299 99.9945 112.88C99.9945 113.387 99.9065 113.883 99.7305 114.368C99.5545 114.848 99.2718 115.355 98.8825 115.888C98.4985 116.416 97.9918 117.003 97.3625 117.648C96.7332 118.293 95.9652 119.029 95.0585 119.856H100.25L100.082 121H93.5305V119.904C94.5705 118.907 95.4185 118.064 96.0745 117.376C96.7358 116.688 97.2478 116.096 97.6105 115.6C97.9732 115.099 98.2238 114.64 98.3625 114.224C98.5065 113.808 98.5785 113.376 98.5785 112.928C98.5785 112.309 98.4052 111.821 98.0585 111.464C97.7118 111.107 97.2292 110.928 96.6105 110.928C96.0665 110.928 95.6212 111.021 95.2745 111.208C94.9278 111.395 94.5812 111.693 94.2345 112.104L93.3065 111.384C93.7438 110.851 94.2265 110.456 94.7545 110.2C95.2878 109.939 95.9278 109.808 96.6745 109.808ZM105.068 109.808C105.762 109.808 106.356 109.944 106.852 110.216C107.348 110.483 107.727 110.848 107.988 111.312C108.255 111.776 108.388 112.299 108.388 112.88C108.388 113.387 108.3 113.883 108.124 114.368C107.948 114.848 107.666 115.355 107.276 115.888C106.892 116.416 106.386 117.003 105.756 117.648C105.127 118.293 104.359 119.029 103.452 119.856H108.644L108.476 121H101.924V119.904C102.964 118.907 103.812 118.064 104.468 117.376C105.13 116.688 105.642 116.096 106.004 115.6C106.367 115.099 106.618 114.64 106.756 114.224C106.9 113.808 106.972 113.376 106.972 112.928C106.972 112.309 106.799 111.821 106.452 111.464C106.106 111.107 105.623 110.928 105.004 110.928C104.46 110.928 104.015 111.021 103.668 111.208C103.322 111.395 102.975 111.693 102.628 112.104L101.7 111.384C102.138 110.851 102.62 110.456 103.148 110.2C103.682 109.939 104.322 109.808 105.068 109.808ZM112.534 119.768C112.534 119.379 112.667 119.048 112.934 118.776C113.201 118.504 113.534 118.368 113.934 118.368C114.339 118.368 114.675 118.504 114.942 118.776C115.214 119.048 115.35 119.379 115.35 119.768C115.35 120.163 115.214 120.499 114.942 120.776C114.675 121.048 114.339 121.184 113.934 121.184C113.534 121.184 113.201 121.048 112.934 120.776C112.667 120.499 112.534 120.163 112.534 119.768ZM125.648 112.608C125.648 113.147 125.482 113.611 125.152 114C124.821 114.389 124.349 114.752 123.736 115.088C124.456 115.387 125.029 115.787 125.456 116.288C125.882 116.784 126.096 117.371 126.096 118.048C126.096 118.645 125.941 119.181 125.632 119.656C125.322 120.131 124.885 120.504 124.32 120.776C123.754 121.048 123.085 121.184 122.312 121.184C121.528 121.184 120.858 121.048 120.304 120.776C119.749 120.499 119.325 120.125 119.032 119.656C118.738 119.187 118.592 118.659 118.592 118.072C118.592 117.395 118.792 116.824 119.192 116.36C119.597 115.896 120.133 115.509 120.8 115.2C120.218 114.923 119.778 114.587 119.48 114.192C119.186 113.797 119.04 113.293 119.04 112.68C119.04 112.173 119.141 111.739 119.344 111.376C119.552 111.013 119.818 110.717 120.144 110.488C120.474 110.253 120.832 110.083 121.216 109.976C121.605 109.864 121.981 109.808 122.344 109.808C122.877 109.808 123.397 109.907 123.904 110.104C124.41 110.296 124.826 110.6 125.152 111.016C125.482 111.427 125.648 111.957 125.648 112.608ZM120.368 112.696C120.368 113.117 120.464 113.451 120.656 113.696C120.853 113.936 121.133 114.133 121.496 114.288C121.858 114.437 122.288 114.592 122.784 114.752C123.296 114.464 123.68 114.168 123.936 113.864C124.192 113.56 124.32 113.157 124.32 112.656C124.32 112.101 124.146 111.661 123.8 111.336C123.458 111.011 122.973 110.848 122.344 110.848C121.72 110.848 121.234 111.011 120.888 111.336C120.541 111.661 120.368 112.115 120.368 112.696ZM124.68 118.064C124.68 117.568 124.554 117.176 124.304 116.888C124.053 116.6 123.706 116.36 123.264 116.168C122.821 115.976 122.309 115.781 121.728 115.584C121.274 115.792 120.874 116.088 120.528 116.472C120.181 116.851 120.008 117.387 120.008 118.08C120.008 118.704 120.2 119.197 120.584 119.56C120.968 119.917 121.541 120.096 122.304 120.096C123.072 120.096 123.658 119.904 124.064 119.52C124.474 119.131 124.68 118.645 124.68 118.064ZM132.97 114.12V117.248H134.394V118.32H132.97V121H131.674L131.666 118.32H127.09V117.344L130.322 109.808L131.442 110.28L128.514 117.248H131.674L131.85 114.12H132.97ZM142.435 112.608C142.435 113.147 142.27 113.611 141.939 114C141.609 114.389 141.137 114.752 140.523 115.088C141.243 115.387 141.817 115.787 142.243 116.288C142.67 116.784 142.883 117.371 142.883 118.048C142.883 118.645 142.729 119.181 142.419 119.656C142.11 120.131 141.673 120.504 141.107 120.776C140.542 121.048 139.873 121.184 139.099 121.184C138.315 121.184 137.646 121.048 137.091 120.776C136.537 120.499 136.113 120.125 135.819 119.656C135.526 119.187 135.379 118.659 135.379 118.072C135.379 117.395 135.579 116.824 135.979 116.36C136.385 115.896 136.921 115.509 137.587 115.2C137.006 114.923 136.566 114.587 136.267 114.192C135.974 113.797 135.827 113.293 135.827 112.68C135.827 112.173 135.929 111.739 136.131 111.376C136.339 111.013 136.606 110.717 136.931 110.488C137.262 110.253 137.619 110.083 138.003 109.976C138.393 109.864 138.769 109.808 139.131 109.808C139.665 109.808 140.185 109.907 140.691 110.104C141.198 110.296 141.614 110.6 141.939 111.016C142.27 111.427 142.435 111.957 142.435 112.608ZM137.155 112.696C137.155 113.117 137.251 113.451 137.443 113.696C137.641 113.936 137.921 114.133 138.283 114.288C138.646 114.437 139.075 114.592 139.571 114.752C140.083 114.464 140.467 114.168 140.723 113.864C140.979 113.56 141.107 113.157 141.107 112.656C141.107 112.101 140.934 111.661 140.587 111.336C140.246 111.011 139.761 110.848 139.131 110.848C138.507 110.848 138.022 111.011 137.675 111.336C137.329 111.661 137.155 112.115 137.155 112.696ZM141.467 118.064C141.467 117.568 141.342 117.176 141.091 116.888C140.841 116.6 140.494 116.36 140.051 116.168C139.609 115.976 139.097 115.781 138.515 115.584C138.062 115.792 137.662 116.088 137.315 116.472C136.969 116.851 136.795 117.387 136.795 118.08C136.795 118.704 136.987 119.197 137.371 119.56C137.755 119.917 138.329 120.096 139.091 120.096C139.859 120.096 140.446 119.904 140.851 119.52C141.262 119.131 141.467 118.645 141.467 118.064Z" fill="#979899"/>
<path d="M152.711 116.576V115.408H159.127V116.576H152.711ZM204.977 114.112C204.977 113.755 205.1 113.451 205.345 113.2C205.596 112.949 205.903 112.824 206.265 112.824C206.639 112.824 206.948 112.949 207.193 113.2C207.444 113.451 207.569 113.755 207.569 114.112C207.569 114.469 207.444 114.776 207.193 115.032C206.948 115.288 206.639 115.416 206.265 115.416C205.903 115.416 205.596 115.288 205.345 115.032C205.1 114.776 204.977 114.469 204.977 114.112ZM204.977 119.88C204.977 119.533 205.1 119.232 205.345 118.976C205.596 118.72 205.903 118.592 206.265 118.592C206.639 118.592 206.948 118.72 207.193 118.976C207.444 119.232 207.569 119.533 207.569 119.88C207.569 120.243 207.444 120.552 207.193 120.808C206.948 121.059 206.639 121.184 206.265 121.184C205.903 121.184 205.596 121.059 205.345 120.808C205.1 120.552 204.977 120.243 204.977 119.88ZM374.86 116.752V121H373.452V116.768L369.732 109.984H371.268L374.188 115.504L377.14 109.984H378.58L374.86 116.752ZM382.566 112.4C383.755 112.4 384.654 112.797 385.262 113.592C385.87 114.387 386.174 115.451 386.174 116.784C386.174 117.643 386.035 118.403 385.758 119.064C385.481 119.725 385.073 120.245 384.534 120.624C383.995 120.997 383.334 121.184 382.55 121.184C381.361 121.184 380.459 120.784 379.846 119.984C379.233 119.184 378.926 118.123 378.926 116.8C378.926 115.936 379.065 115.173 379.342 114.512C379.619 113.845 380.027 113.328 380.566 112.96C381.11 112.587 381.777 112.4 382.566 112.4ZM382.566 113.496C381.841 113.496 381.291 113.765 380.918 114.304C380.55 114.843 380.366 115.675 380.366 116.8C380.366 117.915 380.547 118.741 380.91 119.28C381.278 119.813 381.825 120.08 382.55 120.08C383.275 120.08 383.819 119.811 384.182 119.272C384.55 118.733 384.734 117.904 384.734 116.784C384.734 115.664 384.553 114.837 384.19 114.304C383.827 113.765 383.286 113.496 382.566 113.496ZM389.096 112.576V118.544C389.096 119.099 389.21 119.499 389.44 119.744C389.669 119.989 390.026 120.112 390.512 120.112C390.976 120.112 391.413 119.981 391.824 119.72C392.24 119.453 392.562 119.139 392.792 118.776V112.576H394.136V121H392.992L392.88 119.864C392.549 120.291 392.138 120.619 391.648 120.848C391.162 121.072 390.674 121.184 390.184 121.184C389.368 121.184 388.757 120.968 388.352 120.536C387.952 120.099 387.752 119.488 387.752 118.704V112.576H389.096ZM410.571 119.16C410.571 119.501 410.627 119.749 410.739 119.904C410.851 120.059 411.025 120.171 411.259 120.24L410.931 121.184C410.569 121.136 410.251 121.021 409.979 120.84C409.707 120.653 409.51 120.373 409.387 120C409.083 120.389 408.702 120.685 408.243 120.888C407.79 121.085 407.291 121.184 406.747 121.184C405.905 121.184 405.241 120.947 404.755 120.472C404.27 119.997 404.027 119.368 404.027 118.584C404.027 117.715 404.366 117.048 405.043 116.584C405.721 116.12 406.699 115.888 407.979 115.888H409.219V115.184C409.219 114.576 409.041 114.147 408.683 113.896C408.331 113.64 407.841 113.512 407.211 113.512C406.934 113.512 406.609 113.547 406.235 113.616C405.862 113.68 405.457 113.789 405.019 113.944L404.667 112.928C405.179 112.736 405.662 112.6 406.115 112.52C406.574 112.44 407.009 112.4 407.419 112.4C408.465 112.4 409.251 112.645 409.779 113.136C410.307 113.627 410.571 114.288 410.571 115.12V119.16ZM407.091 120.16C407.507 120.16 407.902 120.056 408.275 119.848C408.654 119.635 408.969 119.341 409.219 118.968V116.8H408.003C407.075 116.8 406.419 116.96 406.035 117.28C405.657 117.6 405.467 118.029 405.467 118.568C405.467 119.629 406.009 120.16 407.091 120.16ZM413.013 121V119.968H414.325V113.608H413.013V112.576H415.349L415.597 114.568C415.922 113.875 416.317 113.339 416.781 112.96C417.245 112.581 417.858 112.392 418.621 112.392C418.856 112.392 419.064 112.411 419.245 112.448C419.432 112.48 419.621 112.523 419.813 112.576L419.621 115.424H418.517V113.632C418.496 113.632 418.472 113.632 418.445 113.632C417.154 113.632 416.229 114.555 415.669 116.4V119.968H417.381V121H413.013ZM422.383 117.264C422.42 118.24 422.676 118.952 423.151 119.4C423.631 119.843 424.196 120.064 424.847 120.064C425.279 120.064 425.668 120 426.015 119.872C426.361 119.744 426.721 119.555 427.095 119.304L427.727 120.192C427.337 120.501 426.889 120.744 426.383 120.92C425.876 121.096 425.359 121.184 424.831 121.184C424.009 121.184 423.311 121 422.735 120.632C422.164 120.264 421.727 119.752 421.423 119.096C421.124 118.435 420.975 117.669 420.975 116.8C420.975 115.947 421.124 115.189 421.423 114.528C421.727 113.867 422.153 113.347 422.703 112.968C423.257 112.589 423.908 112.4 424.655 112.4C425.716 112.4 426.551 112.768 427.159 113.504C427.772 114.24 428.079 115.248 428.079 116.528C428.079 116.672 428.073 116.808 428.063 116.936C428.057 117.064 428.052 117.173 428.047 117.264H422.383ZM424.671 113.504C424.047 113.504 423.524 113.725 423.103 114.168C422.681 114.611 422.444 115.296 422.391 116.224H426.783C426.767 115.323 426.569 114.645 426.191 114.192C425.812 113.733 425.305 113.504 424.671 113.504ZM438.114 121V112.576H439.258L439.362 113.744C439.704 113.312 440.13 112.981 440.642 112.752C441.154 112.517 441.656 112.4 442.146 112.4C442.973 112.4 443.573 112.619 443.946 113.056C444.325 113.493 444.514 114.101 444.514 114.88V121H443.17V115.872C443.17 115.296 443.138 114.832 443.074 114.48C443.01 114.128 442.874 113.869 442.666 113.704C442.464 113.539 442.152 113.456 441.73 113.456C441.4 113.456 441.088 113.528 440.794 113.672C440.506 113.816 440.248 113.997 440.018 114.216C439.794 114.429 439.608 114.645 439.458 114.864V121H438.114ZM449.716 112.4C450.905 112.4 451.804 112.797 452.412 113.592C453.02 114.387 453.324 115.451 453.324 116.784C453.324 117.643 453.185 118.403 452.908 119.064C452.631 119.725 452.223 120.245 451.684 120.624C451.145 120.997 450.484 121.184 449.7 121.184C448.511 121.184 447.609 120.784 446.996 119.984C446.383 119.184 446.076 118.123 446.076 116.8C446.076 115.936 446.215 115.173 446.492 114.512C446.769 113.845 447.177 113.328 447.716 112.96C448.26 112.587 448.927 112.4 449.716 112.4ZM449.716 113.496C448.991 113.496 448.441 113.765 448.068 114.304C447.7 114.843 447.516 115.675 447.516 116.8C447.516 117.915 447.697 118.741 448.06 119.28C448.428 119.813 448.975 120.08 449.7 120.08C450.425 120.08 450.969 119.811 451.332 119.272C451.7 118.733 451.884 117.904 451.884 116.784C451.884 115.664 451.703 114.837 451.34 114.304C450.977 113.765 450.436 113.496 449.716 113.496ZM461.142 121H459.238L458.15 114.816L456.966 121H455.11L453.574 112.576H454.95L456.022 120.168L457.366 113.648H458.958L460.23 120.168L461.302 112.576H462.614L461.142 121ZM473.033 112.576V118.544C473.033 119.099 473.148 119.499 473.377 119.744C473.607 119.989 473.964 120.112 474.449 120.112C474.913 120.112 475.351 119.981 475.761 119.72C476.177 119.453 476.5 119.139 476.729 118.776V112.576H478.073V121H476.929L476.817 119.864C476.487 120.291 476.076 120.619 475.585 120.848C475.1 121.072 474.612 121.184 474.121 121.184C473.305 121.184 472.695 120.968 472.289 120.536C471.889 120.099 471.689 119.488 471.689 118.704V112.576H473.033ZM482.947 120.072C483.598 120.072 484.11 119.952 484.483 119.712C484.856 119.472 485.043 119.147 485.043 118.736C485.043 118.485 484.995 118.267 484.899 118.08C484.808 117.893 484.619 117.725 484.331 117.576C484.043 117.421 483.6 117.269 483.003 117.12C482.422 116.976 481.915 116.811 481.483 116.624C481.056 116.432 480.723 116.184 480.483 115.88C480.248 115.576 480.131 115.181 480.131 114.696C480.131 113.987 480.427 113.427 481.019 113.016C481.611 112.605 482.382 112.4 483.331 112.4C484.008 112.4 484.598 112.491 485.099 112.672C485.606 112.853 486.035 113.072 486.387 113.328L485.795 114.24C485.48 114.021 485.128 113.843 484.739 113.704C484.355 113.56 483.891 113.488 483.347 113.488C482.686 113.488 482.216 113.592 481.939 113.8C481.662 114.003 481.523 114.267 481.523 114.592C481.523 114.843 481.59 115.051 481.723 115.216C481.862 115.376 482.094 115.52 482.419 115.648C482.744 115.776 483.192 115.917 483.763 116.072C484.312 116.221 484.792 116.397 485.203 116.6C485.614 116.803 485.931 117.069 486.155 117.4C486.384 117.725 486.499 118.149 486.499 118.672C486.499 119.269 486.328 119.755 485.987 120.128C485.646 120.496 485.203 120.765 484.659 120.936C484.12 121.101 483.55 121.184 482.947 121.184C482.184 121.184 481.534 121.075 480.995 120.856C480.462 120.632 480.014 120.363 479.651 120.048L480.419 119.16C480.75 119.432 481.128 119.653 481.555 119.824C481.987 119.989 482.451 120.072 482.947 120.072ZM491.669 108.632C491.967 108.632 492.205 108.723 492.381 108.904C492.562 109.085 492.653 109.307 492.653 109.568C492.653 109.84 492.562 110.069 492.381 110.256C492.205 110.437 491.967 110.528 491.669 110.528C491.386 110.528 491.154 110.437 490.973 110.256C490.791 110.069 490.701 109.84 490.701 109.568C490.701 109.307 490.791 109.085 490.973 108.904C491.154 108.723 491.386 108.632 491.669 108.632ZM492.741 112.576V119.936H495.117V121H488.797V119.936H491.397V113.64H488.877V112.576H492.741ZM496.871 121V112.576H498.015L498.119 113.744C498.46 113.312 498.887 112.981 499.399 112.752C499.911 112.517 500.412 112.4 500.903 112.4C501.729 112.4 502.329 112.619 502.703 113.056C503.081 113.493 503.271 114.101 503.271 114.88V121H501.927V115.872C501.927 115.296 501.895 114.832 501.831 114.48C501.767 114.128 501.631 113.869 501.423 113.704C501.22 113.539 500.908 113.456 500.487 113.456C500.156 113.456 499.844 113.528 499.551 113.672C499.263 113.816 499.004 113.997 498.775 114.216C498.551 114.429 498.364 114.645 498.215 114.864V121H496.871ZM512.112 111.68L512.528 112.944C512.166 113.056 511.782 113.125 511.376 113.152C510.976 113.179 510.539 113.192 510.064 113.192C511.04 113.64 511.528 114.347 511.528 115.312C511.528 116.144 511.248 116.829 510.688 117.368C510.134 117.907 509.358 118.176 508.36 118.176C508.078 118.176 507.84 118.163 507.648 118.136C507.462 118.109 507.28 118.069 507.104 118.016C506.976 118.107 506.87 118.227 506.784 118.376C506.704 118.52 506.664 118.672 506.664 118.832C506.664 119.035 506.744 119.203 506.904 119.336C507.064 119.469 507.36 119.536 507.792 119.536H509.312C509.878 119.536 510.384 119.637 510.832 119.84C511.28 120.043 511.635 120.317 511.896 120.664C512.158 121.005 512.288 121.392 512.288 121.824C512.288 122.651 511.936 123.285 511.232 123.728C510.534 124.171 509.544 124.392 508.264 124.392C507.368 124.392 506.662 124.299 506.144 124.112C505.627 123.931 505.256 123.651 505.032 123.272C504.814 122.899 504.704 122.427 504.704 121.856H505.92C505.92 122.181 505.984 122.451 506.112 122.664C506.24 122.877 506.472 123.035 506.808 123.136C507.144 123.243 507.627 123.296 508.256 123.296C509.184 123.296 509.862 123.179 510.288 122.944C510.715 122.715 510.928 122.371 510.928 121.912C510.928 121.512 510.747 121.211 510.384 121.008C510.022 120.805 509.568 120.704 509.024 120.704H507.52C506.79 120.704 506.254 120.544 505.912 120.224C505.571 119.904 505.4 119.536 505.4 119.12C505.4 118.544 505.71 118.053 506.328 117.648C505.384 117.147 504.912 116.371 504.912 115.32C504.912 114.749 505.054 114.245 505.336 113.808C505.619 113.365 506.014 113.019 506.52 112.768C507.027 112.517 507.611 112.392 508.272 112.392C508.982 112.392 509.558 112.363 510 112.304C510.443 112.245 510.822 112.163 511.136 112.056C511.456 111.949 511.782 111.824 512.112 111.68ZM508.272 113.376C507.595 113.376 507.094 113.56 506.768 113.928C506.448 114.296 506.288 114.76 506.288 115.32C506.288 115.891 506.451 116.36 506.776 116.728C507.107 117.096 507.616 117.28 508.304 117.28C508.896 117.28 509.35 117.107 509.664 116.76C509.979 116.413 510.136 115.931 510.136 115.312C510.136 114.021 509.515 113.376 508.272 113.376ZM528.74 120.576C528.452 120.768 528.102 120.917 527.692 121.024C527.281 121.131 526.878 121.184 526.484 121.184C525.577 121.184 524.878 120.947 524.388 120.472C523.897 119.997 523.652 119.387 523.652 118.64V113.616H521.716V112.576H523.652V110.664L524.996 110.504V112.576H527.908L527.748 113.616H524.996V118.624C524.996 119.093 525.118 119.451 525.364 119.696C525.614 119.941 526.028 120.064 526.604 120.064C526.918 120.064 527.209 120.027 527.476 119.952C527.742 119.877 527.99 119.781 528.22 119.664L528.74 120.576ZM531.789 109.056V113.728C532.12 113.291 532.525 112.96 533.005 112.736C533.491 112.512 533.981 112.4 534.477 112.4C535.299 112.4 535.899 112.619 536.277 113.056C536.656 113.493 536.845 114.101 536.845 114.88V121H535.501V114.912C535.501 114.405 535.384 114.037 535.149 113.808C534.915 113.573 534.547 113.456 534.045 113.456C533.725 113.456 533.421 113.528 533.133 113.672C532.845 113.816 532.587 113.995 532.357 114.208C532.128 114.421 531.939 114.64 531.789 114.864V121H530.445V109.2L531.789 109.056ZM539.895 117.264C539.933 118.24 540.189 118.952 540.663 119.4C541.143 119.843 541.709 120.064 542.359 120.064C542.791 120.064 543.181 120 543.527 119.872C543.874 119.744 544.234 119.555 544.607 119.304L545.239 120.192C544.85 120.501 544.402 120.744 543.895 120.92C543.389 121.096 542.871 121.184 542.343 121.184C541.522 121.184 540.823 121 540.247 120.632C539.677 120.264 539.239 119.752 538.935 119.096C538.637 118.435 538.487 117.669 538.487 116.8C538.487 115.947 538.637 115.189 538.935 114.528C539.239 113.867 539.666 113.347 540.215 112.968C540.77 112.589 541.421 112.4 542.167 112.4C543.229 112.4 544.063 112.768 544.671 113.504C545.285 114.24 545.591 115.248 545.591 116.528C545.591 116.672 545.586 116.808 545.575 116.936C545.57 117.064 545.565 117.173 545.559 117.264H539.895ZM542.183 113.504C541.559 113.504 541.037 113.725 540.615 114.168C540.194 114.611 539.957 115.296 539.903 116.224H544.295C544.279 115.323 544.082 114.645 543.703 114.192C543.325 113.733 542.818 113.504 542.183 113.504ZM49.848 145H47.944L46.856 138.816L45.672 145H43.816L42.28 136.576H43.656L44.728 144.168L46.072 137.648H47.664L48.936 144.168L50.008 136.576H51.32L49.848 145ZM55.2098 136.4C56.3991 136.4 57.2978 136.797 57.9058 137.592C58.5138 138.387 58.8178 139.451 58.8178 140.784C58.8178 141.643 58.6791 142.403 58.4018 143.064C58.1244 143.725 57.7164 144.245 57.1778 144.624C56.6391 144.997 55.9778 145.184 55.1938 145.184C54.0044 145.184 53.1031 144.784 52.4898 143.984C51.8764 143.184 51.5698 142.123 51.5698 140.8C51.5698 139.936 51.7084 139.173 51.9858 138.512C52.2631 137.845 52.6711 137.328 53.2098 136.96C53.7538 136.587 54.4204 136.4 55.2098 136.4ZM55.2098 137.496C54.4844 137.496 53.9351 137.765 53.5618 138.304C53.1938 138.843 53.0098 139.675 53.0098 140.8C53.0098 141.915 53.1911 142.741 53.5538 143.28C53.9218 143.813 54.4684 144.08 55.1938 144.08C55.9191 144.08 56.4631 143.811 56.8258 143.272C57.1938 142.733 57.3778 141.904 57.3778 140.784C57.3778 139.664 57.1964 138.837 56.8338 138.304C56.4711 137.765 55.9298 137.496 55.2098 137.496ZM60.4755 145V143.968H61.7875V137.608H60.4755V136.576H62.8115L63.0595 138.568C63.3848 137.875 63.7795 137.339 64.2435 136.96C64.7075 136.581 65.3208 136.392 66.0835 136.392C66.3182 136.392 66.5262 136.411 66.7075 136.448C66.8942 136.48 67.0835 136.523 67.2755 136.576L67.0835 139.424H65.9795V137.632C65.9582 137.632 65.9342 137.632 65.9075 137.632C64.6168 137.632 63.6915 138.555 63.1315 140.4V143.968H64.8435V145H60.4755ZM70.2212 133.016V145H68.8772V133.184L70.2212 133.016ZM75.8453 136.576L72.0532 140.368L76.2852 145H74.5173L70.3732 140.4L74.1013 136.576H75.8453ZM80.047 144.072C80.6977 144.072 81.2097 143.952 81.583 143.712C81.9563 143.472 82.143 143.147 82.143 142.736C82.143 142.485 82.095 142.267 81.999 142.08C81.9083 141.893 81.719 141.725 81.431 141.576C81.143 141.421 80.7003 141.269 80.103 141.12C79.5217 140.976 79.015 140.811 78.583 140.624C78.1563 140.432 77.823 140.184 77.583 139.88C77.3483 139.576 77.231 139.181 77.231 138.696C77.231 137.987 77.527 137.427 78.119 137.016C78.711 136.605 79.4817 136.4 80.431 136.4C81.1083 136.4 81.6977 136.491 82.199 136.672C82.7057 136.853 83.135 137.072 83.487 137.328L82.895 138.24C82.5803 138.021 82.2283 137.843 81.839 137.704C81.455 137.56 80.991 137.488 80.447 137.488C79.7857 137.488 79.3163 137.592 79.039 137.8C78.7617 138.003 78.623 138.267 78.623 138.592C78.623 138.843 78.6897 139.051 78.823 139.216C78.9617 139.376 79.1937 139.52 79.519 139.648C79.8443 139.776 80.2923 139.917 80.863 140.072C81.4123 140.221 81.8923 140.397 82.303 140.6C82.7137 140.803 83.031 141.069 83.255 141.4C83.4843 141.725 83.599 142.149 83.599 142.672C83.599 143.269 83.4283 143.755 83.087 144.128C82.7457 144.496 82.303 144.765 81.759 144.936C81.2203 145.101 80.6497 145.184 80.047 145.184C79.2843 145.184 78.6337 145.075 78.095 144.856C77.5617 144.632 77.1137 144.363 76.751 144.048L77.519 143.16C77.8497 143.432 78.2283 143.653 78.655 143.824C79.087 143.989 79.551 144.072 80.047 144.072ZM89.3448 136.4C90.0914 136.4 90.6861 136.581 91.1288 136.944C91.5768 137.307 91.8994 137.819 92.0968 138.48C92.2941 139.136 92.3928 139.904 92.3928 140.784C92.3928 141.632 92.2728 142.389 92.0328 143.056C91.7981 143.717 91.4408 144.237 90.9608 144.616C90.4808 144.995 89.8754 145.184 89.1448 145.184C88.2221 145.184 87.4808 144.859 86.9208 144.208V148.224L85.5768 148.392V136.576H86.7208L86.8328 137.752C87.1421 137.32 87.5101 136.987 87.9368 136.752C88.3634 136.517 88.8328 136.4 89.3448 136.4ZM89.0248 137.48C88.5608 137.48 88.1501 137.621 87.7928 137.904C87.4354 138.181 87.1448 138.491 86.9208 138.832V143.008C87.1394 143.333 87.4141 143.592 87.7448 143.784C88.0808 143.971 88.4488 144.064 88.8488 144.064C89.5474 144.064 90.0728 143.797 90.4248 143.264C90.7768 142.731 90.9528 141.901 90.9528 140.776C90.9528 138.579 90.3101 137.48 89.0248 137.48ZM100.002 143.16C100.002 143.501 100.058 143.749 100.17 143.904C100.282 144.059 100.456 144.171 100.69 144.24L100.362 145.184C99.9998 145.136 99.6825 145.021 99.4105 144.84C99.1385 144.653 98.9412 144.373 98.8185 144C98.5145 144.389 98.1332 144.685 97.6745 144.888C97.2212 145.085 96.7225 145.184 96.1785 145.184C95.3358 145.184 94.6718 144.947 94.1865 144.472C93.7012 143.997 93.4585 143.368 93.4585 142.584C93.4585 141.715 93.7972 141.048 94.4745 140.584C95.1518 140.12 96.1305 139.888 97.4105 139.888H98.6505V139.184C98.6505 138.576 98.4718 138.147 98.1145 137.896C97.7625 137.64 97.2718 137.512 96.6425 137.512C96.3652 137.512 96.0398 137.547 95.6665 137.616C95.2932 137.68 94.8878 137.789 94.4505 137.944L94.0985 136.928C94.6105 136.736 95.0932 136.6 95.5465 136.52C96.0052 136.44 96.4398 136.4 96.8505 136.4C97.8958 136.4 98.6825 136.645 99.2105 137.136C99.7385 137.627 100.002 138.288 100.002 139.12V143.16ZM96.5225 144.16C96.9385 144.16 97.3332 144.056 97.7065 143.848C98.0852 143.635 98.3998 143.341 98.6505 142.968V140.8H97.4345C96.5065 140.8 95.8505 140.96 95.4665 141.28C95.0878 141.6 94.8985 142.029 94.8985 142.568C94.8985 143.629 95.4398 144.16 96.5225 144.16ZM106.172 144.024C106.594 144.024 106.986 143.957 107.348 143.824C107.716 143.685 108.055 143.507 108.364 143.288L109.02 144.168C108.652 144.483 108.21 144.731 107.692 144.912C107.175 145.093 106.668 145.184 106.172 145.184C105.335 145.184 104.62 145.005 104.028 144.648C103.442 144.285 102.994 143.779 102.684 143.128C102.375 142.472 102.22 141.704 102.22 140.824C102.22 139.981 102.375 139.227 102.684 138.56C102.994 137.893 103.444 137.368 104.036 136.984C104.628 136.595 105.346 136.4 106.188 136.4C107.26 136.4 108.199 136.725 109.004 137.376L108.348 138.272C107.618 137.771 106.892 137.52 106.172 137.52C105.447 137.52 104.85 137.795 104.38 138.344C103.911 138.888 103.676 139.715 103.676 140.824C103.676 141.949 103.911 142.765 104.38 143.272C104.85 143.773 105.447 144.024 106.172 144.024ZM111.814 141.264C111.851 142.24 112.107 142.952 112.582 143.4C113.062 143.843 113.627 144.064 114.278 144.064C114.71 144.064 115.099 144 115.446 143.872C115.793 143.744 116.153 143.555 116.526 143.304L117.158 144.192C116.769 144.501 116.321 144.744 115.814 144.92C115.307 145.096 114.79 145.184 114.262 145.184C113.441 145.184 112.742 145 112.166 144.632C111.595 144.264 111.158 143.752 110.854 143.096C110.555 142.435 110.406 141.669 110.406 140.8C110.406 139.947 110.555 139.189 110.854 138.528C111.158 137.867 111.585 137.347 112.134 136.968C112.689 136.589 113.339 136.4 114.086 136.4C115.147 136.4 115.982 136.768 116.59 137.504C117.203 138.24 117.51 139.248 117.51 140.528C117.51 140.672 117.505 140.808 117.494 140.936C117.489 141.064 117.483 141.173 117.478 141.264H111.814ZM114.102 137.504C113.478 137.504 112.955 137.725 112.534 138.168C112.113 138.611 111.875 139.296 111.822 140.224H116.214C116.198 139.323 116.001 138.645 115.622 138.192C115.243 137.733 114.737 137.504 114.102 137.504ZM265.054 136.4C266.243 136.4 267.142 136.797 267.75 137.592C268.358 138.387 268.662 139.451 268.662 140.784C268.662 141.643 268.523 142.403 268.246 143.064C267.968 143.725 267.56 144.245 267.022 144.624C266.483 144.997 265.822 145.184 265.038 145.184C263.848 145.184 262.947 144.784 262.334 143.984C261.72 143.184 261.414 142.123 261.414 140.8C261.414 139.936 261.552 139.173 261.83 138.512C262.107 137.845 262.515 137.328 263.054 136.96C263.598 136.587 264.264 136.4 265.054 136.4ZM265.054 137.496C264.328 137.496 263.779 137.765 263.406 138.304C263.038 138.843 262.854 139.675 262.854 140.8C262.854 141.915 263.035 142.741 263.398 143.28C263.766 143.813 264.312 144.08 265.038 144.08C265.763 144.08 266.307 143.811 266.67 143.272C267.038 142.733 267.222 141.904 267.222 140.784C267.222 139.664 267.04 138.837 266.678 138.304C266.315 137.765 265.774 137.496 265.054 137.496ZM270.239 145V136.576H271.383L271.487 137.744C271.829 137.312 272.255 136.981 272.767 136.752C273.279 136.517 273.781 136.4 274.271 136.4C275.098 136.4 275.698 136.619 276.071 137.056C276.45 137.493 276.639 138.101 276.639 138.88V145H275.295V139.872C275.295 139.296 275.263 138.832 275.199 138.48C275.135 138.128 274.999 137.869 274.791 137.704C274.589 137.539 274.277 137.456 273.855 137.456C273.525 137.456 273.213 137.528 272.919 137.672C272.631 137.816 272.373 137.997 272.143 138.216C271.919 138.429 271.733 138.645 271.583 138.864V145H270.239ZM293.059 143.16C293.059 143.501 293.115 143.749 293.227 143.904C293.339 144.059 293.512 144.171 293.747 144.24L293.419 145.184C293.056 145.136 292.739 145.021 292.467 144.84C292.195 144.653 291.997 144.373 291.875 144C291.571 144.389 291.189 144.685 290.731 144.888C290.277 145.085 289.779 145.184 289.235 145.184C288.392 145.184 287.728 144.947 287.243 144.472C286.757 143.997 286.515 143.368 286.515 142.584C286.515 141.715 286.853 141.048 287.531 140.584C288.208 140.12 289.187 139.888 290.467 139.888H291.707V139.184C291.707 138.576 291.528 138.147 291.171 137.896C290.819 137.64 290.328 137.512 289.699 137.512C289.421 137.512 289.096 137.547 288.723 137.616C288.349 137.68 287.944 137.789 287.507 137.944L287.155 136.928C287.667 136.736 288.149 136.6 288.603 136.52C289.061 136.44 289.496 136.4 289.907 136.4C290.952 136.4 291.739 136.645 292.267 137.136C292.795 137.627 293.059 138.288 293.059 139.12V143.16ZM289.579 144.16C289.995 144.16 290.389 144.056 290.763 143.848C291.141 143.635 291.456 143.341 291.707 142.968V140.8H290.491C289.563 140.8 288.907 140.96 288.523 141.28C288.144 141.6 287.955 142.029 287.955 142.568C287.955 143.629 288.496 144.16 289.579 144.16ZM299.229 144.024C299.65 144.024 300.042 143.957 300.405 143.824C300.773 143.685 301.111 143.507 301.421 143.288L302.076 144.168C301.709 144.483 301.266 144.731 300.749 144.912C300.231 145.093 299.725 145.184 299.229 145.184C298.391 145.184 297.677 145.005 297.085 144.648C296.498 144.285 296.05 143.779 295.741 143.128C295.431 142.472 295.277 141.704 295.277 140.824C295.277 139.981 295.431 139.227 295.741 138.56C296.05 137.893 296.501 137.368 297.093 136.984C297.685 136.595 298.402 136.4 299.245 136.4C300.317 136.4 301.255 136.725 302.061 137.376L301.405 138.272C300.674 137.771 299.949 137.52 299.229 137.52C298.503 137.52 297.906 137.795 297.437 138.344C296.967 138.888 296.733 139.715 296.733 140.824C296.733 141.949 296.967 142.765 297.437 143.272C297.906 143.773 298.503 144.024 299.229 144.024ZM307.622 144.024C308.044 144.024 308.436 143.957 308.798 143.824C309.166 143.685 309.505 143.507 309.814 143.288L310.47 144.168C310.102 144.483 309.66 144.731 309.142 144.912C308.625 145.093 308.118 145.184 307.622 145.184C306.785 145.184 306.07 145.005 305.478 144.648C304.892 144.285 304.444 143.779 304.134 143.128C303.825 142.472 303.67 141.704 303.67 140.824C303.67 139.981 303.825 139.227 304.134 138.56C304.444 137.893 304.894 137.368 305.486 136.984C306.078 136.595 306.796 136.4 307.638 136.4C308.71 136.4 309.649 136.725 310.454 137.376L309.798 138.272C309.068 137.771 308.342 137.52 307.622 137.52C306.897 137.52 306.3 137.795 305.83 138.344C305.361 138.888 305.126 139.715 305.126 140.824C305.126 141.949 305.361 142.765 305.83 143.272C306.3 143.773 306.897 144.024 307.622 144.024ZM315.416 136.4C316.605 136.4 317.504 136.797 318.112 137.592C318.72 138.387 319.024 139.451 319.024 140.784C319.024 141.643 318.885 142.403 318.608 143.064C318.331 143.725 317.923 144.245 317.384 144.624C316.845 144.997 316.184 145.184 315.4 145.184C314.211 145.184 313.309 144.784 312.696 143.984C312.083 143.184 311.776 142.123 311.776 140.8C311.776 139.936 311.915 139.173 312.192 138.512C312.469 137.845 312.877 137.328 313.416 136.96C313.96 136.587 314.627 136.4 315.416 136.4ZM315.416 137.496C314.691 137.496 314.141 137.765 313.768 138.304C313.4 138.843 313.216 139.675 313.216 140.8C313.216 141.915 313.397 142.741 313.76 143.28C314.128 143.813 314.675 144.08 315.4 144.08C316.125 144.08 316.669 143.811 317.032 143.272C317.4 142.733 317.584 141.904 317.584 140.784C317.584 139.664 317.403 138.837 317.04 138.304C316.677 137.765 316.136 137.496 315.416 137.496ZM321.946 136.576V142.544C321.946 143.099 322.06 143.499 322.29 143.744C322.519 143.989 322.876 144.112 323.362 144.112C323.826 144.112 324.263 143.981 324.674 143.72C325.09 143.453 325.412 143.139 325.642 142.776V136.576H326.986V145H325.842L325.73 143.864C325.399 144.291 324.988 144.619 324.498 144.848C324.012 145.072 323.524 145.184 323.034 145.184C322.218 145.184 321.607 144.968 321.202 144.536C320.802 144.099 320.602 143.488 320.602 142.704V136.576H321.946ZM328.996 145V136.576H330.14L330.244 137.744C330.585 137.312 331.012 136.981 331.524 136.752C332.036 136.517 332.537 136.4 333.028 136.4C333.854 136.4 334.454 136.619 334.828 137.056C335.206 137.493 335.396 138.101 335.396 138.88V145H334.052V139.872C334.052 139.296 334.02 138.832 333.956 138.48C333.892 138.128 333.756 137.869 333.548 137.704C333.345 137.539 333.033 137.456 332.612 137.456C332.281 137.456 331.969 137.528 331.676 137.672C331.388 137.816 331.129 137.997 330.9 138.216C330.676 138.429 330.489 138.645 330.34 138.864V145H328.996ZM344.077 144.576C343.789 144.768 343.44 144.917 343.029 145.024C342.619 145.131 342.216 145.184 341.821 145.184C340.915 145.184 340.216 144.947 339.725 144.472C339.235 143.997 338.989 143.387 338.989 142.64V137.616H337.053V136.576H338.989V134.664L340.333 134.504V136.576H343.245L343.085 137.616H340.333V142.624C340.333 143.093 340.456 143.451 340.701 143.696C340.952 143.941 341.365 144.064 341.941 144.064C342.256 144.064 342.547 144.027 342.813 143.952C343.08 143.877 343.328 143.781 343.557 143.664L344.077 144.576ZM473.465 143.768C473.465 143.379 473.599 143.048 473.865 142.776C474.132 142.504 474.465 142.368 474.865 142.368C475.271 142.368 475.607 142.504 475.873 142.776C476.145 143.048 476.281 143.379 476.281 143.768C476.281 144.163 476.145 144.499 475.873 144.776C475.607 145.048 475.271 145.184 474.865 145.184C474.465 145.184 474.132 145.048 473.865 144.776C473.599 144.499 473.465 144.163 473.465 143.768Z" fill="white"/>
<path d="M172.706 108.632C173.005 108.632 173.242 108.723 173.418 108.904C173.6 109.085 173.69 109.307 173.69 109.568C173.69 109.84 173.6 110.069 173.418 110.256C173.242 110.437 173.005 110.528 172.706 110.528C172.424 110.528 172.192 110.437 172.01 110.256C171.829 110.069 171.738 109.84 171.738 109.568C171.738 109.307 171.829 109.085 172.01 108.904C172.192 108.723 172.424 108.632 172.706 108.632ZM173.778 112.576V119.936H176.154V121H169.834V119.936H172.434V113.64H169.914V112.576H173.778ZM177.908 121V112.576H179.052L179.156 113.744C179.497 113.312 179.924 112.981 180.436 112.752C180.948 112.517 181.449 112.4 181.94 112.4C182.767 112.4 183.367 112.619 183.74 113.056C184.119 113.493 184.308 114.101 184.308 114.88V121H182.964V115.872C182.964 115.296 182.932 114.832 182.868 114.48C182.804 114.128 182.668 113.869 182.46 113.704C182.257 113.539 181.945 113.456 181.524 113.456C181.193 113.456 180.881 113.528 180.588 113.672C180.3 113.816 180.041 113.997 179.812 114.216C179.588 114.429 179.401 114.645 179.252 114.864V121H177.908ZM191.278 109.016C191.731 109.016 192.142 109.056 192.51 109.136C192.878 109.216 193.227 109.328 193.558 109.472L193.126 110.472C192.854 110.355 192.563 110.267 192.254 110.208C191.95 110.149 191.638 110.12 191.318 110.12C190.139 110.12 189.55 110.587 189.55 111.52V113.232H192.406L192.262 114.288H189.55V121H188.206V114.288H186.198V113.232H188.206V111.552C188.206 111.029 188.339 110.579 188.606 110.2C188.878 109.821 189.246 109.531 189.71 109.328C190.174 109.12 190.696 109.016 191.278 109.016ZM197.903 112.4C199.093 112.4 199.991 112.797 200.599 113.592C201.207 114.387 201.511 115.451 201.511 116.784C201.511 117.643 201.373 118.403 201.095 119.064C200.818 119.725 200.41 120.245 199.871 120.624C199.333 120.997 198.671 121.184 197.887 121.184C196.698 121.184 195.797 120.784 195.183 119.984C194.57 119.184 194.263 118.123 194.263 116.8C194.263 115.936 194.402 115.173 194.679 114.512C194.957 113.845 195.365 113.328 195.903 112.96C196.447 112.587 197.114 112.4 197.903 112.4ZM197.903 113.496C197.178 113.496 196.629 113.765 196.255 114.304C195.887 114.843 195.703 115.675 195.703 116.8C195.703 117.915 195.885 118.741 196.247 119.28C196.615 119.813 197.162 120.08 197.887 120.08C198.613 120.08 199.157 119.811 199.519 119.272C199.887 118.733 200.071 117.904 200.071 116.784C200.071 115.664 199.89 114.837 199.527 114.304C199.165 113.765 198.623 113.496 197.903 113.496ZM131.354 144.024C131.775 144.024 132.167 143.957 132.53 143.824C132.898 143.685 133.236 143.507 133.546 143.288L134.201 144.168C133.834 144.483 133.391 144.731 132.874 144.912C132.356 145.093 131.85 145.184 131.354 145.184C130.516 145.184 129.802 145.005 129.21 144.648C128.623 144.285 128.175 143.779 127.866 143.128C127.556 142.472 127.402 141.704 127.402 140.824C127.402 139.981 127.556 139.227 127.866 138.56C128.175 137.893 128.626 137.368 129.218 136.984C129.81 136.595 130.527 136.4 131.37 136.4C132.442 136.4 133.38 136.725 134.186 137.376L133.53 138.272C132.799 137.771 132.074 137.52 131.354 137.52C130.628 137.52 130.031 137.795 129.562 138.344C129.092 138.888 128.858 139.715 128.858 140.824C128.858 141.949 129.092 142.765 129.562 143.272C130.031 143.773 130.628 144.024 131.354 144.024ZM141.971 143.16C141.971 143.501 142.027 143.749 142.139 143.904C142.251 144.059 142.425 144.171 142.659 144.24L142.331 145.184C141.969 145.136 141.651 145.021 141.379 144.84C141.107 144.653 140.91 144.373 140.787 144C140.483 144.389 140.102 144.685 139.643 144.888C139.19 145.085 138.691 145.184 138.147 145.184C137.305 145.184 136.641 144.947 136.155 144.472C135.67 143.997 135.427 143.368 135.427 142.584C135.427 141.715 135.766 141.048 136.443 140.584C137.121 140.12 138.099 139.888 139.379 139.888H140.619V139.184C140.619 138.576 140.441 138.147 140.083 137.896C139.731 137.64 139.241 137.512 138.611 137.512C138.334 137.512 138.009 137.547 137.635 137.616C137.262 137.68 136.857 137.789 136.419 137.944L136.067 136.928C136.579 136.736 137.062 136.6 137.515 136.52C137.974 136.44 138.409 136.4 138.819 136.4C139.865 136.4 140.651 136.645 141.179 137.136C141.707 137.627 141.971 138.288 141.971 139.12V143.16ZM138.491 144.16C138.907 144.16 139.302 144.056 139.675 143.848C140.054 143.635 140.369 143.341 140.619 142.968V140.8H139.403C138.475 140.8 137.819 140.96 137.435 141.28C137.057 141.6 136.867 142.029 136.867 142.568C136.867 143.629 137.409 144.16 138.491 144.16ZM144.413 145V143.968H145.725V137.608H144.413V136.576H146.749L146.997 138.568C147.322 137.875 147.717 137.339 148.181 136.96C148.645 136.581 149.258 136.392 150.021 136.392C150.256 136.392 150.464 136.411 150.645 136.448C150.832 136.48 151.021 136.523 151.213 136.576L151.021 139.424H149.917V137.632C149.896 137.632 149.872 137.632 149.845 137.632C148.554 137.632 147.629 138.555 147.069 140.4V143.968H148.781V145H144.413ZM155.935 136.4C157.124 136.4 158.023 136.797 158.631 137.592C159.239 138.387 159.543 139.451 159.543 140.784C159.543 141.643 159.404 142.403 159.127 143.064C158.849 143.725 158.441 144.245 157.903 144.624C157.364 144.997 156.703 145.184 155.919 145.184C154.729 145.184 153.828 144.784 153.215 143.984C152.601 143.184 152.295 142.123 152.295 140.8C152.295 139.936 152.433 139.173 152.711 138.512C152.988 137.845 153.396 137.328 153.935 136.96C154.479 136.587 155.145 136.4 155.935 136.4ZM155.935 137.496C155.209 137.496 154.66 137.765 154.287 138.304C153.919 138.843 153.735 139.675 153.735 140.8C153.735 141.915 153.916 142.741 154.279 143.28C154.647 143.813 155.193 144.08 155.919 144.08C156.644 144.08 157.188 143.811 157.551 143.272C157.919 142.733 158.103 141.904 158.103 140.784C158.103 139.664 157.921 138.837 157.559 138.304C157.196 137.765 156.655 137.496 155.935 137.496ZM164.4 133.184V142.92C164.4 143.336 164.528 143.632 164.784 143.808C165.046 143.979 165.382 144.064 165.792 144.064C166.043 144.064 166.283 144.037 166.512 143.984C166.747 143.931 166.979 143.859 167.208 143.768L167.568 144.752C167.339 144.864 167.054 144.963 166.712 145.048C166.376 145.139 165.995 145.184 165.568 145.184C164.822 145.184 164.216 144.979 163.752 144.568C163.288 144.152 163.056 143.579 163.056 142.848V134.248H160.472V133.184H164.4ZM172.706 132.632C173.005 132.632 173.242 132.723 173.418 132.904C173.6 133.085 173.69 133.307 173.69 133.568C173.69 133.84 173.6 134.069 173.418 134.256C173.242 134.437 173.005 134.528 172.706 134.528C172.424 134.528 172.192 134.437 172.01 134.256C171.829 134.069 171.738 133.84 171.738 133.568C171.738 133.307 171.829 133.085 172.01 132.904C172.192 132.723 172.424 132.632 172.706 132.632ZM173.778 136.576V143.936H176.154V145H169.834V143.936H172.434V137.64H169.914V136.576H173.778ZM177.908 145V136.576H179.052L179.156 137.744C179.497 137.312 179.924 136.981 180.436 136.752C180.948 136.517 181.449 136.4 181.94 136.4C182.767 136.4 183.367 136.619 183.74 137.056C184.119 137.493 184.308 138.101 184.308 138.88V145H182.964V139.872C182.964 139.296 182.932 138.832 182.868 138.48C182.804 138.128 182.668 137.869 182.46 137.704C182.257 137.539 181.945 137.456 181.524 137.456C181.193 137.456 180.881 137.528 180.588 137.672C180.3 137.816 180.041 137.997 179.812 138.216C179.588 138.429 179.401 138.645 179.252 138.864V145H177.908ZM192.334 143.16C192.334 143.501 192.39 143.749 192.502 143.904C192.614 144.059 192.787 144.171 193.022 144.24L192.694 145.184C192.331 145.136 192.014 145.021 191.742 144.84C191.47 144.653 191.272 144.373 191.15 144C190.846 144.389 190.464 144.685 190.006 144.888C189.552 145.085 189.054 145.184 188.51 145.184C187.667 145.184 187.003 144.947 186.518 144.472C186.032 143.997 185.79 143.368 185.79 142.584C185.79 141.715 186.128 141.048 186.806 140.584C187.483 140.12 188.462 139.888 189.742 139.888H190.982V139.184C190.982 138.576 190.803 138.147 190.446 137.896C190.094 137.64 189.603 137.512 188.974 137.512C188.696 137.512 188.371 137.547 187.998 137.616C187.624 137.68 187.219 137.789 186.782 137.944L186.43 136.928C186.942 136.736 187.424 136.6 187.878 136.52C188.336 136.44 188.771 136.4 189.182 136.4C190.227 136.4 191.014 136.645 191.542 137.136C192.07 137.627 192.334 138.288 192.334 139.12V143.16ZM188.854 144.16C189.27 144.16 189.664 144.056 190.038 143.848C190.416 143.635 190.731 143.341 190.982 142.968V140.8H189.766C188.838 140.8 188.182 140.96 187.798 141.28C187.419 141.6 187.23 142.029 187.23 142.568C187.23 143.629 187.771 144.16 188.854 144.16ZM200.247 136.4C200.514 136.4 200.773 136.459 201.023 136.576C201.274 136.693 201.479 136.92 201.639 137.256C201.799 137.592 201.879 138.083 201.879 138.728V145H200.631V138.944C200.631 138.416 200.599 138.035 200.535 137.8C200.471 137.565 200.287 137.448 199.983 137.448C199.733 137.448 199.482 137.528 199.231 137.688C198.981 137.843 198.741 138.099 198.511 138.456V145H197.255V138.944C197.255 138.416 197.223 138.035 197.159 137.8C197.095 137.565 196.911 137.448 196.607 137.448C196.346 137.448 196.093 137.528 195.847 137.688C195.602 137.843 195.365 138.099 195.135 138.456V145H193.895V136.576H194.951L195.031 137.552C195.261 137.227 195.517 136.955 195.799 136.736C196.087 136.512 196.442 136.4 196.863 136.4C197.183 136.4 197.485 136.477 197.767 136.632C198.05 136.781 198.258 137.075 198.391 137.512C198.621 137.181 198.879 136.915 199.167 136.712C199.455 136.504 199.815 136.4 200.247 136.4ZM204.145 141.264C204.183 142.24 204.439 142.952 204.913 143.4C205.393 143.843 205.959 144.064 206.609 144.064C207.041 144.064 207.431 144 207.777 143.872C208.124 143.744 208.484 143.555 208.857 143.304L209.489 144.192C209.1 144.501 208.652 144.744 208.145 144.92C207.639 145.096 207.121 145.184 206.593 145.184C205.772 145.184 205.073 145 204.497 144.632C203.927 144.264 203.489 143.752 203.185 143.096C202.887 142.435 202.737 141.669 202.737 140.8C202.737 139.947 202.887 139.189 203.185 138.528C203.489 137.867 203.916 137.347 204.465 136.968C205.02 136.589 205.671 136.4 206.417 136.4C207.479 136.4 208.313 136.768 208.921 137.504C209.535 138.24 209.841 139.248 209.841 140.528C209.841 140.672 209.836 140.808 209.825 140.936C209.82 141.064 209.815 141.173 209.809 141.264H204.145ZM206.433 137.504C205.809 137.504 205.287 137.725 204.865 138.168C204.444 138.611 204.207 139.296 204.153 140.224H208.545C208.529 139.323 208.332 138.645 207.953 138.192C207.575 137.733 207.068 137.504 206.433 137.504ZM211.483 145V136.576H212.627L212.731 137.744C213.072 137.312 213.499 136.981 214.011 136.752C214.523 136.517 215.024 136.4 215.515 136.4C216.342 136.4 216.942 136.619 217.315 137.056C217.694 137.493 217.883 138.101 217.883 138.88V145H216.539V139.872C216.539 139.296 216.507 138.832 216.443 138.48C216.379 138.128 216.243 137.869 216.035 137.704C215.832 137.539 215.52 137.456 215.099 137.456C214.768 137.456 214.456 137.528 214.163 137.672C213.875 137.816 213.616 137.997 213.387 138.216C213.163 138.429 212.976 138.645 212.827 138.864V145H211.483ZM220.933 141.264C220.97 142.24 221.226 142.952 221.701 143.4C222.181 143.843 222.746 144.064 223.397 144.064C223.829 144.064 224.218 144 224.565 143.872C224.911 143.744 225.271 143.555 225.645 143.304L226.277 144.192C225.887 144.501 225.439 144.744 224.933 144.92C224.426 145.096 223.909 145.184 223.381 145.184C222.559 145.184 221.861 145 221.285 144.632C220.714 144.264 220.277 143.752 219.973 143.096C219.674 142.435 219.525 141.669 219.525 140.8C219.525 139.947 219.674 139.189 219.973 138.528C220.277 137.867 220.703 137.347 221.253 136.968C221.807 136.589 222.458 136.4 223.205 136.4C224.266 136.4 225.101 136.768 225.709 137.504C226.322 138.24 226.629 139.248 226.629 140.528C226.629 140.672 226.623 140.808 226.613 140.936C226.607 141.064 226.602 141.173 226.597 141.264H220.933ZM223.221 137.504C222.597 137.504 222.074 137.725 221.653 138.168C221.231 138.611 220.994 139.296 220.941 140.224H225.333C225.317 139.323 225.119 138.645 224.741 138.192C224.362 137.733 223.855 137.504 223.221 137.504ZM229.951 143.856H234.639L234.463 145H228.303V143.984L232.975 137.744H228.671V136.576H234.591V137.616L229.951 143.856ZM237.72 141.264C237.758 142.24 238.014 142.952 238.488 143.4C238.968 143.843 239.534 144.064 240.184 144.064C240.616 144.064 241.006 144 241.352 143.872C241.699 143.744 242.059 143.555 242.432 143.304L243.064 144.192C242.675 144.501 242.227 144.744 241.72 144.92C241.214 145.096 240.696 145.184 240.168 145.184C239.347 145.184 238.648 145 238.072 144.632C237.502 144.264 237.064 143.752 236.76 143.096C236.462 142.435 236.312 141.669 236.312 140.8C236.312 139.947 236.462 139.189 236.76 138.528C237.064 137.867 237.491 137.347 238.04 136.968C238.595 136.589 239.246 136.4 239.992 136.4C241.054 136.4 241.888 136.768 242.496 137.504C243.11 138.24 243.416 139.248 243.416 140.528C243.416 140.672 243.411 140.808 243.4 140.936C243.395 141.064 243.39 141.173 243.384 141.264H237.72ZM240.008 137.504C239.384 137.504 238.862 137.725 238.44 138.168C238.019 138.611 237.782 139.296 237.728 140.224H242.12C242.104 139.323 241.907 138.645 241.528 138.192C241.15 137.733 240.643 137.504 240.008 137.504ZM247.922 144.072C248.573 144.072 249.085 143.952 249.458 143.712C249.831 143.472 250.018 143.147 250.018 142.736C250.018 142.485 249.97 142.267 249.874 142.08C249.783 141.893 249.594 141.725 249.306 141.576C249.018 141.421 248.575 141.269 247.978 141.12C247.397 140.976 246.89 140.811 246.458 140.624C246.031 140.432 245.698 140.184 245.458 139.88C245.223 139.576 245.106 139.181 245.106 138.696C245.106 137.987 245.402 137.427 245.994 137.016C246.586 136.605 247.357 136.4 248.306 136.4C248.983 136.4 249.573 136.491 250.074 136.672C250.581 136.853 251.01 137.072 251.362 137.328L250.77 138.24C250.455 138.021 250.103 137.843 249.714 137.704C249.33 137.56 248.866 137.488 248.322 137.488C247.661 137.488 247.191 137.592 246.914 137.8C246.637 138.003 246.498 138.267 246.498 138.592C246.498 138.843 246.565 139.051 246.698 139.216C246.837 139.376 247.069 139.52 247.394 139.648C247.719 139.776 248.167 139.917 248.738 140.072C249.287 140.221 249.767 140.397 250.178 140.6C250.589 140.803 250.906 141.069 251.13 141.4C251.359 141.725 251.474 142.149 251.474 142.672C251.474 143.269 251.303 143.755 250.962 144.128C250.621 144.496 250.178 144.765 249.634 144.936C249.095 145.101 248.525 145.184 247.922 145.184C247.159 145.184 246.509 145.075 245.97 144.856C245.437 144.632 244.989 144.363 244.626 144.048L245.394 143.16C245.725 143.432 246.103 143.653 246.53 143.824C246.962 143.989 247.426 144.072 247.922 144.072ZM360.209 143.16C360.209 143.501 360.265 143.749 360.377 143.904C360.489 144.059 360.662 144.171 360.897 144.24L360.569 145.184C360.206 145.136 359.889 145.021 359.617 144.84C359.345 144.653 359.147 144.373 359.025 144C358.721 144.389 358.339 144.685 357.881 144.888C357.427 145.085 356.929 145.184 356.385 145.184C355.542 145.184 354.878 144.947 354.393 144.472C353.907 143.997 353.665 143.368 353.665 142.584C353.665 141.715 354.003 141.048 354.681 140.584C355.358 140.12 356.337 139.888 357.617 139.888H358.857V139.184C358.857 138.576 358.678 138.147 358.321 137.896C357.969 137.64 357.478 137.512 356.849 137.512C356.571 137.512 356.246 137.547 355.873 137.616C355.499 137.68 355.094 137.789 354.657 137.944L354.305 136.928C354.817 136.736 355.299 136.6 355.753 136.52C356.211 136.44 356.646 136.4 357.057 136.4C358.102 136.4 358.889 136.645 359.417 137.136C359.945 137.627 360.209 138.288 360.209 139.12V143.16ZM356.729 144.16C357.145 144.16 357.539 144.056 357.913 143.848C358.291 143.635 358.606 143.341 358.857 142.968V140.8H357.641C356.713 140.8 356.057 140.96 355.673 141.28C355.294 141.6 355.105 142.029 355.105 142.568C355.105 143.629 355.646 144.16 356.729 144.16ZM366.338 136.4C367.085 136.4 367.68 136.581 368.122 136.944C368.57 137.307 368.893 137.819 369.09 138.48C369.288 139.136 369.386 139.904 369.386 140.784C369.386 141.632 369.266 142.389 369.026 143.056C368.792 143.717 368.434 144.237 367.954 144.616C367.474 144.995 366.869 145.184 366.138 145.184C365.216 145.184 364.474 144.859 363.914 144.208V148.224L362.57 148.392V136.576H363.714L363.826 137.752C364.136 137.32 364.504 136.987 364.93 136.752C365.357 136.517 365.826 136.4 366.338 136.4ZM366.018 137.48C365.554 137.48 365.144 137.621 364.786 137.904C364.429 138.181 364.138 138.491 363.914 138.832V143.008C364.133 143.333 364.408 143.592 364.738 143.784C365.074 143.971 365.442 144.064 365.842 144.064C366.541 144.064 367.066 143.797 367.418 143.264C367.77 142.731 367.946 141.901 367.946 140.776C367.946 138.579 367.304 137.48 366.018 137.48ZM374.732 136.4C375.479 136.4 376.074 136.581 376.516 136.944C376.964 137.307 377.287 137.819 377.484 138.48C377.682 139.136 377.78 139.904 377.78 140.784C377.78 141.632 377.66 142.389 377.42 143.056C377.186 143.717 376.828 144.237 376.348 144.616C375.868 144.995 375.263 145.184 374.532 145.184C373.61 145.184 372.868 144.859 372.308 144.208V148.224L370.964 148.392V136.576H372.108L372.22 137.752C372.53 137.32 372.898 136.987 373.324 136.752C373.751 136.517 374.22 136.4 374.732 136.4ZM374.412 137.48C373.948 137.48 373.538 137.621 373.18 137.904C372.823 138.181 372.532 138.491 372.308 138.832V143.008C372.527 143.333 372.802 143.592 373.132 143.784C373.468 143.971 373.836 144.064 374.236 144.064C374.935 144.064 375.46 143.797 375.812 143.264C376.164 142.731 376.34 141.901 376.34 140.776C376.34 138.579 375.698 137.48 374.412 137.48ZM382.638 133.184V142.92C382.638 143.336 382.766 143.632 383.022 143.808C383.283 143.979 383.619 144.064 384.03 144.064C384.281 144.064 384.521 144.037 384.75 143.984C384.985 143.931 385.217 143.859 385.446 143.768L385.806 144.752C385.577 144.864 385.291 144.963 384.95 145.048C384.614 145.139 384.233 145.184 383.806 145.184C383.059 145.184 382.454 144.979 381.99 144.568C381.526 144.152 381.294 143.579 381.294 142.848V134.248H378.71V133.184H382.638ZM390.944 132.632C391.242 132.632 391.48 132.723 391.656 132.904C391.837 133.085 391.928 133.307 391.928 133.568C391.928 133.84 391.837 134.069 391.656 134.256C391.48 134.437 391.242 134.528 390.944 134.528C390.661 134.528 390.429 134.437 390.248 134.256C390.066 134.069 389.976 133.84 389.976 133.568C389.976 133.307 390.066 133.085 390.248 132.904C390.429 132.723 390.661 132.632 390.944 132.632ZM392.016 136.576V143.936H394.392V145H388.072V143.936H390.672V137.64H388.152V136.576H392.016ZM402.178 143.16C402.178 143.501 402.234 143.749 402.346 143.904C402.458 144.059 402.631 144.171 402.866 144.24L402.538 145.184C402.175 145.136 401.858 145.021 401.586 144.84C401.314 144.653 401.116 144.373 400.994 144C400.69 144.389 400.308 144.685 399.85 144.888C399.396 145.085 398.898 145.184 398.354 145.184C397.511 145.184 396.847 144.947 396.362 144.472C395.876 143.997 395.634 143.368 395.634 142.584C395.634 141.715 395.972 141.048 396.65 140.584C397.327 140.12 398.306 139.888 399.586 139.888H400.826V139.184C400.826 138.576 400.647 138.147 400.29 137.896C399.938 137.64 399.447 137.512 398.818 137.512C398.54 137.512 398.215 137.547 397.842 137.616C397.468 137.68 397.063 137.789 396.626 137.944L396.274 136.928C396.786 136.736 397.268 136.6 397.722 136.52C398.18 136.44 398.615 136.4 399.026 136.4C400.071 136.4 400.858 136.645 401.386 137.136C401.914 137.627 402.178 138.288 402.178 139.12V143.16ZM398.698 144.16C399.114 144.16 399.508 144.056 399.882 143.848C400.26 143.635 400.575 143.341 400.826 142.968V140.8H399.61C398.682 140.8 398.026 140.96 397.642 141.28C397.263 141.6 397.074 142.029 397.074 142.568C397.074 143.629 397.615 144.16 398.698 144.16ZM404.539 145V136.576H405.683L405.787 137.744C406.129 137.312 406.555 136.981 407.067 136.752C407.579 136.517 408.081 136.4 408.571 136.4C409.398 136.4 409.998 136.619 410.371 137.056C410.75 137.493 410.939 138.101 410.939 138.88V145H409.595V139.872C409.595 139.296 409.563 138.832 409.499 138.48C409.435 138.128 409.299 137.869 409.091 137.704C408.889 137.539 408.577 137.456 408.155 137.456C407.825 137.456 407.513 137.528 407.219 137.672C406.931 137.816 406.673 137.997 406.443 138.216C406.219 138.429 406.033 138.645 405.883 138.864V145H404.539ZM416.741 144.024C417.162 144.024 417.554 143.957 417.917 143.824C418.285 143.685 418.624 143.507 418.933 143.288L419.589 144.168C419.221 144.483 418.778 144.731 418.261 144.912C417.744 145.093 417.237 145.184 416.741 145.184C415.904 145.184 415.189 145.005 414.597 144.648C414.01 144.285 413.562 143.779 413.253 143.128C412.944 142.472 412.789 141.704 412.789 140.824C412.789 139.981 412.944 139.227 413.253 138.56C413.562 137.893 414.013 137.368 414.605 136.984C415.197 136.595 415.914 136.4 416.757 136.4C417.829 136.4 418.768 136.725 419.573 137.376L418.917 138.272C418.186 137.771 417.461 137.52 416.741 137.52C416.016 137.52 415.418 137.795 414.949 138.344C414.48 138.888 414.245 139.715 414.245 140.824C414.245 141.949 414.48 142.765 414.949 143.272C415.418 143.773 416.016 144.024 416.741 144.024ZM422.383 141.264C422.42 142.24 422.676 142.952 423.151 143.4C423.631 143.843 424.196 144.064 424.847 144.064C425.279 144.064 425.668 144 426.015 143.872C426.361 143.744 426.721 143.555 427.095 143.304L427.727 144.192C427.337 144.501 426.889 144.744 426.383 144.92C425.876 145.096 425.359 145.184 424.831 145.184C424.009 145.184 423.311 145 422.735 144.632C422.164 144.264 421.727 143.752 421.423 143.096C421.124 142.435 420.975 141.669 420.975 140.8C420.975 139.947 421.124 139.189 421.423 138.528C421.727 137.867 422.153 137.347 422.703 136.968C423.257 136.589 423.908 136.4 424.655 136.4C425.716 136.4 426.551 136.768 427.159 137.504C427.772 138.24 428.079 139.248 428.079 140.528C428.079 140.672 428.073 140.808 428.063 140.936C428.057 141.064 428.052 141.173 428.047 141.264H422.383ZM424.671 137.504C424.047 137.504 423.524 137.725 423.103 138.168C422.681 138.611 422.444 139.296 422.391 140.224H426.783C426.767 139.323 426.569 138.645 426.191 138.192C425.812 137.733 425.305 137.504 424.671 137.504ZM436.408 144.576C436.12 144.768 435.771 144.917 435.36 145.024C434.95 145.131 434.547 145.184 434.152 145.184C433.246 145.184 432.547 144.947 432.056 144.472C431.566 143.997 431.32 143.387 431.32 142.64V137.616H429.384V136.576H431.32V134.664L432.664 134.504V136.576H435.576L435.416 137.616H432.664V142.624C432.664 143.093 432.787 143.451 433.032 143.696C433.283 143.941 433.696 144.064 434.272 144.064C434.587 144.064 434.878 144.027 435.144 143.952C435.411 143.877 435.659 143.781 435.888 143.664L436.408 144.576ZM439.458 133.056V137.728C439.789 137.291 440.194 136.96 440.674 136.736C441.16 136.512 441.65 136.4 442.146 136.4C442.968 136.4 443.568 136.619 443.946 137.056C444.325 137.493 444.514 138.101 444.514 138.88V145H443.17V138.912C443.17 138.405 443.053 138.037 442.818 137.808C442.584 137.573 442.216 137.456 441.714 137.456C441.394 137.456 441.09 137.528 440.802 137.672C440.514 137.816 440.256 137.995 440.026 138.208C439.797 138.421 439.608 138.64 439.458 138.864V145H438.114V133.2L439.458 133.056ZM447.564 141.264C447.601 142.24 447.857 142.952 448.332 143.4C448.812 143.843 449.377 144.064 450.028 144.064C450.46 144.064 450.849 144 451.196 143.872C451.543 143.744 451.903 143.555 452.276 143.304L452.908 144.192C452.519 144.501 452.071 144.744 451.564 144.92C451.057 145.096 450.54 145.184 450.012 145.184C449.191 145.184 448.492 145 447.916 144.632C447.345 144.264 446.908 143.752 446.604 143.096C446.305 142.435 446.156 141.669 446.156 140.8C446.156 139.947 446.305 139.189 446.604 138.528C446.908 137.867 447.335 137.347 447.884 136.968C448.439 136.589 449.089 136.4 449.836 136.4C450.897 136.4 451.732 136.768 452.34 137.504C452.953 138.24 453.26 139.248 453.26 140.528C453.26 140.672 453.255 140.808 453.244 140.936C453.239 141.064 453.233 141.173 453.228 141.264H447.564ZM449.852 137.504C449.228 137.504 448.705 137.725 448.284 138.168C447.863 138.611 447.625 139.296 447.572 140.224H451.964C451.948 139.323 451.751 138.645 451.372 138.192C450.993 137.733 450.487 137.504 449.852 137.504ZM460.454 136.4C460.72 136.4 460.979 136.459 461.23 136.576C461.48 136.693 461.686 136.92 461.846 137.256C462.006 137.592 462.086 138.083 462.086 138.728V145H460.838V138.944C460.838 138.416 460.806 138.035 460.742 137.8C460.678 137.565 460.494 137.448 460.19 137.448C459.939 137.448 459.688 137.528 459.438 137.688C459.187 137.843 458.947 138.099 458.718 138.456V145H457.462V138.944C457.462 138.416 457.43 138.035 457.366 137.8C457.302 137.565 457.118 137.448 456.814 137.448C456.552 137.448 456.299 137.528 456.054 137.688C455.808 137.843 455.571 138.099 455.342 138.456V145H454.102V136.576H455.158L455.238 137.552C455.467 137.227 455.723 136.955 456.006 136.736C456.294 136.512 456.648 136.4 457.07 136.4C457.39 136.4 457.691 136.477 457.974 136.632C458.256 136.781 458.464 137.075 458.598 137.512C458.827 137.181 459.086 136.915 459.374 136.712C459.662 136.504 460.022 136.4 460.454 136.4ZM464.352 141.264C464.389 142.24 464.645 142.952 465.12 143.4C465.6 143.843 466.165 144.064 466.816 144.064C467.248 144.064 467.637 144 467.984 143.872C468.33 143.744 468.69 143.555 469.064 143.304L469.696 144.192C469.306 144.501 468.858 144.744 468.352 144.92C467.845 145.096 467.328 145.184 466.8 145.184C465.978 145.184 465.28 145 464.704 144.632C464.133 144.264 463.696 143.752 463.392 143.096C463.093 142.435 462.944 141.669 462.944 140.8C462.944 139.947 463.093 139.189 463.392 138.528C463.696 137.867 464.122 137.347 464.672 136.968C465.226 136.589 465.877 136.4 466.624 136.4C467.685 136.4 468.52 136.768 469.128 137.504C469.741 138.24 470.048 139.248 470.048 140.528C470.048 140.672 470.042 140.808 470.032 140.936C470.026 141.064 470.021 141.173 470.016 141.264H464.352ZM466.64 137.504C466.016 137.504 465.493 137.725 465.072 138.168C464.65 138.611 464.413 139.296 464.36 140.224H468.752C468.736 139.323 468.538 138.645 468.16 138.192C467.781 137.733 467.274 137.504 466.64 137.504Z" fill="#8BC34A"/>
<path d="M227.797 109.984L226.117 121H224.293L223.029 112.688L221.757 121H219.893L218.341 109.984H219.733L220.909 119.472L222.229 111.264H223.933L225.189 119.472L226.509 109.984H227.797ZM231.479 112.4C232.668 112.4 233.567 112.797 234.175 113.592C234.783 114.387 235.087 115.451 235.087 116.784C235.087 117.643 234.948 118.403 234.671 119.064C234.393 119.725 233.985 120.245 233.447 120.624C232.908 120.997 232.247 121.184 231.463 121.184C230.273 121.184 229.372 120.784 228.759 119.984C228.145 119.184 227.839 118.123 227.839 116.8C227.839 115.936 227.977 115.173 228.255 114.512C228.532 113.845 228.94 113.328 229.479 112.96C230.023 112.587 230.689 112.4 231.479 112.4ZM231.479 113.496C230.753 113.496 230.204 113.765 229.831 114.304C229.463 114.843 229.279 115.675 229.279 116.8C229.279 117.915 229.46 118.741 229.823 119.28C230.191 119.813 230.737 120.08 231.463 120.08C232.188 120.08 232.732 119.811 233.095 119.272C233.463 118.733 233.647 117.904 233.647 116.784C233.647 115.664 233.465 114.837 233.103 114.304C232.74 113.765 232.199 113.496 231.479 113.496ZM236.744 121V119.968H238.056V113.608H236.744V112.576H239.08L239.328 114.568C239.654 113.875 240.048 113.339 240.512 112.96C240.976 112.581 241.59 112.392 242.352 112.392C242.587 112.392 242.795 112.411 242.976 112.448C243.163 112.48 243.352 112.523 243.544 112.576L243.352 115.424H242.248V113.632C242.227 113.632 242.203 113.632 242.176 113.632C240.886 113.632 239.96 114.555 239.4 116.4V119.968H241.112V121H236.744ZM246.49 109.016V121H245.146V109.184L246.49 109.016ZM252.114 112.576L248.322 116.368L252.554 121H250.786L246.642 116.4L250.37 112.576H252.114ZM256.316 120.072C256.966 120.072 257.478 119.952 257.852 119.712C258.225 119.472 258.412 119.147 258.412 118.736C258.412 118.485 258.364 118.267 258.268 118.08C258.177 117.893 257.988 117.725 257.7 117.576C257.412 117.421 256.969 117.269 256.372 117.12C255.79 116.976 255.284 116.811 254.852 116.624C254.425 116.432 254.092 116.184 253.852 115.88C253.617 115.576 253.5 115.181 253.5 114.696C253.5 113.987 253.796 113.427 254.388 113.016C254.98 112.605 255.75 112.4 256.7 112.4C257.377 112.4 257.966 112.491 258.468 112.672C258.974 112.853 259.404 113.072 259.756 113.328L259.164 114.24C258.849 114.021 258.497 113.843 258.108 113.704C257.724 113.56 257.26 113.488 256.716 113.488C256.054 113.488 255.585 113.592 255.308 113.8C255.03 114.003 254.892 114.267 254.892 114.592C254.892 114.843 254.958 115.051 255.092 115.216C255.23 115.376 255.462 115.52 255.788 115.648C256.113 115.776 256.561 115.917 257.132 116.072C257.681 116.221 258.161 116.397 258.572 116.6C258.982 116.803 259.3 117.069 259.524 117.4C259.753 117.725 259.868 118.149 259.868 118.672C259.868 119.269 259.697 119.755 259.356 120.128C259.014 120.496 258.572 120.765 258.028 120.936C257.489 121.101 256.918 121.184 256.316 121.184C255.553 121.184 254.902 121.075 254.364 120.856C253.83 120.632 253.382 120.363 253.02 120.048L253.788 119.16C254.118 119.432 254.497 119.653 254.924 119.824C255.356 119.989 255.82 120.072 256.316 120.072ZM265.614 112.4C266.36 112.4 266.955 112.581 267.398 112.944C267.846 113.307 268.168 113.819 268.366 114.48C268.563 115.136 268.662 115.904 268.662 116.784C268.662 117.632 268.542 118.389 268.302 119.056C268.067 119.717 267.71 120.237 267.23 120.616C266.75 120.995 266.144 121.184 265.414 121.184C264.491 121.184 263.75 120.859 263.19 120.208V124.224L261.846 124.392V112.576H262.99L263.102 113.752C263.411 113.32 263.779 112.987 264.206 112.752C264.632 112.517 265.102 112.4 265.614 112.4ZM265.294 113.48C264.83 113.48 264.419 113.621 264.062 113.904C263.704 114.181 263.414 114.491 263.19 114.832V119.008C263.408 119.333 263.683 119.592 264.014 119.784C264.35 119.971 264.718 120.064 265.118 120.064C265.816 120.064 266.342 119.797 266.694 119.264C267.046 118.731 267.222 117.901 267.222 116.776C267.222 114.579 266.579 113.48 265.294 113.48ZM276.271 119.16C276.271 119.501 276.327 119.749 276.439 119.904C276.551 120.059 276.725 120.171 276.959 120.24L276.631 121.184C276.269 121.136 275.951 121.021 275.679 120.84C275.407 120.653 275.21 120.373 275.087 120C274.783 120.389 274.402 120.685 273.943 120.888C273.49 121.085 272.991 121.184 272.447 121.184C271.605 121.184 270.941 120.947 270.455 120.472C269.97 119.997 269.727 119.368 269.727 118.584C269.727 117.715 270.066 117.048 270.743 116.584C271.421 116.12 272.399 115.888 273.679 115.888H274.919V115.184C274.919 114.576 274.741 114.147 274.383 113.896C274.031 113.64 273.541 113.512 272.911 113.512C272.634 113.512 272.309 113.547 271.935 113.616C271.562 113.68 271.157 113.789 270.719 113.944L270.367 112.928C270.879 112.736 271.362 112.6 271.815 112.52C272.274 112.44 272.709 112.4 273.119 112.4C274.165 112.4 274.951 112.645 275.479 113.136C276.007 113.627 276.271 114.288 276.271 115.12V119.16ZM272.791 120.16C273.207 120.16 273.602 120.056 273.975 119.848C274.354 119.635 274.669 119.341 274.919 118.968V116.8H273.703C272.775 116.8 272.119 116.96 271.735 117.28C271.357 117.6 271.167 118.029 271.167 118.568C271.167 119.629 271.709 120.16 272.791 120.16ZM282.441 120.024C282.862 120.024 283.254 119.957 283.617 119.824C283.985 119.685 284.324 119.507 284.633 119.288L285.289 120.168C284.921 120.483 284.478 120.731 283.961 120.912C283.444 121.093 282.937 121.184 282.441 121.184C281.604 121.184 280.889 121.005 280.297 120.648C279.71 120.285 279.262 119.779 278.953 119.128C278.644 118.472 278.489 117.704 278.489 116.824C278.489 115.981 278.644 115.227 278.953 114.56C279.262 113.893 279.713 113.368 280.305 112.984C280.897 112.595 281.614 112.4 282.457 112.4C283.529 112.4 284.468 112.725 285.273 113.376L284.617 114.272C283.886 113.771 283.161 113.52 282.441 113.52C281.716 113.52 281.118 113.795 280.649 114.344C280.18 114.888 279.945 115.715 279.945 116.824C279.945 117.949 280.18 118.765 280.649 119.272C281.118 119.773 281.716 120.024 282.441 120.024ZM288.083 117.264C288.12 118.24 288.376 118.952 288.851 119.4C289.331 119.843 289.896 120.064 290.547 120.064C290.979 120.064 291.368 120 291.715 119.872C292.061 119.744 292.421 119.555 292.795 119.304L293.427 120.192C293.037 120.501 292.589 120.744 292.083 120.92C291.576 121.096 291.059 121.184 290.531 121.184C289.709 121.184 289.011 121 288.435 120.632C287.864 120.264 287.427 119.752 287.123 119.096C286.824 118.435 286.675 117.669 286.675 116.8C286.675 115.947 286.824 115.189 287.123 114.528C287.427 113.867 287.853 113.347 288.403 112.968C288.957 112.589 289.608 112.4 290.355 112.4C291.416 112.4 292.251 112.768 292.859 113.504C293.472 114.24 293.779 115.248 293.779 116.528C293.779 116.672 293.773 116.808 293.763 116.936C293.757 117.064 293.752 117.173 293.747 117.264H288.083ZM290.371 113.504C289.747 113.504 289.224 113.725 288.803 114.168C288.381 114.611 288.144 115.296 288.091 116.224H292.483C292.467 115.323 292.269 114.645 291.891 114.192C291.512 113.733 291.005 113.504 290.371 113.504ZM307.622 120.024C308.044 120.024 308.436 119.957 308.798 119.824C309.166 119.685 309.505 119.507 309.814 119.288L310.47 120.168C310.102 120.483 309.66 120.731 309.142 120.912C308.625 121.093 308.118 121.184 307.622 121.184C306.785 121.184 306.07 121.005 305.478 120.648C304.892 120.285 304.444 119.779 304.134 119.128C303.825 118.472 303.67 117.704 303.67 116.824C303.67 115.981 303.825 115.227 304.134 114.56C304.444 113.893 304.894 113.368 305.486 112.984C306.078 112.595 306.796 112.4 307.638 112.4C308.71 112.4 309.649 112.725 310.454 113.376L309.798 114.272C309.068 113.771 308.342 113.52 307.622 113.52C306.897 113.52 306.3 113.795 305.83 114.344C305.361 114.888 305.126 115.715 305.126 116.824C305.126 117.949 305.361 118.765 305.83 119.272C306.3 119.773 306.897 120.024 307.622 120.024ZM313.552 109.056V113.728C313.883 113.291 314.288 112.96 314.768 112.736C315.253 112.512 315.744 112.4 316.24 112.4C317.061 112.4 317.661 112.619 318.04 113.056C318.419 113.493 318.608 114.101 318.608 114.88V121H317.264V114.912C317.264 114.405 317.147 114.037 316.912 113.808C316.677 113.573 316.309 113.456 315.808 113.456C315.488 113.456 315.184 113.528 314.896 113.672C314.608 113.816 314.349 113.995 314.12 114.208C313.891 114.421 313.701 114.64 313.552 114.864V121H312.208V109.2L313.552 109.056ZM326.634 119.16C326.634 119.501 326.69 119.749 326.802 119.904C326.914 120.059 327.087 120.171 327.322 120.24L326.994 121.184C326.631 121.136 326.314 121.021 326.042 120.84C325.77 120.653 325.572 120.373 325.45 120C325.146 120.389 324.764 120.685 324.306 120.888C323.852 121.085 323.354 121.184 322.81 121.184C321.967 121.184 321.303 120.947 320.818 120.472C320.332 119.997 320.09 119.368 320.09 118.584C320.09 117.715 320.428 117.048 321.106 116.584C321.783 116.12 322.762 115.888 324.042 115.888H325.282V115.184C325.282 114.576 325.103 114.147 324.746 113.896C324.394 113.64 323.903 113.512 323.274 113.512C322.996 113.512 322.671 113.547 322.298 113.616C321.924 113.68 321.519 113.789 321.082 113.944L320.73 112.928C321.242 112.736 321.724 112.6 322.178 112.52C322.636 112.44 323.071 112.4 323.482 112.4C324.527 112.4 325.314 112.645 325.842 113.136C326.37 113.627 326.634 114.288 326.634 115.12V119.16ZM323.154 120.16C323.57 120.16 323.964 120.056 324.338 119.848C324.716 119.635 325.031 119.341 325.282 118.968V116.8H324.066C323.138 116.8 322.482 116.96 322.098 117.28C321.719 117.6 321.53 118.029 321.53 118.568C321.53 119.629 322.071 120.16 323.154 120.16ZM328.996 121V112.576H330.14L330.244 113.744C330.585 113.312 331.012 112.981 331.524 112.752C332.036 112.517 332.537 112.4 333.028 112.4C333.854 112.4 334.454 112.619 334.828 113.056C335.206 113.493 335.396 114.101 335.396 114.88V121H334.052V115.872C334.052 115.296 334.02 114.832 333.956 114.48C333.892 114.128 333.756 113.869 333.548 113.704C333.345 113.539 333.033 113.456 332.612 113.456C332.281 113.456 331.969 113.528 331.676 113.672C331.388 113.816 331.129 113.997 330.9 114.216C330.676 114.429 330.489 114.645 330.34 114.864V121H328.996ZM344.237 111.68L344.653 112.944C344.291 113.056 343.907 113.125 343.501 113.152C343.101 113.179 342.664 113.192 342.189 113.192C343.165 113.64 343.653 114.347 343.653 115.312C343.653 116.144 343.373 116.829 342.813 117.368C342.259 117.907 341.483 118.176 340.485 118.176C340.203 118.176 339.965 118.163 339.773 118.136C339.587 118.109 339.405 118.069 339.229 118.016C339.101 118.107 338.995 118.227 338.909 118.376C338.829 118.52 338.789 118.672 338.789 118.832C338.789 119.035 338.869 119.203 339.029 119.336C339.189 119.469 339.485 119.536 339.917 119.536H341.437C342.003 119.536 342.509 119.637 342.957 119.84C343.405 120.043 343.76 120.317 344.021 120.664C344.283 121.005 344.413 121.392 344.413 121.824C344.413 122.651 344.061 123.285 343.357 123.728C342.659 124.171 341.669 124.392 340.389 124.392C339.493 124.392 338.787 124.299 338.269 124.112C337.752 123.931 337.381 123.651 337.157 123.272C336.939 122.899 336.829 122.427 336.829 121.856H338.045C338.045 122.181 338.109 122.451 338.237 122.664C338.365 122.877 338.597 123.035 338.933 123.136C339.269 123.243 339.752 123.296 340.381 123.296C341.309 123.296 341.987 123.179 342.413 122.944C342.84 122.715 343.053 122.371 343.053 121.912C343.053 121.512 342.872 121.211 342.509 121.008C342.147 120.805 341.693 120.704 341.149 120.704H339.645C338.915 120.704 338.379 120.544 338.037 120.224C337.696 119.904 337.525 119.536 337.525 119.12C337.525 118.544 337.835 118.053 338.453 117.648C337.509 117.147 337.037 116.371 337.037 115.32C337.037 114.749 337.179 114.245 337.461 113.808C337.744 113.365 338.139 113.019 338.645 112.768C339.152 112.517 339.736 112.392 340.397 112.392C341.107 112.392 341.683 112.363 342.125 112.304C342.568 112.245 342.947 112.163 343.261 112.056C343.581 111.949 343.907 111.824 344.237 111.68ZM340.397 113.376C339.72 113.376 339.219 113.56 338.893 113.928C338.573 114.296 338.413 114.76 338.413 115.32C338.413 115.891 338.576 116.36 338.901 116.728C339.232 117.096 339.741 117.28 340.429 117.28C341.021 117.28 341.475 117.107 341.789 116.76C342.104 116.413 342.261 115.931 342.261 115.312C342.261 114.021 341.64 113.376 340.397 113.376ZM346.839 117.264C346.876 118.24 347.132 118.952 347.607 119.4C348.087 119.843 348.652 120.064 349.303 120.064C349.735 120.064 350.124 120 350.471 119.872C350.818 119.744 351.178 119.555 351.551 119.304L352.183 120.192C351.794 120.501 351.346 120.744 350.839 120.92C350.332 121.096 349.815 121.184 349.287 121.184C348.466 121.184 347.767 121 347.191 120.632C346.62 120.264 346.183 119.752 345.879 119.096C345.58 118.435 345.431 117.669 345.431 116.8C345.431 115.947 345.58 115.189 345.879 114.528C346.183 113.867 346.61 113.347 347.159 112.968C347.714 112.589 348.364 112.4 349.111 112.4C350.172 112.4 351.007 112.768 351.615 113.504C352.228 114.24 352.535 115.248 352.535 116.528C352.535 116.672 352.53 116.808 352.519 116.936C352.514 117.064 352.508 117.173 352.503 117.264H346.839ZM349.127 113.504C348.503 113.504 347.98 113.725 347.559 114.168C347.138 114.611 346.9 115.296 346.847 116.224H351.239C351.223 115.323 351.026 114.645 350.647 114.192C350.268 113.733 349.762 113.504 349.127 113.504ZM356.065 114.112C356.065 113.755 356.187 113.451 356.433 113.2C356.683 112.949 356.99 112.824 357.353 112.824C357.726 112.824 358.035 112.949 358.281 113.2C358.531 113.451 358.657 113.755 358.657 114.112C358.657 114.469 358.531 114.776 358.281 115.032C358.035 115.288 357.726 115.416 357.353 115.416C356.99 115.416 356.683 115.288 356.433 115.032C356.187 114.776 356.065 114.469 356.065 114.112ZM356.065 119.88C356.065 119.533 356.187 119.232 356.433 118.976C356.683 118.72 356.99 118.592 357.353 118.592C357.726 118.592 358.035 118.72 358.281 118.976C358.531 119.232 358.657 119.533 358.657 119.88C358.657 120.243 358.531 120.552 358.281 120.808C358.035 121.059 357.726 121.184 357.353 121.184C356.99 121.184 356.683 121.059 356.433 120.808C356.187 120.552 356.065 120.243 356.065 119.88Z" fill="#FFB100"/>
<defs>
<filter id="filter0_d" x="0" y="0" width="589" height="189" filterUnits="userSpaceOnUse" color-interpolation-filters="sRGB">
<feFlood flood-opacity="0" result="BackgroundImageFix"/>
<feColorMatrix in="SourceAlpha" type="matrix" values="0 0 0 0 0 0 0 0 0 0 0 0 0 0 0 0 0 0 127 0"/>
<feOffset dy="3"/>
<feGaussianBlur stdDeviation="4"/>
<feColorMatrix type="matrix" values="0 0 0 0 0 0 0 0 0 0 0 0 0 0 0 0 0 0 0.15 0"/>
<feBlend mode="normal" in2="BackgroundImageFix" result="effect1_dropShadow"/>
<feBlend mode="normal" in="SourceGraphic" in2="effect1_dropShadow" result="shape"/>
</filter>
<clipPath id="clip0">
<rect width="573" height="133" fill="white" transform="translate(8 45)"/>
</clipPath>
</defs>
</svg>
