<svg width="586" height="411" viewBox="0 0 586 411" fill="none" xmlns="http://www.w3.org/2000/svg">
<g filter="url(#filter0_d)">
<path d="M8 9C8 6.79086 9.79086 5 12 5H574C576.209 5 578 6.79086 578 9V396C578 398.209 576.209 400 574 400H12C9.79087 400 8 398.209 8 396V9Z" fill="#FF0000"/>
<rect x="8" y="5" width="570" height="40" fill="#1D2A3D"/>
<circle cx="28" cy="25" r="6" fill="#FF4A4A"/>
<circle cx="48" cy="25" r="6" fill="#FFB83D"/>
<circle cx="68" cy="25" r="6" fill="#00C543"/>
<rect x="8" y="44" width="570" height="1" fill="#122D42"/>
<rect width="570" height="355" transform="translate(8 45)" fill="#25354D"/>
<path d="M41.288 76.592C41.688 76.592 42.0267 76.672 42.304 76.832C42.5867 76.992 42.8373 77.1787 43.056 77.392C43.2747 77.6 43.4853 77.7867 43.688 77.952C43.8907 78.112 44.1147 78.192 44.36 78.192C44.6907 78.192 44.984 78.0613 45.24 77.8C45.5013 77.5387 45.736 77.216 45.944 76.832L46.904 77.328C46.7493 77.632 46.56 77.9413 46.336 78.256C46.112 78.5653 45.8347 78.8267 45.504 79.04C45.1787 79.248 44.7813 79.352 44.312 79.352C43.9387 79.352 43.6133 79.272 43.336 79.112C43.064 78.952 42.816 78.768 42.592 78.56C42.368 78.3467 42.1493 78.16 41.936 78C41.7227 77.8347 41.4907 77.752 41.24 77.752C40.8933 77.752 40.5947 77.8827 40.344 78.144C40.0933 78.4 39.864 78.72 39.656 79.104L38.696 78.632C38.856 78.3173 39.0453 78.0027 39.264 77.688C39.488 77.3733 39.7627 77.112 40.088 76.904C40.4133 76.696 40.8133 76.592 41.288 76.592ZM48.3218 84.648L47.2338 84.168L54.0818 70.048L55.1538 70.576L48.3218 84.648ZM88.6007 74.576L85.5368 83H83.9768L80.9368 74.576H82.3608L84.8008 81.776L87.2088 74.576H88.6007ZM96.6585 82.576C96.3705 82.768 96.0212 82.9173 95.6105 83.024C95.1998 83.1307 94.7972 83.184 94.4025 83.184C93.4958 83.184 92.7972 82.9467 92.3065 82.472C91.8158 81.9973 91.5705 81.3867 91.5705 80.64V75.616H89.6345V74.576H91.5705V72.664L92.9145 72.504V74.576H95.8265L95.6665 75.616H92.9145V80.624C92.9145 81.0933 93.0372 81.4507 93.2825 81.696C93.5332 81.9413 93.9465 82.064 94.5225 82.064C94.8372 82.064 95.1278 82.0267 95.3945 81.952C95.6612 81.8773 95.9092 81.7813 96.1385 81.664L96.6585 82.576ZM99.4202 79.264C99.4576 80.24 99.7136 80.952 100.188 81.4C100.668 81.8427 101.234 82.064 101.884 82.064C102.316 82.064 102.706 82 103.052 81.872C103.399 81.744 103.759 81.5547 104.132 81.304L104.764 82.192C104.375 82.5013 103.927 82.744 103.42 82.92C102.914 83.096 102.396 83.184 101.868 83.184C101.047 83.184 100.348 83 99.7722 82.632C99.2016 82.264 98.7642 81.752 98.4602 81.096C98.1616 80.4347 98.0122 79.6693 98.0122 78.8C98.0122 77.9467 98.1616 77.1893 98.4602 76.528C98.7642 75.8667 99.1909 75.3467 99.7402 74.968C100.295 74.5893 100.946 74.4 101.692 74.4C102.754 74.4 103.588 74.768 104.196 75.504C104.81 76.24 105.116 77.248 105.116 78.528C105.116 78.672 105.111 78.808 105.1 78.936C105.095 79.064 105.09 79.1733 105.084 79.264H99.4202ZM101.708 75.504C101.084 75.504 100.562 75.7253 100.14 76.168C99.7189 76.6107 99.4816 77.296 99.4282 78.224H103.82C103.804 77.3227 103.607 76.6453 103.228 76.192C102.85 75.7333 102.343 75.504 101.708 75.504ZM107.574 83H106.038L109.15 78.552L106.422 74.576H108.014L109.966 77.712L111.942 74.576H113.478L110.758 78.496L113.862 83H112.214L109.91 79.384L107.574 83Z" fill="#FFB100"/>
<path d="M127.314 74.4C128.06 74.4 128.655 74.5813 129.098 74.944C129.546 75.3067 129.868 75.8187 130.066 76.48C130.263 77.136 130.362 77.904 130.362 78.784C130.362 79.632 130.242 80.3893 130.002 81.056C129.767 81.7173 129.41 82.2373 128.93 82.616C128.45 82.9947 127.844 83.184 127.114 83.184C126.191 83.184 125.45 82.8587 124.89 82.208V86.224L123.546 86.392V74.576H124.69L124.802 75.752C125.111 75.32 125.479 74.9867 125.906 74.752C126.332 74.5173 126.802 74.4 127.314 74.4ZM126.994 75.48C126.53 75.48 126.119 75.6213 125.762 75.904C125.404 76.1813 125.114 76.4907 124.89 76.832V81.008C125.108 81.3333 125.383 81.592 125.714 81.784C126.05 81.9707 126.418 82.064 126.818 82.064C127.516 82.064 128.042 81.7973 128.394 81.264C128.746 80.7307 128.922 79.9013 128.922 78.776C128.922 76.5787 128.279 75.48 126.994 75.48ZM135.219 71.184V80.92C135.219 81.336 135.347 81.632 135.603 81.808C135.865 81.9787 136.201 82.064 136.611 82.064C136.862 82.064 137.102 82.0373 137.331 81.984C137.566 81.9307 137.798 81.8587 138.027 81.768L138.387 82.752C138.158 82.864 137.873 82.9627 137.531 83.048C137.195 83.1387 136.814 83.184 136.387 83.184C135.641 83.184 135.035 82.9787 134.571 82.568C134.107 82.152 133.875 81.5787 133.875 80.848V72.248H131.291V71.184H135.219ZM141.677 74.576V80.544C141.677 81.0987 141.792 81.4987 142.021 81.744C142.25 81.9893 142.608 82.112 143.093 82.112C143.557 82.112 143.994 81.9813 144.405 81.72C144.821 81.4533 145.144 81.1387 145.373 80.776V74.576H146.717V83H145.573L145.461 81.864C145.13 82.2907 144.72 82.6187 144.229 82.848C143.744 83.072 143.256 83.184 142.765 83.184C141.949 83.184 141.338 82.968 140.933 82.536C140.533 82.0987 140.333 81.488 140.333 80.704V74.576H141.677ZM155.575 73.68L155.991 74.944C155.628 75.056 155.244 75.1253 154.839 75.152C154.439 75.1787 154.001 75.192 153.527 75.192C154.503 75.64 154.991 76.3467 154.991 77.312C154.991 78.144 154.711 78.8293 154.151 79.368C153.596 79.9067 152.82 80.176 151.823 80.176C151.54 80.176 151.303 80.1627 151.111 80.136C150.924 80.1093 150.743 80.0693 150.567 80.016C150.439 80.1067 150.332 80.2267 150.247 80.376C150.167 80.52 150.127 80.672 150.127 80.832C150.127 81.0347 150.207 81.2027 150.367 81.336C150.527 81.4693 150.823 81.536 151.255 81.536H152.775C153.34 81.536 153.847 81.6373 154.295 81.84C154.743 82.0427 155.097 82.3173 155.359 82.664C155.62 83.0053 155.751 83.392 155.751 83.824C155.751 84.6507 155.399 85.2853 154.695 85.728C153.996 86.1707 153.007 86.392 151.727 86.392C150.831 86.392 150.124 86.2987 149.607 86.112C149.089 85.9307 148.719 85.6507 148.495 85.272C148.276 84.8987 148.167 84.4267 148.167 83.856H149.383C149.383 84.1813 149.447 84.4507 149.575 84.664C149.703 84.8773 149.935 85.0347 150.271 85.136C150.607 85.2427 151.089 85.296 151.719 85.296C152.647 85.296 153.324 85.1787 153.751 84.944C154.177 84.7147 154.391 84.3707 154.391 83.912C154.391 83.512 154.209 83.2107 153.847 83.008C153.484 82.8053 153.031 82.704 152.487 82.704H150.983C150.252 82.704 149.716 82.544 149.375 82.224C149.033 81.904 148.863 81.536 148.863 81.12C148.863 80.544 149.172 80.0533 149.791 79.648C148.847 79.1467 148.375 78.3707 148.375 77.32C148.375 76.7493 148.516 76.2453 148.799 75.808C149.081 75.3653 149.476 75.0187 149.983 74.768C150.489 74.5173 151.073 74.392 151.735 74.392C152.444 74.392 153.02 74.3627 153.463 74.304C153.905 74.2453 154.284 74.1627 154.599 74.056C154.919 73.9493 155.244 73.824 155.575 73.68ZM151.735 75.376C151.057 75.376 150.556 75.56 150.231 75.928C149.911 76.296 149.751 76.76 149.751 77.32C149.751 77.8907 149.913 78.36 150.239 78.728C150.569 79.096 151.079 79.28 151.767 79.28C152.359 79.28 152.812 79.1067 153.127 78.76C153.441 78.4133 153.599 77.9307 153.599 77.312C153.599 76.0213 152.977 75.376 151.735 75.376ZM160.312 70.632C160.611 70.632 160.848 70.7227 161.024 70.904C161.206 71.0853 161.296 71.3067 161.296 71.568C161.296 71.84 161.206 72.0693 161.024 72.256C160.848 72.4373 160.611 72.528 160.312 72.528C160.03 72.528 159.798 72.4373 159.616 72.256C159.435 72.0693 159.344 71.84 159.344 71.568C159.344 71.3067 159.435 71.0853 159.616 70.904C159.798 70.7227 160.03 70.632 160.312 70.632ZM161.384 74.576V81.936H163.76V83H157.44V81.936H160.04V75.64H157.52V74.576H161.384ZM165.514 83V74.576H166.658L166.762 75.744C167.104 75.312 167.53 74.9813 168.042 74.752C168.554 74.5173 169.056 74.4 169.546 74.4C170.373 74.4 170.973 74.6187 171.346 75.056C171.725 75.4933 171.914 76.1013 171.914 76.88V83H170.57V77.872C170.57 77.296 170.538 76.832 170.474 76.48C170.41 76.128 170.274 75.8693 170.066 75.704C169.864 75.5387 169.552 75.456 169.13 75.456C168.8 75.456 168.488 75.528 168.194 75.672C167.906 75.816 167.648 75.9973 167.418 76.216C167.194 76.4293 167.008 76.6453 166.858 76.864V83H165.514ZM176.772 82.072C177.423 82.072 177.935 81.952 178.308 81.712C178.681 81.472 178.868 81.1467 178.868 80.736C178.868 80.4853 178.82 80.2667 178.724 80.08C178.633 79.8933 178.444 79.7253 178.156 79.576C177.868 79.4213 177.425 79.2693 176.828 79.12C176.247 78.976 175.74 78.8107 175.308 78.624C174.881 78.432 174.548 78.184 174.308 77.88C174.073 77.576 173.956 77.1813 173.956 76.696C173.956 75.9867 174.252 75.4267 174.844 75.016C175.436 74.6053 176.207 74.4 177.156 74.4C177.833 74.4 178.423 74.4907 178.924 74.672C179.431 74.8533 179.86 75.072 180.212 75.328L179.62 76.24C179.305 76.0213 178.953 75.8427 178.564 75.704C178.18 75.56 177.716 75.488 177.172 75.488C176.511 75.488 176.041 75.592 175.764 75.8C175.487 76.0027 175.348 76.2667 175.348 76.592C175.348 76.8427 175.415 77.0507 175.548 77.216C175.687 77.376 175.919 77.52 176.244 77.648C176.569 77.776 177.017 77.9173 177.588 78.072C178.137 78.2213 178.617 78.3973 179.028 78.6C179.439 78.8027 179.756 79.0693 179.98 79.4C180.209 79.7253 180.324 80.1493 180.324 80.672C180.324 81.2693 180.153 81.7547 179.812 82.128C179.471 82.496 179.028 82.7653 178.484 82.936C177.945 83.1013 177.375 83.184 176.772 83.184C176.009 83.184 175.359 83.0747 174.82 82.856C174.287 82.632 173.839 82.3627 173.476 82.048L174.244 81.16C174.575 81.432 174.953 81.6533 175.38 81.824C175.812 81.9893 176.276 82.072 176.772 82.072ZM193.559 82.072C194.21 82.072 194.722 81.952 195.095 81.712C195.469 81.472 195.655 81.1467 195.655 80.736C195.655 80.4853 195.607 80.2667 195.511 80.08C195.421 79.8933 195.231 79.7253 194.943 79.576C194.655 79.4213 194.213 79.2693 193.615 79.12C193.034 78.976 192.527 78.8107 192.095 78.624C191.669 78.432 191.335 78.184 191.095 77.88C190.861 77.576 190.743 77.1813 190.743 76.696C190.743 75.9867 191.039 75.4267 191.631 75.016C192.223 74.6053 192.994 74.4 193.943 74.4C194.621 74.4 195.21 74.4907 195.711 74.672C196.218 74.8533 196.647 75.072 196.999 75.328L196.407 76.24C196.093 76.0213 195.741 75.8427 195.351 75.704C194.967 75.56 194.503 75.488 193.959 75.488C193.298 75.488 192.829 75.592 192.551 75.8C192.274 76.0027 192.135 76.2667 192.135 76.592C192.135 76.8427 192.202 77.0507 192.335 77.216C192.474 77.376 192.706 77.52 193.031 77.648C193.357 77.776 193.805 77.9173 194.375 78.072C194.925 78.2213 195.405 78.3973 195.815 78.6C196.226 78.8027 196.543 79.0693 196.767 79.4C196.997 79.7253 197.111 80.1493 197.111 80.672C197.111 81.2693 196.941 81.7547 196.599 82.128C196.258 82.496 195.815 82.7653 195.271 82.936C194.733 83.1013 194.162 83.184 193.559 83.184C192.797 83.184 192.146 83.0747 191.607 82.856C191.074 82.632 190.626 82.3627 190.263 82.048L191.031 81.16C191.362 81.432 191.741 81.6533 192.167 81.824C192.599 81.9893 193.063 82.072 193.559 82.072ZM202.297 74.4C203.487 74.4 204.385 74.7973 204.993 75.592C205.601 76.3867 205.905 77.4507 205.905 78.784C205.905 79.6427 205.767 80.4027 205.489 81.064C205.212 81.7253 204.804 82.2453 204.265 82.624C203.727 82.9973 203.065 83.184 202.281 83.184C201.092 83.184 200.191 82.784 199.577 81.984C198.964 81.184 198.657 80.1227 198.657 78.8C198.657 77.936 198.796 77.1733 199.073 76.512C199.351 75.8453 199.759 75.328 200.297 74.96C200.841 74.5867 201.508 74.4 202.297 74.4ZM202.297 75.496C201.572 75.496 201.023 75.7653 200.649 76.304C200.281 76.8427 200.097 77.6747 200.097 78.8C200.097 79.9147 200.279 80.7413 200.641 81.28C201.009 81.8133 201.556 82.08 202.281 82.08C203.007 82.08 203.551 81.8107 203.913 81.272C204.281 80.7333 204.465 79.904 204.465 78.784C204.465 77.664 204.284 76.8373 203.921 76.304C203.559 75.7653 203.017 75.496 202.297 75.496ZM208.827 74.576V80.544C208.827 81.0987 208.942 81.4987 209.171 81.744C209.4 81.9893 209.758 82.112 210.243 82.112C210.707 82.112 211.144 81.9813 211.555 81.72C211.971 81.4533 212.294 81.1387 212.523 80.776V74.576H213.867V83H212.723L212.611 81.864C212.28 82.2907 211.87 82.6187 211.379 82.848C210.894 83.072 210.406 83.184 209.915 83.184C209.099 83.184 208.488 82.968 208.083 82.536C207.683 82.0987 207.483 81.488 207.483 80.704V74.576H208.827ZM215.957 83V81.968H217.269V75.608H215.957V74.576H218.293L218.541 76.568C218.866 75.8747 219.261 75.3387 219.725 74.96C220.189 74.5813 220.802 74.392 221.565 74.392C221.799 74.392 222.007 74.4107 222.189 74.448C222.375 74.48 222.565 74.5227 222.757 74.576L222.565 77.424H221.461V75.632C221.439 75.632 221.415 75.632 221.389 75.632C220.098 75.632 219.173 76.5547 218.613 78.4V81.968H220.325V83H215.957ZM228.079 82.024C228.5 82.024 228.892 81.9573 229.255 81.824C229.623 81.6853 229.961 81.5067 230.271 81.288L230.927 82.168C230.559 82.4827 230.116 82.7307 229.599 82.912C229.081 83.0933 228.575 83.184 228.079 83.184C227.241 83.184 226.527 83.0053 225.935 82.648C225.348 82.2853 224.9 81.7787 224.591 81.128C224.281 80.472 224.127 79.704 224.127 78.824C224.127 77.9813 224.281 77.2267 224.591 76.56C224.9 75.8933 225.351 75.368 225.943 74.984C226.535 74.5947 227.252 74.4 228.095 74.4C229.167 74.4 230.105 74.7253 230.911 75.376L230.255 76.272C229.524 75.7707 228.799 75.52 228.079 75.52C227.353 75.52 226.756 75.7947 226.287 76.344C225.817 76.888 225.583 77.7147 225.583 78.824C225.583 79.9493 225.817 80.7653 226.287 81.272C226.756 81.7733 227.353 82.024 228.079 82.024ZM233.72 79.264C233.758 80.24 234.014 80.952 234.488 81.4C234.968 81.8427 235.534 82.064 236.184 82.064C236.616 82.064 237.006 82 237.352 81.872C237.699 81.744 238.059 81.5547 238.432 81.304L239.064 82.192C238.675 82.5013 238.227 82.744 237.72 82.92C237.214 83.096 236.696 83.184 236.168 83.184C235.347 83.184 234.648 83 234.072 82.632C233.502 82.264 233.064 81.752 232.76 81.096C232.462 80.4347 232.312 79.6693 232.312 78.8C232.312 77.9467 232.462 77.1893 232.76 76.528C233.064 75.8667 233.491 75.3467 234.04 74.968C234.595 74.5893 235.246 74.4 235.992 74.4C237.054 74.4 237.888 74.768 238.496 75.504C239.11 76.24 239.416 77.248 239.416 78.528C239.416 78.672 239.411 78.808 239.4 78.936C239.395 79.064 239.39 79.1733 239.384 79.264H233.72ZM236.008 75.504C235.384 75.504 234.862 75.7253 234.44 76.168C234.019 76.6107 233.782 77.296 233.728 78.224H238.12C238.104 77.3227 237.907 76.6453 237.528 76.192C237.15 75.7333 236.643 75.504 236.008 75.504ZM51.1938 103.472C50.6391 103.472 50.1751 103.288 49.8018 102.92C49.4338 102.552 49.2498 102.088 49.2498 101.528C49.2498 100.973 49.4338 100.515 49.8018 100.152C50.1751 99.784 50.6391 99.6 51.1938 99.6C51.7484 99.6 52.2098 99.7867 52.5778 100.16C52.9511 100.528 53.1378 100.989 53.1378 101.544C53.1378 102.099 52.9511 102.56 52.5778 102.928C52.2098 103.291 51.7484 103.472 51.1938 103.472ZM51.1938 127.472C50.6391 127.472 50.1751 127.288 49.8018 126.92C49.4338 126.552 49.2498 126.088 49.2498 125.528C49.2498 124.973 49.4338 124.515 49.8018 124.152C50.1751 123.784 50.6391 123.6 51.1938 123.6C51.7484 123.6 52.2098 123.787 52.5778 124.16C52.9511 124.528 53.1378 124.989 53.1378 125.544C53.1378 126.099 52.9511 126.56 52.5778 126.928C52.2098 127.291 51.7484 127.472 51.1938 127.472ZM68.5972 130.024C69.0186 130.024 69.4106 129.957 69.7733 129.824C70.1413 129.685 70.4799 129.507 70.7892 129.288L71.4452 130.168C71.0772 130.483 70.6346 130.731 70.1172 130.912C69.5999 131.093 69.0932 131.184 68.5972 131.184C67.7599 131.184 67.0452 131.005 66.4532 130.648C65.8666 130.285 65.4186 129.779 65.1092 129.128C64.7999 128.472 64.6452 127.704 64.6452 126.824C64.6452 125.981 64.7999 125.227 65.1092 124.56C65.4186 123.893 65.8692 123.368 66.4612 122.984C67.0532 122.595 67.7706 122.4 68.6132 122.4C69.6852 122.4 70.6239 122.725 71.4292 123.376L70.7733 124.272C70.0426 123.771 69.3172 123.52 68.5972 123.52C67.8719 123.52 67.2746 123.795 66.8052 124.344C66.3359 124.888 66.1012 125.715 66.1012 126.824C66.1012 127.949 66.3359 128.765 66.8052 129.272C67.2746 129.773 67.8719 130.024 68.5972 130.024ZM76.391 122.4C77.5803 122.4 78.479 122.797 79.087 123.592C79.695 124.387 79.999 125.451 79.999 126.784C79.999 127.643 79.8603 128.403 79.583 129.064C79.3057 129.725 78.8977 130.245 78.359 130.624C77.8203 130.997 77.159 131.184 76.375 131.184C75.1857 131.184 74.2843 130.784 73.671 129.984C73.0577 129.184 72.751 128.123 72.751 126.8C72.751 125.936 72.8897 125.173 73.167 124.512C73.4443 123.845 73.8523 123.328 74.391 122.96C74.935 122.587 75.6017 122.4 76.391 122.4ZM76.391 123.496C75.6657 123.496 75.1163 123.765 74.743 124.304C74.375 124.843 74.191 125.675 74.191 126.8C74.191 127.915 74.3723 128.741 74.735 129.28C75.103 129.813 75.6497 130.08 76.375 130.08C77.1003 130.08 77.6443 129.811 78.007 129.272C78.375 128.733 78.559 127.904 78.559 126.784C78.559 125.664 78.3777 124.837 78.015 124.304C77.6523 123.765 77.111 123.496 76.391 123.496ZM81.5768 131V122.576H82.7208L82.8248 123.744C83.1661 123.312 83.5928 122.981 84.1048 122.752C84.6168 122.517 85.1181 122.4 85.6088 122.4C86.4354 122.4 87.0354 122.619 87.4088 123.056C87.7874 123.493 87.9768 124.101 87.9768 124.88V131H86.6328V125.872C86.6328 125.296 86.6008 124.832 86.5368 124.48C86.4728 124.128 86.3368 123.869 86.1288 123.704C85.9261 123.539 85.6141 123.456 85.1928 123.456C84.8621 123.456 84.5501 123.528 84.2568 123.672C83.9688 123.816 83.7101 123.997 83.4808 124.216C83.2568 124.429 83.0701 124.645 82.9208 124.864V131H81.5768ZM94.9465 119.016C95.3998 119.016 95.8105 119.056 96.1785 119.136C96.5465 119.216 96.8958 119.328 97.2265 119.472L96.7945 120.472C96.5225 120.355 96.2318 120.267 95.9225 120.208C95.6185 120.149 95.3065 120.12 94.9865 120.12C93.8078 120.12 93.2185 120.587 93.2185 121.52V123.232H96.0745L95.9305 124.288H93.2185V131H91.8745V124.288H89.8665V123.232H91.8745V121.552C91.8745 121.029 92.0078 120.579 92.2745 120.2C92.5465 119.821 92.9145 119.531 93.3785 119.328C93.8425 119.12 94.3652 119.016 94.9465 119.016ZM101.556 118.632C101.855 118.632 102.092 118.723 102.268 118.904C102.45 119.085 102.54 119.307 102.54 119.568C102.54 119.84 102.45 120.069 102.268 120.256C102.092 120.437 101.855 120.528 101.556 120.528C101.274 120.528 101.042 120.437 100.86 120.256C100.679 120.069 100.588 119.84 100.588 119.568C100.588 119.307 100.679 119.085 100.86 118.904C101.042 118.723 101.274 118.632 101.556 118.632ZM102.628 122.576V129.936H105.004V131H98.6842V129.936H101.284V123.64H98.7642V122.576H102.628ZM113.606 121.68L114.022 122.944C113.659 123.056 113.275 123.125 112.87 123.152C112.47 123.179 112.033 123.192 111.558 123.192C112.534 123.64 113.022 124.347 113.022 125.312C113.022 126.144 112.742 126.829 112.182 127.368C111.627 127.907 110.851 128.176 109.854 128.176C109.571 128.176 109.334 128.163 109.142 128.136C108.955 128.109 108.774 128.069 108.598 128.016C108.47 128.107 108.363 128.227 108.278 128.376C108.198 128.52 108.158 128.672 108.158 128.832C108.158 129.035 108.238 129.203 108.398 129.336C108.558 129.469 108.854 129.536 109.286 129.536H110.806C111.371 129.536 111.878 129.637 112.326 129.84C112.774 130.043 113.129 130.317 113.39 130.664C113.651 131.005 113.782 131.392 113.782 131.824C113.782 132.651 113.43 133.285 112.726 133.728C112.027 134.171 111.038 134.392 109.758 134.392C108.862 134.392 108.155 134.299 107.638 134.112C107.121 133.931 106.75 133.651 106.526 133.272C106.307 132.899 106.198 132.427 106.198 131.856H107.414C107.414 132.181 107.478 132.451 107.606 132.664C107.734 132.877 107.966 133.035 108.302 133.136C108.638 133.243 109.121 133.296 109.75 133.296C110.678 133.296 111.355 133.179 111.782 132.944C112.209 132.715 112.422 132.371 112.422 131.912C112.422 131.512 112.241 131.211 111.878 131.008C111.515 130.805 111.062 130.704 110.518 130.704H109.014C108.283 130.704 107.747 130.544 107.406 130.224C107.065 129.904 106.894 129.536 106.894 129.12C106.894 128.544 107.203 128.053 107.822 127.648C106.878 127.147 106.406 126.371 106.406 125.32C106.406 124.749 106.547 124.245 106.83 123.808C107.113 123.365 107.507 123.019 108.014 122.768C108.521 122.517 109.105 122.392 109.766 122.392C110.475 122.392 111.051 122.363 111.494 122.304C111.937 122.245 112.315 122.163 112.63 122.056C112.95 121.949 113.275 121.824 113.606 121.68ZM109.766 123.376C109.089 123.376 108.587 123.56 108.262 123.928C107.942 124.296 107.782 124.76 107.782 125.32C107.782 125.891 107.945 126.36 108.27 126.728C108.601 127.096 109.11 127.28 109.798 127.28C110.39 127.28 110.843 127.107 111.158 126.76C111.473 126.413 111.63 125.931 111.63 125.312C111.63 124.021 111.009 123.376 109.766 123.376ZM51.1938 151.472C50.6391 151.472 50.1751 151.288 49.8018 150.92C49.4338 150.552 49.2498 150.088 49.2498 149.528C49.2498 148.973 49.4338 148.515 49.8018 148.152C50.1751 147.784 50.6391 147.6 51.1938 147.6C51.7484 147.6 52.2098 147.787 52.5778 148.16C52.9511 148.528 53.1378 148.989 53.1378 149.544C53.1378 150.099 52.9511 150.56 52.5778 150.928C52.2098 151.291 51.7484 151.472 51.1938 151.472ZM69.8292 143.016L71.1733 143.184V155H69.9973L69.8692 153.888C69.5546 154.336 69.1919 154.664 68.7812 154.872C68.3759 155.08 67.9412 155.184 67.4772 155.184C66.7466 155.184 66.1439 155 65.6692 154.632C65.1946 154.264 64.8426 153.752 64.6132 153.096C64.3839 152.435 64.2692 151.669 64.2692 150.8C64.2692 149.957 64.3999 149.205 64.6612 148.544C64.9226 147.877 65.2986 147.355 65.7892 146.976C66.2852 146.592 66.8799 146.4 67.5732 146.4C68.5066 146.4 69.2586 146.731 69.8292 147.392V143.016ZM67.9253 147.48C67.2212 147.48 66.6799 147.755 66.3012 148.304C65.9226 148.853 65.7332 149.685 65.7332 150.8C65.7332 152.997 66.4079 154.096 67.7572 154.096C68.2319 154.096 68.6399 153.963 68.9812 153.696C69.3226 153.424 69.6052 153.115 69.8292 152.768V148.56C69.5999 148.219 69.3226 147.955 68.9973 147.768C68.6719 147.576 68.3146 147.48 67.9253 147.48ZM74.239 151.264C74.2763 152.24 74.5323 152.952 75.007 153.4C75.487 153.843 76.0523 154.064 76.703 154.064C77.135 154.064 77.5243 154 77.871 153.872C78.2177 153.744 78.5777 153.555 78.951 153.304L79.583 154.192C79.1937 154.501 78.7457 154.744 78.239 154.92C77.7323 155.096 77.215 155.184 76.687 155.184C75.8657 155.184 75.167 155 74.591 154.632C74.0203 154.264 73.583 153.752 73.279 153.096C72.9803 152.435 72.831 151.669 72.831 150.8C72.831 149.947 72.9803 149.189 73.279 148.528C73.583 147.867 74.0097 147.347 74.559 146.968C75.1137 146.589 75.7643 146.4 76.511 146.4C77.5723 146.4 78.407 146.768 79.015 147.504C79.6283 148.24 79.935 149.248 79.935 150.528C79.935 150.672 79.9297 150.808 79.919 150.936C79.9137 151.064 79.9083 151.173 79.903 151.264H74.239ZM76.527 147.504C75.903 147.504 75.3803 147.725 74.959 148.168C74.5377 148.611 74.3003 149.296 74.247 150.224H78.639C78.623 149.323 78.4257 148.645 78.047 148.192C77.6683 147.733 77.1617 147.504 76.527 147.504ZM82.9208 147.672C83.2248 147.267 83.5794 146.955 83.9848 146.736C84.3954 146.512 84.8408 146.4 85.3208 146.4C86.0728 146.4 86.6808 146.581 87.1448 146.944C87.6088 147.307 87.9474 147.819 88.1608 148.48C88.3741 149.136 88.4808 149.904 88.4808 150.784C88.4808 151.632 88.3528 152.389 88.0968 153.056C87.8461 153.717 87.4728 154.237 86.9768 154.616C86.4808 154.995 85.8701 155.184 85.1448 155.184C84.1688 155.184 83.4034 154.832 82.8488 154.128L82.7528 155H81.5768V143.184L82.9208 143.016V147.672ZM84.8248 154.096C85.5288 154.096 86.0701 153.824 86.4488 153.28C86.8274 152.736 87.0168 151.901 87.0168 150.776C87.0168 148.579 86.3554 147.48 85.0328 147.48C84.5634 147.48 84.1501 147.621 83.7928 147.904C83.4354 148.181 83.1448 148.491 82.9208 148.832V153.008C83.1394 153.344 83.4141 153.611 83.7448 153.808C84.0808 154 84.4408 154.096 84.8248 154.096ZM91.3145 146.576V152.544C91.3145 153.099 91.4292 153.499 91.6585 153.744C91.8878 153.989 92.2452 154.112 92.7305 154.112C93.1945 154.112 93.6318 153.981 94.0425 153.72C94.4585 153.453 94.7812 153.139 95.0105 152.776V146.576H96.3545V155H95.2105L95.0985 153.864C94.7678 154.291 94.3572 154.619 93.8665 154.848C93.3812 155.072 92.8932 155.184 92.4025 155.184C91.5865 155.184 90.9758 154.968 90.5705 154.536C90.1705 154.099 89.9705 153.488 89.9705 152.704V146.576H91.3145ZM105.212 145.68L105.628 146.944C105.266 147.056 104.882 147.125 104.476 147.152C104.076 147.179 103.639 147.192 103.164 147.192C104.14 147.64 104.628 148.347 104.628 149.312C104.628 150.144 104.348 150.829 103.788 151.368C103.234 151.907 102.458 152.176 101.46 152.176C101.178 152.176 100.94 152.163 100.748 152.136C100.562 152.109 100.38 152.069 100.204 152.016C100.076 152.107 99.9696 152.227 99.8842 152.376C99.8042 152.52 99.7642 152.672 99.7642 152.832C99.7642 153.035 99.8442 153.203 100.004 153.336C100.164 153.469 100.46 153.536 100.892 153.536H102.412C102.978 153.536 103.484 153.637 103.932 153.84C104.38 154.043 104.735 154.317 104.996 154.664C105.258 155.005 105.388 155.392 105.388 155.824C105.388 156.651 105.036 157.285 104.332 157.728C103.634 158.171 102.644 158.392 101.364 158.392C100.468 158.392 99.7616 158.299 99.2442 158.112C98.7269 157.931 98.3562 157.651 98.1322 157.272C97.9136 156.899 97.8042 156.427 97.8042 155.856H99.0202C99.0202 156.181 99.0842 156.451 99.2122 156.664C99.3402 156.877 99.5722 157.035 99.9082 157.136C100.244 157.243 100.727 157.296 101.356 157.296C102.284 157.296 102.962 157.179 103.388 156.944C103.815 156.715 104.028 156.371 104.028 155.912C104.028 155.512 103.847 155.211 103.484 155.008C103.122 154.805 102.668 154.704 102.124 154.704H100.62C99.8896 154.704 99.3536 154.544 99.0122 154.224C98.6709 153.904 98.5002 153.536 98.5002 153.12C98.5002 152.544 98.8096 152.053 99.4282 151.648C98.4842 151.147 98.0122 150.371 98.0122 149.32C98.0122 148.749 98.1536 148.245 98.4362 147.808C98.7189 147.365 99.1136 147.019 99.6202 146.768C100.127 146.517 100.711 146.392 101.372 146.392C102.082 146.392 102.658 146.363 103.1 146.304C103.543 146.245 103.922 146.163 104.236 146.056C104.556 145.949 104.882 145.824 105.212 145.68ZM101.372 147.376C100.695 147.376 100.194 147.56 99.8682 147.928C99.5482 148.296 99.3882 148.76 99.3882 149.32C99.3882 149.891 99.5509 150.36 99.8762 150.728C100.207 151.096 100.716 151.28 101.404 151.28C101.996 151.28 102.45 151.107 102.764 150.76C103.079 150.413 103.236 149.931 103.236 149.312C103.236 148.021 102.615 147.376 101.372 147.376ZM51.1938 175.472C50.6391 175.472 50.1751 175.288 49.8018 174.92C49.4338 174.552 49.2498 174.088 49.2498 173.528C49.2498 172.973 49.4338 172.515 49.8018 172.152C50.1751 171.784 50.6391 171.6 51.1938 171.6C51.7484 171.6 52.2098 171.787 52.5778 172.16C52.9511 172.528 53.1378 172.989 53.1378 173.544C53.1378 174.099 52.9511 174.56 52.5778 174.928C52.2098 175.291 51.7484 175.472 51.1938 175.472ZM67.9812 166.632C68.2799 166.632 68.5172 166.723 68.6932 166.904C68.8746 167.085 68.9653 167.307 68.9653 167.568C68.9653 167.84 68.8746 168.069 68.6932 168.256C68.5172 168.437 68.2799 168.528 67.9812 168.528C67.6986 168.528 67.4666 168.437 67.2852 168.256C67.1039 168.069 67.0132 167.84 67.0132 167.568C67.0132 167.307 67.1039 167.085 67.2852 166.904C67.4666 166.723 67.6986 166.632 67.9812 166.632ZM69.0532 170.576V177.936H71.4292V179H65.1092V177.936H67.7092V171.64H65.1892V170.576H69.0532ZM73.183 179V170.576H74.327L74.431 171.744C74.7723 171.312 75.199 170.981 75.711 170.752C76.223 170.517 76.7243 170.4 77.215 170.4C78.0417 170.4 78.6417 170.619 79.015 171.056C79.3937 171.493 79.583 172.101 79.583 172.88V179H78.239V173.872C78.239 173.296 78.207 172.832 78.143 172.48C78.079 172.128 77.943 171.869 77.735 171.704C77.5323 171.539 77.2203 171.456 76.799 171.456C76.4683 171.456 76.1563 171.528 75.863 171.672C75.575 171.816 75.3163 171.997 75.087 172.216C74.863 172.429 74.6763 172.645 74.527 172.864V179H73.183ZM86.5528 167.016C87.0061 167.016 87.4168 167.056 87.7848 167.136C88.1528 167.216 88.5021 167.328 88.8328 167.472L88.4008 168.472C88.1288 168.355 87.8381 168.267 87.5288 168.208C87.2248 168.149 86.9128 168.12 86.5928 168.12C85.4141 168.12 84.8248 168.587 84.8248 169.52V171.232H87.6808L87.5368 172.288H84.8248V179H83.4808V172.288H81.4728V171.232H83.4808V169.552C83.4808 169.029 83.6141 168.579 83.8808 168.2C84.1528 167.821 84.5208 167.531 84.9848 167.328C85.4488 167.12 85.9714 167.016 86.5528 167.016ZM90.0505 179V177.968H91.3625V171.608H90.0505V170.576H92.3865L92.6345 172.568C92.9598 171.875 93.3545 171.339 93.8185 170.96C94.2825 170.581 94.8958 170.392 95.6585 170.392C95.8932 170.392 96.1012 170.411 96.2825 170.448C96.4692 170.48 96.6585 170.523 96.8505 170.576L96.6585 173.424H95.5545V171.632C95.5332 171.632 95.5092 171.632 95.4825 171.632C94.1918 171.632 93.2665 172.555 92.7065 174.4V177.968H94.4185V179H90.0505ZM104.396 177.16C104.396 177.501 104.452 177.749 104.564 177.904C104.676 178.059 104.85 178.171 105.084 178.24L104.756 179.184C104.394 179.136 104.076 179.021 103.804 178.84C103.532 178.653 103.335 178.373 103.212 178C102.908 178.389 102.527 178.685 102.068 178.888C101.615 179.085 101.116 179.184 100.572 179.184C99.7296 179.184 99.0656 178.947 98.5802 178.472C98.0949 177.997 97.8522 177.368 97.8522 176.584C97.8522 175.715 98.1909 175.048 98.8682 174.584C99.5456 174.12 100.524 173.888 101.804 173.888H103.044V173.184C103.044 172.576 102.866 172.147 102.508 171.896C102.156 171.64 101.666 171.512 101.036 171.512C100.759 171.512 100.434 171.547 100.06 171.616C99.6869 171.68 99.2816 171.789 98.8442 171.944L98.4922 170.928C99.0042 170.736 99.4869 170.6 99.9402 170.52C100.399 170.44 100.834 170.4 101.244 170.4C102.29 170.4 103.076 170.645 103.604 171.136C104.132 171.627 104.396 172.288 104.396 173.12V177.16ZM100.916 178.16C101.332 178.16 101.727 178.056 102.1 177.848C102.479 177.635 102.794 177.341 103.044 176.968V174.8H101.828C100.9 174.8 100.244 174.96 99.8602 175.28C99.4816 175.6 99.2922 176.029 99.2922 176.568C99.2922 177.629 99.8336 178.16 100.916 178.16ZM51.1938 199.472C50.6391 199.472 50.1751 199.288 49.8018 198.92C49.4338 198.552 49.2498 198.088 49.2498 197.528C49.2498 196.973 49.4338 196.515 49.8018 196.152C50.1751 195.784 50.6391 195.6 51.1938 195.6C51.7484 195.6 52.2098 195.787 52.5778 196.16C52.9511 196.528 53.1378 196.989 53.1378 197.544C53.1378 198.099 52.9511 198.56 52.5778 198.928C52.2098 199.291 51.7484 199.472 51.1938 199.472ZM68.0692 191.184V200.92C68.0692 201.336 68.1972 201.632 68.4532 201.808C68.7146 201.979 69.0506 202.064 69.4612 202.064C69.7119 202.064 69.9519 202.037 70.1813 201.984C70.4159 201.931 70.6479 201.859 70.8773 201.768L71.2373 202.752C71.0079 202.864 70.7226 202.963 70.3812 203.048C70.0452 203.139 69.6639 203.184 69.2372 203.184C68.4906 203.184 67.8852 202.979 67.4212 202.568C66.9572 202.152 66.7252 201.579 66.7252 200.848V192.248H64.1412V191.184H68.0692ZM76.375 190.632C76.6737 190.632 76.911 190.723 77.087 190.904C77.2683 191.085 77.359 191.307 77.359 191.568C77.359 191.84 77.2683 192.069 77.087 192.256C76.911 192.437 76.6737 192.528 76.375 192.528C76.0923 192.528 75.8603 192.437 75.679 192.256C75.4977 192.069 75.407 191.84 75.407 191.568C75.407 191.307 75.4977 191.085 75.679 190.904C75.8603 190.723 76.0923 190.632 76.375 190.632ZM77.447 194.576V201.936H79.823V203H73.503V201.936H76.103V195.64H73.583V194.576H77.447ZM88.4248 193.68L88.8408 194.944C88.4781 195.056 88.0941 195.125 87.6888 195.152C87.2888 195.179 86.8514 195.192 86.3768 195.192C87.3528 195.64 87.8408 196.347 87.8408 197.312C87.8408 198.144 87.5608 198.829 87.0008 199.368C86.4461 199.907 85.6701 200.176 84.6727 200.176C84.3901 200.176 84.1528 200.163 83.9608 200.136C83.7741 200.109 83.5928 200.069 83.4168 200.016C83.2888 200.107 83.1821 200.227 83.0968 200.376C83.0168 200.52 82.9768 200.672 82.9768 200.832C82.9768 201.035 83.0568 201.203 83.2168 201.336C83.3768 201.469 83.6728 201.536 84.1048 201.536H85.6248C86.1901 201.536 86.6968 201.637 87.1448 201.84C87.5928 202.043 87.9474 202.317 88.2088 202.664C88.4701 203.005 88.6007 203.392 88.6007 203.824C88.6007 204.651 88.2488 205.285 87.5448 205.728C86.8461 206.171 85.8568 206.392 84.5768 206.392C83.6808 206.392 82.9741 206.299 82.4568 206.112C81.9394 205.931 81.5688 205.651 81.3448 205.272C81.1261 204.899 81.0168 204.427 81.0168 203.856H82.2328C82.2328 204.181 82.2968 204.451 82.4248 204.664C82.5528 204.877 82.7848 205.035 83.1208 205.136C83.4568 205.243 83.9394 205.296 84.5688 205.296C85.4968 205.296 86.1741 205.179 86.6008 204.944C87.0274 204.715 87.2408 204.371 87.2408 203.912C87.2408 203.512 87.0594 203.211 86.6968 203.008C86.3341 202.805 85.8808 202.704 85.3368 202.704H83.8328C83.1021 202.704 82.5661 202.544 82.2248 202.224C81.8834 201.904 81.7128 201.536 81.7128 201.12C81.7128 200.544 82.0221 200.053 82.6408 199.648C81.6968 199.147 81.2248 198.371 81.2248 197.32C81.2248 196.749 81.3661 196.245 81.6488 195.808C81.9314 195.365 82.3261 195.019 82.8328 194.768C83.3394 194.517 83.9234 194.392 84.5848 194.392C85.2941 194.392 85.8701 194.363 86.3128 194.304C86.7554 194.245 87.1341 194.163 87.4488 194.056C87.7688 193.949 88.0941 193.824 88.4248 193.68ZM84.5848 195.376C83.9074 195.376 83.4061 195.56 83.0808 195.928C82.7608 196.296 82.6008 196.76 82.6008 197.32C82.6008 197.891 82.7634 198.36 83.0888 198.728C83.4194 199.096 83.9288 199.28 84.6168 199.28C85.2088 199.28 85.6621 199.107 85.9768 198.76C86.2914 198.413 86.4488 197.931 86.4488 197.312C86.4488 196.021 85.8274 195.376 84.5848 195.376ZM91.3145 191.056V195.728C91.6452 195.291 92.0505 194.96 92.5305 194.736C93.0158 194.512 93.5065 194.4 94.0025 194.4C94.8238 194.4 95.4238 194.619 95.8025 195.056C96.1812 195.493 96.3705 196.101 96.3705 196.88V203H95.0265V196.912C95.0265 196.405 94.9092 196.037 94.6745 195.808C94.4398 195.573 94.0718 195.456 93.5705 195.456C93.2505 195.456 92.9465 195.528 92.6585 195.672C92.3705 195.816 92.1118 195.995 91.8825 196.208C91.6532 196.421 91.4638 196.64 91.3145 196.864V203H89.9705V191.2L91.3145 191.056ZM105.052 202.576C104.764 202.768 104.415 202.917 104.004 203.024C103.594 203.131 103.191 203.184 102.796 203.184C101.89 203.184 101.191 202.947 100.7 202.472C100.21 201.997 99.9642 201.387 99.9642 200.64V195.616H98.0282V194.576H99.9642V192.664L101.308 192.504V194.576H104.22L104.06 195.616H101.308V200.624C101.308 201.093 101.431 201.451 101.676 201.696C101.927 201.941 102.34 202.064 102.916 202.064C103.231 202.064 103.522 202.027 103.788 201.952C104.055 201.877 104.303 201.781 104.532 201.664L105.052 202.576ZM108.102 191.056V195.728C108.433 195.291 108.838 194.96 109.318 194.736C109.803 194.512 110.294 194.4 110.79 194.4C111.611 194.4 112.211 194.619 112.59 195.056C112.969 195.493 113.158 196.101 113.158 196.88V203H111.814V196.912C111.814 196.405 111.697 196.037 111.462 195.808C111.227 195.573 110.859 195.456 110.358 195.456C110.038 195.456 109.734 195.528 109.446 195.672C109.158 195.816 108.899 195.995 108.67 196.208C108.441 196.421 108.251 196.64 108.102 196.864V203H106.758V191.2L108.102 191.056ZM118.36 194.4C119.549 194.4 120.448 194.797 121.056 195.592C121.664 196.387 121.968 197.451 121.968 198.784C121.968 199.643 121.829 200.403 121.552 201.064C121.274 201.725 120.866 202.245 120.328 202.624C119.789 202.997 119.128 203.184 118.344 203.184C117.154 203.184 116.253 202.784 115.64 201.984C115.026 201.184 114.72 200.123 114.72 198.8C114.72 197.936 114.858 197.173 115.136 196.512C115.413 195.845 115.821 195.328 116.36 194.96C116.904 194.587 117.57 194.4 118.36 194.4ZM118.36 195.496C117.634 195.496 117.085 195.765 116.712 196.304C116.344 196.843 116.16 197.675 116.16 198.8C116.16 199.915 116.341 200.741 116.704 201.28C117.072 201.813 117.618 202.08 118.344 202.08C119.069 202.08 119.613 201.811 119.976 201.272C120.344 200.733 120.528 199.904 120.528 198.784C120.528 197.664 120.346 196.837 119.984 196.304C119.621 195.765 119.08 195.496 118.36 195.496ZM124.89 194.576V200.544C124.89 201.099 125.004 201.499 125.234 201.744C125.463 201.989 125.82 202.112 126.306 202.112C126.77 202.112 127.207 201.981 127.618 201.72C128.034 201.453 128.356 201.139 128.586 200.776V194.576H129.93V203H128.786L128.674 201.864C128.343 202.291 127.932 202.619 127.442 202.848C126.956 203.072 126.468 203.184 125.977 203.184C125.162 203.184 124.551 202.968 124.146 202.536C123.746 202.099 123.546 201.488 123.546 200.704V194.576H124.89ZM134.803 202.072C135.454 202.072 135.966 201.952 136.339 201.712C136.713 201.472 136.899 201.147 136.899 200.736C136.899 200.485 136.851 200.267 136.755 200.08C136.665 199.893 136.475 199.725 136.187 199.576C135.899 199.421 135.457 199.269 134.859 199.12C134.278 198.976 133.771 198.811 133.339 198.624C132.913 198.432 132.579 198.184 132.339 197.88C132.105 197.576 131.987 197.181 131.987 196.696C131.987 195.987 132.283 195.427 132.875 195.016C133.467 194.605 134.238 194.4 135.187 194.4C135.865 194.4 136.454 194.491 136.955 194.672C137.462 194.853 137.891 195.072 138.243 195.328L137.651 196.24C137.337 196.021 136.985 195.843 136.595 195.704C136.211 195.56 135.747 195.488 135.203 195.488C134.542 195.488 134.073 195.592 133.795 195.8C133.518 196.003 133.379 196.267 133.379 196.592C133.379 196.843 133.446 197.051 133.579 197.216C133.718 197.376 133.95 197.52 134.275 197.648C134.601 197.776 135.049 197.917 135.619 198.072C136.169 198.221 136.649 198.397 137.059 198.6C137.47 198.803 137.787 199.069 138.011 199.4C138.241 199.725 138.355 200.149 138.355 200.672C138.355 201.269 138.185 201.755 137.843 202.128C137.502 202.496 137.059 202.765 136.515 202.936C135.977 203.101 135.406 203.184 134.803 203.184C134.041 203.184 133.39 203.075 132.851 202.856C132.318 202.632 131.87 202.363 131.507 202.048L132.275 201.16C132.606 201.432 132.985 201.653 133.411 201.824C133.843 201.989 134.307 202.072 134.803 202.072ZM141.389 199.264C141.426 200.24 141.682 200.952 142.157 201.4C142.637 201.843 143.202 202.064 143.853 202.064C144.285 202.064 144.674 202 145.021 201.872C145.368 201.744 145.728 201.555 146.101 201.304L146.733 202.192C146.344 202.501 145.896 202.744 145.389 202.92C144.882 203.096 144.365 203.184 143.837 203.184C143.016 203.184 142.317 203 141.741 202.632C141.17 202.264 140.733 201.752 140.429 201.096C140.13 200.435 139.981 199.669 139.981 198.8C139.981 197.947 140.13 197.189 140.429 196.528C140.733 195.867 141.16 195.347 141.709 194.968C142.264 194.589 142.914 194.4 143.661 194.4C144.722 194.4 145.557 194.768 146.165 195.504C146.778 196.24 147.085 197.248 147.085 198.528C147.085 198.672 147.08 198.808 147.069 198.936C147.064 199.064 147.058 199.173 147.053 199.264H141.389ZM143.677 195.504C143.053 195.504 142.53 195.725 142.109 196.168C141.688 196.611 141.45 197.296 141.397 198.224H145.789C145.773 197.323 145.576 196.645 145.197 196.192C144.818 195.733 144.312 195.504 143.677 195.504ZM51.1938 223.472C50.6391 223.472 50.1751 223.288 49.8018 222.92C49.4338 222.552 49.2498 222.088 49.2498 221.528C49.2498 220.973 49.4338 220.515 49.8018 220.152C50.1751 219.784 50.6391 219.6 51.1938 219.6C51.7484 219.6 52.2098 219.787 52.5778 220.16C52.9511 220.528 53.1378 220.989 53.1378 221.544C53.1378 222.099 52.9511 222.56 52.5778 222.928C52.2098 223.291 51.7484 223.472 51.1938 223.472ZM51.1938 247.472C50.6391 247.472 50.1751 247.288 49.8018 246.92C49.4338 246.552 49.2498 246.088 49.2498 245.528C49.2498 244.973 49.4338 244.515 49.8018 244.152C50.1751 243.784 50.6391 243.6 51.1938 243.6C51.7484 243.6 52.2098 243.787 52.5778 244.16C52.9511 244.528 53.1378 244.989 53.1378 245.544C53.1378 246.099 52.9511 246.56 52.5778 246.928C52.2098 247.291 51.7484 247.472 51.1938 247.472ZM64.8692 251V249.968H66.1812V243.608H64.8692V242.576H67.2052L67.4532 244.568C67.7786 243.875 68.1732 243.339 68.6372 242.96C69.1013 242.581 69.7146 242.392 70.4773 242.392C70.7119 242.392 70.9199 242.411 71.1013 242.448C71.2879 242.48 71.4773 242.523 71.6693 242.576L71.4773 245.424H70.3733V243.632C70.3519 243.632 70.3279 243.632 70.3012 243.632C69.0106 243.632 68.0852 244.555 67.5252 246.4V249.968H69.2372V251H64.8692ZM74.239 247.264C74.2763 248.24 74.5323 248.952 75.007 249.4C75.487 249.843 76.0523 250.064 76.703 250.064C77.135 250.064 77.5243 250 77.871 249.872C78.2177 249.744 78.5777 249.555 78.951 249.304L79.583 250.192C79.1937 250.501 78.7457 250.744 78.239 250.92C77.7323 251.096 77.215 251.184 76.687 251.184C75.8657 251.184 75.167 251 74.591 250.632C74.0203 250.264 73.583 249.752 73.279 249.096C72.9803 248.435 72.831 247.669 72.831 246.8C72.831 245.947 72.9803 245.189 73.279 244.528C73.583 243.867 74.0097 243.347 74.559 242.968C75.1137 242.589 75.7643 242.4 76.511 242.4C77.5723 242.4 78.407 242.768 79.015 243.504C79.6283 244.24 79.935 245.248 79.935 246.528C79.935 246.672 79.9297 246.808 79.919 246.936C79.9137 247.064 79.9083 247.173 79.903 247.264H74.239ZM76.527 243.504C75.903 243.504 75.3803 243.725 74.959 244.168C74.5377 244.611 74.3003 245.296 74.247 246.224H78.639C78.623 245.323 78.4257 244.645 78.047 244.192C77.6683 243.733 77.1617 243.504 76.527 243.504ZM86.6168 239.016L87.9608 239.184V251H86.7848L86.6568 249.888C86.3421 250.336 85.9794 250.664 85.5688 250.872C85.1634 251.08 84.7288 251.184 84.2648 251.184C83.5341 251.184 82.9314 251 82.4568 250.632C81.9821 250.264 81.6301 249.752 81.4008 249.096C81.1714 248.435 81.0568 247.669 81.0568 246.8C81.0568 245.957 81.1874 245.205 81.4488 244.544C81.7101 243.877 82.0861 243.355 82.5768 242.976C83.0728 242.592 83.6674 242.4 84.3608 242.4C85.2941 242.4 86.0461 242.731 86.6168 243.392V239.016ZM84.7128 243.48C84.0088 243.48 83.4674 243.755 83.0888 244.304C82.7101 244.853 82.5208 245.685 82.5208 246.8C82.5208 248.997 83.1954 250.096 84.5448 250.096C85.0194 250.096 85.4274 249.963 85.7688 249.696C86.1101 249.424 86.3928 249.115 86.6168 248.768V244.56C86.3874 244.219 86.1101 243.955 85.7848 243.768C85.4594 243.576 85.1021 243.48 84.7128 243.48ZM93.1625 238.632C93.4612 238.632 93.6985 238.723 93.8745 238.904C94.0558 239.085 94.1465 239.307 94.1465 239.568C94.1465 239.84 94.0558 240.069 93.8745 240.256C93.6985 240.437 93.4612 240.528 93.1625 240.528C92.8798 240.528 92.6478 240.437 92.4665 240.256C92.2852 240.069 92.1945 239.84 92.1945 239.568C92.1945 239.307 92.2852 239.085 92.4665 238.904C92.6478 238.723 92.8798 238.632 93.1625 238.632ZM94.2345 242.576V249.936H96.6105V251H90.2905V249.936H92.8905V243.64H90.3705V242.576H94.2345ZM98.4442 251V249.968H99.7562V243.608H98.4442V242.576H100.78L101.028 244.568C101.354 243.875 101.748 243.339 102.212 242.96C102.676 242.581 103.29 242.392 104.052 242.392C104.287 242.392 104.495 242.411 104.676 242.448C104.863 242.48 105.052 242.523 105.244 242.576L105.052 245.424H103.948V243.632C103.927 243.632 103.903 243.632 103.876 243.632C102.586 243.632 101.66 244.555 101.1 246.4V249.968H102.812V251H98.4442ZM107.814 247.264C107.851 248.24 108.107 248.952 108.582 249.4C109.062 249.843 109.627 250.064 110.278 250.064C110.71 250.064 111.099 250 111.446 249.872C111.793 249.744 112.153 249.555 112.526 249.304L113.158 250.192C112.769 250.501 112.321 250.744 111.814 250.92C111.307 251.096 110.79 251.184 110.262 251.184C109.441 251.184 108.742 251 108.166 250.632C107.595 250.264 107.158 249.752 106.854 249.096C106.555 248.435 106.406 247.669 106.406 246.8C106.406 245.947 106.555 245.189 106.854 244.528C107.158 243.867 107.585 243.347 108.134 242.968C108.689 242.589 109.339 242.4 110.086 242.4C111.147 242.4 111.982 242.768 112.59 243.504C113.203 244.24 113.51 245.248 113.51 246.528C113.51 246.672 113.505 246.808 113.494 246.936C113.489 247.064 113.483 247.173 113.478 247.264H107.814ZM110.102 243.504C109.478 243.504 108.955 243.725 108.534 244.168C108.113 244.611 107.875 245.296 107.822 246.224H112.214C112.198 245.323 112.001 244.645 111.622 244.192C111.243 243.733 110.737 243.504 110.102 243.504ZM118.96 250.024C119.381 250.024 119.773 249.957 120.136 249.824C120.504 249.685 120.842 249.507 121.152 249.288L121.808 250.168C121.44 250.483 120.997 250.731 120.48 250.912C119.962 251.093 119.456 251.184 118.96 251.184C118.122 251.184 117.408 251.005 116.816 250.648C116.229 250.285 115.781 249.779 115.472 249.128C115.162 248.472 115.008 247.704 115.008 246.824C115.008 245.981 115.162 245.227 115.472 244.56C115.781 243.893 116.232 243.368 116.824 242.984C117.416 242.595 118.133 242.4 118.976 242.4C120.048 242.4 120.986 242.725 121.792 243.376L121.136 244.272C120.405 243.771 119.68 243.52 118.96 243.52C118.234 243.52 117.637 243.795 117.168 244.344C116.698 244.888 116.464 245.715 116.464 246.824C116.464 247.949 116.698 248.765 117.168 249.272C117.637 249.773 118.234 250.024 118.96 250.024ZM130.234 250.576C129.946 250.768 129.596 250.917 129.186 251.024C128.775 251.131 128.372 251.184 127.978 251.184C127.071 251.184 126.372 250.947 125.882 250.472C125.391 249.997 125.146 249.387 125.146 248.64V243.616H123.21V242.576H125.146V240.664L126.49 240.504V242.576H129.402L129.242 243.616H126.49V248.624C126.49 249.093 126.612 249.451 126.858 249.696C127.108 249.941 127.522 250.064 128.098 250.064C128.412 250.064 128.703 250.027 128.97 249.952C129.236 249.877 129.484 249.781 129.714 249.664L130.234 250.576ZM134.803 250.072C135.454 250.072 135.966 249.952 136.339 249.712C136.713 249.472 136.899 249.147 136.899 248.736C136.899 248.485 136.851 248.267 136.755 248.08C136.665 247.893 136.475 247.725 136.187 247.576C135.899 247.421 135.457 247.269 134.859 247.12C134.278 246.976 133.771 246.811 133.339 246.624C132.913 246.432 132.579 246.184 132.339 245.88C132.105 245.576 131.987 245.181 131.987 244.696C131.987 243.987 132.283 243.427 132.875 243.016C133.467 242.605 134.238 242.4 135.187 242.4C135.865 242.4 136.454 242.491 136.955 242.672C137.462 242.853 137.891 243.072 138.243 243.328L137.651 244.24C137.337 244.021 136.985 243.843 136.595 243.704C136.211 243.56 135.747 243.488 135.203 243.488C134.542 243.488 134.073 243.592 133.795 243.8C133.518 244.003 133.379 244.267 133.379 244.592C133.379 244.843 133.446 245.051 133.579 245.216C133.718 245.376 133.95 245.52 134.275 245.648C134.601 245.776 135.049 245.917 135.619 246.072C136.169 246.221 136.649 246.397 137.059 246.6C137.47 246.803 137.787 247.069 138.011 247.4C138.241 247.725 138.355 248.149 138.355 248.672C138.355 249.269 138.185 249.755 137.843 250.128C137.502 250.496 137.059 250.765 136.515 250.936C135.977 251.101 135.406 251.184 134.803 251.184C134.041 251.184 133.39 251.075 132.851 250.856C132.318 250.632 131.87 250.363 131.507 250.048L132.275 249.16C132.606 249.432 132.985 249.653 133.411 249.824C133.843 249.989 134.307 250.072 134.803 250.072ZM51.1938 271.472C50.6391 271.472 50.1751 271.288 49.8018 270.92C49.4338 270.552 49.2498 270.088 49.2498 269.528C49.2498 268.973 49.4338 268.515 49.8018 268.152C50.1751 267.784 50.6391 267.6 51.1938 267.6C51.7484 267.6 52.2098 267.787 52.5778 268.16C52.9511 268.528 53.1378 268.989 53.1378 269.544C53.1378 270.099 52.9511 270.56 52.5778 270.928C52.2098 271.291 51.7484 271.472 51.1938 271.472ZM67.6532 274.072C68.3039 274.072 68.8159 273.952 69.1892 273.712C69.5626 273.472 69.7492 273.147 69.7492 272.736C69.7492 272.485 69.7012 272.267 69.6052 272.08C69.5146 271.893 69.3252 271.725 69.0373 271.576C68.7492 271.421 68.3066 271.269 67.7092 271.12C67.1279 270.976 66.6212 270.811 66.1892 270.624C65.7626 270.432 65.4292 270.184 65.1892 269.88C64.9546 269.576 64.8372 269.181 64.8372 268.696C64.8372 267.987 65.1332 267.427 65.7252 267.016C66.3172 266.605 67.0879 266.4 68.0373 266.4C68.7146 266.4 69.3039 266.491 69.8053 266.672C70.3119 266.853 70.7412 267.072 71.0932 267.328L70.5012 268.24C70.1866 268.021 69.8346 267.843 69.4453 267.704C69.0612 267.56 68.5972 267.488 68.0532 267.488C67.3919 267.488 66.9226 267.592 66.6452 267.8C66.3679 268.003 66.2292 268.267 66.2292 268.592C66.2292 268.843 66.2959 269.051 66.4292 269.216C66.5679 269.376 66.7999 269.52 67.1252 269.648C67.4506 269.776 67.8986 269.917 68.4692 270.072C69.0186 270.221 69.4986 270.397 69.9092 270.6C70.3199 270.803 70.6372 271.069 70.8612 271.4C71.0906 271.725 71.2052 272.149 71.2052 272.672C71.2052 273.269 71.0346 273.755 70.6933 274.128C70.3519 274.496 69.9093 274.765 69.3653 274.936C68.8266 275.101 68.2559 275.184 67.6532 275.184C66.8906 275.184 66.2399 275.075 65.7012 274.856C65.1679 274.632 64.7199 274.363 64.3572 274.048L65.1252 273.16C65.4559 273.432 65.8346 273.653 66.2612 273.824C66.6932 273.989 67.1572 274.072 67.6532 274.072ZM74.239 271.264C74.2763 272.24 74.5323 272.952 75.007 273.4C75.487 273.843 76.0523 274.064 76.703 274.064C77.135 274.064 77.5243 274 77.871 273.872C78.2177 273.744 78.5777 273.555 78.951 273.304L79.583 274.192C79.1937 274.501 78.7457 274.744 78.239 274.92C77.7323 275.096 77.215 275.184 76.687 275.184C75.8657 275.184 75.167 275 74.591 274.632C74.0203 274.264 73.583 273.752 73.279 273.096C72.9803 272.435 72.831 271.669 72.831 270.8C72.831 269.947 72.9803 269.189 73.279 268.528C73.583 267.867 74.0097 267.347 74.559 266.968C75.1137 266.589 75.7643 266.4 76.511 266.4C77.5723 266.4 78.407 266.768 79.015 267.504C79.6283 268.24 79.935 269.248 79.935 270.528C79.935 270.672 79.9297 270.808 79.919 270.936C79.9137 271.064 79.9083 271.173 79.903 271.264H74.239ZM76.527 267.504C75.903 267.504 75.3803 267.725 74.959 268.168C74.5377 268.611 74.3003 269.296 74.247 270.224H78.639C78.623 269.323 78.4257 268.645 78.047 268.192C77.6683 267.733 77.1617 267.504 76.527 267.504ZM88.2648 274.576C87.9768 274.768 87.6274 274.917 87.2168 275.024C86.8061 275.131 86.4034 275.184 86.0088 275.184C85.1021 275.184 84.4034 274.947 83.9128 274.472C83.4221 273.997 83.1768 273.387 83.1768 272.64V267.616H81.2408V266.576H83.1768V264.664L84.5208 264.504V266.576H87.4328L87.2728 267.616H84.5208V272.624C84.5208 273.093 84.6434 273.451 84.8888 273.696C85.1394 273.941 85.5528 274.064 86.1288 274.064C86.4434 274.064 86.7341 274.027 87.0008 273.952C87.2674 273.877 87.5154 273.781 87.7448 273.664L88.2648 274.576ZM96.6585 274.576C96.3705 274.768 96.0212 274.917 95.6105 275.024C95.1998 275.131 94.7972 275.184 94.4025 275.184C93.4958 275.184 92.7972 274.947 92.3065 274.472C91.8158 273.997 91.5705 273.387 91.5705 272.64V267.616H89.6345V266.576H91.5705V264.664L92.9145 264.504V266.576H95.8265L95.6665 267.616H92.9145V272.624C92.9145 273.093 93.0372 273.451 93.2825 273.696C93.5332 273.941 93.9465 274.064 94.5225 274.064C94.8372 274.064 95.1278 274.027 95.3945 273.952C95.6612 273.877 95.9092 273.781 96.1385 273.664L96.6585 274.576ZM101.556 262.632C101.855 262.632 102.092 262.723 102.268 262.904C102.45 263.085 102.54 263.307 102.54 263.568C102.54 263.84 102.45 264.069 102.268 264.256C102.092 264.437 101.855 264.528 101.556 264.528C101.274 264.528 101.042 264.437 100.86 264.256C100.679 264.069 100.588 263.84 100.588 263.568C100.588 263.307 100.679 263.085 100.86 262.904C101.042 262.723 101.274 262.632 101.556 262.632ZM102.628 266.576V273.936H105.004V275H98.6842V273.936H101.284V267.64H98.7642V266.576H102.628ZM106.758 275V266.576H107.902L108.006 267.744C108.347 267.312 108.774 266.981 109.286 266.752C109.798 266.517 110.299 266.4 110.79 266.4C111.617 266.4 112.217 266.619 112.59 267.056C112.969 267.493 113.158 268.101 113.158 268.88V275H111.814V269.872C111.814 269.296 111.782 268.832 111.718 268.48C111.654 268.128 111.518 267.869 111.31 267.704C111.107 267.539 110.795 267.456 110.374 267.456C110.043 267.456 109.731 267.528 109.438 267.672C109.15 267.816 108.891 267.997 108.662 268.216C108.438 268.429 108.251 268.645 108.102 268.864V275H106.758ZM122 265.68L122.416 266.944C122.053 267.056 121.669 267.125 121.264 267.152C120.864 267.179 120.426 267.192 119.952 267.192C120.928 267.64 121.416 268.347 121.416 269.312C121.416 270.144 121.136 270.829 120.576 271.368C120.021 271.907 119.245 272.176 118.248 272.176C117.965 272.176 117.728 272.163 117.536 272.136C117.349 272.109 117.168 272.069 116.992 272.016C116.864 272.107 116.757 272.227 116.672 272.376C116.592 272.52 116.552 272.672 116.552 272.832C116.552 273.035 116.632 273.203 116.792 273.336C116.952 273.469 117.248 273.536 117.68 273.536H119.2C119.765 273.536 120.272 273.637 120.72 273.84C121.168 274.043 121.522 274.317 121.784 274.664C122.045 275.005 122.176 275.392 122.176 275.824C122.176 276.651 121.824 277.285 121.12 277.728C120.421 278.171 119.432 278.392 118.152 278.392C117.256 278.392 116.549 278.299 116.032 278.112C115.514 277.931 115.144 277.651 114.92 277.272C114.701 276.899 114.592 276.427 114.592 275.856H115.808C115.808 276.181 115.872 276.451 116 276.664C116.128 276.877 116.36 277.035 116.696 277.136C117.032 277.243 117.514 277.296 118.144 277.296C119.072 277.296 119.749 277.179 120.176 276.944C120.602 276.715 120.816 276.371 120.816 275.912C120.816 275.512 120.634 275.211 120.272 275.008C119.909 274.805 119.456 274.704 118.912 274.704H117.408C116.677 274.704 116.141 274.544 115.8 274.224C115.458 273.904 115.288 273.536 115.288 273.12C115.288 272.544 115.597 272.053 116.216 271.648C115.272 271.147 114.8 270.371 114.8 269.32C114.8 268.749 114.941 268.245 115.224 267.808C115.506 267.365 115.901 267.019 116.408 266.768C116.914 266.517 117.498 266.392 118.16 266.392C118.869 266.392 119.445 266.363 119.888 266.304C120.33 266.245 120.709 266.163 121.024 266.056C121.344 265.949 121.669 265.824 122 265.68ZM118.16 267.376C117.482 267.376 116.981 267.56 116.656 267.928C116.336 268.296 116.176 268.76 116.176 269.32C116.176 269.891 116.338 270.36 116.664 270.728C116.994 271.096 117.504 271.28 118.192 271.28C118.784 271.28 119.237 271.107 119.552 270.76C119.866 270.413 120.024 269.931 120.024 269.312C120.024 268.021 119.402 267.376 118.16 267.376ZM126.41 274.072C127.06 274.072 127.572 273.952 127.946 273.712C128.319 273.472 128.506 273.147 128.506 272.736C128.506 272.485 128.458 272.267 128.362 272.08C128.271 271.893 128.082 271.725 127.794 271.576C127.506 271.421 127.063 271.269 126.466 271.12C125.884 270.976 125.378 270.811 124.946 270.624C124.519 270.432 124.186 270.184 123.946 269.88C123.711 269.576 123.594 269.181 123.594 268.696C123.594 267.987 123.89 267.427 124.482 267.016C125.074 266.605 125.844 266.4 126.794 266.4C127.471 266.4 128.06 266.491 128.562 266.672C129.068 266.853 129.498 267.072 129.85 267.328L129.258 268.24C128.943 268.021 128.591 267.843 128.202 267.704C127.818 267.56 127.354 267.488 126.81 267.488C126.148 267.488 125.679 267.592 125.402 267.8C125.124 268.003 124.986 268.267 124.986 268.592C124.986 268.843 125.052 269.051 125.186 269.216C125.324 269.376 125.556 269.52 125.882 269.648C126.207 269.776 126.655 269.917 127.226 270.072C127.775 270.221 128.255 270.397 128.666 270.6C129.076 270.803 129.394 271.069 129.618 271.4C129.847 271.725 129.962 272.149 129.962 272.672C129.962 273.269 129.791 273.755 129.45 274.128C129.108 274.496 128.666 274.765 128.122 274.936C127.583 275.101 127.012 275.184 126.41 275.184C125.647 275.184 124.996 275.075 124.458 274.856C123.924 274.632 123.476 274.363 123.113 274.048L123.882 273.16C124.212 273.432 124.591 273.653 125.018 273.824C125.45 273.989 125.914 274.072 126.41 274.072ZM51.1938 295.472C50.6391 295.472 50.1751 295.288 49.8018 294.92C49.4338 294.552 49.2498 294.088 49.2498 293.528C49.2498 292.973 49.4338 292.515 49.8018 292.152C50.1751 291.784 50.6391 291.6 51.1938 291.6C51.7484 291.6 52.2098 291.787 52.5778 292.16C52.9511 292.528 53.1378 292.989 53.1378 293.544C53.1378 294.099 52.9511 294.56 52.5778 294.928C52.2098 295.291 51.7484 295.472 51.1938 295.472ZM67.6532 298.072C68.3039 298.072 68.8159 297.952 69.1892 297.712C69.5626 297.472 69.7492 297.147 69.7492 296.736C69.7492 296.485 69.7012 296.267 69.6052 296.08C69.5146 295.893 69.3252 295.725 69.0373 295.576C68.7492 295.421 68.3066 295.269 67.7092 295.12C67.1279 294.976 66.6212 294.811 66.1892 294.624C65.7626 294.432 65.4292 294.184 65.1892 293.88C64.9546 293.576 64.8372 293.181 64.8372 292.696C64.8372 291.987 65.1332 291.427 65.7252 291.016C66.3172 290.605 67.0879 290.4 68.0373 290.4C68.7146 290.4 69.3039 290.491 69.8053 290.672C70.3119 290.853 70.7412 291.072 71.0932 291.328L70.5012 292.24C70.1866 292.021 69.8346 291.843 69.4453 291.704C69.0612 291.56 68.5972 291.488 68.0532 291.488C67.3919 291.488 66.9226 291.592 66.6452 291.8C66.3679 292.003 66.2292 292.267 66.2292 292.592C66.2292 292.843 66.2959 293.051 66.4292 293.216C66.5679 293.376 66.7999 293.52 67.1252 293.648C67.4506 293.776 67.8986 293.917 68.4692 294.072C69.0186 294.221 69.4986 294.397 69.9092 294.6C70.3199 294.803 70.6372 295.069 70.8612 295.4C71.0906 295.725 71.2052 296.149 71.2052 296.672C71.2052 297.269 71.0346 297.755 70.6933 298.128C70.3519 298.496 69.9093 298.765 69.3653 298.936C68.8266 299.101 68.2559 299.184 67.6532 299.184C66.8906 299.184 66.2399 299.075 65.7012 298.856C65.1679 298.632 64.7199 298.363 64.3572 298.048L65.1252 297.16C65.4559 297.432 65.8346 297.653 66.2612 297.824C66.6932 297.989 67.1572 298.072 67.6532 298.072ZM74.527 290.576V296.544C74.527 297.099 74.6417 297.499 74.871 297.744C75.1003 297.989 75.4577 298.112 75.943 298.112C76.407 298.112 76.8443 297.981 77.255 297.72C77.671 297.453 77.9937 297.139 78.223 296.776V290.576H79.567V299H78.423L78.311 297.864C77.9803 298.291 77.5697 298.619 77.079 298.848C76.5937 299.072 76.1057 299.184 75.615 299.184C74.799 299.184 74.1883 298.968 73.783 298.536C73.383 298.099 73.183 297.488 73.183 296.704V290.576H74.527ZM82.9208 291.672C83.2248 291.267 83.5794 290.955 83.9848 290.736C84.3954 290.512 84.8408 290.4 85.3208 290.4C86.0728 290.4 86.6808 290.581 87.1448 290.944C87.6088 291.307 87.9474 291.819 88.1608 292.48C88.3741 293.136 88.4808 293.904 88.4808 294.784C88.4808 295.632 88.3528 296.389 88.0968 297.056C87.8461 297.717 87.4728 298.237 86.9768 298.616C86.4808 298.995 85.8701 299.184 85.1448 299.184C84.1688 299.184 83.4034 298.832 82.8488 298.128L82.7528 299H81.5768V287.184L82.9208 287.016V291.672ZM84.8248 298.096C85.5288 298.096 86.0701 297.824 86.4488 297.28C86.8274 296.736 87.0168 295.901 87.0168 294.776C87.0168 292.579 86.3554 291.48 85.0328 291.48C84.5634 291.48 84.1501 291.621 83.7928 291.904C83.4354 292.181 83.1448 292.491 82.9208 292.832V297.008C83.1394 297.344 83.4141 297.611 83.7448 297.808C84.0808 298 84.4408 298.096 84.8248 298.096ZM95.5225 290.4C95.7892 290.4 96.0478 290.459 96.2985 290.576C96.5492 290.693 96.7545 290.92 96.9145 291.256C97.0745 291.592 97.1545 292.083 97.1545 292.728V299H95.9065V292.944C95.9065 292.416 95.8745 292.035 95.8105 291.8C95.7465 291.565 95.5625 291.448 95.2585 291.448C95.0078 291.448 94.7572 291.528 94.5065 291.688C94.2558 291.843 94.0158 292.099 93.7865 292.456V299H92.5305V292.944C92.5305 292.416 92.4985 292.035 92.4345 291.8C92.3705 291.565 92.1865 291.448 91.8825 291.448C91.6212 291.448 91.3678 291.528 91.1225 291.688C90.8772 291.843 90.6398 292.099 90.4105 292.456V299H89.1705V290.576H90.2265L90.3065 291.552C90.5358 291.227 90.7918 290.955 91.0745 290.736C91.3625 290.512 91.7172 290.4 92.1385 290.4C92.4585 290.4 92.7598 290.477 93.0425 290.632C93.3252 290.781 93.5332 291.075 93.6665 291.512C93.8958 291.181 94.1545 290.915 94.4425 290.712C94.7305 290.504 95.0905 290.4 95.5225 290.4ZM101.556 286.632C101.855 286.632 102.092 286.723 102.268 286.904C102.45 287.085 102.54 287.307 102.54 287.568C102.54 287.84 102.45 288.069 102.268 288.256C102.092 288.437 101.855 288.528 101.556 288.528C101.274 288.528 101.042 288.437 100.86 288.256C100.679 288.069 100.588 287.84 100.588 287.568C100.588 287.307 100.679 287.085 100.86 286.904C101.042 286.723 101.274 286.632 101.556 286.632ZM102.628 290.576V297.936H105.004V299H98.6842V297.936H101.284V291.64H98.7642V290.576H102.628ZM113.446 298.576C113.158 298.768 112.809 298.917 112.398 299.024C111.987 299.131 111.585 299.184 111.19 299.184C110.283 299.184 109.585 298.947 109.094 298.472C108.603 297.997 108.358 297.387 108.358 296.64V291.616H106.422V290.576H108.358V288.664L109.702 288.504V290.576H112.614L112.454 291.616H109.702V296.624C109.702 297.093 109.825 297.451 110.07 297.696C110.321 297.941 110.734 298.064 111.31 298.064C111.625 298.064 111.915 298.027 112.182 297.952C112.449 297.877 112.697 297.781 112.926 297.664L113.446 298.576ZM51.1938 319.472C50.6391 319.472 50.1751 319.288 49.8018 318.92C49.4338 318.552 49.2498 318.088 49.2498 317.528C49.2498 316.973 49.4338 316.515 49.8018 316.152C50.1751 315.784 50.6391 315.6 51.1938 315.6C51.7484 315.6 52.2098 315.787 52.5778 316.16C52.9511 316.528 53.1378 316.989 53.1378 317.544C53.1378 318.099 52.9511 318.56 52.5778 318.928C52.2098 319.291 51.7484 319.472 51.1938 319.472ZM67.6532 322.072C68.3039 322.072 68.8159 321.952 69.1892 321.712C69.5626 321.472 69.7492 321.147 69.7492 320.736C69.7492 320.485 69.7012 320.267 69.6052 320.08C69.5146 319.893 69.3252 319.725 69.0373 319.576C68.7492 319.421 68.3066 319.269 67.7092 319.12C67.1279 318.976 66.6212 318.811 66.1892 318.624C65.7626 318.432 65.4292 318.184 65.1892 317.88C64.9546 317.576 64.8372 317.181 64.8372 316.696C64.8372 315.987 65.1332 315.427 65.7252 315.016C66.3172 314.605 67.0879 314.4 68.0373 314.4C68.7146 314.4 69.3039 314.491 69.8053 314.672C70.3119 314.853 70.7412 315.072 71.0932 315.328L70.5012 316.24C70.1866 316.021 69.8346 315.843 69.4453 315.704C69.0612 315.56 68.5972 315.488 68.0532 315.488C67.3919 315.488 66.9226 315.592 66.6452 315.8C66.3679 316.003 66.2292 316.267 66.2292 316.592C66.2292 316.843 66.2959 317.051 66.4292 317.216C66.5679 317.376 66.7999 317.52 67.1252 317.648C67.4506 317.776 67.8986 317.917 68.4692 318.072C69.0186 318.221 69.4986 318.397 69.9092 318.6C70.3199 318.803 70.6372 319.069 70.8612 319.4C71.0906 319.725 71.2052 320.149 71.2052 320.672C71.2052 321.269 71.0346 321.755 70.6933 322.128C70.3519 322.496 69.9093 322.765 69.3653 322.936C68.8266 323.101 68.2559 323.184 67.6532 323.184C66.8906 323.184 66.2399 323.075 65.7012 322.856C65.1679 322.632 64.7199 322.363 64.3572 322.048L65.1252 321.16C65.4559 321.432 65.8346 321.653 66.2612 321.824C66.6932 321.989 67.1572 322.072 67.6532 322.072ZM74.527 314.576V320.544C74.527 321.099 74.6417 321.499 74.871 321.744C75.1003 321.989 75.4577 322.112 75.943 322.112C76.407 322.112 76.8443 321.981 77.255 321.72C77.671 321.453 77.9937 321.139 78.223 320.776V314.576H79.567V323H78.423L78.311 321.864C77.9803 322.291 77.5697 322.619 77.079 322.848C76.5937 323.072 76.1057 323.184 75.615 323.184C74.799 323.184 74.1883 322.968 73.783 322.536C73.383 322.099 73.183 321.488 73.183 320.704V314.576H74.527ZM85.3448 314.4C86.0914 314.4 86.6861 314.581 87.1288 314.944C87.5768 315.307 87.8994 315.819 88.0968 316.48C88.2941 317.136 88.3928 317.904 88.3928 318.784C88.3928 319.632 88.2728 320.389 88.0328 321.056C87.7981 321.717 87.4408 322.237 86.9608 322.616C86.4808 322.995 85.8754 323.184 85.1448 323.184C84.2221 323.184 83.4808 322.859 82.9208 322.208V326.224L81.5768 326.392V314.576H82.7208L82.8328 315.752C83.1421 315.32 83.5101 314.987 83.9368 314.752C84.3634 314.517 84.8328 314.4 85.3448 314.4ZM85.0248 315.48C84.5608 315.48 84.1501 315.621 83.7928 315.904C83.4354 316.181 83.1448 316.491 82.9208 316.832V321.008C83.1394 321.333 83.4141 321.592 83.7448 321.784C84.0808 321.971 84.4488 322.064 84.8488 322.064C85.5474 322.064 86.0728 321.797 86.4248 321.264C86.7768 320.731 86.9528 319.901 86.9528 318.776C86.9528 316.579 86.3101 315.48 85.0248 315.48ZM93.7385 314.4C94.4852 314.4 95.0798 314.581 95.5225 314.944C95.9705 315.307 96.2932 315.819 96.4905 316.48C96.6878 317.136 96.7865 317.904 96.7865 318.784C96.7865 319.632 96.6665 320.389 96.4265 321.056C96.1918 321.717 95.8345 322.237 95.3545 322.616C94.8745 322.995 94.2692 323.184 93.5385 323.184C92.6158 323.184 91.8745 322.859 91.3145 322.208V326.224L89.9705 326.392V314.576H91.1145L91.2265 315.752C91.5358 315.32 91.9038 314.987 92.3305 314.752C92.7572 314.517 93.2265 314.4 93.7385 314.4ZM93.4185 315.48C92.9545 315.48 92.5438 315.621 92.1865 315.904C91.8292 316.181 91.5385 316.491 91.3145 316.832V321.008C91.5332 321.333 91.8078 321.592 92.1385 321.784C92.4745 321.971 92.8425 322.064 93.2425 322.064C93.9412 322.064 94.4665 321.797 94.8185 321.264C95.1705 320.731 95.3465 319.901 95.3465 318.776C95.3465 316.579 94.7038 315.48 93.4185 315.48ZM101.572 314.4C102.762 314.4 103.66 314.797 104.268 315.592C104.876 316.387 105.18 317.451 105.18 318.784C105.18 319.643 105.042 320.403 104.764 321.064C104.487 321.725 104.079 322.245 103.54 322.624C103.002 322.997 102.34 323.184 101.556 323.184C100.367 323.184 99.4656 322.784 98.8522 321.984C98.2389 321.184 97.9322 320.123 97.9322 318.8C97.9322 317.936 98.0709 317.173 98.3482 316.512C98.6256 315.845 99.0336 315.328 99.5722 314.96C100.116 314.587 100.783 314.4 101.572 314.4ZM101.572 315.496C100.847 315.496 100.298 315.765 99.9242 316.304C99.5562 316.843 99.3722 317.675 99.3722 318.8C99.3722 319.915 99.5536 320.741 99.9162 321.28C100.284 321.813 100.831 322.08 101.556 322.08C102.282 322.08 102.826 321.811 103.188 321.272C103.556 320.733 103.74 319.904 103.74 318.784C103.74 317.664 103.559 316.837 103.196 316.304C102.834 315.765 102.292 315.496 101.572 315.496ZM106.838 323V321.968H108.15V315.608H106.838V314.576H109.174L109.422 316.568C109.747 315.875 110.142 315.339 110.606 314.96C111.07 314.581 111.683 314.392 112.446 314.392C112.681 314.392 112.889 314.411 113.07 314.448C113.257 314.48 113.446 314.523 113.638 314.576L113.446 317.424H112.342V315.632C112.321 315.632 112.297 315.632 112.27 315.632C110.979 315.632 110.054 316.555 109.494 318.4V321.968H111.206V323H106.838ZM121.84 322.576C121.552 322.768 121.202 322.917 120.792 323.024C120.381 323.131 119.978 323.184 119.584 323.184C118.677 323.184 117.978 322.947 117.488 322.472C116.997 321.997 116.752 321.387 116.752 320.64V315.616H114.816V314.576H116.752V312.664L118.096 312.504V314.576H121.008L120.848 315.616H118.096V320.624C118.096 321.093 118.218 321.451 118.464 321.696C118.714 321.941 119.128 322.064 119.704 322.064C120.018 322.064 120.309 322.027 120.576 321.952C120.842 321.877 121.09 321.781 121.32 321.664L121.84 322.576ZM51.1938 343.472C50.6391 343.472 50.1751 343.288 49.8018 342.92C49.4338 342.552 49.2498 342.088 49.2498 341.528C49.2498 340.973 49.4338 340.515 49.8018 340.152C50.1751 339.784 50.6391 339.6 51.1938 339.6C51.7484 339.6 52.2098 339.787 52.5778 340.16C52.9511 340.528 53.1378 340.989 53.1378 341.544C53.1378 342.099 52.9511 342.56 52.5778 342.928C52.2098 343.291 51.7484 343.472 51.1938 343.472ZM71.4773 346.576C71.1892 346.768 70.8399 346.917 70.4292 347.024C70.0186 347.131 69.6159 347.184 69.2213 347.184C68.3146 347.184 67.6159 346.947 67.1252 346.472C66.6346 345.997 66.3892 345.387 66.3892 344.64V339.616H64.4532V338.576H66.3892V336.664L67.7332 336.504V338.576H70.6452L70.4852 339.616H67.7332V344.624C67.7332 345.093 67.8559 345.451 68.1012 345.696C68.3519 345.941 68.7653 346.064 69.3412 346.064C69.6559 346.064 69.9466 346.027 70.2133 345.952C70.4799 345.877 70.7279 345.781 70.9573 345.664L71.4773 346.576ZM74.239 343.264C74.2763 344.24 74.5323 344.952 75.007 345.4C75.487 345.843 76.0523 346.064 76.703 346.064C77.135 346.064 77.5243 346 77.871 345.872C78.2177 345.744 78.5777 345.555 78.951 345.304L79.583 346.192C79.1937 346.501 78.7457 346.744 78.239 346.92C77.7323 347.096 77.215 347.184 76.687 347.184C75.8657 347.184 75.167 347 74.591 346.632C74.0203 346.264 73.583 345.752 73.279 345.096C72.9803 344.435 72.831 343.669 72.831 342.8C72.831 341.947 72.9803 341.189 73.279 340.528C73.583 339.867 74.0097 339.347 74.559 338.968C75.1137 338.589 75.7643 338.4 76.511 338.4C77.5723 338.4 78.407 338.768 79.015 339.504C79.6283 340.24 79.935 341.248 79.935 342.528C79.935 342.672 79.9297 342.808 79.919 342.936C79.9137 343.064 79.9083 343.173 79.903 343.264H74.239ZM76.527 339.504C75.903 339.504 75.3803 339.725 74.959 340.168C74.5377 340.611 74.3003 341.296 74.247 342.224H78.639C78.623 341.323 78.4257 340.645 78.047 340.192C77.6683 339.733 77.1617 339.504 76.527 339.504ZM84.4408 346.072C85.0914 346.072 85.6034 345.952 85.9768 345.712C86.3501 345.472 86.5368 345.147 86.5368 344.736C86.5368 344.485 86.4888 344.267 86.3928 344.08C86.3021 343.893 86.1128 343.725 85.8248 343.576C85.5368 343.421 85.0941 343.269 84.4968 343.12C83.9154 342.976 83.4088 342.811 82.9768 342.624C82.5501 342.432 82.2168 342.184 81.9768 341.88C81.7421 341.576 81.6248 341.181 81.6248 340.696C81.6248 339.987 81.9208 339.427 82.5128 339.016C83.1048 338.605 83.8754 338.4 84.8248 338.4C85.5021 338.4 86.0914 338.491 86.5928 338.672C87.0994 338.853 87.5288 339.072 87.8808 339.328L87.2888 340.24C86.9741 340.021 86.6221 339.843 86.2328 339.704C85.8488 339.56 85.3848 339.488 84.8408 339.488C84.1794 339.488 83.7101 339.592 83.4328 339.8C83.1554 340.003 83.0168 340.267 83.0168 340.592C83.0168 340.843 83.0834 341.051 83.2168 341.216C83.3554 341.376 83.5874 341.52 83.9128 341.648C84.2381 341.776 84.6861 341.917 85.2568 342.072C85.8061 342.221 86.2861 342.397 86.6968 342.6C87.1074 342.803 87.4248 343.069 87.6488 343.4C87.8781 343.725 87.9928 344.149 87.9928 344.672C87.9928 345.269 87.8221 345.755 87.4808 346.128C87.1394 346.496 86.6968 346.765 86.1528 346.936C85.6141 347.101 85.0434 347.184 84.4408 347.184C83.6781 347.184 83.0274 347.075 82.4888 346.856C81.9554 346.632 81.5074 346.363 81.1447 346.048L81.9128 345.16C82.2434 345.432 82.6221 345.653 83.0488 345.824C83.4808 345.989 83.9448 346.072 84.4408 346.072ZM96.6585 346.576C96.3705 346.768 96.0212 346.917 95.6105 347.024C95.1998 347.131 94.7972 347.184 94.4025 347.184C93.4958 347.184 92.7972 346.947 92.3065 346.472C91.8158 345.997 91.5705 345.387 91.5705 344.64V339.616H89.6345V338.576H91.5705V336.664L92.9145 336.504V338.576H95.8265L95.6665 339.616H92.9145V344.624C92.9145 345.093 93.0372 345.451 93.2825 345.696C93.5332 345.941 93.9465 346.064 94.5225 346.064C94.8372 346.064 95.1278 346.027 95.3945 345.952C95.6612 345.877 95.9092 345.781 96.1385 345.664L96.6585 346.576ZM51.1938 367.472C50.6391 367.472 50.1751 367.288 49.8018 366.92C49.4338 366.552 49.2498 366.088 49.2498 365.528C49.2498 364.973 49.4338 364.515 49.8018 364.152C50.1751 363.784 50.6391 363.6 51.1938 363.6C51.7484 363.6 52.2098 363.787 52.5778 364.16C52.9511 364.528 53.1378 364.989 53.1378 365.544C53.1378 366.099 52.9511 366.56 52.5778 366.928C52.2098 367.291 51.7484 367.472 51.1938 367.472Z" fill="white"/>
<path d="M68.7092 69.424V71.832C69.3492 71.9013 69.9172 72.0587 70.4132 72.304C70.9092 72.544 71.3226 72.816 71.6532 73.12L70.8292 73.968C70.2106 73.3867 69.5039 73.0453 68.7092 72.944V76.592C69.2479 76.768 69.7493 76.9947 70.2133 77.272C70.6826 77.544 71.0613 77.8987 71.3492 78.336C71.6372 78.7733 71.7812 79.3173 71.7812 79.968C71.7812 80.4747 71.6666 80.952 71.4373 81.4C71.2079 81.8427 70.8639 82.2187 70.4053 82.528C69.9519 82.832 69.3866 83.0293 68.7092 83.12V85.448H67.6293V83.168C66.8719 83.12 66.2132 82.9467 65.6532 82.648C65.0986 82.344 64.6426 82.016 64.2852 81.664L65.0852 80.776C65.4212 81.1173 65.7972 81.4027 66.2132 81.632C66.6346 81.856 67.1066 81.9893 67.6293 82.032V77.6C66.6959 77.2907 65.9732 76.8933 65.4612 76.408C64.9546 75.9173 64.7012 75.3013 64.7012 74.56C64.7012 74.1333 64.8079 73.7227 65.0212 73.328C65.2399 72.9333 65.5652 72.6027 65.9972 72.336C66.4292 72.064 66.9732 71.896 67.6293 71.832V69.424H68.7092ZM67.6293 72.976C67.1919 73.0507 66.8319 73.216 66.5492 73.472C66.2719 73.728 66.1332 74.0827 66.1332 74.536C66.1332 74.9093 66.2346 75.2267 66.4372 75.488C66.6452 75.7493 67.0426 76 67.6293 76.24V72.976ZM68.7092 77.976V81.96C69.7919 81.7413 70.3333 81.0827 70.3333 79.984C70.3333 79.536 70.2133 79.152 69.9732 78.832C69.7386 78.512 69.3173 78.2267 68.7092 77.976Z" fill="#477DFF"/>
<path d="M70.8212 105.16C70.8212 105.501 70.8773 105.749 70.9893 105.904C71.1013 106.059 71.2746 106.171 71.5092 106.24L71.1812 107.184C70.8186 107.136 70.5012 107.021 70.2292 106.84C69.9572 106.653 69.7599 106.373 69.6372 106C69.3333 106.389 68.9519 106.685 68.4932 106.888C68.0399 107.085 67.5412 107.184 66.9972 107.184C66.1546 107.184 65.4906 106.947 65.0052 106.472C64.5199 105.997 64.2772 105.368 64.2772 104.584C64.2772 103.715 64.6159 103.048 65.2932 102.584C65.9706 102.12 66.9492 101.888 68.2292 101.888H69.4692V101.184C69.4692 100.576 69.2906 100.147 68.9332 99.896C68.5813 99.64 68.0906 99.512 67.4612 99.512C67.1839 99.512 66.8586 99.5467 66.4852 99.616C66.1119 99.68 65.7066 99.7893 65.2692 99.944L64.9172 98.928C65.4292 98.736 65.9119 98.6 66.3652 98.52C66.8239 98.44 67.2586 98.4 67.6693 98.4C68.7146 98.4 69.5012 98.6453 70.0293 99.136C70.5573 99.6267 70.8212 100.288 70.8212 101.12V105.16ZM67.3412 106.16C67.7572 106.16 68.1519 106.056 68.5252 105.848C68.9039 105.635 69.2186 105.341 69.4692 104.968V102.8H68.2532C67.3252 102.8 66.6692 102.96 66.2852 103.28C65.9066 103.6 65.7172 104.029 65.7172 104.568C65.7172 105.629 66.2586 106.16 67.3412 106.16ZM74.527 98.576V104.544C74.527 105.099 74.6417 105.499 74.871 105.744C75.1003 105.989 75.4577 106.112 75.943 106.112C76.407 106.112 76.8443 105.981 77.255 105.72C77.671 105.453 77.9937 105.139 78.223 104.776V98.576H79.567V107H78.423L78.311 105.864C77.9803 106.291 77.5697 106.619 77.079 106.848C76.5937 107.072 76.1057 107.184 75.615 107.184C74.799 107.184 74.1883 106.968 73.783 106.536C73.383 106.099 73.183 105.488 73.183 104.704V98.576H74.527ZM88.2648 106.576C87.9768 106.768 87.6274 106.917 87.2168 107.024C86.8061 107.131 86.4034 107.184 86.0088 107.184C85.1021 107.184 84.4034 106.947 83.9128 106.472C83.4221 105.997 83.1768 105.387 83.1768 104.64V99.616H81.2408V98.576H83.1768V96.664L84.5208 96.504V98.576H87.4328L87.2728 99.616H84.5208V104.624C84.5208 105.093 84.6434 105.451 84.8888 105.696C85.1394 105.941 85.5528 106.064 86.1288 106.064C86.4434 106.064 86.7341 106.027 87.0008 105.952C87.2674 105.877 87.5154 105.781 87.7448 105.664L88.2648 106.576ZM93.1785 98.4C94.3678 98.4 95.2665 98.7973 95.8745 99.592C96.4825 100.387 96.7865 101.451 96.7865 102.784C96.7865 103.643 96.6478 104.403 96.3705 105.064C96.0932 105.725 95.6852 106.245 95.1465 106.624C94.6078 106.997 93.9465 107.184 93.1625 107.184C91.9732 107.184 91.0718 106.784 90.4585 105.984C89.8452 105.184 89.5385 104.123 89.5385 102.8C89.5385 101.936 89.6772 101.173 89.9545 100.512C90.2318 99.8453 90.6398 99.328 91.1785 98.96C91.7225 98.5867 92.3892 98.4 93.1785 98.4ZM93.1785 99.496C92.4532 99.496 91.9038 99.7653 91.5305 100.304C91.1625 100.843 90.9785 101.675 90.9785 102.8C90.9785 103.915 91.1598 104.741 91.5225 105.28C91.8905 105.813 92.4372 106.08 93.1625 106.08C93.8878 106.08 94.4318 105.811 94.7945 105.272C95.1625 104.733 95.3465 103.904 95.3465 102.784C95.3465 101.664 95.1652 100.837 94.8025 100.304C94.4398 99.7653 93.8985 99.496 93.1785 99.496ZM99.7082 98.576V104.544C99.7082 105.099 99.8229 105.499 100.052 105.744C100.282 105.989 100.639 106.112 101.124 106.112C101.588 106.112 102.026 105.981 102.436 105.72C102.852 105.453 103.175 105.139 103.404 104.776V98.576H104.748V107H103.604L103.492 105.864C103.162 106.291 102.751 106.619 102.26 106.848C101.775 107.072 101.287 107.184 100.796 107.184C99.9802 107.184 99.3696 106.968 98.9642 106.536C98.5642 106.099 98.3642 105.488 98.3642 104.704V98.576H99.7082ZM110.526 98.4C111.273 98.4 111.867 98.5813 112.31 98.944C112.758 99.3067 113.081 99.8187 113.278 100.48C113.475 101.136 113.574 101.904 113.574 102.784C113.574 103.632 113.454 104.389 113.214 105.056C112.979 105.717 112.622 106.237 112.142 106.616C111.662 106.995 111.057 107.184 110.326 107.184C109.403 107.184 108.662 106.859 108.102 106.208V110.224L106.758 110.392V98.576H107.902L108.014 99.752C108.323 99.32 108.691 98.9867 109.118 98.752C109.545 98.5173 110.014 98.4 110.526 98.4ZM110.206 99.48C109.742 99.48 109.331 99.6213 108.974 99.904C108.617 100.181 108.326 100.491 108.102 100.832V105.008C108.321 105.333 108.595 105.592 108.926 105.784C109.262 105.971 109.63 106.064 110.03 106.064C110.729 106.064 111.254 105.797 111.606 105.264C111.958 104.731 112.134 103.901 112.134 102.776C112.134 100.579 111.491 99.48 110.206 99.48ZM120.192 95.016L121.536 95.184V107H120.36L120.232 105.888C119.917 106.336 119.554 106.664 119.144 106.872C118.738 107.08 118.304 107.184 117.84 107.184C117.109 107.184 116.506 107 116.032 106.632C115.557 106.264 115.205 105.752 114.976 105.096C114.746 104.435 114.632 103.669 114.632 102.8C114.632 101.957 114.762 101.205 115.024 100.544C115.285 99.8773 115.661 99.3547 116.152 98.976C116.648 98.592 117.242 98.4 117.936 98.4C118.869 98.4 119.621 98.7307 120.192 99.392V95.016ZM118.288 99.48C117.584 99.48 117.042 99.7547 116.664 100.304C116.285 100.853 116.096 101.685 116.096 102.8C116.096 104.997 116.77 106.096 118.12 106.096C118.594 106.096 119.002 105.963 119.344 105.696C119.685 105.424 119.968 105.115 120.192 104.768V100.56C119.962 100.219 119.685 99.9547 119.36 99.768C119.034 99.576 118.677 99.48 118.288 99.48ZM129.578 105.16C129.578 105.501 129.634 105.749 129.746 105.904C129.858 106.059 130.031 106.171 130.266 106.24L129.938 107.184C129.575 107.136 129.258 107.021 128.986 106.84C128.714 106.653 128.516 106.373 128.394 106C128.09 106.389 127.708 106.685 127.25 106.888C126.796 107.085 126.298 107.184 125.754 107.184C124.911 107.184 124.247 106.947 123.762 106.472C123.276 105.997 123.034 105.368 123.034 104.584C123.034 103.715 123.372 103.048 124.049 102.584C124.727 102.12 125.706 101.888 126.986 101.888H128.226V101.184C128.226 100.576 128.047 100.147 127.69 99.896C127.338 99.64 126.847 99.512 126.218 99.512C125.94 99.512 125.615 99.5467 125.242 99.616C124.868 99.68 124.463 99.7893 124.026 99.944L123.674 98.928C124.186 98.736 124.668 98.6 125.122 98.52C125.58 98.44 126.015 98.4 126.426 98.4C127.471 98.4 128.258 98.6453 128.786 99.136C129.314 99.6267 129.578 100.288 129.578 101.12V105.16ZM126.098 106.16C126.514 106.16 126.908 106.056 127.282 105.848C127.66 105.635 127.975 105.341 128.226 104.968V102.8H127.01C126.082 102.8 125.426 102.96 125.042 103.28C124.663 103.6 124.474 104.029 124.474 104.568C124.474 105.629 125.015 106.16 126.098 106.16ZM138.627 106.576C138.339 106.768 137.99 106.917 137.579 107.024C137.169 107.131 136.766 107.184 136.371 107.184C135.465 107.184 134.766 106.947 134.275 106.472C133.785 105.997 133.539 105.387 133.539 104.64V99.616H131.603V98.576H133.539V96.664L134.883 96.504V98.576H137.795L137.635 99.616H134.883V104.624C134.883 105.093 135.006 105.451 135.251 105.696C135.502 105.941 135.915 106.064 136.491 106.064C136.806 106.064 137.097 106.027 137.363 105.952C137.63 105.877 137.878 105.781 138.107 105.664L138.627 106.576ZM141.389 103.264C141.426 104.24 141.682 104.952 142.157 105.4C142.637 105.843 143.202 106.064 143.853 106.064C144.285 106.064 144.674 106 145.021 105.872C145.368 105.744 145.728 105.555 146.101 105.304L146.733 106.192C146.344 106.501 145.896 106.744 145.389 106.92C144.882 107.096 144.365 107.184 143.837 107.184C143.016 107.184 142.317 107 141.741 106.632C141.17 106.264 140.733 105.752 140.429 105.096C140.13 104.435 139.981 103.669 139.981 102.8C139.981 101.947 140.13 101.189 140.429 100.528C140.733 99.8667 141.16 99.3467 141.709 98.968C142.264 98.5893 142.914 98.4 143.661 98.4C144.722 98.4 145.557 98.768 146.165 99.504C146.778 100.24 147.085 101.248 147.085 102.528C147.085 102.672 147.08 102.808 147.069 102.936C147.064 103.064 147.058 103.173 147.053 103.264H141.389ZM143.677 99.504C143.053 99.504 142.53 99.7253 142.109 100.168C141.688 100.611 141.45 101.296 141.397 102.224H145.789C145.773 101.323 145.576 100.645 145.197 100.192C144.818 99.7333 144.312 99.504 143.677 99.504ZM68.0692 215.184V224.92C68.0692 225.336 68.1972 225.632 68.4532 225.808C68.7146 225.979 69.0506 226.064 69.4612 226.064C69.7119 226.064 69.9519 226.037 70.1813 225.984C70.4159 225.931 70.6479 225.859 70.8773 225.768L71.2373 226.752C71.0079 226.864 70.7226 226.963 70.3812 227.048C70.0452 227.139 69.6639 227.184 69.2372 227.184C68.4906 227.184 67.8852 226.979 67.4212 226.568C66.9572 226.152 66.7252 225.579 66.7252 224.848V216.248H64.1412V215.184H68.0692ZM76.391 218.4C77.5803 218.4 78.479 218.797 79.087 219.592C79.695 220.387 79.999 221.451 79.999 222.784C79.999 223.643 79.8603 224.403 79.583 225.064C79.3057 225.725 78.8977 226.245 78.359 226.624C77.8203 226.997 77.159 227.184 76.375 227.184C75.1857 227.184 74.2843 226.784 73.671 225.984C73.0577 225.184 72.751 224.123 72.751 222.8C72.751 221.936 72.8897 221.173 73.167 220.512C73.4443 219.845 73.8523 219.328 74.391 218.96C74.935 218.587 75.6017 218.4 76.391 218.4ZM76.391 219.496C75.6657 219.496 75.1163 219.765 74.743 220.304C74.375 220.843 74.191 221.675 74.191 222.8C74.191 223.915 74.3723 224.741 74.735 225.28C75.103 225.813 75.6497 226.08 76.375 226.08C77.1003 226.08 77.6443 225.811 78.007 225.272C78.375 224.733 78.559 223.904 78.559 222.784C78.559 221.664 78.3777 220.837 78.015 220.304C77.6523 219.765 77.111 219.496 76.391 219.496ZM88.4248 217.68L88.8408 218.944C88.4781 219.056 88.0941 219.125 87.6888 219.152C87.2888 219.179 86.8514 219.192 86.3768 219.192C87.3528 219.64 87.8408 220.347 87.8408 221.312C87.8408 222.144 87.5608 222.829 87.0008 223.368C86.4461 223.907 85.6701 224.176 84.6727 224.176C84.3901 224.176 84.1528 224.163 83.9608 224.136C83.7741 224.109 83.5928 224.069 83.4168 224.016C83.2888 224.107 83.1821 224.227 83.0968 224.376C83.0168 224.52 82.9768 224.672 82.9768 224.832C82.9768 225.035 83.0568 225.203 83.2168 225.336C83.3768 225.469 83.6728 225.536 84.1048 225.536H85.6248C86.1901 225.536 86.6968 225.637 87.1448 225.84C87.5928 226.043 87.9474 226.317 88.2088 226.664C88.4701 227.005 88.6007 227.392 88.6007 227.824C88.6007 228.651 88.2488 229.285 87.5448 229.728C86.8461 230.171 85.8568 230.392 84.5768 230.392C83.6808 230.392 82.9741 230.299 82.4568 230.112C81.9394 229.931 81.5688 229.651 81.3448 229.272C81.1261 228.899 81.0168 228.427 81.0168 227.856H82.2328C82.2328 228.181 82.2968 228.451 82.4248 228.664C82.5528 228.877 82.7848 229.035 83.1208 229.136C83.4568 229.243 83.9394 229.296 84.5688 229.296C85.4968 229.296 86.1741 229.179 86.6008 228.944C87.0274 228.715 87.2408 228.371 87.2408 227.912C87.2408 227.512 87.0594 227.211 86.6968 227.008C86.3341 226.805 85.8808 226.704 85.3368 226.704H83.8328C83.1021 226.704 82.5661 226.544 82.2248 226.224C81.8834 225.904 81.7128 225.536 81.7128 225.12C81.7128 224.544 82.0221 224.053 82.6408 223.648C81.6968 223.147 81.2248 222.371 81.2248 221.32C81.2248 220.749 81.3661 220.245 81.6488 219.808C81.9314 219.365 82.3261 219.019 82.8328 218.768C83.3394 218.517 83.9234 218.392 84.5848 218.392C85.2941 218.392 85.8701 218.363 86.3128 218.304C86.7554 218.245 87.1341 218.163 87.4488 218.056C87.7688 217.949 88.0941 217.824 88.4248 217.68ZM84.5848 219.376C83.9074 219.376 83.4061 219.56 83.0808 219.928C82.7608 220.296 82.6008 220.76 82.6008 221.32C82.6008 221.891 82.7634 222.36 83.0888 222.728C83.4194 223.096 83.9288 223.28 84.6168 223.28C85.2088 223.28 85.6621 223.107 85.9768 222.76C86.2914 222.413 86.4488 221.931 86.4488 221.312C86.4488 220.021 85.8274 219.376 84.5848 219.376ZM92.8345 226.072C93.4852 226.072 93.9972 225.952 94.3705 225.712C94.7438 225.472 94.9305 225.147 94.9305 224.736C94.9305 224.485 94.8825 224.267 94.7865 224.08C94.6958 223.893 94.5065 223.725 94.2185 223.576C93.9305 223.421 93.4878 223.269 92.8905 223.12C92.3092 222.976 91.8025 222.811 91.3705 222.624C90.9438 222.432 90.6105 222.184 90.3705 221.88C90.1358 221.576 90.0185 221.181 90.0185 220.696C90.0185 219.987 90.3145 219.427 90.9065 219.016C91.4985 218.605 92.2692 218.4 93.2185 218.4C93.8958 218.4 94.4852 218.491 94.9865 218.672C95.4932 218.853 95.9225 219.072 96.2745 219.328L95.6825 220.24C95.3678 220.021 95.0158 219.843 94.6265 219.704C94.2425 219.56 93.7785 219.488 93.2345 219.488C92.5732 219.488 92.1038 219.592 91.8265 219.8C91.5492 220.003 91.4105 220.267 91.4105 220.592C91.4105 220.843 91.4772 221.051 91.6105 221.216C91.7492 221.376 91.9812 221.52 92.3065 221.648C92.6318 221.776 93.0798 221.917 93.6505 222.072C94.1998 222.221 94.6798 222.397 95.0905 222.6C95.5012 222.803 95.8185 223.069 96.0425 223.4C96.2718 223.725 96.3865 224.149 96.3865 224.672C96.3865 225.269 96.2158 225.755 95.8745 226.128C95.5332 226.496 95.0905 226.765 94.5465 226.936C94.0078 227.101 93.4372 227.184 92.8345 227.184C92.0718 227.184 91.4212 227.075 90.8825 226.856C90.3492 226.632 89.9012 226.363 89.5385 226.048L90.3065 225.16C90.6372 225.432 91.0158 225.653 91.4425 225.824C91.8745 225.989 92.3385 226.072 92.8345 226.072ZM66.1332 362.576V368.544C66.1332 369.099 66.2479 369.499 66.4772 369.744C66.7066 369.989 67.0639 370.112 67.5492 370.112C68.0132 370.112 68.4506 369.981 68.8612 369.72C69.2772 369.453 69.5999 369.139 69.8292 368.776V362.576H71.1733V371H70.0293L69.9173 369.864C69.5866 370.291 69.1759 370.619 68.6852 370.848C68.1999 371.072 67.7119 371.184 67.2212 371.184C66.4052 371.184 65.7946 370.968 65.3892 370.536C64.9892 370.099 64.7892 369.488 64.7892 368.704V362.576H66.1332ZM73.263 371V369.968H74.575V363.608H73.263V362.576H75.599L75.847 364.568C76.1723 363.875 76.567 363.339 77.031 362.96C77.495 362.581 78.1083 362.392 78.871 362.392C79.1057 362.392 79.3137 362.411 79.495 362.448C79.6817 362.48 79.871 362.523 80.063 362.576L79.871 365.424H78.767V363.632C78.7457 363.632 78.7217 363.632 78.695 363.632C77.4043 363.632 76.479 364.555 75.919 366.4V369.968H77.631V371H73.263ZM84.8568 359.184V368.92C84.8568 369.336 84.9848 369.632 85.2408 369.808C85.5021 369.979 85.8381 370.064 86.2488 370.064C86.4994 370.064 86.7394 370.037 86.9688 369.984C87.2034 369.931 87.4354 369.859 87.6648 369.768L88.0248 370.752C87.7954 370.864 87.5101 370.963 87.1688 371.048C86.8328 371.139 86.4514 371.184 86.0248 371.184C85.2781 371.184 84.6728 370.979 84.2088 370.568C83.7448 370.152 83.5128 369.579 83.5128 368.848V360.248H80.9288V359.184H84.8568Z" fill="#62C655"/>
<path d="M121.938 84H180.7V84.4H121.938V84Z" fill="white"/>
<path d="M12 6H574V4H12V6ZM577 9V396H579V9H577ZM574 399H12V401H574V399ZM9 396V9H7V396H9ZM12 399C10.3431 399 9 397.657 9 396H7C7 398.761 9.23858 401 12 401V399ZM577 396C577 397.657 575.657 399 574 399V401C576.761 401 579 398.761 579 396H577ZM574 6C575.657 6 577 7.34315 577 9H579C579 6.23857 576.761 4 574 4V6ZM12 4C9.23858 4 7 6.23858 7 9H9C9 7.34315 10.3431 6 12 6V4Z" fill="#192535"/>
</g>
<defs>
<filter id="filter0_d" x="0" y="0" width="586" height="411" filterUnits="userSpaceOnUse" color-interpolation-filters="sRGB">
<feFlood flood-opacity="0" result="BackgroundImageFix"/>
<feColorMatrix in="SourceAlpha" type="matrix" values="0 0 0 0 0 0 0 0 0 0 0 0 0 0 0 0 0 0 127 0"/>
<feOffset dy="3"/>
<feGaussianBlur stdDeviation="4"/>
<feColorMatrix type="matrix" values="0 0 0 0 0 0 0 0 0 0 0 0 0 0 0 0 0 0 0.15 0"/>
<feBlend mode="normal" in2="BackgroundImageFix" result="effect1_dropShadow"/>
<feBlend mode="normal" in="SourceGraphic" in2="effect1_dropShadow" result="shape"/>
</filter>
</defs>
</svg>
