<svg width="586" height="171" viewBox="0 0 586 171" fill="none" xmlns="http://www.w3.org/2000/svg">
<g filter="url(#filter0_d)">
<path d="M8 9C8 6.79086 9.79086 5 12 5H574C576.209 5 578 6.79086 578 9V156C578 158.209 576.209 160 574 160H12C9.79087 160 8 158.209 8 156V9Z" fill="#FF0000"/>
<rect x="8" y="5" width="570" height="40" fill="#1D2A3D"/>
<circle cx="28" cy="25" r="6" fill="#FF4A4A"/>
<circle cx="48" cy="25" r="6" fill="#FFB83D"/>
<circle cx="68" cy="25" r="6" fill="#00C543"/>
<rect x="8" y="44" width="570" height="1" fill="#122D42"/>
<rect width="570" height="115" transform="translate(8 45)" fill="#25354D"/>
<path d="M41.288 76.592C41.688 76.592 42.0267 76.672 42.304 76.832C42.5867 76.992 42.8373 77.1787 43.056 77.392C43.2747 77.6 43.4853 77.7867 43.688 77.952C43.8907 78.112 44.1147 78.192 44.36 78.192C44.6907 78.192 44.984 78.0613 45.24 77.8C45.5013 77.5387 45.736 77.216 45.944 76.832L46.904 77.328C46.7493 77.632 46.56 77.9413 46.336 78.256C46.112 78.5653 45.8347 78.8267 45.504 79.04C45.1787 79.248 44.7813 79.352 44.312 79.352C43.9387 79.352 43.6133 79.272 43.336 79.112C43.064 78.952 42.816 78.768 42.592 78.56C42.368 78.3467 42.1493 78.16 41.936 78C41.7227 77.8347 41.4907 77.752 41.24 77.752C40.8933 77.752 40.5947 77.8827 40.344 78.144C40.0933 78.4 39.864 78.72 39.656 79.104L38.696 78.632C38.856 78.3173 39.0453 78.0027 39.264 77.688C39.488 77.3733 39.7627 77.112 40.088 76.904C40.4133 76.696 40.8133 76.592 41.288 76.592ZM48.3218 84.648L47.2338 84.168L54.0818 70.048L55.1538 70.576L48.3218 84.648ZM88.6007 74.576L85.5368 83H83.9768L80.9368 74.576H82.3608L84.8008 81.776L87.2088 74.576H88.6007ZM96.6585 82.576C96.3705 82.768 96.0212 82.9173 95.6105 83.024C95.1998 83.1307 94.7972 83.184 94.4025 83.184C93.4958 83.184 92.7972 82.9467 92.3065 82.472C91.8158 81.9973 91.5705 81.3867 91.5705 80.64V75.616H89.6345V74.576H91.5705V72.664L92.9145 72.504V74.576H95.8265L95.6665 75.616H92.9145V80.624C92.9145 81.0933 93.0372 81.4507 93.2825 81.696C93.5332 81.9413 93.9465 82.064 94.5225 82.064C94.8372 82.064 95.1278 82.0267 95.3945 81.952C95.6612 81.8773 95.9092 81.7813 96.1385 81.664L96.6585 82.576ZM99.4202 79.264C99.4576 80.24 99.7136 80.952 100.188 81.4C100.668 81.8427 101.234 82.064 101.884 82.064C102.316 82.064 102.706 82 103.052 81.872C103.399 81.744 103.759 81.5547 104.132 81.304L104.764 82.192C104.375 82.5013 103.927 82.744 103.42 82.92C102.914 83.096 102.396 83.184 101.868 83.184C101.047 83.184 100.348 83 99.7722 82.632C99.2016 82.264 98.7642 81.752 98.4602 81.096C98.1616 80.4347 98.0122 79.6693 98.0122 78.8C98.0122 77.9467 98.1616 77.1893 98.4602 76.528C98.7642 75.8667 99.1909 75.3467 99.7402 74.968C100.295 74.5893 100.946 74.4 101.692 74.4C102.754 74.4 103.588 74.768 104.196 75.504C104.81 76.24 105.116 77.248 105.116 78.528C105.116 78.672 105.111 78.808 105.1 78.936C105.095 79.064 105.09 79.1733 105.084 79.264H99.4202ZM101.708 75.504C101.084 75.504 100.562 75.7253 100.14 76.168C99.7189 76.6107 99.4816 77.296 99.4282 78.224H103.82C103.804 77.3227 103.607 76.6453 103.228 76.192C102.85 75.7333 102.343 75.504 101.708 75.504ZM107.574 83H106.038L109.15 78.552L106.422 74.576H108.014L109.966 77.712L111.942 74.576H113.478L110.758 78.496L113.862 83H112.214L109.91 79.384L107.574 83Z" fill="#FFB100"/>
<path d="M68.7092 69.424V71.832C69.3492 71.9013 69.9172 72.0587 70.4132 72.304C70.9092 72.544 71.3226 72.816 71.6532 73.12L70.8292 73.968C70.2106 73.3867 69.5039 73.0453 68.7092 72.944V76.592C69.2479 76.768 69.7493 76.9947 70.2133 77.272C70.6826 77.544 71.0613 77.8987 71.3492 78.336C71.6372 78.7733 71.7812 79.3173 71.7812 79.968C71.7812 80.4747 71.6666 80.952 71.4373 81.4C71.2079 81.8427 70.8639 82.2187 70.4053 82.528C69.9519 82.832 69.3866 83.0293 68.7092 83.12V85.448H67.6293V83.168C66.8719 83.12 66.2132 82.9467 65.6532 82.648C65.0986 82.344 64.6426 82.016 64.2852 81.664L65.0852 80.776C65.4212 81.1173 65.7972 81.4027 66.2132 81.632C66.6346 81.856 67.1066 81.9893 67.6293 82.032V77.6C66.6959 77.2907 65.9732 76.8933 65.4612 76.408C64.9546 75.9173 64.7012 75.3013 64.7012 74.56C64.7012 74.1333 64.8079 73.7227 65.0212 73.328C65.2399 72.9333 65.5652 72.6027 65.9972 72.336C66.4292 72.064 66.9732 71.896 67.6293 71.832V69.424H68.7092ZM67.6293 72.976C67.1919 73.0507 66.8319 73.216 66.5492 73.472C66.2719 73.728 66.1332 74.0827 66.1332 74.536C66.1332 74.9093 66.2346 75.2267 66.4372 75.488C66.6452 75.7493 67.0426 76 67.6293 76.24V72.976ZM68.7092 77.976V81.96C69.7919 81.7413 70.3333 81.0827 70.3333 79.984C70.3333 79.536 70.2133 79.152 69.9732 78.832C69.7386 78.512 69.3173 78.2267 68.7092 77.976Z" fill="#477DFF"/>
<path d="M127.314 74.4C128.06 74.4 128.655 74.5813 129.098 74.944C129.546 75.3067 129.868 75.8187 130.066 76.48C130.263 77.136 130.362 77.904 130.362 78.784C130.362 79.632 130.242 80.3893 130.002 81.056C129.767 81.7173 129.41 82.2373 128.93 82.616C128.45 82.9947 127.844 83.184 127.114 83.184C126.191 83.184 125.45 82.8587 124.89 82.208V86.224L123.546 86.392V74.576H124.69L124.802 75.752C125.111 75.32 125.479 74.9867 125.906 74.752C126.332 74.5173 126.802 74.4 127.314 74.4ZM126.994 75.48C126.53 75.48 126.119 75.6213 125.762 75.904C125.404 76.1813 125.114 76.4907 124.89 76.832V81.008C125.108 81.3333 125.383 81.592 125.714 81.784C126.05 81.9707 126.418 82.064 126.818 82.064C127.516 82.064 128.042 81.7973 128.394 81.264C128.746 80.7307 128.922 79.9013 128.922 78.776C128.922 76.5787 128.279 75.48 126.994 75.48ZM135.219 71.184V80.92C135.219 81.336 135.347 81.632 135.603 81.808C135.865 81.9787 136.201 82.064 136.611 82.064C136.862 82.064 137.102 82.0373 137.331 81.984C137.566 81.9307 137.798 81.8587 138.027 81.768L138.387 82.752C138.158 82.864 137.873 82.9627 137.531 83.048C137.195 83.1387 136.814 83.184 136.387 83.184C135.641 83.184 135.035 82.9787 134.571 82.568C134.107 82.152 133.875 81.5787 133.875 80.848V72.248H131.291V71.184H135.219ZM141.677 74.576V80.544C141.677 81.0987 141.792 81.4987 142.021 81.744C142.25 81.9893 142.608 82.112 143.093 82.112C143.557 82.112 143.994 81.9813 144.405 81.72C144.821 81.4533 145.144 81.1387 145.373 80.776V74.576H146.717V83H145.573L145.461 81.864C145.13 82.2907 144.72 82.6187 144.229 82.848C143.744 83.072 143.256 83.184 142.765 83.184C141.949 83.184 141.338 82.968 140.933 82.536C140.533 82.0987 140.333 81.488 140.333 80.704V74.576H141.677ZM155.575 73.68L155.991 74.944C155.628 75.056 155.244 75.1253 154.839 75.152C154.439 75.1787 154.001 75.192 153.527 75.192C154.503 75.64 154.991 76.3467 154.991 77.312C154.991 78.144 154.711 78.8293 154.151 79.368C153.596 79.9067 152.82 80.176 151.823 80.176C151.54 80.176 151.303 80.1627 151.111 80.136C150.924 80.1093 150.743 80.0693 150.567 80.016C150.439 80.1067 150.332 80.2267 150.247 80.376C150.167 80.52 150.127 80.672 150.127 80.832C150.127 81.0347 150.207 81.2027 150.367 81.336C150.527 81.4693 150.823 81.536 151.255 81.536H152.775C153.34 81.536 153.847 81.6373 154.295 81.84C154.743 82.0427 155.097 82.3173 155.359 82.664C155.62 83.0053 155.751 83.392 155.751 83.824C155.751 84.6507 155.399 85.2853 154.695 85.728C153.996 86.1707 153.007 86.392 151.727 86.392C150.831 86.392 150.124 86.2987 149.607 86.112C149.089 85.9307 148.719 85.6507 148.495 85.272C148.276 84.8987 148.167 84.4267 148.167 83.856H149.383C149.383 84.1813 149.447 84.4507 149.575 84.664C149.703 84.8773 149.935 85.0347 150.271 85.136C150.607 85.2427 151.089 85.296 151.719 85.296C152.647 85.296 153.324 85.1787 153.751 84.944C154.177 84.7147 154.391 84.3707 154.391 83.912C154.391 83.512 154.209 83.2107 153.847 83.008C153.484 82.8053 153.031 82.704 152.487 82.704H150.983C150.252 82.704 149.716 82.544 149.375 82.224C149.033 81.904 148.863 81.536 148.863 81.12C148.863 80.544 149.172 80.0533 149.791 79.648C148.847 79.1467 148.375 78.3707 148.375 77.32C148.375 76.7493 148.516 76.2453 148.799 75.808C149.081 75.3653 149.476 75.0187 149.983 74.768C150.489 74.5173 151.073 74.392 151.735 74.392C152.444 74.392 153.02 74.3627 153.463 74.304C153.905 74.2453 154.284 74.1627 154.599 74.056C154.919 73.9493 155.244 73.824 155.575 73.68ZM151.735 75.376C151.057 75.376 150.556 75.56 150.231 75.928C149.911 76.296 149.751 76.76 149.751 77.32C149.751 77.8907 149.913 78.36 150.239 78.728C150.569 79.096 151.079 79.28 151.767 79.28C152.359 79.28 152.812 79.1067 153.127 78.76C153.441 78.4133 153.599 77.9307 153.599 77.312C153.599 76.0213 152.977 75.376 151.735 75.376ZM160.312 70.632C160.611 70.632 160.848 70.7227 161.024 70.904C161.206 71.0853 161.296 71.3067 161.296 71.568C161.296 71.84 161.206 72.0693 161.024 72.256C160.848 72.4373 160.611 72.528 160.312 72.528C160.03 72.528 159.798 72.4373 159.616 72.256C159.435 72.0693 159.344 71.84 159.344 71.568C159.344 71.3067 159.435 71.0853 159.616 70.904C159.798 70.7227 160.03 70.632 160.312 70.632ZM161.384 74.576V81.936H163.76V83H157.44V81.936H160.04V75.64H157.52V74.576H161.384ZM165.514 83V74.576H166.658L166.762 75.744C167.104 75.312 167.53 74.9813 168.042 74.752C168.554 74.5173 169.056 74.4 169.546 74.4C170.373 74.4 170.973 74.6187 171.346 75.056C171.725 75.4933 171.914 76.1013 171.914 76.88V83H170.57V77.872C170.57 77.296 170.538 76.832 170.474 76.48C170.41 76.128 170.274 75.8693 170.066 75.704C169.864 75.5387 169.552 75.456 169.13 75.456C168.8 75.456 168.488 75.528 168.194 75.672C167.906 75.816 167.648 75.9973 167.418 76.216C167.194 76.4293 167.008 76.6453 166.858 76.864V83H165.514ZM176.772 82.072C177.423 82.072 177.935 81.952 178.308 81.712C178.681 81.472 178.868 81.1467 178.868 80.736C178.868 80.4853 178.82 80.2667 178.724 80.08C178.633 79.8933 178.444 79.7253 178.156 79.576C177.868 79.4213 177.425 79.2693 176.828 79.12C176.247 78.976 175.74 78.8107 175.308 78.624C174.881 78.432 174.548 78.184 174.308 77.88C174.073 77.576 173.956 77.1813 173.956 76.696C173.956 75.9867 174.252 75.4267 174.844 75.016C175.436 74.6053 176.207 74.4 177.156 74.4C177.833 74.4 178.423 74.4907 178.924 74.672C179.431 74.8533 179.86 75.072 180.212 75.328L179.62 76.24C179.305 76.0213 178.953 75.8427 178.564 75.704C178.18 75.56 177.716 75.488 177.172 75.488C176.511 75.488 176.041 75.592 175.764 75.8C175.487 76.0027 175.348 76.2667 175.348 76.592C175.348 76.8427 175.415 77.0507 175.548 77.216C175.687 77.376 175.919 77.52 176.244 77.648C176.569 77.776 177.017 77.9173 177.588 78.072C178.137 78.2213 178.617 78.3973 179.028 78.6C179.439 78.8027 179.756 79.0693 179.98 79.4C180.209 79.7253 180.324 80.1493 180.324 80.672C180.324 81.2693 180.153 81.7547 179.812 82.128C179.471 82.496 179.028 82.7653 178.484 82.936C177.945 83.1013 177.375 83.184 176.772 83.184C176.009 83.184 175.359 83.0747 174.82 82.856C174.287 82.632 173.839 82.3627 173.476 82.048L174.244 81.16C174.575 81.432 174.953 81.6533 175.38 81.824C175.812 81.9893 176.276 82.072 176.772 82.072ZM192.039 74.576V80.544C192.039 81.0987 192.154 81.4987 192.383 81.744C192.613 81.9893 192.97 82.112 193.455 82.112C193.919 82.112 194.357 81.9813 194.767 81.72C195.183 81.4533 195.506 81.1387 195.735 80.776V74.576H197.079V83H195.935L195.823 81.864C195.493 82.2907 195.082 82.6187 194.591 82.848C194.106 83.072 193.618 83.184 193.127 83.184C192.311 83.184 191.701 82.968 191.295 82.536C190.895 82.0987 190.695 81.488 190.695 80.704V74.576H192.039ZM199.089 83V74.576H200.233L200.337 75.744C200.679 75.312 201.105 74.9813 201.617 74.752C202.129 74.5173 202.631 74.4 203.121 74.4C203.948 74.4 204.548 74.6187 204.921 75.056C205.3 75.4933 205.489 76.1013 205.489 76.88V83H204.145V77.872C204.145 77.296 204.113 76.832 204.049 76.48C203.985 76.128 203.849 75.8693 203.641 75.704C203.439 75.5387 203.127 75.456 202.705 75.456C202.375 75.456 202.063 75.528 201.769 75.672C201.481 75.816 201.223 75.9973 200.993 76.216C200.769 76.4293 200.583 76.6453 200.433 76.864V83H199.089ZM210.675 70.632C210.974 70.632 211.211 70.7227 211.387 70.904C211.568 71.0853 211.659 71.3067 211.659 71.568C211.659 71.84 211.568 72.0693 211.387 72.256C211.211 72.4373 210.974 72.528 210.675 72.528C210.392 72.528 210.16 72.4373 209.979 72.256C209.798 72.0693 209.707 71.84 209.707 71.568C209.707 71.3067 209.798 71.0853 209.979 70.904C210.16 70.7227 210.392 70.632 210.675 70.632ZM211.747 74.576V81.936H214.123V83H207.803V81.936H210.403V75.64H207.883V74.576H211.747ZM215.877 83V74.576H217.021L217.125 75.744C217.466 75.312 217.893 74.9813 218.405 74.752C218.917 74.5173 219.418 74.4 219.909 74.4C220.735 74.4 221.335 74.6187 221.709 75.056C222.087 75.4933 222.277 76.1013 222.277 76.88V83H220.933V77.872C220.933 77.296 220.901 76.832 220.837 76.48C220.773 76.128 220.637 75.8693 220.429 75.704C220.226 75.5387 219.914 75.456 219.493 75.456C219.162 75.456 218.85 75.528 218.557 75.672C218.269 75.816 218.01 75.9973 217.781 76.216C217.557 76.4293 217.37 76.6453 217.221 76.864V83H215.877ZM227.135 82.072C227.785 82.072 228.297 81.952 228.671 81.712C229.044 81.472 229.231 81.1467 229.231 80.736C229.231 80.4853 229.183 80.2667 229.087 80.08C228.996 79.8933 228.807 79.7253 228.519 79.576C228.231 79.4213 227.788 79.2693 227.191 79.12C226.609 78.976 226.103 78.8107 225.671 78.624C225.244 78.432 224.911 78.184 224.671 77.88C224.436 77.576 224.319 77.1813 224.319 76.696C224.319 75.9867 224.615 75.4267 225.207 75.016C225.799 74.6053 226.569 74.4 227.519 74.4C228.196 74.4 228.785 74.4907 229.287 74.672C229.793 74.8533 230.223 75.072 230.575 75.328L229.983 76.24C229.668 76.0213 229.316 75.8427 228.927 75.704C228.543 75.56 228.079 75.488 227.535 75.488C226.873 75.488 226.404 75.592 226.127 75.8C225.849 76.0027 225.711 76.2667 225.711 76.592C225.711 76.8427 225.777 77.0507 225.911 77.216C226.049 77.376 226.281 77.52 226.607 77.648C226.932 77.776 227.38 77.9173 227.951 78.072C228.5 78.2213 228.98 78.3973 229.391 78.6C229.801 78.8027 230.119 79.0693 230.343 79.4C230.572 79.7253 230.687 80.1493 230.687 80.672C230.687 81.2693 230.516 81.7547 230.175 82.128C229.833 82.496 229.391 82.7653 228.847 82.936C228.308 83.1013 227.737 83.184 227.135 83.184C226.372 83.184 225.721 83.0747 225.183 82.856C224.649 82.632 224.201 82.3627 223.839 82.048L224.607 81.16C224.937 81.432 225.316 81.6533 225.743 81.824C226.175 81.9893 226.639 82.072 227.135 82.072ZM239.352 82.576C239.064 82.768 238.715 82.9173 238.304 83.024C237.894 83.1307 237.491 83.184 237.096 83.184C236.19 83.184 235.491 82.9467 235 82.472C234.51 81.9973 234.264 81.3867 234.264 80.64V75.616H232.328V74.576H234.264V72.664L235.608 72.504V74.576H238.52L238.36 75.616H235.608V80.624C235.608 81.0933 235.731 81.4507 235.976 81.696C236.227 81.9413 236.64 82.064 237.216 82.064C237.531 82.064 237.822 82.0267 238.088 81.952C238.355 81.8773 238.603 81.7813 238.832 81.664L239.352 82.576ZM247.09 81.16C247.09 81.5013 247.146 81.7493 247.258 81.904C247.37 82.0587 247.543 82.1707 247.778 82.24L247.45 83.184C247.087 83.136 246.77 83.0213 246.498 82.84C246.226 82.6533 246.029 82.3733 245.906 82C245.602 82.3893 245.221 82.6853 244.762 82.888C244.309 83.0853 243.81 83.184 243.266 83.184C242.423 83.184 241.759 82.9467 241.274 82.472C240.789 81.9973 240.546 81.368 240.546 80.584C240.546 79.7147 240.885 79.048 241.562 78.584C242.239 78.12 243.218 77.888 244.498 77.888H245.738V77.184C245.738 76.576 245.559 76.1467 245.202 75.896C244.85 75.64 244.359 75.512 243.73 75.512C243.453 75.512 243.127 75.5467 242.754 75.616C242.381 75.68 241.975 75.7893 241.538 75.944L241.186 74.928C241.698 74.736 242.181 74.6 242.634 74.52C243.093 74.44 243.527 74.4 243.938 74.4C244.983 74.4 245.77 74.6453 246.298 75.136C246.826 75.6267 247.09 76.288 247.09 77.12V81.16ZM243.61 82.16C244.026 82.16 244.421 82.056 244.794 81.848C245.173 81.6347 245.487 81.3413 245.738 80.968V78.8H244.522C243.594 78.8 242.938 78.96 242.554 79.28C242.175 79.6 241.986 80.0293 241.986 80.568C241.986 81.6293 242.527 82.16 243.61 82.16ZM252.732 71.184V80.92C252.732 81.336 252.86 81.632 253.116 81.808C253.377 81.9787 253.713 82.064 254.124 82.064C254.374 82.064 254.614 82.0373 254.844 81.984C255.078 81.9307 255.31 81.8587 255.54 81.768L255.9 82.752C255.67 82.864 255.385 82.9627 255.044 83.048C254.708 83.1387 254.326 83.184 253.9 83.184C253.153 83.184 252.548 82.9787 252.084 82.568C251.62 82.152 251.388 81.5787 251.388 80.848V72.248H248.804V71.184H252.732ZM261.126 71.184V80.92C261.126 81.336 261.254 81.632 261.51 81.808C261.771 81.9787 262.107 82.064 262.518 82.064C262.768 82.064 263.008 82.0373 263.238 81.984C263.472 81.9307 263.704 81.8587 263.934 81.768L264.294 82.752C264.064 82.864 263.779 82.9627 263.438 83.048C263.102 83.1387 262.72 83.184 262.294 83.184C261.547 83.184 260.942 82.9787 260.478 82.568C260.014 82.152 259.782 81.5787 259.782 80.848V72.248H257.198V71.184H261.126ZM277.913 71.184V80.92C277.913 81.336 278.041 81.632 278.297 81.808C278.558 81.9787 278.894 82.064 279.305 82.064C279.556 82.064 279.796 82.0373 280.025 81.984C280.26 81.9307 280.492 81.8587 280.721 81.768L281.081 82.752C280.852 82.864 280.566 82.9627 280.225 83.048C279.889 83.1387 279.508 83.184 279.081 83.184C278.334 83.184 277.729 82.9787 277.265 82.568C276.801 82.152 276.569 81.5787 276.569 80.848V72.248H273.985V71.184H277.913ZM286.219 70.632C286.517 70.632 286.755 70.7227 286.931 70.904C287.112 71.0853 287.203 71.3067 287.203 71.568C287.203 71.84 287.112 72.0693 286.931 72.256C286.755 72.4373 286.517 72.528 286.219 72.528C285.936 72.528 285.704 72.4373 285.523 72.256C285.341 72.0693 285.251 71.84 285.251 71.568C285.251 71.3067 285.341 71.0853 285.523 70.904C285.704 70.7227 285.936 70.632 286.219 70.632ZM287.291 74.576V81.936H289.667V83H283.347V81.936H285.947V75.64H283.427V74.576H287.291ZM298.269 73.68L298.685 74.944C298.322 75.056 297.938 75.1253 297.533 75.152C297.133 75.1787 296.695 75.192 296.221 75.192C297.197 75.64 297.685 76.3467 297.685 77.312C297.685 78.144 297.405 78.8293 296.845 79.368C296.29 79.9067 295.514 80.176 294.516 80.176C294.234 80.176 293.997 80.1627 293.805 80.136C293.618 80.1093 293.437 80.0693 293.261 80.016C293.133 80.1067 293.026 80.2267 292.941 80.376C292.861 80.52 292.821 80.672 292.821 80.832C292.821 81.0347 292.901 81.2027 293.061 81.336C293.221 81.4693 293.517 81.536 293.949 81.536H295.469C296.034 81.536 296.541 81.6373 296.989 81.84C297.437 82.0427 297.791 82.3173 298.053 82.664C298.314 83.0053 298.444 83.392 298.444 83.824C298.444 84.6507 298.093 85.2853 297.389 85.728C296.69 86.1707 295.701 86.392 294.421 86.392C293.525 86.392 292.818 86.2987 292.301 86.112C291.783 85.9307 291.413 85.6507 291.189 85.272C290.97 84.8987 290.861 84.4267 290.861 83.856H292.077C292.077 84.1813 292.141 84.4507 292.269 84.664C292.397 84.8773 292.629 85.0347 292.965 85.136C293.301 85.2427 293.783 85.296 294.413 85.296C295.341 85.296 296.018 85.1787 296.445 84.944C296.871 84.7147 297.085 84.3707 297.085 83.912C297.085 83.512 296.903 83.2107 296.541 83.008C296.178 82.8053 295.725 82.704 295.181 82.704H293.677C292.946 82.704 292.41 82.544 292.069 82.224C291.727 81.904 291.557 81.536 291.557 81.12C291.557 80.544 291.866 80.0533 292.485 79.648C291.541 79.1467 291.069 78.3707 291.069 77.32C291.069 76.7493 291.21 76.2453 291.493 75.808C291.775 75.3653 292.17 75.0187 292.677 74.768C293.183 74.5173 293.767 74.392 294.429 74.392C295.138 74.392 295.714 74.3627 296.157 74.304C296.599 74.2453 296.978 74.1627 297.293 74.056C297.613 73.9493 297.938 73.824 298.269 73.68ZM294.429 75.376C293.751 75.376 293.25 75.56 292.925 75.928C292.605 76.296 292.445 76.76 292.445 77.32C292.445 77.8907 292.607 78.36 292.933 78.728C293.263 79.096 293.773 79.28 294.461 79.28C295.053 79.28 295.506 79.1067 295.821 78.76C296.135 78.4133 296.293 77.9307 296.293 77.312C296.293 76.0213 295.671 75.376 294.429 75.376ZM301.158 71.056V75.728C301.489 75.2907 301.894 74.96 302.374 74.736C302.86 74.512 303.35 74.4 303.846 74.4C304.668 74.4 305.268 74.6187 305.646 75.056C306.025 75.4933 306.214 76.1013 306.214 76.88V83H304.87V76.912C304.87 76.4053 304.753 76.0373 304.518 75.808C304.284 75.5733 303.916 75.456 303.414 75.456C303.094 75.456 302.79 75.528 302.502 75.672C302.214 75.816 301.956 75.9947 301.726 76.208C301.497 76.4213 301.308 76.64 301.158 76.864V83H299.814V71.2L301.158 71.056ZM314.896 82.576C314.608 82.768 314.259 82.9173 313.848 83.024C313.437 83.1307 313.035 83.184 312.64 83.184C311.733 83.184 311.035 82.9467 310.544 82.472C310.053 81.9973 309.808 81.3867 309.808 80.64V75.616H307.872V74.576H309.808V72.664L311.152 72.504V74.576H314.064L313.904 75.616H311.152V80.624C311.152 81.0933 311.275 81.4507 311.52 81.696C311.771 81.9413 312.184 82.064 312.76 82.064C313.075 82.064 313.365 82.0267 313.632 81.952C313.899 81.8773 314.147 81.7813 314.376 81.664L314.896 82.576ZM317.946 71.056V75.728C318.276 75.2907 318.682 74.96 319.162 74.736C319.647 74.512 320.138 74.4 320.634 74.4C321.455 74.4 322.055 74.6187 322.434 75.056C322.812 75.4933 323.002 76.1013 323.002 76.88V83H321.658V76.912C321.658 76.4053 321.54 76.0373 321.306 75.808C321.071 75.5733 320.703 75.456 320.202 75.456C319.882 75.456 319.578 75.528 319.29 75.672C319.002 75.816 318.743 75.9947 318.514 76.208C318.284 76.4213 318.095 76.64 317.946 76.864V83H316.602V71.2L317.946 71.056ZM328.204 74.4C329.393 74.4 330.292 74.7973 330.9 75.592C331.508 76.3867 331.812 77.4507 331.812 78.784C331.812 79.6427 331.673 80.4027 331.396 81.064C331.118 81.7253 330.71 82.2453 330.172 82.624C329.633 82.9973 328.972 83.184 328.188 83.184C326.998 83.184 326.097 82.784 325.484 81.984C324.87 81.184 324.564 80.1227 324.564 78.8C324.564 77.936 324.702 77.1733 324.98 76.512C325.257 75.8453 325.665 75.328 326.204 74.96C326.748 74.5867 327.414 74.4 328.204 74.4ZM328.204 75.496C327.478 75.496 326.929 75.7653 326.556 76.304C326.188 76.8427 326.004 77.6747 326.004 78.8C326.004 79.9147 326.185 80.7413 326.548 81.28C326.916 81.8133 327.462 82.08 328.188 82.08C328.913 82.08 329.457 81.8107 329.82 81.272C330.188 80.7333 330.372 79.904 330.372 78.784C330.372 77.664 330.19 76.8373 329.828 76.304C329.465 75.7653 328.924 75.496 328.204 75.496ZM334.733 74.576V80.544C334.733 81.0987 334.848 81.4987 335.077 81.744C335.307 81.9893 335.664 82.112 336.149 82.112C336.613 82.112 337.051 81.9813 337.461 81.72C337.877 81.4533 338.2 81.1387 338.429 80.776V74.576H339.773V83H338.629L338.517 81.864C338.187 82.2907 337.776 82.6187 337.285 82.848C336.8 83.072 336.312 83.184 335.821 83.184C335.005 83.184 334.395 82.968 333.989 82.536C333.589 82.0987 333.389 81.488 333.389 80.704V74.576H334.733ZM344.647 82.072C345.298 82.072 345.81 81.952 346.183 81.712C346.556 81.472 346.743 81.1467 346.743 80.736C346.743 80.4853 346.695 80.2667 346.599 80.08C346.508 79.8933 346.319 79.7253 346.031 79.576C345.743 79.4213 345.3 79.2693 344.703 79.12C344.122 78.976 343.615 78.8107 343.183 78.624C342.756 78.432 342.423 78.184 342.183 77.88C341.948 77.576 341.831 77.1813 341.831 76.696C341.831 75.9867 342.127 75.4267 342.719 75.016C343.311 74.6053 344.082 74.4 345.031 74.4C345.708 74.4 346.298 74.4907 346.799 74.672C347.306 74.8533 347.735 75.072 348.087 75.328L347.495 76.24C347.18 76.0213 346.828 75.8427 346.439 75.704C346.055 75.56 345.591 75.488 345.047 75.488C344.386 75.488 343.916 75.592 343.639 75.8C343.362 76.0027 343.223 76.2667 343.223 76.592C343.223 76.8427 343.29 77.0507 343.423 77.216C343.562 77.376 343.794 77.52 344.119 77.648C344.444 77.776 344.892 77.9173 345.463 78.072C346.012 78.2213 346.492 78.3973 346.903 78.6C347.314 78.8027 347.631 79.0693 347.855 79.4C348.084 79.7253 348.199 80.1493 348.199 80.672C348.199 81.2693 348.028 81.7547 347.687 82.128C347.346 82.496 346.903 82.7653 346.359 82.936C345.82 83.1013 345.25 83.184 344.647 83.184C343.884 83.184 343.234 83.0747 342.695 82.856C342.162 82.632 341.714 82.3627 341.351 82.048L342.119 81.16C342.45 81.432 342.828 81.6533 343.255 81.824C343.687 81.9893 344.151 82.072 344.647 82.072ZM351.233 79.264C351.27 80.24 351.526 80.952 352.001 81.4C352.481 81.8427 353.046 82.064 353.697 82.064C354.129 82.064 354.518 82 354.865 81.872C355.211 81.744 355.571 81.5547 355.945 81.304L356.577 82.192C356.187 82.5013 355.739 82.744 355.233 82.92C354.726 83.096 354.209 83.184 353.681 83.184C352.859 83.184 352.161 83 351.585 82.632C351.014 82.264 350.577 81.752 350.273 81.096C349.974 80.4347 349.825 79.6693 349.825 78.8C349.825 77.9467 349.974 77.1893 350.273 76.528C350.577 75.8667 351.003 75.3467 351.553 74.968C352.107 74.5893 352.758 74.4 353.505 74.4C354.566 74.4 355.401 74.768 356.009 75.504C356.622 76.24 356.929 77.248 356.929 78.528C356.929 78.672 356.923 78.808 356.913 78.936C356.907 79.064 356.902 79.1733 356.897 79.264H351.233ZM353.521 75.504C352.897 75.504 352.374 75.7253 351.953 76.168C351.531 76.6107 351.294 77.296 351.241 78.224H355.633C355.617 77.3227 355.419 76.6453 355.041 76.192C354.662 75.7333 354.155 75.504 353.521 75.504ZM46.44 95.984V103.432C46.44 104.173 46.2907 104.827 45.992 105.392C45.6933 105.957 45.2693 106.397 44.72 106.712C44.1707 107.027 43.5253 107.184 42.784 107.184C42.0267 107.184 41.376 107.027 40.832 106.712C40.2933 106.392 39.88 105.952 39.592 105.392C39.304 104.827 39.16 104.173 39.16 103.432V95.984H40.536V103.48C40.536 104.317 40.7307 104.944 41.12 105.36C41.5147 105.776 42.0693 105.984 42.784 105.984C43.504 105.984 44.0587 105.776 44.448 105.36C44.8427 104.944 45.04 104.317 45.04 103.48V95.984H46.44ZM48.0018 107V98.576H49.1458L49.2498 99.744C49.5911 99.312 50.0178 98.9813 50.5298 98.752C51.0418 98.5173 51.5431 98.4 52.0338 98.4C52.8604 98.4 53.4604 98.6187 53.8338 99.056C54.2124 99.4933 54.4018 100.101 54.4018 100.88V107H53.0578V101.872C53.0578 101.296 53.0258 100.832 52.9618 100.48C52.8978 100.128 52.7618 99.8693 52.5538 99.704C52.3511 99.5387 52.0391 99.456 51.6178 99.456C51.2871 99.456 50.9751 99.528 50.6818 99.672C50.3938 99.816 50.1351 99.9973 49.9058 100.216C49.6818 100.429 49.4951 100.645 49.3458 100.864V107H48.0018ZM59.5875 94.632C59.8862 94.632 60.1235 94.7227 60.2995 94.904C60.4808 95.0853 60.5715 95.3067 60.5715 95.568C60.5715 95.84 60.4808 96.0693 60.2995 96.256C60.1235 96.4373 59.8862 96.528 59.5875 96.528C59.3048 96.528 59.0728 96.4373 58.8915 96.256C58.7102 96.0693 58.6195 95.84 58.6195 95.568C58.6195 95.3067 58.7102 95.0853 58.8915 94.904C59.0728 94.7227 59.3048 94.632 59.5875 94.632ZM60.6595 98.576V105.936H63.0355V107H56.7155V105.936H59.3155V99.64H56.7955V98.576H60.6595ZM64.7892 107V98.576H65.9332L66.0372 99.744C66.3786 99.312 66.8052 98.9813 67.3172 98.752C67.8292 98.5173 68.3306 98.4 68.8212 98.4C69.6479 98.4 70.2479 98.6187 70.6213 99.056C70.9999 99.4933 71.1892 100.101 71.1892 100.88V107H69.8453V101.872C69.8453 101.296 69.8133 100.832 69.7492 100.48C69.6852 100.128 69.5492 99.8693 69.3412 99.704C69.1386 99.5387 68.8266 99.456 68.4053 99.456C68.0746 99.456 67.7626 99.528 67.4692 99.672C67.1812 99.816 66.9226 99.9973 66.6932 100.216C66.4692 100.429 66.2826 100.645 66.1332 100.864V107H64.7892ZM76.047 106.072C76.6977 106.072 77.2097 105.952 77.583 105.712C77.9563 105.472 78.143 105.147 78.143 104.736C78.143 104.485 78.095 104.267 77.999 104.08C77.9083 103.893 77.719 103.725 77.431 103.576C77.143 103.421 76.7003 103.269 76.103 103.12C75.5217 102.976 75.015 102.811 74.583 102.624C74.1563 102.432 73.823 102.184 73.583 101.88C73.3483 101.576 73.231 101.181 73.231 100.696C73.231 99.9867 73.527 99.4267 74.119 99.016C74.711 98.6053 75.4817 98.4 76.431 98.4C77.1083 98.4 77.6977 98.4907 78.199 98.672C78.7057 98.8533 79.135 99.072 79.487 99.328L78.895 100.24C78.5803 100.021 78.2283 99.8427 77.839 99.704C77.455 99.56 76.991 99.488 76.447 99.488C75.7857 99.488 75.3163 99.592 75.039 99.8C74.7617 100.003 74.623 100.267 74.623 100.592C74.623 100.843 74.6897 101.051 74.823 101.216C74.9617 101.376 75.1937 101.52 75.519 101.648C75.8443 101.776 76.2923 101.917 76.863 102.072C77.4123 102.221 77.8923 102.397 78.303 102.6C78.7137 102.803 79.031 103.069 79.255 103.4C79.4843 103.725 79.599 104.149 79.599 104.672C79.599 105.269 79.4283 105.755 79.087 106.128C78.7457 106.496 78.303 106.765 77.759 106.936C77.2203 107.101 76.6497 107.184 76.047 107.184C75.2843 107.184 74.6337 107.075 74.095 106.856C73.5617 106.632 73.1137 106.363 72.751 106.048L73.519 105.16C73.8497 105.432 74.2283 105.653 74.655 105.824C75.087 105.989 75.551 106.072 76.047 106.072ZM88.2648 106.576C87.9768 106.768 87.6274 106.917 87.2168 107.024C86.8061 107.131 86.4034 107.184 86.0088 107.184C85.1021 107.184 84.4034 106.947 83.9128 106.472C83.4221 105.997 83.1768 105.387 83.1768 104.64V99.616H81.2408V98.576H83.1768V96.664L84.5208 96.504V98.576H87.4328L87.2728 99.616H84.5208V104.624C84.5208 105.093 84.6434 105.451 84.8888 105.696C85.1394 105.941 85.5528 106.064 86.1288 106.064C86.4434 106.064 86.7341 106.027 87.0008 105.952C87.2674 105.877 87.5154 105.781 87.7448 105.664L88.2648 106.576ZM96.0025 105.16C96.0025 105.501 96.0585 105.749 96.1705 105.904C96.2825 106.059 96.4558 106.171 96.6905 106.24L96.3625 107.184C95.9998 107.136 95.6825 107.021 95.4105 106.84C95.1385 106.653 94.9412 106.373 94.8185 106C94.5145 106.389 94.1332 106.685 93.6745 106.888C93.2212 107.085 92.7225 107.184 92.1785 107.184C91.3358 107.184 90.6718 106.947 90.1865 106.472C89.7012 105.997 89.4585 105.368 89.4585 104.584C89.4585 103.715 89.7972 103.048 90.4745 102.584C91.1518 102.12 92.1305 101.888 93.4105 101.888H94.6505V101.184C94.6505 100.576 94.4718 100.147 94.1145 99.896C93.7625 99.64 93.2718 99.512 92.6425 99.512C92.3652 99.512 92.0398 99.5467 91.6665 99.616C91.2932 99.68 90.8878 99.7893 90.4505 99.944L90.0985 98.928C90.6105 98.736 91.0932 98.6 91.5465 98.52C92.0052 98.44 92.4398 98.4 92.8505 98.4C93.8958 98.4 94.6825 98.6453 95.2105 99.136C95.7385 99.6267 96.0025 100.288 96.0025 101.12V105.16ZM92.5225 106.16C92.9385 106.16 93.3332 106.056 93.7065 105.848C94.0852 105.635 94.3998 105.341 94.6505 104.968V102.8H93.4345C92.5065 102.8 91.8505 102.96 91.4665 103.28C91.0878 103.6 90.8985 104.029 90.8985 104.568C90.8985 105.629 91.4398 106.16 92.5225 106.16ZM101.644 95.184V104.92C101.644 105.336 101.772 105.632 102.028 105.808C102.29 105.979 102.626 106.064 103.036 106.064C103.287 106.064 103.527 106.037 103.756 105.984C103.991 105.931 104.223 105.859 104.452 105.768L104.812 106.752C104.583 106.864 104.298 106.963 103.956 107.048C103.62 107.139 103.239 107.184 102.812 107.184C102.066 107.184 101.46 106.979 100.996 106.568C100.532 106.152 100.3 105.579 100.3 104.848V96.248H97.7162V95.184H101.644ZM110.038 95.184V104.92C110.038 105.336 110.166 105.632 110.422 105.808C110.683 105.979 111.019 106.064 111.43 106.064C111.681 106.064 111.921 106.037 112.15 105.984C112.385 105.931 112.617 105.859 112.846 105.768L113.206 106.752C112.977 106.864 112.691 106.963 112.35 107.048C112.014 107.139 111.633 107.184 111.206 107.184C110.459 107.184 109.854 106.979 109.39 106.568C108.926 106.152 108.694 105.579 108.694 104.848V96.248H106.11V95.184H110.038ZM118.344 94.632C118.642 94.632 118.88 94.7227 119.056 94.904C119.237 95.0853 119.328 95.3067 119.328 95.568C119.328 95.84 119.237 96.0693 119.056 96.256C118.88 96.4373 118.642 96.528 118.344 96.528C118.061 96.528 117.829 96.4373 117.648 96.256C117.466 96.0693 117.376 95.84 117.376 95.568C117.376 95.3067 117.466 95.0853 117.648 94.904C117.829 94.7227 118.061 94.632 118.344 94.632ZM119.416 98.576V105.936H121.792V107H115.472V105.936H118.072V99.64H115.552V98.576H119.416ZM123.546 107V98.576H124.69L124.794 99.744C125.135 99.312 125.562 98.9813 126.074 98.752C126.586 98.5173 127.087 98.4 127.578 98.4C128.404 98.4 129.004 98.6187 129.378 99.056C129.756 99.4933 129.946 100.101 129.946 100.88V107H128.602V101.872C128.602 101.296 128.57 100.832 128.506 100.48C128.442 100.128 128.306 99.8693 128.098 99.704C127.895 99.5387 127.583 99.456 127.162 99.456C126.831 99.456 126.519 99.528 126.226 99.672C125.938 99.816 125.679 99.9973 125.45 100.216C125.226 100.429 125.039 100.645 124.89 100.864V107H123.546ZM138.787 97.68L139.203 98.944C138.841 99.056 138.457 99.1253 138.051 99.152C137.651 99.1787 137.214 99.192 136.739 99.192C137.715 99.64 138.203 100.347 138.203 101.312C138.203 102.144 137.923 102.829 137.363 103.368C136.809 103.907 136.033 104.176 135.035 104.176C134.753 104.176 134.515 104.163 134.323 104.136C134.137 104.109 133.955 104.069 133.779 104.016C133.651 104.107 133.545 104.227 133.459 104.376C133.379 104.52 133.339 104.672 133.339 104.832C133.339 105.035 133.419 105.203 133.579 105.336C133.739 105.469 134.035 105.536 134.467 105.536H135.987C136.553 105.536 137.059 105.637 137.507 105.84C137.955 106.043 138.31 106.317 138.571 106.664C138.833 107.005 138.963 107.392 138.963 107.824C138.963 108.651 138.611 109.285 137.907 109.728C137.209 110.171 136.219 110.392 134.939 110.392C134.043 110.392 133.337 110.299 132.819 110.112C132.302 109.931 131.931 109.651 131.707 109.272C131.489 108.899 131.379 108.427 131.379 107.856H132.595C132.595 108.181 132.659 108.451 132.787 108.664C132.915 108.877 133.147 109.035 133.483 109.136C133.819 109.243 134.302 109.296 134.931 109.296C135.859 109.296 136.537 109.179 136.963 108.944C137.39 108.715 137.603 108.371 137.603 107.912C137.603 107.512 137.422 107.211 137.059 107.008C136.697 106.805 136.243 106.704 135.699 106.704H134.195C133.465 106.704 132.929 106.544 132.587 106.224C132.246 105.904 132.075 105.536 132.075 105.12C132.075 104.544 132.385 104.053 133.003 103.648C132.059 103.147 131.587 102.371 131.587 101.32C131.587 100.749 131.729 100.245 132.011 99.808C132.294 99.3653 132.689 99.0187 133.195 98.768C133.702 98.5173 134.286 98.392 134.947 98.392C135.657 98.392 136.233 98.3627 136.675 98.304C137.118 98.2453 137.497 98.1627 137.811 98.056C138.131 97.9493 138.457 97.824 138.787 97.68ZM134.947 99.376C134.27 99.376 133.769 99.56 133.443 99.928C133.123 100.296 132.963 100.76 132.963 101.32C132.963 101.891 133.126 102.36 133.451 102.728C133.782 103.096 134.291 103.28 134.979 103.28C135.571 103.28 136.025 103.107 136.339 102.76C136.654 102.413 136.811 101.931 136.811 101.312C136.811 100.021 136.19 99.376 134.947 99.376ZM152.007 95.184V104.92C152.007 105.336 152.135 105.632 152.391 105.808C152.652 105.979 152.988 106.064 153.399 106.064C153.649 106.064 153.889 106.037 154.119 105.984C154.353 105.931 154.585 105.859 154.815 105.768L155.175 106.752C154.945 106.864 154.66 106.963 154.319 107.048C153.983 107.139 153.601 107.184 153.175 107.184C152.428 107.184 151.823 106.979 151.359 106.568C150.895 106.152 150.663 105.579 150.663 104.848V96.248H148.079V95.184H152.007ZM160.312 94.632C160.611 94.632 160.848 94.7227 161.024 94.904C161.206 95.0853 161.296 95.3067 161.296 95.568C161.296 95.84 161.206 96.0693 161.024 96.256C160.848 96.4373 160.611 96.528 160.312 96.528C160.03 96.528 159.798 96.4373 159.616 96.256C159.435 96.0693 159.344 95.84 159.344 95.568C159.344 95.3067 159.435 95.0853 159.616 94.904C159.798 94.7227 160.03 94.632 160.312 94.632ZM161.384 98.576V105.936H163.76V107H157.44V105.936H160.04V99.64H157.52V98.576H161.384ZM172.362 97.68L172.778 98.944C172.416 99.056 172.032 99.1253 171.626 99.152C171.226 99.1787 170.789 99.192 170.314 99.192C171.29 99.64 171.778 100.347 171.778 101.312C171.778 102.144 171.498 102.829 170.938 103.368C170.384 103.907 169.608 104.176 168.61 104.176C168.328 104.176 168.09 104.163 167.898 104.136C167.712 104.109 167.53 104.069 167.354 104.016C167.226 104.107 167.12 104.227 167.034 104.376C166.954 104.52 166.914 104.672 166.914 104.832C166.914 105.035 166.994 105.203 167.154 105.336C167.314 105.469 167.61 105.536 168.042 105.536H169.562C170.128 105.536 170.634 105.637 171.082 105.84C171.53 106.043 171.885 106.317 172.146 106.664C172.408 107.005 172.538 107.392 172.538 107.824C172.538 108.651 172.186 109.285 171.482 109.728C170.784 110.171 169.794 110.392 168.514 110.392C167.618 110.392 166.912 110.299 166.394 110.112C165.877 109.931 165.506 109.651 165.282 109.272C165.064 108.899 164.954 108.427 164.954 107.856H166.17C166.17 108.181 166.234 108.451 166.362 108.664C166.49 108.877 166.722 109.035 167.058 109.136C167.394 109.243 167.877 109.296 168.506 109.296C169.434 109.296 170.112 109.179 170.538 108.944C170.965 108.715 171.178 108.371 171.178 107.912C171.178 107.512 170.997 107.211 170.634 107.008C170.272 106.805 169.818 106.704 169.274 106.704H167.77C167.04 106.704 166.504 106.544 166.162 106.224C165.821 105.904 165.65 105.536 165.65 105.12C165.65 104.544 165.96 104.053 166.578 103.648C165.634 103.147 165.162 102.371 165.162 101.32C165.162 100.749 165.304 100.245 165.586 99.808C165.869 99.3653 166.264 99.0187 166.77 98.768C167.277 98.5173 167.861 98.392 168.522 98.392C169.232 98.392 169.808 98.3627 170.25 98.304C170.693 98.2453 171.072 98.1627 171.386 98.056C171.706 97.9493 172.032 97.824 172.362 97.68ZM168.522 99.376C167.845 99.376 167.344 99.56 167.018 99.928C166.698 100.296 166.538 100.76 166.538 101.32C166.538 101.891 166.701 102.36 167.026 102.728C167.357 103.096 167.866 103.28 168.554 103.28C169.146 103.28 169.6 103.107 169.914 102.76C170.229 102.413 170.386 101.931 170.386 101.312C170.386 100.021 169.765 99.376 168.522 99.376ZM175.252 95.056V99.728C175.583 99.2907 175.988 98.96 176.468 98.736C176.953 98.512 177.444 98.4 177.94 98.4C178.761 98.4 179.361 98.6187 179.74 99.056C180.119 99.4933 180.308 100.101 180.308 100.88V107H178.964V100.912C178.964 100.405 178.847 100.037 178.612 99.808C178.377 99.5733 178.009 99.456 177.508 99.456C177.188 99.456 176.884 99.528 176.596 99.672C176.308 99.816 176.049 99.9947 175.82 100.208C175.591 100.421 175.401 100.64 175.252 100.864V107H173.908V95.2L175.252 95.056ZM188.99 106.576C188.702 106.768 188.352 106.917 187.942 107.024C187.531 107.131 187.128 107.184 186.734 107.184C185.827 107.184 185.128 106.947 184.638 106.472C184.147 105.997 183.902 105.387 183.902 104.64V99.616H181.966V98.576H183.902V96.664L185.246 96.504V98.576H188.158L187.998 99.616H185.246V104.624C185.246 105.093 185.368 105.451 185.614 105.696C185.864 105.941 186.278 106.064 186.854 106.064C187.168 106.064 187.459 106.027 187.726 105.952C187.992 105.877 188.24 105.781 188.47 105.664L188.99 106.576ZM192.039 95.056V99.728C192.37 99.2907 192.775 98.96 193.255 98.736C193.741 98.512 194.231 98.4 194.727 98.4C195.549 98.4 196.149 98.6187 196.527 99.056C196.906 99.4933 197.095 100.101 197.095 100.88V107H195.751V100.912C195.751 100.405 195.634 100.037 195.399 99.808C195.165 99.5733 194.797 99.456 194.295 99.456C193.975 99.456 193.671 99.528 193.383 99.672C193.095 99.816 192.837 99.9947 192.607 100.208C192.378 100.421 192.189 100.64 192.039 100.864V107H190.695V95.2L192.039 95.056ZM202.297 98.4C203.487 98.4 204.385 98.7973 204.993 99.592C205.601 100.387 205.905 101.451 205.905 102.784C205.905 103.643 205.767 104.403 205.489 105.064C205.212 105.725 204.804 106.245 204.265 106.624C203.727 106.997 203.065 107.184 202.281 107.184C201.092 107.184 200.191 106.784 199.577 105.984C198.964 105.184 198.657 104.123 198.657 102.8C198.657 101.936 198.796 101.173 199.073 100.512C199.351 99.8453 199.759 99.328 200.297 98.96C200.841 98.5867 201.508 98.4 202.297 98.4ZM202.297 99.496C201.572 99.496 201.023 99.7653 200.649 100.304C200.281 100.843 200.097 101.675 200.097 102.8C200.097 103.915 200.279 104.741 200.641 105.28C201.009 105.813 201.556 106.08 202.281 106.08C203.007 106.08 203.551 105.811 203.913 105.272C204.281 104.733 204.465 103.904 204.465 102.784C204.465 101.664 204.284 100.837 203.921 100.304C203.559 99.7653 203.017 99.496 202.297 99.496ZM208.827 98.576V104.544C208.827 105.099 208.942 105.499 209.171 105.744C209.4 105.989 209.758 106.112 210.243 106.112C210.707 106.112 211.144 105.981 211.555 105.72C211.971 105.453 212.294 105.139 212.523 104.776V98.576H213.867V107H212.723L212.611 105.864C212.28 106.291 211.87 106.619 211.379 106.848C210.894 107.072 210.406 107.184 209.915 107.184C209.099 107.184 208.488 106.968 208.083 106.536C207.683 106.099 207.483 105.488 207.483 104.704V98.576H208.827ZM218.741 106.072C219.391 106.072 219.903 105.952 220.277 105.712C220.65 105.472 220.837 105.147 220.837 104.736C220.837 104.485 220.789 104.267 220.693 104.08C220.602 103.893 220.413 103.725 220.125 103.576C219.837 103.421 219.394 103.269 218.797 103.12C218.215 102.976 217.709 102.811 217.277 102.624C216.85 102.432 216.517 102.184 216.277 101.88C216.042 101.576 215.925 101.181 215.925 100.696C215.925 99.9867 216.221 99.4267 216.813 99.016C217.405 98.6053 218.175 98.4 219.125 98.4C219.802 98.4 220.391 98.4907 220.893 98.672C221.399 98.8533 221.829 99.072 222.181 99.328L221.589 100.24C221.274 100.021 220.922 99.8427 220.533 99.704C220.149 99.56 219.685 99.488 219.141 99.488C218.479 99.488 218.01 99.592 217.733 99.8C217.455 100.003 217.317 100.267 217.317 100.592C217.317 100.843 217.383 101.051 217.517 101.216C217.655 101.376 217.887 101.52 218.213 101.648C218.538 101.776 218.986 101.917 219.557 102.072C220.106 102.221 220.586 102.397 220.997 102.6C221.407 102.803 221.725 103.069 221.949 103.4C222.178 103.725 222.293 104.149 222.293 104.672C222.293 105.269 222.122 105.755 221.781 106.128C221.439 106.496 220.997 106.765 220.453 106.936C219.914 107.101 219.343 107.184 218.741 107.184C217.978 107.184 217.327 107.075 216.789 106.856C216.255 106.632 215.807 106.363 215.445 106.048L216.213 105.16C216.543 105.432 216.922 105.653 217.349 105.824C217.781 105.989 218.245 106.072 218.741 106.072ZM225.327 103.264C225.364 104.24 225.62 104.952 226.095 105.4C226.575 105.843 227.14 106.064 227.791 106.064C228.223 106.064 228.612 106 228.959 105.872C229.305 105.744 229.665 105.555 230.039 105.304L230.671 106.192C230.281 106.501 229.833 106.744 229.327 106.92C228.82 107.096 228.303 107.184 227.775 107.184C226.953 107.184 226.255 107 225.679 106.632C225.108 106.264 224.671 105.752 224.367 105.096C224.068 104.435 223.919 103.669 223.919 102.8C223.919 101.947 224.068 101.189 224.367 100.528C224.671 99.8667 225.097 99.3467 225.647 98.968C226.201 98.5893 226.852 98.4 227.599 98.4C228.66 98.4 229.495 98.768 230.103 99.504C230.716 100.24 231.023 101.248 231.023 102.528C231.023 102.672 231.017 102.808 231.007 102.936C231.001 103.064 230.996 103.173 230.991 103.264H225.327ZM227.615 99.504C226.991 99.504 226.468 99.7253 226.047 100.168C225.625 100.611 225.388 101.296 225.335 102.224H229.727C229.711 101.323 229.513 100.645 229.135 100.192C228.756 99.7333 228.249 99.504 227.615 99.504ZM241.644 105.768C241.644 105.379 241.777 105.048 242.044 104.776C242.31 104.504 242.644 104.368 243.044 104.368C243.449 104.368 243.788 104.504 244.06 104.776C244.326 105.048 244.46 105.379 244.46 105.768C244.46 106.163 244.326 106.499 244.06 106.776C243.788 107.048 243.449 107.184 243.044 107.184C242.644 107.184 242.31 107.048 242.044 106.776C241.777 106.499 241.644 106.163 241.644 105.768ZM248.044 105.768C248.044 105.379 248.177 105.048 248.444 104.776C248.71 104.504 249.044 104.368 249.444 104.368C249.849 104.368 250.185 104.504 250.452 104.776C250.724 105.048 250.86 105.379 250.86 105.768C250.86 106.163 250.724 106.499 250.452 106.776C250.185 107.048 249.849 107.184 249.444 107.184C249.044 107.184 248.71 107.048 248.444 106.776C248.177 106.499 248.044 106.163 248.044 105.768ZM235.244 105.768C235.244 105.379 235.377 105.048 235.644 104.776C235.91 104.504 236.244 104.368 236.644 104.368C237.049 104.368 237.388 104.504 237.66 104.776C237.926 105.048 238.06 105.379 238.06 105.768C238.06 106.163 237.926 106.499 237.66 106.776C237.388 107.048 237.049 107.184 236.644 107.184C236.244 107.184 235.91 107.048 235.644 106.776C235.377 106.499 235.244 106.163 235.244 105.768ZM46.44 119.984V127.432C46.44 128.173 46.2907 128.827 45.992 129.392C45.6933 129.957 45.2693 130.397 44.72 130.712C44.1707 131.027 43.5253 131.184 42.784 131.184C42.0267 131.184 41.376 131.027 40.832 130.712C40.2933 130.392 39.88 129.952 39.592 129.392C39.304 128.827 39.16 128.173 39.16 127.432V119.984H40.536V127.48C40.536 128.317 40.7307 128.944 41.12 129.36C41.5147 129.776 42.0693 129.984 42.784 129.984C43.504 129.984 44.0587 129.776 44.448 129.36C44.8427 128.944 45.04 128.317 45.04 127.48V119.984H46.44ZM48.0018 131V122.576H49.1458L49.2498 123.744C49.5911 123.312 50.0178 122.981 50.5298 122.752C51.0418 122.517 51.5431 122.4 52.0338 122.4C52.8604 122.4 53.4604 122.619 53.8338 123.056C54.2124 123.493 54.4018 124.101 54.4018 124.88V131H53.0578V125.872C53.0578 125.296 53.0258 124.832 52.9618 124.48C52.8978 124.128 52.7618 123.869 52.5538 123.704C52.3511 123.539 52.0391 123.456 51.6178 123.456C51.2871 123.456 50.9751 123.528 50.6818 123.672C50.3938 123.816 50.1351 123.997 49.9058 124.216C49.6818 124.429 49.4951 124.645 49.3458 124.864V131H48.0018ZM59.5875 118.632C59.8862 118.632 60.1235 118.723 60.2995 118.904C60.4808 119.085 60.5715 119.307 60.5715 119.568C60.5715 119.84 60.4808 120.069 60.2995 120.256C60.1235 120.437 59.8862 120.528 59.5875 120.528C59.3048 120.528 59.0728 120.437 58.8915 120.256C58.7102 120.069 58.6195 119.84 58.6195 119.568C58.6195 119.307 58.7102 119.085 58.8915 118.904C59.0728 118.723 59.3048 118.632 59.5875 118.632ZM60.6595 122.576V129.936H63.0355V131H56.7155V129.936H59.3155V123.64H56.7955V122.576H60.6595ZM64.7892 131V122.576H65.9332L66.0372 123.744C66.3786 123.312 66.8052 122.981 67.3172 122.752C67.8292 122.517 68.3306 122.4 68.8212 122.4C69.6479 122.4 70.2479 122.619 70.6213 123.056C70.9999 123.493 71.1892 124.101 71.1892 124.88V131H69.8453V125.872C69.8453 125.296 69.8133 124.832 69.7492 124.48C69.6852 124.128 69.5492 123.869 69.3412 123.704C69.1386 123.539 68.8266 123.456 68.4053 123.456C68.0746 123.456 67.7626 123.528 67.4692 123.672C67.1812 123.816 66.9226 123.997 66.6932 124.216C66.4692 124.429 66.2826 124.645 66.1332 124.864V131H64.7892ZM76.047 130.072C76.6977 130.072 77.2097 129.952 77.583 129.712C77.9563 129.472 78.143 129.147 78.143 128.736C78.143 128.485 78.095 128.267 77.999 128.08C77.9083 127.893 77.719 127.725 77.431 127.576C77.143 127.421 76.7003 127.269 76.103 127.12C75.5217 126.976 75.015 126.811 74.583 126.624C74.1563 126.432 73.823 126.184 73.583 125.88C73.3483 125.576 73.231 125.181 73.231 124.696C73.231 123.987 73.527 123.427 74.119 123.016C74.711 122.605 75.4817 122.4 76.431 122.4C77.1083 122.4 77.6977 122.491 78.199 122.672C78.7057 122.853 79.135 123.072 79.487 123.328L78.895 124.24C78.5803 124.021 78.2283 123.843 77.839 123.704C77.455 123.56 76.991 123.488 76.447 123.488C75.7857 123.488 75.3163 123.592 75.039 123.8C74.7617 124.003 74.623 124.267 74.623 124.592C74.623 124.843 74.6897 125.051 74.823 125.216C74.9617 125.376 75.1937 125.52 75.519 125.648C75.8443 125.776 76.2923 125.917 76.863 126.072C77.4123 126.221 77.8923 126.397 78.303 126.6C78.7137 126.803 79.031 127.069 79.255 127.4C79.4843 127.725 79.599 128.149 79.599 128.672C79.599 129.269 79.4283 129.755 79.087 130.128C78.7457 130.496 78.303 130.765 77.759 130.936C77.2203 131.101 76.6497 131.184 76.047 131.184C75.2843 131.184 74.6337 131.075 74.095 130.856C73.5617 130.632 73.1137 130.363 72.751 130.048L73.519 129.16C73.8497 129.432 74.2283 129.653 74.655 129.824C75.087 129.989 75.551 130.072 76.047 130.072ZM88.2648 130.576C87.9768 130.768 87.6274 130.917 87.2168 131.024C86.8061 131.131 86.4034 131.184 86.0088 131.184C85.1021 131.184 84.4034 130.947 83.9128 130.472C83.4221 129.997 83.1768 129.387 83.1768 128.64V123.616H81.2408V122.576H83.1768V120.664L84.5208 120.504V122.576H87.4328L87.2728 123.616H84.5208V128.624C84.5208 129.093 84.6434 129.451 84.8888 129.696C85.1394 129.941 85.5528 130.064 86.1288 130.064C86.4434 130.064 86.7341 130.027 87.0008 129.952C87.2674 129.877 87.5154 129.781 87.7448 129.664L88.2648 130.576ZM96.0025 129.16C96.0025 129.501 96.0585 129.749 96.1705 129.904C96.2825 130.059 96.4558 130.171 96.6905 130.24L96.3625 131.184C95.9998 131.136 95.6825 131.021 95.4105 130.84C95.1385 130.653 94.9412 130.373 94.8185 130C94.5145 130.389 94.1332 130.685 93.6745 130.888C93.2212 131.085 92.7225 131.184 92.1785 131.184C91.3358 131.184 90.6718 130.947 90.1865 130.472C89.7012 129.997 89.4585 129.368 89.4585 128.584C89.4585 127.715 89.7972 127.048 90.4745 126.584C91.1518 126.12 92.1305 125.888 93.4105 125.888H94.6505V125.184C94.6505 124.576 94.4718 124.147 94.1145 123.896C93.7625 123.64 93.2718 123.512 92.6425 123.512C92.3652 123.512 92.0398 123.547 91.6665 123.616C91.2932 123.68 90.8878 123.789 90.4505 123.944L90.0985 122.928C90.6105 122.736 91.0932 122.6 91.5465 122.52C92.0052 122.44 92.4398 122.4 92.8505 122.4C93.8958 122.4 94.6825 122.645 95.2105 123.136C95.7385 123.627 96.0025 124.288 96.0025 125.12V129.16ZM92.5225 130.16C92.9385 130.16 93.3332 130.056 93.7065 129.848C94.0852 129.635 94.3998 129.341 94.6505 128.968V126.8H93.4345C92.5065 126.8 91.8505 126.96 91.4665 127.28C91.0878 127.6 90.8985 128.029 90.8985 128.568C90.8985 129.629 91.4398 130.16 92.5225 130.16ZM101.644 119.184V128.92C101.644 129.336 101.772 129.632 102.028 129.808C102.29 129.979 102.626 130.064 103.036 130.064C103.287 130.064 103.527 130.037 103.756 129.984C103.991 129.931 104.223 129.859 104.452 129.768L104.812 130.752C104.583 130.864 104.298 130.963 103.956 131.048C103.62 131.139 103.239 131.184 102.812 131.184C102.066 131.184 101.46 130.979 100.996 130.568C100.532 130.152 100.3 129.579 100.3 128.848V120.248H97.7162V119.184H101.644ZM110.038 119.184V128.92C110.038 129.336 110.166 129.632 110.422 129.808C110.683 129.979 111.019 130.064 111.43 130.064C111.681 130.064 111.921 130.037 112.15 129.984C112.385 129.931 112.617 129.859 112.846 129.768L113.206 130.752C112.977 130.864 112.691 130.963 112.35 131.048C112.014 131.139 111.633 131.184 111.206 131.184C110.459 131.184 109.854 130.979 109.39 130.568C108.926 130.152 108.694 129.579 108.694 128.848V120.248H106.11V119.184H110.038ZM118.344 118.632C118.642 118.632 118.88 118.723 119.056 118.904C119.237 119.085 119.328 119.307 119.328 119.568C119.328 119.84 119.237 120.069 119.056 120.256C118.88 120.437 118.642 120.528 118.344 120.528C118.061 120.528 117.829 120.437 117.648 120.256C117.466 120.069 117.376 119.84 117.376 119.568C117.376 119.307 117.466 119.085 117.648 118.904C117.829 118.723 118.061 118.632 118.344 118.632ZM119.416 122.576V129.936H121.792V131H115.472V129.936H118.072V123.64H115.552V122.576H119.416ZM123.546 131V122.576H124.69L124.794 123.744C125.135 123.312 125.562 122.981 126.074 122.752C126.586 122.517 127.087 122.4 127.578 122.4C128.404 122.4 129.004 122.619 129.378 123.056C129.756 123.493 129.946 124.101 129.946 124.88V131H128.602V125.872C128.602 125.296 128.57 124.832 128.506 124.48C128.442 124.128 128.306 123.869 128.098 123.704C127.895 123.539 127.583 123.456 127.162 123.456C126.831 123.456 126.519 123.528 126.226 123.672C125.938 123.816 125.679 123.997 125.45 124.216C125.226 124.429 125.039 124.645 124.89 124.864V131H123.546ZM138.787 121.68L139.203 122.944C138.841 123.056 138.457 123.125 138.051 123.152C137.651 123.179 137.214 123.192 136.739 123.192C137.715 123.64 138.203 124.347 138.203 125.312C138.203 126.144 137.923 126.829 137.363 127.368C136.809 127.907 136.033 128.176 135.035 128.176C134.753 128.176 134.515 128.163 134.323 128.136C134.137 128.109 133.955 128.069 133.779 128.016C133.651 128.107 133.545 128.227 133.459 128.376C133.379 128.52 133.339 128.672 133.339 128.832C133.339 129.035 133.419 129.203 133.579 129.336C133.739 129.469 134.035 129.536 134.467 129.536H135.987C136.553 129.536 137.059 129.637 137.507 129.84C137.955 130.043 138.31 130.317 138.571 130.664C138.833 131.005 138.963 131.392 138.963 131.824C138.963 132.651 138.611 133.285 137.907 133.728C137.209 134.171 136.219 134.392 134.939 134.392C134.043 134.392 133.337 134.299 132.819 134.112C132.302 133.931 131.931 133.651 131.707 133.272C131.489 132.899 131.379 132.427 131.379 131.856H132.595C132.595 132.181 132.659 132.451 132.787 132.664C132.915 132.877 133.147 133.035 133.483 133.136C133.819 133.243 134.302 133.296 134.931 133.296C135.859 133.296 136.537 133.179 136.963 132.944C137.39 132.715 137.603 132.371 137.603 131.912C137.603 131.512 137.422 131.211 137.059 131.008C136.697 130.805 136.243 130.704 135.699 130.704H134.195C133.465 130.704 132.929 130.544 132.587 130.224C132.246 129.904 132.075 129.536 132.075 129.12C132.075 128.544 132.385 128.053 133.003 127.648C132.059 127.147 131.587 126.371 131.587 125.32C131.587 124.749 131.729 124.245 132.011 123.808C132.294 123.365 132.689 123.019 133.195 122.768C133.702 122.517 134.286 122.392 134.947 122.392C135.657 122.392 136.233 122.363 136.675 122.304C137.118 122.245 137.497 122.163 137.811 122.056C138.131 121.949 138.457 121.824 138.787 121.68ZM134.947 123.376C134.27 123.376 133.769 123.56 133.443 123.928C133.123 124.296 132.963 124.76 132.963 125.32C132.963 125.891 133.126 126.36 133.451 126.728C133.782 127.096 134.291 127.28 134.979 127.28C135.571 127.28 136.025 127.107 136.339 126.76C136.654 126.413 136.811 125.931 136.811 125.312C136.811 124.021 136.19 123.376 134.947 123.376ZM152.007 119.184V128.92C152.007 129.336 152.135 129.632 152.391 129.808C152.652 129.979 152.988 130.064 153.399 130.064C153.649 130.064 153.889 130.037 154.119 129.984C154.353 129.931 154.585 129.859 154.815 129.768L155.175 130.752C154.945 130.864 154.66 130.963 154.319 131.048C153.983 131.139 153.601 131.184 153.175 131.184C152.428 131.184 151.823 130.979 151.359 130.568C150.895 130.152 150.663 129.579 150.663 128.848V120.248H148.079V119.184H152.007ZM160.312 118.632C160.611 118.632 160.848 118.723 161.024 118.904C161.206 119.085 161.296 119.307 161.296 119.568C161.296 119.84 161.206 120.069 161.024 120.256C160.848 120.437 160.611 120.528 160.312 120.528C160.03 120.528 159.798 120.437 159.616 120.256C159.435 120.069 159.344 119.84 159.344 119.568C159.344 119.307 159.435 119.085 159.616 118.904C159.798 118.723 160.03 118.632 160.312 118.632ZM161.384 122.576V129.936H163.76V131H157.44V129.936H160.04V123.64H157.52V122.576H161.384ZM172.362 121.68L172.778 122.944C172.416 123.056 172.032 123.125 171.626 123.152C171.226 123.179 170.789 123.192 170.314 123.192C171.29 123.64 171.778 124.347 171.778 125.312C171.778 126.144 171.498 126.829 170.938 127.368C170.384 127.907 169.608 128.176 168.61 128.176C168.328 128.176 168.09 128.163 167.898 128.136C167.712 128.109 167.53 128.069 167.354 128.016C167.226 128.107 167.12 128.227 167.034 128.376C166.954 128.52 166.914 128.672 166.914 128.832C166.914 129.035 166.994 129.203 167.154 129.336C167.314 129.469 167.61 129.536 168.042 129.536H169.562C170.128 129.536 170.634 129.637 171.082 129.84C171.53 130.043 171.885 130.317 172.146 130.664C172.408 131.005 172.538 131.392 172.538 131.824C172.538 132.651 172.186 133.285 171.482 133.728C170.784 134.171 169.794 134.392 168.514 134.392C167.618 134.392 166.912 134.299 166.394 134.112C165.877 133.931 165.506 133.651 165.282 133.272C165.064 132.899 164.954 132.427 164.954 131.856H166.17C166.17 132.181 166.234 132.451 166.362 132.664C166.49 132.877 166.722 133.035 167.058 133.136C167.394 133.243 167.877 133.296 168.506 133.296C169.434 133.296 170.112 133.179 170.538 132.944C170.965 132.715 171.178 132.371 171.178 131.912C171.178 131.512 170.997 131.211 170.634 131.008C170.272 130.805 169.818 130.704 169.274 130.704H167.77C167.04 130.704 166.504 130.544 166.162 130.224C165.821 129.904 165.65 129.536 165.65 129.12C165.65 128.544 165.96 128.053 166.578 127.648C165.634 127.147 165.162 126.371 165.162 125.32C165.162 124.749 165.304 124.245 165.586 123.808C165.869 123.365 166.264 123.019 166.77 122.768C167.277 122.517 167.861 122.392 168.522 122.392C169.232 122.392 169.808 122.363 170.25 122.304C170.693 122.245 171.072 122.163 171.386 122.056C171.706 121.949 172.032 121.824 172.362 121.68ZM168.522 123.376C167.845 123.376 167.344 123.56 167.018 123.928C166.698 124.296 166.538 124.76 166.538 125.32C166.538 125.891 166.701 126.36 167.026 126.728C167.357 127.096 167.866 127.28 168.554 127.28C169.146 127.28 169.6 127.107 169.914 126.76C170.229 126.413 170.386 125.931 170.386 125.312C170.386 124.021 169.765 123.376 168.522 123.376ZM175.252 119.056V123.728C175.583 123.291 175.988 122.96 176.468 122.736C176.953 122.512 177.444 122.4 177.94 122.4C178.761 122.4 179.361 122.619 179.74 123.056C180.119 123.493 180.308 124.101 180.308 124.88V131H178.964V124.912C178.964 124.405 178.847 124.037 178.612 123.808C178.377 123.573 178.009 123.456 177.508 123.456C177.188 123.456 176.884 123.528 176.596 123.672C176.308 123.816 176.049 123.995 175.82 124.208C175.591 124.421 175.401 124.64 175.252 124.864V131H173.908V119.2L175.252 119.056ZM188.99 130.576C188.702 130.768 188.352 130.917 187.942 131.024C187.531 131.131 187.128 131.184 186.734 131.184C185.827 131.184 185.128 130.947 184.638 130.472C184.147 129.997 183.902 129.387 183.902 128.64V123.616H181.966V122.576H183.902V120.664L185.246 120.504V122.576H188.158L187.998 123.616H185.246V128.624C185.246 129.093 185.368 129.451 185.614 129.696C185.864 129.941 186.278 130.064 186.854 130.064C187.168 130.064 187.459 130.027 187.726 129.952C187.992 129.877 188.24 129.781 188.47 129.664L188.99 130.576ZM192.039 119.056V123.728C192.37 123.291 192.775 122.96 193.255 122.736C193.741 122.512 194.231 122.4 194.727 122.4C195.549 122.4 196.149 122.619 196.527 123.056C196.906 123.493 197.095 124.101 197.095 124.88V131H195.751V124.912C195.751 124.405 195.634 124.037 195.399 123.808C195.165 123.573 194.797 123.456 194.295 123.456C193.975 123.456 193.671 123.528 193.383 123.672C193.095 123.816 192.837 123.995 192.607 124.208C192.378 124.421 192.189 124.64 192.039 124.864V131H190.695V119.2L192.039 119.056ZM202.297 122.4C203.487 122.4 204.385 122.797 204.993 123.592C205.601 124.387 205.905 125.451 205.905 126.784C205.905 127.643 205.767 128.403 205.489 129.064C205.212 129.725 204.804 130.245 204.265 130.624C203.727 130.997 203.065 131.184 202.281 131.184C201.092 131.184 200.191 130.784 199.577 129.984C198.964 129.184 198.657 128.123 198.657 126.8C198.657 125.936 198.796 125.173 199.073 124.512C199.351 123.845 199.759 123.328 200.297 122.96C200.841 122.587 201.508 122.4 202.297 122.4ZM202.297 123.496C201.572 123.496 201.023 123.765 200.649 124.304C200.281 124.843 200.097 125.675 200.097 126.8C200.097 127.915 200.279 128.741 200.641 129.28C201.009 129.813 201.556 130.08 202.281 130.08C203.007 130.08 203.551 129.811 203.913 129.272C204.281 128.733 204.465 127.904 204.465 126.784C204.465 125.664 204.284 124.837 203.921 124.304C203.559 123.765 203.017 123.496 202.297 123.496ZM208.827 122.576V128.544C208.827 129.099 208.942 129.499 209.171 129.744C209.4 129.989 209.758 130.112 210.243 130.112C210.707 130.112 211.144 129.981 211.555 129.72C211.971 129.453 212.294 129.139 212.523 128.776V122.576H213.867V131H212.723L212.611 129.864C212.28 130.291 211.87 130.619 211.379 130.848C210.894 131.072 210.406 131.184 209.915 131.184C209.099 131.184 208.488 130.968 208.083 130.536C207.683 130.099 207.483 129.488 207.483 128.704V122.576H208.827ZM218.741 130.072C219.391 130.072 219.903 129.952 220.277 129.712C220.65 129.472 220.837 129.147 220.837 128.736C220.837 128.485 220.789 128.267 220.693 128.08C220.602 127.893 220.413 127.725 220.125 127.576C219.837 127.421 219.394 127.269 218.797 127.12C218.215 126.976 217.709 126.811 217.277 126.624C216.85 126.432 216.517 126.184 216.277 125.88C216.042 125.576 215.925 125.181 215.925 124.696C215.925 123.987 216.221 123.427 216.813 123.016C217.405 122.605 218.175 122.4 219.125 122.4C219.802 122.4 220.391 122.491 220.893 122.672C221.399 122.853 221.829 123.072 222.181 123.328L221.589 124.24C221.274 124.021 220.922 123.843 220.533 123.704C220.149 123.56 219.685 123.488 219.141 123.488C218.479 123.488 218.01 123.592 217.733 123.8C217.455 124.003 217.317 124.267 217.317 124.592C217.317 124.843 217.383 125.051 217.517 125.216C217.655 125.376 217.887 125.52 218.213 125.648C218.538 125.776 218.986 125.917 219.557 126.072C220.106 126.221 220.586 126.397 220.997 126.6C221.407 126.803 221.725 127.069 221.949 127.4C222.178 127.725 222.293 128.149 222.293 128.672C222.293 129.269 222.122 129.755 221.781 130.128C221.439 130.496 220.997 130.765 220.453 130.936C219.914 131.101 219.343 131.184 218.741 131.184C217.978 131.184 217.327 131.075 216.789 130.856C216.255 130.632 215.807 130.363 215.445 130.048L216.213 129.16C216.543 129.432 216.922 129.653 217.349 129.824C217.781 129.989 218.245 130.072 218.741 130.072ZM225.327 127.264C225.364 128.24 225.62 128.952 226.095 129.4C226.575 129.843 227.14 130.064 227.791 130.064C228.223 130.064 228.612 130 228.959 129.872C229.305 129.744 229.665 129.555 230.039 129.304L230.671 130.192C230.281 130.501 229.833 130.744 229.327 130.92C228.82 131.096 228.303 131.184 227.775 131.184C226.953 131.184 226.255 131 225.679 130.632C225.108 130.264 224.671 129.752 224.367 129.096C224.068 128.435 223.919 127.669 223.919 126.8C223.919 125.947 224.068 125.189 224.367 124.528C224.671 123.867 225.097 123.347 225.647 122.968C226.201 122.589 226.852 122.4 227.599 122.4C228.66 122.4 229.495 122.768 230.103 123.504C230.716 124.24 231.023 125.248 231.023 126.528C231.023 126.672 231.017 126.808 231.007 126.936C231.001 127.064 230.996 127.173 230.991 127.264H225.327ZM227.615 123.504C226.991 123.504 226.468 123.725 226.047 124.168C225.625 124.611 225.388 125.296 225.335 126.224H229.727C229.711 125.323 229.513 124.645 229.135 124.192C228.756 123.733 228.249 123.504 227.615 123.504ZM241.644 129.768C241.644 129.379 241.777 129.048 242.044 128.776C242.31 128.504 242.644 128.368 243.044 128.368C243.449 128.368 243.788 128.504 244.06 128.776C244.326 129.048 244.46 129.379 244.46 129.768C244.46 130.163 244.326 130.499 244.06 130.776C243.788 131.048 243.449 131.184 243.044 131.184C242.644 131.184 242.31 131.048 242.044 130.776C241.777 130.499 241.644 130.163 241.644 129.768ZM248.044 129.768C248.044 129.379 248.177 129.048 248.444 128.776C248.71 128.504 249.044 128.368 249.444 128.368C249.849 128.368 250.185 128.504 250.452 128.776C250.724 129.048 250.86 129.379 250.86 129.768C250.86 130.163 250.724 130.499 250.452 130.776C250.185 131.048 249.849 131.184 249.444 131.184C249.044 131.184 248.71 131.048 248.444 130.776C248.177 130.499 248.044 130.163 248.044 129.768ZM235.244 129.768C235.244 129.379 235.377 129.048 235.644 128.776C235.91 128.504 236.244 128.368 236.644 128.368C237.049 128.368 237.388 128.504 237.66 128.776C237.926 129.048 238.06 129.379 238.06 129.768C238.06 130.163 237.926 130.499 237.66 130.776C237.388 131.048 237.049 131.184 236.644 131.184C236.244 131.184 235.91 131.048 235.644 130.776C235.377 130.499 235.244 130.163 235.244 129.768ZM271.279 119.016L272.623 119.184V131H271.447L271.319 129.888C271.005 130.336 270.642 130.664 270.231 130.872C269.826 131.08 269.391 131.184 268.927 131.184C268.197 131.184 267.594 131 267.119 130.632C266.645 130.264 266.293 129.752 266.063 129.096C265.834 128.435 265.719 127.669 265.719 126.8C265.719 125.957 265.85 125.205 266.111 124.544C266.373 123.877 266.749 123.355 267.239 122.976C267.735 122.592 268.33 122.4 269.023 122.4C269.957 122.4 270.709 122.731 271.279 123.392V119.016ZM269.375 123.48C268.671 123.48 268.13 123.755 267.751 124.304C267.373 124.853 267.183 125.685 267.183 126.8C267.183 128.997 267.858 130.096 269.207 130.096C269.682 130.096 270.09 129.963 270.431 129.696C270.773 129.424 271.055 129.115 271.279 128.768V124.56C271.05 124.219 270.773 123.955 270.447 123.768C270.122 123.576 269.765 123.48 269.375 123.48ZM277.841 122.4C279.03 122.4 279.929 122.797 280.537 123.592C281.145 124.387 281.449 125.451 281.449 126.784C281.449 127.643 281.31 128.403 281.033 129.064C280.756 129.725 280.348 130.245 279.809 130.624C279.27 130.997 278.609 131.184 277.825 131.184C276.636 131.184 275.734 130.784 275.121 129.984C274.508 129.184 274.201 128.123 274.201 126.8C274.201 125.936 274.34 125.173 274.617 124.512C274.894 123.845 275.302 123.328 275.841 122.96C276.385 122.587 277.052 122.4 277.841 122.4ZM277.841 123.496C277.116 123.496 276.566 123.765 276.193 124.304C275.825 124.843 275.641 125.675 275.641 126.8C275.641 127.915 275.822 128.741 276.185 129.28C276.553 129.813 277.1 130.08 277.825 130.08C278.55 130.08 279.094 129.811 279.457 129.272C279.825 128.733 280.009 127.904 280.009 126.784C280.009 125.664 279.828 124.837 279.465 124.304C279.102 123.765 278.561 123.496 277.841 123.496ZM283.027 131V122.576H284.171L284.275 123.744C284.616 123.312 285.043 122.981 285.555 122.752C286.067 122.517 286.568 122.4 287.059 122.4C287.885 122.4 288.485 122.619 288.859 123.056C289.237 123.493 289.427 124.101 289.427 124.88V131H288.083V125.872C288.083 125.296 288.051 124.832 287.987 124.48C287.923 124.128 287.787 123.869 287.579 123.704C287.376 123.539 287.064 123.456 286.643 123.456C286.312 123.456 286 123.528 285.707 123.672C285.419 123.816 285.16 123.997 284.931 124.216C284.707 124.429 284.52 124.645 284.371 124.864V131H283.027ZM292.477 127.264C292.514 128.24 292.77 128.952 293.245 129.4C293.725 129.843 294.29 130.064 294.941 130.064C295.373 130.064 295.762 130 296.109 129.872C296.455 129.744 296.815 129.555 297.189 129.304L297.821 130.192C297.431 130.501 296.983 130.744 296.477 130.92C295.97 131.096 295.453 131.184 294.925 131.184C294.103 131.184 293.405 131 292.829 130.632C292.258 130.264 291.821 129.752 291.517 129.096C291.218 128.435 291.069 127.669 291.069 126.8C291.069 125.947 291.218 125.189 291.517 124.528C291.821 123.867 292.247 123.347 292.797 122.968C293.351 122.589 294.002 122.4 294.749 122.4C295.81 122.4 296.645 122.768 297.253 123.504C297.866 124.24 298.173 125.248 298.173 126.528C298.173 126.672 298.167 126.808 298.157 126.936C298.151 127.064 298.146 127.173 298.141 127.264H292.477ZM294.765 123.504C294.141 123.504 293.618 123.725 293.197 124.168C292.775 124.611 292.538 125.296 292.485 126.224H296.877C296.861 125.323 296.663 124.645 296.285 124.192C295.906 123.733 295.399 123.504 294.765 123.504Z" fill="white"/>
<path d="M121.938 84H180.7V84.4H121.938V84Z" fill="white"/>
<path d="M12 6H574V4H12V6ZM577 9V156H579V9H577ZM574 159H12V161H574V159ZM9 156V9H7V156H9ZM12 159C10.3431 159 9 157.657 9 156H7C7 158.761 9.23858 161 12 161V159ZM577 156C577 157.657 575.657 159 574 159V161C576.761 161 579 158.761 579 156H577ZM574 6C575.657 6 577 7.34315 577 9H579C579 6.23857 576.761 4 574 4V6ZM12 4C9.23858 4 7 6.23857 7 9H9C9 7.34314 10.3431 6 12 6V4Z" fill="#192535"/>
</g>
<defs>
<filter id="filter0_d" x="0" y="0" width="586" height="171" filterUnits="userSpaceOnUse" color-interpolation-filters="sRGB">
<feFlood flood-opacity="0" result="BackgroundImageFix"/>
<feColorMatrix in="SourceAlpha" type="matrix" values="0 0 0 0 0 0 0 0 0 0 0 0 0 0 0 0 0 0 127 0"/>
<feOffset dy="3"/>
<feGaussianBlur stdDeviation="4"/>
<feColorMatrix type="matrix" values="0 0 0 0 0 0 0 0 0 0 0 0 0 0 0 0 0 0 0.15 0"/>
<feBlend mode="normal" in2="BackgroundImageFix" result="effect1_dropShadow"/>
<feBlend mode="normal" in="SourceGraphic" in2="effect1_dropShadow" result="shape"/>
</filter>
</defs>
</svg>
