<svg width="589" height="189" viewBox="0 0 589 189" fill="none" xmlns="http://www.w3.org/2000/svg">
<g filter="url(#filter0_d)">
<path d="M8 9.00001C8 6.79087 9.79086 5 12 5H577C579.209 5 581 6.79086 581 9V174C581 176.209 579.209 178 577 178H12C9.79085 178 8 176.209 8 174V9.00001Z" fill="#FF0000"/>
<rect x="8" y="5" width="573" height="40" fill="#1D2A3D"/>
<circle cx="28" cy="25" r="6" fill="#FF4A4A"/>
<circle cx="48" cy="25" r="6" fill="#FFB83D"/>
<circle cx="68" cy="25" r="6" fill="#00C543"/>
<rect x="8" y="44" width="573" height="1" fill="#122D42"/>
<g clip-path="url(#clip0)">
<rect width="573" height="133" transform="translate(8 45)" fill="#25354D"/>
</g>
<path d="M12 6H577V4H12V6ZM580 9V174H582V9H580ZM577 177H12V179H577V177ZM9 174V9.00001H7V174H9ZM12 177C10.3431 177 9 175.657 9 174H7C7 176.761 9.23856 179 12 179V177ZM580 174C580 175.657 578.657 177 577 177V179C579.761 179 582 176.761 582 174H580ZM577 6C578.657 6 580 7.34314 580 9H582C582 6.23858 579.761 4 577 4V6ZM12 4C9.23857 4 7 6.23858 7 9.00001H9C9 7.34315 10.3431 6 12 6V4Z" fill="#192535"/>
</g>
<path d="M46.288 79.592C46.688 79.592 47.0267 79.672 47.304 79.832C47.5867 79.992 47.8373 80.1787 48.056 80.392C48.2747 80.6 48.4853 80.7867 48.688 80.952C48.8907 81.112 49.1147 81.192 49.36 81.192C49.6907 81.192 49.984 81.0613 50.24 80.8C50.5013 80.5387 50.736 80.216 50.944 79.832L51.904 80.328C51.7493 80.632 51.56 80.9413 51.336 81.256C51.112 81.5653 50.8347 81.8267 50.504 82.04C50.1787 82.248 49.7813 82.352 49.312 82.352C48.9387 82.352 48.6133 82.272 48.336 82.112C48.064 81.952 47.816 81.768 47.592 81.56C47.368 81.3467 47.1493 81.16 46.936 81C46.7227 80.8347 46.4907 80.752 46.24 80.752C45.8933 80.752 45.5947 80.8827 45.344 81.144C45.0933 81.4 44.864 81.72 44.656 82.104L43.696 81.632C43.856 81.3173 44.0453 81.0027 44.264 80.688C44.488 80.3733 44.7627 80.112 45.088 79.904C45.4133 79.696 45.8133 79.592 46.288 79.592ZM53.3218 87.648L52.2338 87.168L59.0818 73.048L60.1538 73.576L53.3218 87.648Z" fill="#FFB100"/>
<path d="M73.7092 72.424V74.832C74.3492 74.9013 74.9172 75.0587 75.4132 75.304C75.9092 75.544 76.3226 75.816 76.6532 76.12L75.8292 76.968C75.2106 76.3867 74.5039 76.0453 73.7092 75.944V79.592C74.2479 79.768 74.7493 79.9947 75.2133 80.272C75.6826 80.544 76.0613 80.8987 76.3492 81.336C76.6372 81.7733 76.7812 82.3173 76.7812 82.968C76.7812 83.4747 76.6666 83.952 76.4373 84.4C76.2079 84.8427 75.8639 85.2187 75.4053 85.528C74.9519 85.832 74.3866 86.0293 73.7092 86.12V88.448H72.6293V86.168C71.8719 86.12 71.2132 85.9467 70.6532 85.648C70.0986 85.344 69.6426 85.016 69.2852 84.664L70.0852 83.776C70.4212 84.1173 70.7972 84.4027 71.2132 84.632C71.6346 84.856 72.1066 84.9893 72.6293 85.032V80.6C71.6959 80.2907 70.9732 79.8933 70.4612 79.408C69.9546 78.9173 69.7012 78.3013 69.7012 77.56C69.7012 77.1333 69.8079 76.7227 70.0212 76.328C70.2399 75.9333 70.5652 75.6027 70.9972 75.336C71.4292 75.064 71.9732 74.896 72.6293 74.832V72.424H73.7092ZM72.6293 75.976C72.1919 76.0507 71.8319 76.216 71.5492 76.472C71.2719 76.728 71.1332 77.0827 71.1332 77.536C71.1332 77.9093 71.2346 78.2267 71.4372 78.488C71.6452 78.7493 72.0426 79 72.6293 79.24V75.976ZM73.7092 80.976V84.96C74.7919 84.7413 75.3333 84.0827 75.3333 82.984C75.3333 82.536 75.2133 82.152 74.9732 81.832C74.7386 81.512 74.3173 81.2267 73.7092 80.976Z" fill="#477DFF"/>
<path d="M93.6007 77.576L90.5368 86H88.9768L85.9368 77.576H87.3608L89.8008 84.776L92.2088 77.576H93.6007ZM101.658 85.576C101.37 85.768 101.021 85.9173 100.61 86.024C100.2 86.1307 99.7972 86.184 99.4025 86.184C98.4958 86.184 97.7972 85.9467 97.3065 85.472C96.8158 84.9973 96.5705 84.3867 96.5705 83.64V78.616H94.6345V77.576H96.5705V75.664L97.9145 75.504V77.576H100.826L100.666 78.616H97.9145V83.624C97.9145 84.0933 98.0372 84.4507 98.2825 84.696C98.5332 84.9413 98.9465 85.064 99.5225 85.064C99.8372 85.064 100.128 85.0267 100.394 84.952C100.661 84.8773 100.909 84.7813 101.138 84.664L101.658 85.576ZM104.42 82.264C104.458 83.24 104.714 83.952 105.188 84.4C105.668 84.8427 106.234 85.064 106.884 85.064C107.316 85.064 107.706 85 108.052 84.872C108.399 84.744 108.759 84.5547 109.132 84.304L109.764 85.192C109.375 85.5013 108.927 85.744 108.42 85.92C107.914 86.096 107.396 86.184 106.868 86.184C106.047 86.184 105.348 86 104.772 85.632C104.202 85.264 103.764 84.752 103.46 84.096C103.162 83.4347 103.012 82.6693 103.012 81.8C103.012 80.9467 103.162 80.1893 103.46 79.528C103.764 78.8667 104.191 78.3467 104.74 77.968C105.295 77.5893 105.946 77.4 106.692 77.4C107.754 77.4 108.588 77.768 109.196 78.504C109.81 79.24 110.116 80.248 110.116 81.528C110.116 81.672 110.111 81.808 110.1 81.936C110.095 82.064 110.09 82.1733 110.084 82.264H104.42ZM106.708 78.504C106.084 78.504 105.562 78.7253 105.14 79.168C104.719 79.6107 104.482 80.296 104.428 81.224H108.82C108.804 80.3227 108.607 79.6453 108.228 79.192C107.85 78.7333 107.343 78.504 106.708 78.504ZM112.574 86H111.038L114.15 81.552L111.422 77.576H113.014L114.966 80.712L116.942 77.576H118.478L115.758 81.496L118.862 86H117.214L114.91 82.384L112.574 86ZM129.89 77.576V83.544C129.89 84.0987 130.004 84.4987 130.234 84.744C130.463 84.9893 130.82 85.112 131.306 85.112C131.77 85.112 132.207 84.9813 132.618 84.72C133.034 84.4533 133.356 84.1387 133.586 83.776V77.576H134.93V86H133.786L133.674 84.864C133.343 85.2907 132.932 85.6187 132.442 85.848C131.956 86.072 131.468 86.184 130.977 86.184C130.162 86.184 129.551 85.968 129.146 85.536C128.746 85.0987 128.546 84.488 128.546 83.704V77.576H129.89ZM139.803 85.072C140.454 85.072 140.966 84.952 141.339 84.712C141.713 84.472 141.899 84.1467 141.899 83.736C141.899 83.4853 141.851 83.2667 141.755 83.08C141.665 82.8933 141.475 82.7253 141.187 82.576C140.899 82.4213 140.457 82.2693 139.859 82.12C139.278 81.976 138.771 81.8107 138.339 81.624C137.913 81.432 137.579 81.184 137.339 80.88C137.105 80.576 136.987 80.1813 136.987 79.696C136.987 78.9867 137.283 78.4267 137.875 78.016C138.467 77.6053 139.238 77.4 140.187 77.4C140.865 77.4 141.454 77.4907 141.955 77.672C142.462 77.8533 142.891 78.072 143.243 78.328L142.651 79.24C142.337 79.0213 141.985 78.8427 141.595 78.704C141.211 78.56 140.747 78.488 140.203 78.488C139.542 78.488 139.073 78.592 138.795 78.8C138.518 79.0027 138.379 79.2667 138.379 79.592C138.379 79.8427 138.446 80.0507 138.579 80.216C138.718 80.376 138.95 80.52 139.275 80.648C139.601 80.776 140.049 80.9173 140.619 81.072C141.169 81.2213 141.649 81.3973 142.059 81.6C142.47 81.8027 142.787 82.0693 143.011 82.4C143.241 82.7253 143.355 83.1493 143.355 83.672C143.355 84.2693 143.185 84.7547 142.843 85.128C142.502 85.496 142.059 85.7653 141.515 85.936C140.977 86.1013 140.406 86.184 139.803 86.184C139.041 86.184 138.39 86.0747 137.851 85.856C137.318 85.632 136.87 85.3627 136.507 85.048L137.275 84.16C137.606 84.432 137.985 84.6533 138.411 84.824C138.843 84.9893 139.307 85.072 139.803 85.072ZM146.389 82.264C146.426 83.24 146.682 83.952 147.157 84.4C147.637 84.8427 148.202 85.064 148.853 85.064C149.285 85.064 149.674 85 150.021 84.872C150.368 84.744 150.728 84.5547 151.101 84.304L151.733 85.192C151.344 85.5013 150.896 85.744 150.389 85.92C149.882 86.096 149.365 86.184 148.837 86.184C148.016 86.184 147.317 86 146.741 85.632C146.17 85.264 145.733 84.752 145.429 84.096C145.13 83.4347 144.981 82.6693 144.981 81.8C144.981 80.9467 145.13 80.1893 145.429 79.528C145.733 78.8667 146.16 78.3467 146.709 77.968C147.264 77.5893 147.914 77.4 148.661 77.4C149.722 77.4 150.557 77.768 151.165 78.504C151.778 79.24 152.085 80.248 152.085 81.528C152.085 81.672 152.08 81.808 152.069 81.936C152.064 82.064 152.058 82.1733 152.053 82.264H146.389ZM148.677 78.504C148.053 78.504 147.53 78.7253 147.109 79.168C146.688 79.6107 146.45 80.296 146.397 81.224H150.789C150.773 80.3227 150.576 79.6453 150.197 79.192C149.818 78.7333 149.312 78.504 148.677 78.504ZM165.928 85.024C166.35 85.024 166.742 84.9573 167.104 84.824C167.472 84.6853 167.811 84.5067 168.12 84.288L168.776 85.168C168.408 85.4827 167.966 85.7307 167.448 85.912C166.931 86.0933 166.424 86.184 165.928 86.184C165.091 86.184 164.376 86.0053 163.784 85.648C163.198 85.2853 162.75 84.7787 162.44 84.128C162.131 83.472 161.976 82.704 161.976 81.824C161.976 80.9813 162.131 80.2267 162.44 79.56C162.75 78.8933 163.2 78.368 163.792 77.984C164.384 77.5947 165.102 77.4 165.944 77.4C167.016 77.4 167.955 77.7253 168.76 78.376L168.104 79.272C167.374 78.7707 166.648 78.52 165.928 78.52C165.203 78.52 164.606 78.7947 164.136 79.344C163.667 79.888 163.432 80.7147 163.432 81.824C163.432 82.9493 163.667 83.7653 164.136 84.272C164.606 84.7733 165.203 85.024 165.928 85.024ZM176.546 84.16C176.546 84.5013 176.602 84.7493 176.714 84.904C176.826 85.0587 177 85.1707 177.234 85.24L176.906 86.184C176.544 86.136 176.226 86.0213 175.954 85.84C175.682 85.6533 175.485 85.3733 175.362 85C175.058 85.3893 174.677 85.6853 174.218 85.888C173.765 86.0853 173.266 86.184 172.722 86.184C171.88 86.184 171.216 85.9467 170.73 85.472C170.245 84.9973 170.002 84.368 170.002 83.584C170.002 82.7147 170.341 82.048 171.018 81.584C171.696 81.12 172.674 80.888 173.954 80.888H175.194V80.184C175.194 79.576 175.016 79.1467 174.658 78.896C174.306 78.64 173.816 78.512 173.186 78.512C172.909 78.512 172.584 78.5467 172.21 78.616C171.837 78.68 171.432 78.7893 170.994 78.944L170.642 77.928C171.154 77.736 171.637 77.6 172.09 77.52C172.549 77.44 172.984 77.4 173.394 77.4C174.44 77.4 175.226 77.6453 175.754 78.136C176.282 78.6267 176.546 79.288 176.546 80.12V84.16ZM173.066 85.16C173.482 85.16 173.877 85.056 174.25 84.848C174.629 84.6347 174.944 84.3413 175.194 83.968V81.8H173.978C173.05 81.8 172.394 81.96 172.01 82.28C171.632 82.6 171.442 83.0293 171.442 83.568C171.442 84.6293 171.984 85.16 173.066 85.16ZM178.988 86V84.968H180.3V78.608H178.988V77.576H181.324L181.572 79.568C181.897 78.8747 182.292 78.3387 182.756 77.96C183.22 77.5813 183.833 77.392 184.596 77.392C184.831 77.392 185.039 77.4107 185.22 77.448C185.407 77.48 185.596 77.5227 185.788 77.576L185.596 80.424H184.492V78.632C184.471 78.632 184.447 78.632 184.42 78.632C183.129 78.632 182.204 79.5547 181.644 81.4V84.968H183.356V86H178.988ZM190.51 77.4C191.699 77.4 192.598 77.7973 193.206 78.592C193.814 79.3867 194.118 80.4507 194.118 81.784C194.118 82.6427 193.979 83.4027 193.702 84.064C193.424 84.7253 193.016 85.2453 192.478 85.624C191.939 85.9973 191.278 86.184 190.494 86.184C189.304 86.184 188.403 85.784 187.79 84.984C187.176 84.184 186.87 83.1227 186.87 81.8C186.87 80.936 187.008 80.1733 187.286 79.512C187.563 78.8453 187.971 78.328 188.51 77.96C189.054 77.5867 189.72 77.4 190.51 77.4ZM190.51 78.496C189.784 78.496 189.235 78.7653 188.862 79.304C188.494 79.8427 188.31 80.6747 188.31 81.8C188.31 82.9147 188.491 83.7413 188.854 84.28C189.222 84.8133 189.768 85.08 190.494 85.08C191.219 85.08 191.763 84.8107 192.126 84.272C192.494 83.7333 192.678 82.904 192.678 81.784C192.678 80.664 192.496 79.8373 192.134 79.304C191.771 78.7653 191.23 78.496 190.51 78.496ZM198.975 74.184V83.92C198.975 84.336 199.103 84.632 199.359 84.808C199.621 84.9787 199.957 85.064 200.367 85.064C200.618 85.064 200.858 85.0373 201.087 84.984C201.322 84.9307 201.554 84.8587 201.783 84.768L202.143 85.752C201.914 85.864 201.629 85.9627 201.287 86.048C200.951 86.1387 200.57 86.184 200.143 86.184C199.397 86.184 198.791 85.9787 198.327 85.568C197.863 85.152 197.631 84.5787 197.631 83.848V75.248H195.047V74.184H198.975ZM207.281 73.632C207.58 73.632 207.817 73.7227 207.993 73.904C208.175 74.0853 208.265 74.3067 208.265 74.568C208.265 74.84 208.175 75.0693 207.993 75.256C207.817 75.4373 207.58 75.528 207.281 75.528C206.999 75.528 206.767 75.4373 206.585 75.256C206.404 75.0693 206.313 74.84 206.313 74.568C206.313 74.3067 206.404 74.0853 206.585 73.904C206.767 73.7227 206.999 73.632 207.281 73.632ZM208.353 77.576V84.936H210.729V86H204.409V84.936H207.009V78.64H204.489V77.576H208.353ZM212.483 86V77.576H213.627L213.731 78.744C214.072 78.312 214.499 77.9813 215.011 77.752C215.523 77.5173 216.024 77.4 216.515 77.4C217.342 77.4 217.942 77.6187 218.315 78.056C218.694 78.4933 218.883 79.1013 218.883 79.88V86H217.539V80.872C217.539 80.296 217.507 79.832 217.443 79.48C217.379 79.128 217.243 78.8693 217.035 78.704C216.832 78.5387 216.52 78.456 216.099 78.456C215.768 78.456 215.456 78.528 215.163 78.672C214.875 78.816 214.616 78.9973 214.387 79.216C214.163 79.4293 213.976 79.6453 213.827 79.864V86H212.483ZM226.909 84.16C226.909 84.5013 226.965 84.7493 227.077 84.904C227.189 85.0587 227.362 85.1707 227.597 85.24L227.269 86.184C226.906 86.136 226.589 86.0213 226.317 85.84C226.045 85.6533 225.847 85.3733 225.725 85C225.421 85.3893 225.039 85.6853 224.581 85.888C224.127 86.0853 223.629 86.184 223.085 86.184C222.242 86.184 221.578 85.9467 221.093 85.472C220.607 84.9973 220.365 84.368 220.365 83.584C220.365 82.7147 220.703 82.048 221.381 81.584C222.058 81.12 223.037 80.888 224.317 80.888H225.557V80.184C225.557 79.576 225.378 79.1467 225.021 78.896C224.669 78.64 224.178 78.512 223.549 78.512C223.271 78.512 222.946 78.5467 222.573 78.616C222.199 78.68 221.794 78.7893 221.357 78.944L221.005 77.928C221.517 77.736 221.999 77.6 222.453 77.52C222.911 77.44 223.346 77.4 223.757 77.4C224.802 77.4 225.589 77.6453 226.117 78.136C226.645 78.6267 226.909 79.288 226.909 80.12V84.16ZM223.429 85.16C223.845 85.16 224.239 85.056 224.613 84.848C224.991 84.6347 225.306 84.3413 225.557 83.968V81.8H224.341C223.413 81.8 222.757 81.96 222.373 82.28C221.994 82.6 221.805 83.0293 221.805 83.568C221.805 84.6293 222.346 85.16 223.429 85.16ZM234.823 77.4C235.089 77.4 235.348 77.4587 235.599 77.576C235.849 77.6933 236.055 77.92 236.215 78.256C236.375 78.592 236.455 79.0827 236.455 79.728V86H235.207V79.944C235.207 79.416 235.175 79.0347 235.111 78.8C235.047 78.5653 234.863 78.448 234.559 78.448C234.308 78.448 234.057 78.528 233.807 78.688C233.556 78.8427 233.316 79.0987 233.087 79.456V86H231.831V79.944C231.831 79.416 231.799 79.0347 231.735 78.8C231.671 78.5653 231.487 78.448 231.183 78.448C230.921 78.448 230.668 78.528 230.423 78.688C230.177 78.8427 229.94 79.0987 229.711 79.456V86H228.471V77.576H229.527L229.607 78.552C229.836 78.2267 230.092 77.9547 230.375 77.736C230.663 77.512 231.017 77.4 231.439 77.4C231.759 77.4 232.06 77.4773 232.343 77.632C232.625 77.7813 232.833 78.0747 232.967 78.512C233.196 78.1813 233.455 77.9147 233.743 77.712C234.031 77.504 234.391 77.4 234.823 77.4ZM238.72 82.264C238.758 83.24 239.014 83.952 239.488 84.4C239.968 84.8427 240.534 85.064 241.184 85.064C241.616 85.064 242.006 85 242.352 84.872C242.699 84.744 243.059 84.5547 243.432 84.304L244.064 85.192C243.675 85.5013 243.227 85.744 242.72 85.92C242.214 86.096 241.696 86.184 241.168 86.184C240.347 86.184 239.648 86 239.072 85.632C238.502 85.264 238.064 84.752 237.76 84.096C237.462 83.4347 237.312 82.6693 237.312 81.8C237.312 80.9467 237.462 80.1893 237.76 79.528C238.064 78.8667 238.491 78.3467 239.04 77.968C239.595 77.5893 240.246 77.4 240.992 77.4C242.054 77.4 242.888 77.768 243.496 78.504C244.11 79.24 244.416 80.248 244.416 81.528C244.416 81.672 244.411 81.808 244.4 81.936C244.395 82.064 244.39 82.1733 244.384 82.264H238.72ZM241.008 78.504C240.384 78.504 239.862 78.7253 239.44 79.168C239.019 79.6107 238.782 80.296 238.728 81.224H243.12C243.104 80.3227 242.907 79.6453 242.528 79.192C242.15 78.7333 241.643 78.504 241.008 78.504ZM246.058 86V77.576H247.202L247.306 78.744C247.647 78.312 248.074 77.9813 248.586 77.752C249.098 77.5173 249.599 77.4 250.09 77.4C250.917 77.4 251.517 77.6187 251.89 78.056C252.269 78.4933 252.458 79.1013 252.458 79.88V86H251.114V80.872C251.114 80.296 251.082 79.832 251.018 79.48C250.954 79.128 250.818 78.8693 250.61 78.704C250.407 78.5387 250.095 78.456 249.674 78.456C249.343 78.456 249.031 78.528 248.738 78.672C248.45 78.816 248.191 78.9973 247.962 79.216C247.738 79.4293 247.551 79.6453 247.402 79.864V86H246.058ZM255.508 82.264C255.545 83.24 255.801 83.952 256.276 84.4C256.756 84.8427 257.321 85.064 257.972 85.064C258.404 85.064 258.793 85 259.14 84.872C259.486 84.744 259.846 84.5547 260.22 84.304L260.852 85.192C260.462 85.5013 260.014 85.744 259.508 85.92C259.001 86.096 258.484 86.184 257.956 86.184C257.134 86.184 256.436 86 255.86 85.632C255.289 85.264 254.852 84.752 254.548 84.096C254.249 83.4347 254.1 82.6693 254.1 81.8C254.1 80.9467 254.249 80.1893 254.548 79.528C254.852 78.8667 255.278 78.3467 255.828 77.968C256.382 77.5893 257.033 77.4 257.78 77.4C258.841 77.4 259.676 77.768 260.284 78.504C260.897 79.24 261.204 80.248 261.204 81.528C261.204 81.672 261.198 81.808 261.188 81.936C261.182 82.064 261.177 82.1733 261.172 82.264H255.508ZM257.796 78.504C257.172 78.504 256.649 78.7253 256.228 79.168C255.806 79.6107 255.569 80.296 255.516 81.224H259.908C259.892 80.3227 259.694 79.6453 259.316 79.192C258.937 78.7333 258.43 78.504 257.796 78.504ZM264.526 84.856H269.214L269.038 86H262.878V84.984L267.55 78.744H263.246V77.576H269.166V78.616L264.526 84.856ZM272.295 82.264C272.333 83.24 272.589 83.952 273.063 84.4C273.543 84.8427 274.109 85.064 274.759 85.064C275.191 85.064 275.581 85 275.927 84.872C276.274 84.744 276.634 84.5547 277.007 84.304L277.639 85.192C277.25 85.5013 276.802 85.744 276.295 85.92C275.789 86.096 275.271 86.184 274.743 86.184C273.922 86.184 273.223 86 272.647 85.632C272.077 85.264 271.639 84.752 271.335 84.096C271.037 83.4347 270.887 82.6693 270.887 81.8C270.887 80.9467 271.037 80.1893 271.335 79.528C271.639 78.8667 272.066 78.3467 272.615 77.968C273.17 77.5893 273.821 77.4 274.567 77.4C275.629 77.4 276.463 77.768 277.071 78.504C277.685 79.24 277.991 80.248 277.991 81.528C277.991 81.672 277.986 81.808 277.975 81.936C277.97 82.064 277.965 82.1733 277.959 82.264H272.295ZM274.583 78.504C273.959 78.504 273.437 78.7253 273.015 79.168C272.594 79.6107 272.357 80.296 272.303 81.224H276.695C276.679 80.3227 276.482 79.6453 276.103 79.192C275.725 78.7333 275.218 78.504 274.583 78.504ZM282.497 85.072C283.148 85.072 283.66 84.952 284.033 84.712C284.406 84.472 284.593 84.1467 284.593 83.736C284.593 83.4853 284.545 83.2667 284.449 83.08C284.358 82.8933 284.169 82.7253 283.881 82.576C283.593 82.4213 283.15 82.2693 282.553 82.12C281.972 81.976 281.465 81.8107 281.033 81.624C280.606 81.432 280.273 81.184 280.033 80.88C279.798 80.576 279.681 80.1813 279.681 79.696C279.681 78.9867 279.977 78.4267 280.569 78.016C281.161 77.6053 281.932 77.4 282.881 77.4C283.558 77.4 284.148 77.4907 284.649 77.672C285.156 77.8533 285.585 78.072 285.937 78.328L285.345 79.24C285.03 79.0213 284.678 78.8427 284.289 78.704C283.905 78.56 283.441 78.488 282.897 78.488C282.236 78.488 281.766 78.592 281.489 78.8C281.212 79.0027 281.073 79.2667 281.073 79.592C281.073 79.8427 281.14 80.0507 281.273 80.216C281.412 80.376 281.644 80.52 281.969 80.648C282.294 80.776 282.742 80.9173 283.313 81.072C283.862 81.2213 284.342 81.3973 284.753 81.6C285.164 81.8027 285.481 82.0693 285.705 82.4C285.934 82.7253 286.049 83.1493 286.049 83.672C286.049 84.2693 285.878 84.7547 285.537 85.128C285.196 85.496 284.753 85.7653 284.209 85.936C283.67 86.1013 283.1 86.184 282.497 86.184C281.734 86.184 281.084 86.0747 280.545 85.856C280.012 85.632 279.564 85.3627 279.201 85.048L279.969 84.16C280.3 84.432 280.678 84.6533 281.105 84.824C281.537 84.9893 282.001 85.072 282.497 85.072Z" fill="white"/>
<path d="M47.512 109.984L47.376 117.368H46.168L46.008 109.984H47.512ZM46.784 119.04C47.0933 119.04 47.3493 119.144 47.552 119.352C47.76 119.56 47.864 119.811 47.864 120.104C47.864 120.403 47.76 120.659 47.552 120.872C47.3493 121.08 47.0933 121.184 46.784 121.184C46.48 121.184 46.2267 121.08 46.024 120.872C45.8213 120.659 45.72 120.403 45.72 120.104C45.72 119.811 45.8213 119.56 46.024 119.352C46.2267 119.144 46.48 119.04 46.784 119.04Z" fill="#477DFF"/>
<path d="M283.817 140.304L281.657 137L282.465 136.48L285.289 139.824V140.8L282.465 144.12L281.657 143.6L283.817 140.304ZM280.505 140.304L278.345 137L279.153 136.48L281.961 139.824V140.8L279.153 144.12L278.345 143.6L280.505 140.304ZM297.213 139.4C297.213 140.515 297.338 141.477 297.589 142.288C297.845 143.093 298.226 143.829 298.733 144.496C299.239 145.163 299.874 145.832 300.637 146.504L299.933 147.24C299.069 146.536 298.327 145.813 297.709 145.072C297.095 144.331 296.623 143.504 296.293 142.592C295.967 141.68 295.805 140.616 295.805 139.4C295.805 138.184 295.967 137.12 296.293 136.208C296.623 135.296 297.095 134.469 297.709 133.728C298.327 132.987 299.069 132.264 299.933 131.56L300.637 132.296C299.869 132.979 299.231 133.651 298.725 134.312C298.218 134.973 297.839 135.707 297.589 136.512C297.338 137.317 297.213 138.28 297.213 139.4ZM307.71 140.752V145H306.302V140.768L302.582 133.984H304.118L307.038 139.504L309.99 133.984H311.43L307.71 140.752ZM312.528 146.648L311.44 146.168L318.288 132.048L319.36 132.576L312.528 146.648ZM320.602 145V136.576H321.746L321.85 137.744C322.191 137.312 322.618 136.981 323.13 136.752C323.642 136.517 324.143 136.4 324.634 136.4C325.46 136.4 326.06 136.619 326.434 137.056C326.812 137.493 327.002 138.101 327.002 138.88V145H325.658V139.872C325.658 139.296 325.626 138.832 325.562 138.48C325.498 138.128 325.362 137.869 325.154 137.704C324.951 137.539 324.639 137.456 324.218 137.456C323.887 137.456 323.575 137.528 323.282 137.672C322.994 137.816 322.735 137.997 322.506 138.216C322.282 138.429 322.095 138.645 321.946 138.864V145H320.602ZM333.588 139.4C333.588 138.28 333.462 137.317 333.212 136.512C332.961 135.707 332.582 134.973 332.076 134.312C331.569 133.651 330.932 132.979 330.164 132.296L330.868 131.56C331.732 132.264 332.47 132.987 333.084 133.728C333.702 134.469 334.174 135.296 334.5 136.208C334.83 137.12 334.996 138.184 334.996 139.4C334.996 140.616 334.83 141.68 334.5 142.592C334.174 143.504 333.702 144.331 333.084 145.072C332.47 145.813 331.732 146.536 330.868 147.24L330.164 146.504C330.926 145.832 331.561 145.163 332.068 144.496C332.574 143.829 332.953 143.093 333.204 142.288C333.46 141.477 333.588 140.515 333.588 139.4Z" fill="#979899"/>
<path d="M68.3155 109.984L66.6355 121H64.8115L63.5475 112.688L62.2755 121H60.4115L58.8595 109.984H60.2515L61.4275 119.472L62.7475 111.264H64.4515L65.7075 119.472L67.0275 109.984H68.3155ZM71.9973 112.4C73.1866 112.4 74.0853 112.797 74.6933 113.592C75.3013 114.387 75.6053 115.451 75.6053 116.784C75.6053 117.643 75.4666 118.403 75.1892 119.064C74.9119 119.725 74.5039 120.245 73.9653 120.624C73.4266 120.997 72.7652 121.184 71.9812 121.184C70.7919 121.184 69.8906 120.784 69.2772 119.984C68.6639 119.184 68.3572 118.123 68.3572 116.8C68.3572 115.936 68.4959 115.173 68.7732 114.512C69.0506 113.845 69.4586 113.328 69.9972 112.96C70.5412 112.587 71.2079 112.4 71.9973 112.4ZM71.9973 113.496C71.2719 113.496 70.7226 113.765 70.3492 114.304C69.9812 114.843 69.7972 115.675 69.7972 116.8C69.7972 117.915 69.9786 118.741 70.3412 119.28C70.7092 119.813 71.2559 120.08 71.9812 120.08C72.7066 120.08 73.2506 119.811 73.6132 119.272C73.9812 118.733 74.1652 117.904 74.1652 116.784C74.1652 115.664 73.9839 114.837 73.6213 114.304C73.2586 113.765 72.7173 113.496 71.9973 113.496ZM77.263 121V119.968H78.575V113.608H77.263V112.576H79.599L79.847 114.568C80.1723 113.875 80.567 113.339 81.031 112.96C81.495 112.581 82.1083 112.392 82.871 112.392C83.1057 112.392 83.3137 112.411 83.495 112.448C83.6817 112.48 83.871 112.523 84.063 112.576L83.871 115.424H82.767V113.632C82.7457 113.632 82.7217 113.632 82.695 113.632C81.4043 113.632 80.479 114.555 79.919 116.4V119.968H81.631V121H77.263ZM87.0088 109.016V121H85.6648V109.184L87.0088 109.016ZM92.6328 112.576L88.8408 116.368L93.0728 121H91.3048L87.1608 116.4L90.8888 112.576H92.6328ZM96.8345 120.072C97.4852 120.072 97.9972 119.952 98.3705 119.712C98.7438 119.472 98.9305 119.147 98.9305 118.736C98.9305 118.485 98.8825 118.267 98.7865 118.08C98.6958 117.893 98.5065 117.725 98.2185 117.576C97.9305 117.421 97.4878 117.269 96.8905 117.12C96.3092 116.976 95.8025 116.811 95.3705 116.624C94.9438 116.432 94.6105 116.184 94.3705 115.88C94.1358 115.576 94.0185 115.181 94.0185 114.696C94.0185 113.987 94.3145 113.427 94.9065 113.016C95.4985 112.605 96.2692 112.4 97.2185 112.4C97.8958 112.4 98.4852 112.491 98.9865 112.672C99.4932 112.853 99.9225 113.072 100.274 113.328L99.6825 114.24C99.3678 114.021 99.0158 113.843 98.6265 113.704C98.2425 113.56 97.7785 113.488 97.2345 113.488C96.5732 113.488 96.1038 113.592 95.8265 113.8C95.5492 114.003 95.4105 114.267 95.4105 114.592C95.4105 114.843 95.4772 115.051 95.6105 115.216C95.7492 115.376 95.9812 115.52 96.3065 115.648C96.6318 115.776 97.0798 115.917 97.6505 116.072C98.1998 116.221 98.6798 116.397 99.0905 116.6C99.5012 116.803 99.8185 117.069 100.042 117.4C100.272 117.725 100.386 118.149 100.386 118.672C100.386 119.269 100.216 119.755 99.8745 120.128C99.5332 120.496 99.0905 120.765 98.5465 120.936C98.0078 121.101 97.4372 121.184 96.8345 121.184C96.0718 121.184 95.4212 121.075 94.8825 120.856C94.3492 120.632 93.9012 120.363 93.5385 120.048L94.3065 119.16C94.6372 119.432 95.0158 119.653 95.4425 119.824C95.8745 119.989 96.3385 120.072 96.8345 120.072ZM106.132 112.4C106.879 112.4 107.474 112.581 107.916 112.944C108.364 113.307 108.687 113.819 108.884 114.48C109.082 115.136 109.18 115.904 109.18 116.784C109.18 117.632 109.06 118.389 108.82 119.056C108.586 119.717 108.228 120.237 107.748 120.616C107.268 120.995 106.663 121.184 105.932 121.184C105.01 121.184 104.268 120.859 103.708 120.208V124.224L102.364 124.392V112.576H103.508L103.62 113.752C103.93 113.32 104.298 112.987 104.724 112.752C105.151 112.517 105.62 112.4 106.132 112.4ZM105.812 113.48C105.348 113.48 104.938 113.621 104.58 113.904C104.223 114.181 103.932 114.491 103.708 114.832V119.008C103.927 119.333 104.202 119.592 104.532 119.784C104.868 119.971 105.236 120.064 105.636 120.064C106.335 120.064 106.86 119.797 107.212 119.264C107.564 118.731 107.74 117.901 107.74 116.776C107.74 114.579 107.098 113.48 105.812 113.48ZM116.79 119.16C116.79 119.501 116.846 119.749 116.958 119.904C117.07 120.059 117.243 120.171 117.478 120.24L117.15 121.184C116.787 121.136 116.47 121.021 116.198 120.84C115.926 120.653 115.729 120.373 115.606 120C115.302 120.389 114.921 120.685 114.462 120.888C114.009 121.085 113.51 121.184 112.966 121.184C112.123 121.184 111.459 120.947 110.974 120.472C110.489 119.997 110.246 119.368 110.246 118.584C110.246 117.715 110.585 117.048 111.262 116.584C111.939 116.12 112.918 115.888 114.198 115.888H115.438V115.184C115.438 114.576 115.259 114.147 114.902 113.896C114.55 113.64 114.059 113.512 113.43 113.512C113.153 113.512 112.827 113.547 112.454 113.616C112.081 113.68 111.675 113.789 111.238 113.944L110.886 112.928C111.398 112.736 111.881 112.6 112.334 112.52C112.793 112.44 113.227 112.4 113.638 112.4C114.683 112.4 115.47 112.645 115.998 113.136C116.526 113.627 116.79 114.288 116.79 115.12V119.16ZM113.31 120.16C113.726 120.16 114.121 120.056 114.494 119.848C114.873 119.635 115.187 119.341 115.438 118.968V116.8H114.222C113.294 116.8 112.638 116.96 112.254 117.28C111.875 117.6 111.686 118.029 111.686 118.568C111.686 119.629 112.227 120.16 113.31 120.16ZM122.96 120.024C123.381 120.024 123.773 119.957 124.136 119.824C124.504 119.685 124.842 119.507 125.152 119.288L125.808 120.168C125.44 120.483 124.997 120.731 124.48 120.912C123.962 121.093 123.456 121.184 122.96 121.184C122.122 121.184 121.408 121.005 120.816 120.648C120.229 120.285 119.781 119.779 119.472 119.128C119.162 118.472 119.008 117.704 119.008 116.824C119.008 115.981 119.162 115.227 119.472 114.56C119.781 113.893 120.232 113.368 120.824 112.984C121.416 112.595 122.133 112.4 122.976 112.4C124.048 112.4 124.986 112.725 125.792 113.376L125.136 114.272C124.405 113.771 123.68 113.52 122.96 113.52C122.234 113.52 121.637 113.795 121.168 114.344C120.698 114.888 120.464 115.715 120.464 116.824C120.464 117.949 120.698 118.765 121.168 119.272C121.637 119.773 122.234 120.024 122.96 120.024ZM128.602 117.264C128.639 118.24 128.895 118.952 129.37 119.4C129.85 119.843 130.415 120.064 131.066 120.064C131.498 120.064 131.887 120 132.234 119.872C132.58 119.744 132.94 119.555 133.314 119.304L133.946 120.192C133.556 120.501 133.108 120.744 132.602 120.92C132.095 121.096 131.578 121.184 131.05 121.184C130.228 121.184 129.53 121 128.954 120.632C128.383 120.264 127.946 119.752 127.642 119.096C127.343 118.435 127.194 117.669 127.194 116.8C127.194 115.947 127.343 115.189 127.642 114.528C127.946 113.867 128.372 113.347 128.922 112.968C129.476 112.589 130.127 112.4 130.874 112.4C131.935 112.4 132.77 112.768 133.378 113.504C133.991 114.24 134.298 115.248 134.298 116.528C134.298 116.672 134.292 116.808 134.282 116.936C134.276 117.064 134.271 117.173 134.266 117.264H128.602ZM130.89 113.504C130.266 113.504 129.743 113.725 129.322 114.168C128.9 114.611 128.663 115.296 128.61 116.224H133.002C132.986 115.323 132.788 114.645 132.41 114.192C132.031 113.733 131.524 113.504 130.89 113.504ZM283.673 109.016L285.017 109.184V121H283.841L283.713 119.888C283.398 120.336 283.036 120.664 282.625 120.872C282.22 121.08 281.785 121.184 281.321 121.184C280.59 121.184 279.988 121 279.513 120.632C279.038 120.264 278.686 119.752 278.457 119.096C278.228 118.435 278.113 117.669 278.113 116.8C278.113 115.957 278.244 115.205 278.505 114.544C278.766 113.877 279.142 113.355 279.633 112.976C280.129 112.592 280.724 112.4 281.417 112.4C282.35 112.4 283.102 112.731 283.673 113.392V109.016ZM281.769 113.48C281.065 113.48 280.524 113.755 280.145 114.304C279.766 114.853 279.577 115.685 279.577 116.8C279.577 118.997 280.252 120.096 281.601 120.096C282.076 120.096 282.484 119.963 282.825 119.696C283.166 119.424 283.449 119.115 283.673 118.768V114.56C283.444 114.219 283.166 113.955 282.841 113.768C282.516 113.576 282.158 113.48 281.769 113.48ZM290.235 112.4C291.424 112.4 292.323 112.797 292.931 113.592C293.539 114.387 293.843 115.451 293.843 116.784C293.843 117.643 293.704 118.403 293.427 119.064C293.149 119.725 292.741 120.245 292.203 120.624C291.664 120.997 291.003 121.184 290.219 121.184C289.029 121.184 288.128 120.784 287.515 119.984C286.901 119.184 286.595 118.123 286.595 116.8C286.595 115.936 286.733 115.173 287.011 114.512C287.288 113.845 287.696 113.328 288.235 112.96C288.779 112.587 289.445 112.4 290.235 112.4ZM290.235 113.496C289.509 113.496 288.96 113.765 288.587 114.304C288.219 114.843 288.035 115.675 288.035 116.8C288.035 117.915 288.216 118.741 288.579 119.28C288.947 119.813 289.493 120.08 290.219 120.08C290.944 120.08 291.488 119.811 291.851 119.272C292.219 118.733 292.403 117.904 292.403 116.784C292.403 115.664 292.221 114.837 291.859 114.304C291.496 113.765 290.955 113.496 290.235 113.496ZM296.477 117.264C296.514 118.24 296.77 118.952 297.245 119.4C297.725 119.843 298.29 120.064 298.941 120.064C299.373 120.064 299.762 120 300.109 119.872C300.455 119.744 300.815 119.555 301.189 119.304L301.821 120.192C301.431 120.501 300.983 120.744 300.477 120.92C299.97 121.096 299.453 121.184 298.925 121.184C298.103 121.184 297.405 121 296.829 120.632C296.258 120.264 295.821 119.752 295.517 119.096C295.218 118.435 295.069 117.669 295.069 116.8C295.069 115.947 295.218 115.189 295.517 114.528C295.821 113.867 296.247 113.347 296.797 112.968C297.351 112.589 298.002 112.4 298.749 112.4C299.81 112.4 300.645 112.768 301.253 113.504C301.866 114.24 302.173 115.248 302.173 116.528C302.173 116.672 302.167 116.808 302.157 116.936C302.151 117.064 302.146 117.173 302.141 117.264H296.477ZM298.765 113.504C298.141 113.504 297.618 113.725 297.197 114.168C296.775 114.611 296.538 115.296 296.485 116.224H300.877C300.861 115.323 300.663 114.645 300.285 114.192C299.906 113.733 299.399 113.504 298.765 113.504ZM306.678 120.072C307.329 120.072 307.841 119.952 308.214 119.712C308.588 119.472 308.774 119.147 308.774 118.736C308.774 118.485 308.726 118.267 308.63 118.08C308.54 117.893 308.35 117.725 308.062 117.576C307.774 117.421 307.332 117.269 306.734 117.12C306.153 116.976 305.646 116.811 305.214 116.624C304.788 116.432 304.454 116.184 304.214 115.88C303.98 115.576 303.862 115.181 303.862 114.696C303.862 113.987 304.158 113.427 304.75 113.016C305.342 112.605 306.113 112.4 307.062 112.4C307.74 112.4 308.329 112.491 308.83 112.672C309.337 112.853 309.766 113.072 310.118 113.328L309.526 114.24C309.212 114.021 308.86 113.843 308.47 113.704C308.086 113.56 307.622 113.488 307.078 113.488C306.417 113.488 305.948 113.592 305.67 113.8C305.393 114.003 305.254 114.267 305.254 114.592C305.254 114.843 305.321 115.051 305.454 115.216C305.593 115.376 305.825 115.52 306.15 115.648C306.476 115.776 306.924 115.917 307.494 116.072C308.044 116.221 308.524 116.397 308.934 116.6C309.345 116.803 309.662 117.069 309.886 117.4C310.116 117.725 310.23 118.149 310.23 118.672C310.23 119.269 310.06 119.755 309.718 120.128C309.377 120.496 308.934 120.765 308.39 120.936C307.852 121.101 307.281 121.184 306.678 121.184C305.916 121.184 305.265 121.075 304.726 120.856C304.193 120.632 303.745 120.363 303.382 120.048L304.15 119.16C304.481 119.432 304.86 119.653 305.286 119.824C305.718 119.989 306.182 120.072 306.678 120.072ZM312.208 121V112.576H313.352L313.456 113.744C313.797 113.312 314.224 112.981 314.736 112.752C315.248 112.517 315.749 112.4 316.24 112.4C317.067 112.4 317.667 112.619 318.04 113.056C318.419 113.493 318.608 114.101 318.608 114.88V121H317.264V115.872C317.264 115.296 317.232 114.832 317.168 114.48C317.104 114.128 316.968 113.869 316.76 113.704C316.557 113.539 316.245 113.456 315.824 113.456C315.493 113.456 315.181 113.528 314.888 113.672C314.6 113.816 314.341 113.997 314.112 114.216C313.888 114.429 313.701 114.645 313.552 114.864V121H312.208ZM323.202 113.344L322.954 109.184H324.634L324.386 113.344H323.202ZM335.684 120.576C335.396 120.768 335.046 120.917 334.636 121.024C334.225 121.131 333.822 121.184 333.428 121.184C332.521 121.184 331.822 120.947 331.332 120.472C330.841 119.997 330.596 119.387 330.596 118.64V113.616H328.66V112.576H330.596V110.664L331.94 110.504V112.576H334.852L334.692 113.616H331.94V118.624C331.94 119.093 332.062 119.451 332.308 119.696C332.558 119.941 332.972 120.064 333.548 120.064C333.862 120.064 334.153 120.027 334.42 119.952C334.686 119.877 334.934 119.781 335.164 119.664L335.684 120.576ZM346.839 117.264C346.876 118.24 347.132 118.952 347.607 119.4C348.087 119.843 348.652 120.064 349.303 120.064C349.735 120.064 350.124 120 350.471 119.872C350.818 119.744 351.178 119.555 351.551 119.304L352.183 120.192C351.794 120.501 351.346 120.744 350.839 120.92C350.332 121.096 349.815 121.184 349.287 121.184C348.466 121.184 347.767 121 347.191 120.632C346.62 120.264 346.183 119.752 345.879 119.096C345.58 118.435 345.431 117.669 345.431 116.8C345.431 115.947 345.58 115.189 345.879 114.528C346.183 113.867 346.61 113.347 347.159 112.968C347.714 112.589 348.364 112.4 349.111 112.4C350.172 112.4 351.007 112.768 351.615 113.504C352.228 114.24 352.535 115.248 352.535 116.528C352.535 116.672 352.53 116.808 352.519 116.936C352.514 117.064 352.508 117.173 352.503 117.264H346.839ZM349.127 113.504C348.503 113.504 347.98 113.725 347.559 114.168C347.138 114.611 346.9 115.296 346.847 116.224H351.239C351.223 115.323 351.026 114.645 350.647 114.192C350.268 113.733 349.762 113.504 349.127 113.504ZM354.993 121H353.457L356.569 116.552L353.841 112.576H355.433L357.385 115.712L359.361 112.576H360.897L358.177 116.496L361.281 121H359.633L357.329 117.384L354.993 121ZM365.762 108.632C366.061 108.632 366.298 108.723 366.474 108.904C366.656 109.085 366.746 109.307 366.746 109.568C366.746 109.84 366.656 110.069 366.474 110.256C366.298 110.437 366.061 110.528 365.762 110.528C365.48 110.528 365.248 110.437 365.066 110.256C364.885 110.069 364.794 109.84 364.794 109.568C364.794 109.307 364.885 109.085 365.066 108.904C365.248 108.723 365.48 108.632 365.762 108.632ZM366.834 112.576V119.936H369.21V121H362.89V119.936H365.49V113.64H362.97V112.576H366.834ZM373.828 120.072C374.479 120.072 374.991 119.952 375.364 119.712C375.738 119.472 375.924 119.147 375.924 118.736C375.924 118.485 375.876 118.267 375.78 118.08C375.69 117.893 375.5 117.725 375.212 117.576C374.924 117.421 374.482 117.269 373.884 117.12C373.303 116.976 372.796 116.811 372.364 116.624C371.938 116.432 371.604 116.184 371.364 115.88C371.13 115.576 371.012 115.181 371.012 114.696C371.012 113.987 371.308 113.427 371.9 113.016C372.492 112.605 373.263 112.4 374.212 112.4C374.89 112.4 375.479 112.491 375.98 112.672C376.487 112.853 376.916 113.072 377.268 113.328L376.676 114.24C376.362 114.021 376.01 113.843 375.62 113.704C375.236 113.56 374.772 113.488 374.228 113.488C373.567 113.488 373.098 113.592 372.82 113.8C372.543 114.003 372.404 114.267 372.404 114.592C372.404 114.843 372.471 115.051 372.604 115.216C372.743 115.376 372.975 115.52 373.3 115.648C373.626 115.776 374.074 115.917 374.644 116.072C375.194 116.221 375.674 116.397 376.084 116.6C376.495 116.803 376.812 117.069 377.036 117.4C377.266 117.725 377.38 118.149 377.38 118.672C377.38 119.269 377.21 119.755 376.868 120.128C376.527 120.496 376.084 120.765 375.54 120.936C375.002 121.101 374.431 121.184 373.828 121.184C373.066 121.184 372.415 121.075 371.876 120.856C371.343 120.632 370.895 120.363 370.532 120.048L371.3 119.16C371.631 119.432 372.01 119.653 372.436 119.824C372.868 119.989 373.332 120.072 373.828 120.072ZM386.046 120.576C385.758 120.768 385.409 120.917 384.998 121.024C384.587 121.131 384.185 121.184 383.79 121.184C382.883 121.184 382.185 120.947 381.694 120.472C381.203 119.997 380.958 119.387 380.958 118.64V113.616H379.022V112.576H380.958V110.664L382.302 110.504V112.576H385.214L385.054 113.616H382.302V118.624C382.302 119.093 382.425 119.451 382.67 119.696C382.921 119.941 383.334 120.064 383.91 120.064C384.225 120.064 384.515 120.027 384.782 119.952C385.049 119.877 385.297 119.781 385.526 119.664L386.046 120.576Z" fill="white"/>
<path d="M148.141 120.024C148.562 120.024 148.954 119.957 149.317 119.824C149.685 119.685 150.024 119.507 150.333 119.288L150.989 120.168C150.621 120.483 150.178 120.731 149.661 120.912C149.144 121.093 148.637 121.184 148.141 121.184C147.304 121.184 146.589 121.005 145.997 120.648C145.41 120.285 144.962 119.779 144.653 119.128C144.344 118.472 144.189 117.704 144.189 116.824C144.189 115.981 144.344 115.227 144.653 114.56C144.962 113.893 145.413 113.368 146.005 112.984C146.597 112.595 147.314 112.4 148.157 112.4C149.229 112.4 150.168 112.725 150.973 113.376L150.317 114.272C149.586 113.771 148.861 113.52 148.141 113.52C147.416 113.52 146.818 113.795 146.349 114.344C145.88 114.888 145.645 115.715 145.645 116.824C145.645 117.949 145.88 118.765 146.349 119.272C146.818 119.773 147.416 120.024 148.141 120.024ZM158.759 119.16C158.759 119.501 158.815 119.749 158.927 119.904C159.039 120.059 159.212 120.171 159.447 120.24L159.119 121.184C158.756 121.136 158.439 121.021 158.167 120.84C157.895 120.653 157.697 120.373 157.575 120C157.271 120.389 156.889 120.685 156.431 120.888C155.977 121.085 155.479 121.184 154.935 121.184C154.092 121.184 153.428 120.947 152.943 120.472C152.457 119.997 152.215 119.368 152.215 118.584C152.215 117.715 152.553 117.048 153.231 116.584C153.908 116.12 154.887 115.888 156.167 115.888H157.407V115.184C157.407 114.576 157.228 114.147 156.871 113.896C156.519 113.64 156.028 113.512 155.399 113.512C155.121 113.512 154.796 113.547 154.423 113.616C154.049 113.68 153.644 113.789 153.207 113.944L152.855 112.928C153.367 112.736 153.849 112.6 154.303 112.52C154.761 112.44 155.196 112.4 155.607 112.4C156.652 112.4 157.439 112.645 157.967 113.136C158.495 113.627 158.759 114.288 158.759 115.12V119.16ZM155.279 120.16C155.695 120.16 156.089 120.056 156.463 119.848C156.841 119.635 157.156 119.341 157.407 118.968V116.8H156.191C155.263 116.8 154.607 116.96 154.223 117.28C153.844 117.6 153.655 118.029 153.655 118.568C153.655 119.629 154.196 120.16 155.279 120.16ZM161.2 121V119.968H162.512V113.608H161.2V112.576H163.536L163.784 114.568C164.11 113.875 164.504 113.339 164.968 112.96C165.432 112.581 166.046 112.392 166.808 112.392C167.043 112.392 167.251 112.411 167.432 112.448C167.619 112.48 167.808 112.523 168 112.576L167.808 115.424H166.704V113.632C166.683 113.632 166.659 113.632 166.632 113.632C165.342 113.632 164.416 114.555 163.856 116.4V119.968H165.568V121H161.2ZM172.722 112.4C173.912 112.4 174.81 112.797 175.418 113.592C176.026 114.387 176.33 115.451 176.33 116.784C176.33 117.643 176.192 118.403 175.914 119.064C175.637 119.725 175.229 120.245 174.69 120.624C174.152 120.997 173.49 121.184 172.706 121.184C171.517 121.184 170.616 120.784 170.002 119.984C169.389 119.184 169.082 118.123 169.082 116.8C169.082 115.936 169.221 115.173 169.498 114.512C169.776 113.845 170.184 113.328 170.722 112.96C171.266 112.587 171.933 112.4 172.722 112.4ZM172.722 113.496C171.997 113.496 171.448 113.765 171.074 114.304C170.706 114.843 170.522 115.675 170.522 116.8C170.522 117.915 170.704 118.741 171.066 119.28C171.434 119.813 171.981 120.08 172.706 120.08C173.432 120.08 173.976 119.811 174.338 119.272C174.706 118.733 174.89 117.904 174.89 116.784C174.89 115.664 174.709 114.837 174.346 114.304C173.984 113.765 173.442 113.496 172.722 113.496ZM181.188 109.184V118.92C181.188 119.336 181.316 119.632 181.572 119.808C181.833 119.979 182.169 120.064 182.58 120.064C182.831 120.064 183.071 120.037 183.3 119.984C183.535 119.931 183.767 119.859 183.996 119.768L184.356 120.752C184.127 120.864 183.841 120.963 183.5 121.048C183.164 121.139 182.783 121.184 182.356 121.184C181.609 121.184 181.004 120.979 180.54 120.568C180.076 120.152 179.844 119.579 179.844 118.848V110.248H177.26V109.184H181.188ZM189.494 108.632C189.792 108.632 190.03 108.723 190.206 108.904C190.387 109.085 190.478 109.307 190.478 109.568C190.478 109.84 190.387 110.069 190.206 110.256C190.03 110.437 189.792 110.528 189.494 110.528C189.211 110.528 188.979 110.437 188.798 110.256C188.616 110.069 188.526 109.84 188.526 109.568C188.526 109.307 188.616 109.085 188.798 108.904C188.979 108.723 189.211 108.632 189.494 108.632ZM190.566 112.576V119.936H192.942V121H186.622V119.936H189.222V113.64H186.702V112.576H190.566ZM194.695 121V112.576H195.839L195.943 113.744C196.285 113.312 196.711 112.981 197.223 112.752C197.735 112.517 198.237 112.4 198.727 112.4C199.554 112.4 200.154 112.619 200.527 113.056C200.906 113.493 201.095 114.101 201.095 114.88V121H199.751V115.872C199.751 115.296 199.719 114.832 199.655 114.48C199.591 114.128 199.455 113.869 199.247 113.704C199.045 113.539 198.733 113.456 198.311 113.456C197.981 113.456 197.669 113.528 197.375 113.672C197.087 113.816 196.829 113.997 196.599 114.216C196.375 114.429 196.189 114.645 196.039 114.864V121H194.695ZM209.121 119.16C209.121 119.501 209.177 119.749 209.289 119.904C209.401 120.059 209.575 120.171 209.809 120.24L209.481 121.184C209.119 121.136 208.801 121.021 208.529 120.84C208.257 120.653 208.06 120.373 207.937 120C207.633 120.389 207.252 120.685 206.793 120.888C206.34 121.085 205.841 121.184 205.297 121.184C204.455 121.184 203.791 120.947 203.305 120.472C202.82 119.997 202.577 119.368 202.577 118.584C202.577 117.715 202.916 117.048 203.593 116.584C204.271 116.12 205.249 115.888 206.529 115.888H207.769V115.184C207.769 114.576 207.591 114.147 207.233 113.896C206.881 113.64 206.391 113.512 205.761 113.512C205.484 113.512 205.159 113.547 204.785 113.616C204.412 113.68 204.007 113.789 203.569 113.944L203.217 112.928C203.729 112.736 204.212 112.6 204.665 112.52C205.124 112.44 205.559 112.4 205.969 112.4C207.015 112.4 207.801 112.645 208.329 113.136C208.857 113.627 209.121 114.288 209.121 115.12V119.16ZM205.641 120.16C206.057 120.16 206.452 120.056 206.825 119.848C207.204 119.635 207.519 119.341 207.769 118.968V116.8H206.553C205.625 116.8 204.969 116.96 204.585 117.28C204.207 117.6 204.017 118.029 204.017 118.568C204.017 119.629 204.559 120.16 205.641 120.16ZM217.035 112.4C217.302 112.4 217.56 112.459 217.811 112.576C218.062 112.693 218.267 112.92 218.427 113.256C218.587 113.592 218.667 114.083 218.667 114.728V121H217.419V114.944C217.419 114.416 217.387 114.035 217.323 113.8C217.259 113.565 217.075 113.448 216.771 113.448C216.52 113.448 216.27 113.528 216.019 113.688C215.768 113.843 215.528 114.099 215.299 114.456V121H214.043V114.944C214.043 114.416 214.011 114.035 213.947 113.8C213.883 113.565 213.699 113.448 213.395 113.448C213.134 113.448 212.88 113.528 212.635 113.688C212.39 113.843 212.152 114.099 211.923 114.456V121H210.683V112.576H211.739L211.819 113.552C212.048 113.227 212.304 112.955 212.587 112.736C212.875 112.512 213.23 112.4 213.651 112.4C213.971 112.4 214.272 112.477 214.555 112.632C214.838 112.781 215.046 113.075 215.179 113.512C215.408 113.181 215.667 112.915 215.955 112.712C216.243 112.504 216.603 112.4 217.035 112.4ZM220.933 117.264C220.97 118.24 221.226 118.952 221.701 119.4C222.181 119.843 222.746 120.064 223.397 120.064C223.829 120.064 224.218 120 224.565 119.872C224.911 119.744 225.271 119.555 225.645 119.304L226.277 120.192C225.887 120.501 225.439 120.744 224.933 120.92C224.426 121.096 223.909 121.184 223.381 121.184C222.559 121.184 221.861 121 221.285 120.632C220.714 120.264 220.277 119.752 219.973 119.096C219.674 118.435 219.525 117.669 219.525 116.8C219.525 115.947 219.674 115.189 219.973 114.528C220.277 113.867 220.703 113.347 221.253 112.968C221.807 112.589 222.458 112.4 223.205 112.4C224.266 112.4 225.101 112.768 225.709 113.504C226.322 114.24 226.629 115.248 226.629 116.528C226.629 116.672 226.623 116.808 226.613 116.936C226.607 117.064 226.602 117.173 226.597 117.264H220.933ZM223.221 113.504C222.597 113.504 222.074 113.725 221.653 114.168C221.231 114.611 220.994 115.296 220.941 116.224H225.333C225.317 115.323 225.119 114.645 224.741 114.192C224.362 113.733 223.855 113.504 223.221 113.504ZM228.271 121V112.576H229.415L229.519 113.744C229.86 113.312 230.287 112.981 230.799 112.752C231.311 112.517 231.812 112.4 232.303 112.4C233.129 112.4 233.729 112.619 234.103 113.056C234.481 113.493 234.671 114.101 234.671 114.88V121H233.327V115.872C233.327 115.296 233.295 114.832 233.231 114.48C233.167 114.128 233.031 113.869 232.823 113.704C232.62 113.539 232.308 113.456 231.887 113.456C231.556 113.456 231.244 113.528 230.951 113.672C230.663 113.816 230.404 113.997 230.175 114.216C229.951 114.429 229.764 114.645 229.615 114.864V121H228.271ZM237.72 117.264C237.758 118.24 238.014 118.952 238.488 119.4C238.968 119.843 239.534 120.064 240.184 120.064C240.616 120.064 241.006 120 241.352 119.872C241.699 119.744 242.059 119.555 242.432 119.304L243.064 120.192C242.675 120.501 242.227 120.744 241.72 120.92C241.214 121.096 240.696 121.184 240.168 121.184C239.347 121.184 238.648 121 238.072 120.632C237.502 120.264 237.064 119.752 236.76 119.096C236.462 118.435 236.312 117.669 236.312 116.8C236.312 115.947 236.462 115.189 236.76 114.528C237.064 113.867 237.491 113.347 238.04 112.968C238.595 112.589 239.246 112.4 239.992 112.4C241.054 112.4 241.888 112.768 242.496 113.504C243.11 114.24 243.416 115.248 243.416 116.528C243.416 116.672 243.411 116.808 243.4 116.936C243.395 117.064 243.39 117.173 243.384 117.264H237.72ZM240.008 113.504C239.384 113.504 238.862 113.725 238.44 114.168C238.019 114.611 237.782 115.296 237.728 116.224H242.12C242.104 115.323 241.907 114.645 241.528 114.192C241.15 113.733 240.643 113.504 240.008 113.504ZM246.738 119.856H251.426L251.25 121H245.09V119.984L249.762 113.744H245.458V112.576H251.378V113.616L246.738 119.856ZM254.508 117.264C254.545 118.24 254.801 118.952 255.276 119.4C255.756 119.843 256.321 120.064 256.972 120.064C257.404 120.064 257.793 120 258.14 119.872C258.486 119.744 258.846 119.555 259.22 119.304L259.852 120.192C259.462 120.501 259.014 120.744 258.508 120.92C258.001 121.096 257.484 121.184 256.956 121.184C256.134 121.184 255.436 121 254.86 120.632C254.289 120.264 253.852 119.752 253.548 119.096C253.249 118.435 253.1 117.669 253.1 116.8C253.1 115.947 253.249 115.189 253.548 114.528C253.852 113.867 254.278 113.347 254.828 112.968C255.382 112.589 256.033 112.4 256.78 112.4C257.841 112.4 258.676 112.768 259.284 113.504C259.897 114.24 260.204 115.248 260.204 116.528C260.204 116.672 260.198 116.808 260.188 116.936C260.182 117.064 260.177 117.173 260.172 117.264H254.508ZM256.796 113.504C256.172 113.504 255.649 113.725 255.228 114.168C254.806 114.611 254.569 115.296 254.516 116.224H258.908C258.892 115.323 258.694 114.645 258.316 114.192C257.937 113.733 257.43 113.504 256.796 113.504ZM264.71 120.072C265.36 120.072 265.872 119.952 266.246 119.712C266.619 119.472 266.806 119.147 266.806 118.736C266.806 118.485 266.758 118.267 266.662 118.08C266.571 117.893 266.382 117.725 266.094 117.576C265.806 117.421 265.363 117.269 264.766 117.12C264.184 116.976 263.678 116.811 263.246 116.624C262.819 116.432 262.486 116.184 262.246 115.88C262.011 115.576 261.894 115.181 261.894 114.696C261.894 113.987 262.19 113.427 262.782 113.016C263.374 112.605 264.144 112.4 265.094 112.4C265.771 112.4 266.36 112.491 266.862 112.672C267.368 112.853 267.798 113.072 268.15 113.328L267.558 114.24C267.243 114.021 266.891 113.843 266.502 113.704C266.118 113.56 265.654 113.488 265.11 113.488C264.448 113.488 263.979 113.592 263.702 113.8C263.424 114.003 263.286 114.267 263.286 114.592C263.286 114.843 263.352 115.051 263.486 115.216C263.624 115.376 263.856 115.52 264.182 115.648C264.507 115.776 264.955 115.917 265.526 116.072C266.075 116.221 266.555 116.397 266.966 116.6C267.376 116.803 267.694 117.069 267.918 117.4C268.147 117.725 268.262 118.149 268.262 118.672C268.262 119.269 268.091 119.755 267.75 120.128C267.408 120.496 266.966 120.765 266.422 120.936C265.883 121.101 265.312 121.184 264.71 121.184C263.947 121.184 263.296 121.075 262.758 120.856C262.224 120.632 261.776 120.363 261.414 120.048L262.182 119.16C262.512 119.432 262.891 119.653 263.318 119.824C263.75 119.989 264.214 120.072 264.71 120.072ZM46.792 133.808C47.448 133.808 48.0107 133.925 48.48 134.16C48.9547 134.395 49.3173 134.701 49.568 135.08C49.8187 135.453 49.944 135.851 49.944 136.272C49.944 136.784 49.848 137.203 49.656 137.528C49.464 137.848 49.224 138.12 48.936 138.344C48.648 138.568 48.36 138.784 48.072 138.992C47.7893 139.2 47.5493 139.445 47.352 139.728C47.16 140.011 47.064 140.373 47.064 140.816V141.368H45.712V140.736C45.712 140.219 45.8053 139.789 45.992 139.448C46.184 139.107 46.4213 138.816 46.704 138.576C46.9867 138.336 47.2693 138.115 47.552 137.912C47.8347 137.704 48.072 137.48 48.264 137.24C48.456 137 48.552 136.704 48.552 136.352C48.552 135.893 48.3707 135.541 48.008 135.296C47.6453 135.051 47.1947 134.928 46.656 134.928C46.2773 134.928 45.888 135.021 45.488 135.208C45.088 135.389 44.7227 135.685 44.392 136.096L43.432 135.392C43.896 134.843 44.4107 134.443 44.976 134.192C45.5413 133.936 46.1467 133.808 46.792 133.808ZM46.424 143.04C46.7333 143.04 46.992 143.144 47.2 143.352C47.408 143.56 47.512 143.811 47.512 144.104C47.512 144.403 47.408 144.659 47.2 144.872C46.992 145.08 46.7333 145.184 46.424 145.184C46.1253 145.184 45.8747 145.08 45.672 144.872C45.4693 144.659 45.368 144.403 45.368 144.104C45.368 143.811 45.4693 143.56 45.672 143.352C45.8747 143.144 46.1253 143.04 46.424 143.04Z" fill="#8BC34A"/>
<path d="M67.6275 139.44C67.6275 140.592 67.4782 141.533 67.1795 142.264C66.8808 142.989 66.4862 143.552 65.9955 143.952C65.5048 144.347 64.9662 144.621 64.3795 144.776C63.7982 144.925 63.2222 145 62.6515 145H60.1235V133.984H62.4755C63.1208 133.984 63.7475 134.056 64.3555 134.2C64.9688 134.344 65.5208 134.611 66.0115 135C66.5075 135.384 66.8995 135.933 67.1875 136.648C67.4808 137.363 67.6275 138.293 67.6275 139.44ZM66.1475 139.44C66.1475 138.48 66.0462 137.712 65.8435 137.136C65.6408 136.56 65.3742 136.128 65.0435 135.84C64.7128 135.552 64.3502 135.36 63.9555 135.264C63.5662 135.168 63.1822 135.12 62.8035 135.12H61.5075V143.888H62.8195C63.2142 143.888 63.6088 143.827 64.0035 143.704C64.3982 143.576 64.7555 143.352 65.0755 143.032C65.4008 142.712 65.6595 142.261 65.8515 141.68C66.0488 141.099 66.1475 140.352 66.1475 139.44ZM71.9973 136.4C73.1866 136.4 74.0853 136.797 74.6933 137.592C75.3013 138.387 75.6053 139.451 75.6053 140.784C75.6053 141.643 75.4666 142.403 75.1892 143.064C74.9119 143.725 74.5039 144.245 73.9653 144.624C73.4266 144.997 72.7652 145.184 71.9812 145.184C70.7919 145.184 69.8906 144.784 69.2772 143.984C68.6639 143.184 68.3572 142.123 68.3572 140.8C68.3572 139.936 68.4959 139.173 68.7732 138.512C69.0506 137.845 69.4586 137.328 69.9972 136.96C70.5412 136.587 71.2079 136.4 71.9973 136.4ZM71.9973 137.496C71.2719 137.496 70.7226 137.765 70.3492 138.304C69.9812 138.843 69.7972 139.675 69.7972 140.8C69.7972 141.915 69.9786 142.741 70.3412 143.28C70.7092 143.813 71.2559 144.08 71.9812 144.08C72.7066 144.08 73.2506 143.811 73.6132 143.272C73.9812 142.733 74.1652 141.904 74.1652 140.784C74.1652 139.664 73.9839 138.837 73.6213 138.304C73.2586 137.765 72.7173 137.496 71.9973 137.496ZM92.5848 136.576L89.6248 145.056C89.4274 145.627 89.1768 146.149 88.8728 146.624C88.5741 147.099 88.1821 147.491 87.6968 147.8C87.2168 148.115 86.6061 148.309 85.8648 148.384L85.6568 147.312C86.2381 147.216 86.6968 147.069 87.0328 146.872C87.3688 146.675 87.6328 146.421 87.8248 146.112C88.0221 145.808 88.1954 145.437 88.3448 145H87.8968L84.9528 136.576H86.3928L88.8088 143.976L91.1928 136.576H92.5848ZM97.1785 136.4C98.3678 136.4 99.2665 136.797 99.8745 137.592C100.482 138.387 100.786 139.451 100.786 140.784C100.786 141.643 100.648 142.403 100.37 143.064C100.093 143.725 99.6852 144.245 99.1465 144.624C98.6078 144.997 97.9465 145.184 97.1625 145.184C95.9732 145.184 95.0718 144.784 94.4585 143.984C93.8452 143.184 93.5385 142.123 93.5385 140.8C93.5385 139.936 93.6772 139.173 93.9545 138.512C94.2318 137.845 94.6398 137.328 95.1785 136.96C95.7225 136.587 96.3892 136.4 97.1785 136.4ZM97.1785 137.496C96.4532 137.496 95.9038 137.765 95.5305 138.304C95.1625 138.843 94.9785 139.675 94.9785 140.8C94.9785 141.915 95.1598 142.741 95.5225 143.28C95.8905 143.813 96.4372 144.08 97.1625 144.08C97.8878 144.08 98.4318 143.811 98.7945 143.272C99.1625 142.733 99.3465 141.904 99.3465 140.784C99.3465 139.664 99.1652 138.837 98.8025 138.304C98.4398 137.765 97.8985 137.496 97.1785 137.496ZM103.708 136.576V142.544C103.708 143.099 103.823 143.499 104.052 143.744C104.282 143.989 104.639 144.112 105.124 144.112C105.588 144.112 106.026 143.981 106.436 143.72C106.852 143.453 107.175 143.139 107.404 142.776V136.576H108.748V145H107.604L107.492 143.864C107.162 144.291 106.751 144.619 106.26 144.848C105.775 145.072 105.287 145.184 104.796 145.184C103.98 145.184 103.37 144.968 102.964 144.536C102.564 144.099 102.364 143.488 102.364 142.704V136.576H103.708ZM125.392 145H123.488L122.4 138.816L121.216 145H119.36L117.824 136.576H119.2L120.272 144.168L121.616 137.648H123.208L124.48 144.168L125.552 136.576H126.864L125.392 145ZM130.738 132.632C131.036 132.632 131.274 132.723 131.45 132.904C131.631 133.085 131.722 133.307 131.722 133.568C131.722 133.84 131.631 134.069 131.45 134.256C131.274 134.437 131.036 134.528 130.738 134.528C130.455 134.528 130.223 134.437 130.042 134.256C129.86 134.069 129.77 133.84 129.77 133.568C129.77 133.307 129.86 133.085 130.042 132.904C130.223 132.723 130.455 132.632 130.738 132.632ZM131.81 136.576V143.936H134.186V145H127.866V143.936H130.466V137.64H127.946V136.576H131.81ZM138.803 144.072C139.454 144.072 139.966 143.952 140.339 143.712C140.713 143.472 140.899 143.147 140.899 142.736C140.899 142.485 140.851 142.267 140.755 142.08C140.665 141.893 140.475 141.725 140.187 141.576C139.899 141.421 139.457 141.269 138.859 141.12C138.278 140.976 137.771 140.811 137.339 140.624C136.913 140.432 136.579 140.184 136.339 139.88C136.105 139.576 135.987 139.181 135.987 138.696C135.987 137.987 136.283 137.427 136.875 137.016C137.467 136.605 138.238 136.4 139.187 136.4C139.865 136.4 140.454 136.491 140.955 136.672C141.462 136.853 141.891 137.072 142.243 137.328L141.651 138.24C141.337 138.021 140.985 137.843 140.595 137.704C140.211 137.56 139.747 137.488 139.203 137.488C138.542 137.488 138.073 137.592 137.795 137.8C137.518 138.003 137.379 138.267 137.379 138.592C137.379 138.843 137.446 139.051 137.579 139.216C137.718 139.376 137.95 139.52 138.275 139.648C138.601 139.776 139.049 139.917 139.619 140.072C140.169 140.221 140.649 140.397 141.059 140.6C141.47 140.803 141.787 141.069 142.011 141.4C142.241 141.725 142.355 142.149 142.355 142.672C142.355 143.269 142.185 143.755 141.843 144.128C141.502 144.496 141.059 144.765 140.515 144.936C139.977 145.101 139.406 145.184 138.803 145.184C138.041 145.184 137.39 145.075 136.851 144.856C136.318 144.632 135.87 144.363 135.507 144.048L136.275 143.16C136.606 143.432 136.985 143.653 137.411 143.824C137.843 143.989 138.307 144.072 138.803 144.072ZM145.677 133.056V137.728C146.008 137.291 146.413 136.96 146.893 136.736C147.378 136.512 147.869 136.4 148.365 136.4C149.186 136.4 149.786 136.619 150.165 137.056C150.544 137.493 150.733 138.101 150.733 138.88V145H149.389V138.912C149.389 138.405 149.272 138.037 149.037 137.808C148.802 137.573 148.434 137.456 147.933 137.456C147.613 137.456 147.309 137.528 147.021 137.672C146.733 137.816 146.474 137.995 146.245 138.208C146.016 138.421 145.826 138.64 145.677 138.864V145H144.333V133.2L145.677 133.056ZM167.808 144.576C167.52 144.768 167.171 144.917 166.76 145.024C166.35 145.131 165.947 145.184 165.552 145.184C164.646 145.184 163.947 144.947 163.456 144.472C162.966 143.997 162.72 143.387 162.72 142.64V137.616H160.784V136.576H162.72V134.664L164.064 134.504V136.576H166.976L166.816 137.616H164.064V142.624C164.064 143.093 164.187 143.451 164.432 143.696C164.683 143.941 165.096 144.064 165.672 144.064C165.987 144.064 166.278 144.027 166.544 143.952C166.811 143.877 167.059 143.781 167.288 143.664L167.808 144.576ZM172.722 136.4C173.912 136.4 174.81 136.797 175.418 137.592C176.026 138.387 176.33 139.451 176.33 140.784C176.33 141.643 176.192 142.403 175.914 143.064C175.637 143.725 175.229 144.245 174.69 144.624C174.152 144.997 173.49 145.184 172.706 145.184C171.517 145.184 170.616 144.784 170.002 143.984C169.389 143.184 169.082 142.123 169.082 140.8C169.082 139.936 169.221 139.173 169.498 138.512C169.776 137.845 170.184 137.328 170.722 136.96C171.266 136.587 171.933 136.4 172.722 136.4ZM172.722 137.496C171.997 137.496 171.448 137.765 171.074 138.304C170.706 138.843 170.522 139.675 170.522 140.8C170.522 141.915 170.704 142.741 171.066 143.28C171.434 143.813 171.981 144.08 172.706 144.08C173.432 144.08 173.976 143.811 174.338 143.272C174.706 142.733 174.89 141.904 174.89 140.784C174.89 139.664 174.709 138.837 174.346 138.304C173.984 137.765 173.442 137.496 172.722 137.496ZM190.11 144.024C190.531 144.024 190.923 143.957 191.286 143.824C191.654 143.685 191.992 143.507 192.302 143.288L192.958 144.168C192.59 144.483 192.147 144.731 191.63 144.912C191.112 145.093 190.606 145.184 190.11 145.184C189.272 145.184 188.558 145.005 187.966 144.648C187.379 144.285 186.931 143.779 186.622 143.128C186.312 142.472 186.158 141.704 186.158 140.824C186.158 139.981 186.312 139.227 186.622 138.56C186.931 137.893 187.382 137.368 187.974 136.984C188.566 136.595 189.283 136.4 190.126 136.4C191.198 136.4 192.136 136.725 192.942 137.376L192.286 138.272C191.555 137.771 190.83 137.52 190.11 137.52C189.384 137.52 188.787 137.795 188.318 138.344C187.848 138.888 187.614 139.715 187.614 140.824C187.614 141.949 187.848 142.765 188.318 143.272C188.787 143.773 189.384 144.024 190.11 144.024ZM194.775 145V143.968H196.087V137.608H194.775V136.576H197.111L197.359 138.568C197.685 137.875 198.079 137.339 198.543 136.96C199.007 136.581 199.621 136.392 200.383 136.392C200.618 136.392 200.826 136.411 201.007 136.448C201.194 136.48 201.383 136.523 201.575 136.576L201.383 139.424H200.279V137.632C200.258 137.632 200.234 137.632 200.207 137.632C198.917 137.632 197.991 138.555 197.431 140.4V143.968H199.143V145H194.775ZM204.145 141.264C204.183 142.24 204.439 142.952 204.913 143.4C205.393 143.843 205.959 144.064 206.609 144.064C207.041 144.064 207.431 144 207.777 143.872C208.124 143.744 208.484 143.555 208.857 143.304L209.489 144.192C209.1 144.501 208.652 144.744 208.145 144.92C207.639 145.096 207.121 145.184 206.593 145.184C205.772 145.184 205.073 145 204.497 144.632C203.927 144.264 203.489 143.752 203.185 143.096C202.887 142.435 202.737 141.669 202.737 140.8C202.737 139.947 202.887 139.189 203.185 138.528C203.489 137.867 203.916 137.347 204.465 136.968C205.02 136.589 205.671 136.4 206.417 136.4C207.479 136.4 208.313 136.768 208.921 137.504C209.535 138.24 209.841 139.248 209.841 140.528C209.841 140.672 209.836 140.808 209.825 140.936C209.82 141.064 209.815 141.173 209.809 141.264H204.145ZM206.433 137.504C205.809 137.504 205.287 137.725 204.865 138.168C204.444 138.611 204.207 139.296 204.153 140.224H208.545C208.529 139.323 208.332 138.645 207.953 138.192C207.575 137.733 207.068 137.504 206.433 137.504ZM217.515 143.16C217.515 143.501 217.571 143.749 217.683 143.904C217.795 144.059 217.968 144.171 218.203 144.24L217.875 145.184C217.512 145.136 217.195 145.021 216.923 144.84C216.651 144.653 216.454 144.373 216.331 144C216.027 144.389 215.646 144.685 215.187 144.888C214.734 145.085 214.235 145.184 213.691 145.184C212.848 145.184 212.184 144.947 211.699 144.472C211.214 143.997 210.971 143.368 210.971 142.584C210.971 141.715 211.31 141.048 211.987 140.584C212.664 140.12 213.643 139.888 214.923 139.888H216.163V139.184C216.163 138.576 215.984 138.147 215.627 137.896C215.275 137.64 214.784 137.512 214.155 137.512C213.878 137.512 213.552 137.547 213.179 137.616C212.806 137.68 212.4 137.789 211.963 137.944L211.611 136.928C212.123 136.736 212.606 136.6 213.059 136.52C213.518 136.44 213.952 136.4 214.363 136.4C215.408 136.4 216.195 136.645 216.723 137.136C217.251 137.627 217.515 138.288 217.515 139.12V143.16ZM214.035 144.16C214.451 144.16 214.846 144.056 215.219 143.848C215.598 143.635 215.912 143.341 216.163 142.968V140.8H214.947C214.019 140.8 213.363 140.96 212.979 141.28C212.6 141.6 212.411 142.029 212.411 142.568C212.411 143.629 212.952 144.16 214.035 144.16ZM226.565 144.576C226.277 144.768 225.927 144.917 225.517 145.024C225.106 145.131 224.703 145.184 224.309 145.184C223.402 145.184 222.703 144.947 222.213 144.472C221.722 143.997 221.477 143.387 221.477 142.64V137.616H219.541V136.576H221.477V134.664L222.821 134.504V136.576H225.733L225.573 137.616H222.821V142.624C222.821 143.093 222.943 143.451 223.189 143.696C223.439 143.941 223.853 144.064 224.429 144.064C224.743 144.064 225.034 144.027 225.301 143.952C225.567 143.877 225.815 143.781 226.045 143.664L226.565 144.576ZM229.327 141.264C229.364 142.24 229.62 142.952 230.095 143.4C230.575 143.843 231.14 144.064 231.791 144.064C232.223 144.064 232.612 144 232.959 143.872C233.305 143.744 233.665 143.555 234.039 143.304L234.671 144.192C234.281 144.501 233.833 144.744 233.327 144.92C232.82 145.096 232.303 145.184 231.775 145.184C230.953 145.184 230.255 145 229.679 144.632C229.108 144.264 228.671 143.752 228.367 143.096C228.068 142.435 227.919 141.669 227.919 140.8C227.919 139.947 228.068 139.189 228.367 138.528C228.671 137.867 229.097 137.347 229.647 136.968C230.201 136.589 230.852 136.4 231.599 136.4C232.66 136.4 233.495 136.768 234.103 137.504C234.716 138.24 235.023 139.248 235.023 140.528C235.023 140.672 235.017 140.808 235.007 140.936C235.001 141.064 234.996 141.173 234.991 141.264H229.327ZM231.615 137.504C230.991 137.504 230.468 137.725 230.047 138.168C229.625 138.611 229.388 139.296 229.335 140.224H233.727C233.711 139.323 233.513 138.645 233.135 138.192C232.756 137.733 232.249 137.504 231.615 137.504ZM248.25 132.632C248.549 132.632 248.786 132.723 248.962 132.904C249.143 133.085 249.234 133.307 249.234 133.568C249.234 133.84 249.143 134.069 248.962 134.256C248.786 134.437 248.549 134.528 248.25 134.528C247.967 134.528 247.735 134.437 247.554 134.256C247.373 134.069 247.282 133.84 247.282 133.568C247.282 133.307 247.373 133.085 247.554 132.904C247.735 132.723 247.967 132.632 248.25 132.632ZM249.322 136.576V143.936H251.698V145H245.378V143.936H247.978V137.64H245.458V136.576H249.322ZM260.14 144.576C259.852 144.768 259.502 144.917 259.092 145.024C258.681 145.131 258.278 145.184 257.884 145.184C256.977 145.184 256.278 144.947 255.788 144.472C255.297 143.997 255.052 143.387 255.052 142.64V137.616H253.116V136.576H255.052V134.664L256.396 134.504V136.576H259.308L259.148 137.616H256.396V142.624C256.396 143.093 256.518 143.451 256.764 143.696C257.014 143.941 257.428 144.064 258.004 144.064C258.318 144.064 258.609 144.027 258.876 143.952C259.142 143.877 259.39 143.781 259.62 143.664L260.14 144.576ZM265.03 133.808C265.686 133.808 266.248 133.925 266.718 134.16C267.192 134.395 267.555 134.701 267.806 135.08C268.056 135.453 268.182 135.851 268.182 136.272C268.182 136.784 268.086 137.203 267.894 137.528C267.702 137.848 267.462 138.12 267.174 138.344C266.886 138.568 266.598 138.784 266.31 138.992C266.027 139.2 265.787 139.445 265.59 139.728C265.398 140.011 265.302 140.373 265.302 140.816V141.368H263.95V140.736C263.95 140.219 264.043 139.789 264.23 139.448C264.422 139.107 264.659 138.816 264.942 138.576C265.224 138.336 265.507 138.115 265.79 137.912C266.072 137.704 266.31 137.48 266.502 137.24C266.694 137 266.79 136.704 266.79 136.352C266.79 135.893 266.608 135.541 266.246 135.296C265.883 135.051 265.432 134.928 264.894 134.928C264.515 134.928 264.126 135.021 263.726 135.208C263.326 135.389 262.96 135.685 262.63 136.096L261.67 135.392C262.134 134.843 262.648 134.443 263.214 134.192C263.779 133.936 264.384 133.808 265.03 133.808ZM264.662 143.04C264.971 143.04 265.23 143.144 265.438 143.352C265.646 143.56 265.75 143.811 265.75 144.104C265.75 144.403 265.646 144.659 265.438 144.872C265.23 145.08 264.971 145.184 264.662 145.184C264.363 145.184 264.112 145.08 263.91 144.872C263.707 144.659 263.606 144.403 263.606 144.104C263.606 143.811 263.707 143.56 263.91 143.352C264.112 143.144 264.363 143.04 264.662 143.04Z" fill="#FFB100"/>
<defs>
<filter id="filter0_d" x="0" y="0" width="589" height="189" filterUnits="userSpaceOnUse" color-interpolation-filters="sRGB">
<feFlood flood-opacity="0" result="BackgroundImageFix"/>
<feColorMatrix in="SourceAlpha" type="matrix" values="0 0 0 0 0 0 0 0 0 0 0 0 0 0 0 0 0 0 127 0"/>
<feOffset dy="3"/>
<feGaussianBlur stdDeviation="4"/>
<feColorMatrix type="matrix" values="0 0 0 0 0 0 0 0 0 0 0 0 0 0 0 0 0 0 0.15 0"/>
<feBlend mode="normal" in2="BackgroundImageFix" result="effect1_dropShadow"/>
<feBlend mode="normal" in="SourceGraphic" in2="effect1_dropShadow" result="shape"/>
</filter>
<clipPath id="clip0">
<rect width="573" height="133" fill="white" transform="translate(8 45)"/>
</clipPath>
</defs>
</svg>
